<?xml version="1.0" standalone="no"?>
<!DOCTYPE svg PUBLIC "-//W3C//DTD SVG 20010904//EN"
 "http://www.w3.org/TR/2001/REC-SVG-20010904/DTD/svg10.dtd">
<svg version="1.0" xmlns="http://www.w3.org/2000/svg"
 width="360.000000pt" height="360.000000pt" viewBox="0 0 360.000000 360.000000"
 preserveAspectRatio="xMidYMid meet">

<g transform="translate(0.000000,360.000000) scale(0.100000,-0.100000)"
fill="#000000" stroke="none">
<path d="M1970 2612 c0 -5 -9 -19 -20 -32 -21 -24 -15 -24 -268 -5 -76 6 -108
-6 -96 -38 3 -8 0 -18 -6 -22 -7 -4 -2 -13 13 -25 19 -15 47 -19 153 -24 152
-6 174 -8 174 -18 0 -5 0 -18 0 -31 0 -22 -3 -23 -92 -22 -51 1 -118 5 -148 9
-46 6 -60 4 -83 -12 -17 -12 -24 -22 -18 -26 5 -4 8 -13 4 -22 -3 -8 4 -23 18
-34 20 -18 32 -20 108 -15 129 8 206 -2 243 -33 l30 -26 -37 -13 c-20 -7 -54
-28 -75 -47 -21 -19 -62 -50 -91 -69 -30 -19 -63 -44 -74 -56 -26 -30 -85 -55
-99 -41 -5 5 -28 10 -49 10 -30 0 -46 -6 -63 -26 -13 -14 -24 -29 -24 -35 0
-5 -6 -10 -12 -10 -7 -1 -26 -3 -43 -5 -48 -5 -186 -13 -236 -13 -51 -1 -84
-23 -84 -56 0 -29 44 -57 75 -49 29 8 60 11 193 20 l99 6 -4 -28 c-3 -27 -7
-30 -58 -36 -78 -11 -189 -20 -228 -18 -39 1 -87 -31 -71 -47 8 -8 7 -13 0
-18 -8 -4 -3 -14 14 -27 20 -15 34 -19 58 -13 18 3 43 7 57 9 14 1 34 5 45 9
11 3 62 8 113 11 84 5 93 4 88 -12 -17 -59 -17 -92 0 -121 10 -17 24 -29 31
-27 7 3 13 0 13 -7 0 -7 3 -21 6 -33 5 -19 1 -21 -48 -23 -44 -1 -58 -7 -85
-33 -18 -18 -36 -41 -39 -52 -4 -12 -12 -28 -19 -36 -7 -8 -16 -29 -19 -46 -4
-16 -29 -58 -57 -92 -43 -54 -54 -62 -84 -62 -27 0 -39 8 -66 41 -27 35 -31
44 -21 60 20 31 14 59 -23 103 -36 45 -88 66 -195 80 -49 7 -51 6 -94 -41 -28
-31 -29 -33 -12 -52 20 -22 16 -43 -15 -81 l-20 -25 7 49 c6 45 5 47 -12 38
-36 -19 -162 -168 -227 -267 -17 -27 -31 -69 -42 -131 -8 -53 -32 -131 -54
-185 -37 -87 -42 -94 -70 -97 -23 -2 -31 -8 -31 -23 0 -11 -7 -19 -17 -19 -32
-1 -51 -25 -66 -84 -16 -58 -16 -58 6 -52 12 3 30 6 40 6 10 0 17 8 17 19 0
11 4 22 9 25 5 3 9 0 8 -7 -1 -35 5 -47 23 -47 11 0 20 7 20 15 0 8 5 15 10
15 6 0 10 -7 10 -15 0 -8 3 -15 8 -15 4 0 6 34 4 75 -4 71 -3 75 17 75 16 0
21 -6 21 -24 0 -14 5 -28 10 -31 6 -4 7 -11 4 -17 -5 -7 10 -9 46 -6 48 5 52
4 34 -9 -10 -7 -20 -23 -20 -33 -1 -16 6 -20 35 -21 70 -2 106 3 122 17 8 8
23 14 32 14 20 0 31 17 15 23 -9 4 -10 8 -2 14 16 12 24 52 12 59 -6 4 -14 0
-19 -7 -6 -9 -9 -10 -9 -2 0 6 5 15 11 19 8 4 2 12 -15 21 -14 7 -26 18 -26
24 0 6 -7 3 -16 -6 -9 -9 -22 -14 -29 -11 -8 3 -25 -6 -40 -20 -22 -20 -26
-21 -23 -7 2 10 26 29 55 43 84 41 110 72 118 144 4 33 12 72 17 86 7 19 73
129 95 159 2 3 11 -3 21 -13 16 -17 16 -18 -3 -12 -17 5 -27 -5 -60 -62 -33
-58 -72 -188 -60 -200 5 -5 90 111 121 164 14 23 26 55 28 72 3 17 9 39 15 50
14 26 15 54 1 32 -5 -8 -13 -11 -17 -6 -4 5 -2 11 5 13 6 3 10 9 7 14 -4 5
-17 -3 -31 -19 l-25 -27 16 26 c20 34 15 216 -7 230 -7 5 -8 9 -3 9 26 0 35
-27 35 -102 0 -88 17 -128 54 -128 25 0 76 -48 76 -71 0 -8 4 -19 8 -25 5 -5
17 -31 27 -59 21 -56 29 -65 102 -100 44 -21 58 -24 98 -16 58 11 79 30 220
210 61 77 116 140 123 140 8 1 28 7 45 15 18 8 56 16 85 19 l52 4 0 -43 c0
-47 -4 -76 -51 -374 -17 -107 -34 -244 -39 -304 -5 -60 -13 -112 -18 -115 -16
-11 -22 -44 -11 -57 9 -11 7 -20 -5 -39 -20 -31 -21 -85 -1 -85 20 0 38 -37
33 -71 -3 -18 1 -34 11 -42 23 -20 48 -27 49 -14 0 7 3 22 6 35 3 15 0 25 -9
29 -33 12 -11 18 65 18 l80 0 0 -32 0 -33 35 20 c20 11 42 20 49 20 7 0 19 7
26 14 6 8 30 16 53 18 42 3 42 3 45 47 3 35 0 42 -11 38 -10 -4 -14 2 -14 19
0 13 3 24 8 24 15 0 10 38 -7 55 -22 21 -34 3 -28 -40 2 -16 2 -24 -2 -17 -3
6 -10 10 -14 7 -5 -3 -12 11 -16 32 -5 25 -3 38 5 41 6 2 9 8 5 13 -3 5 2 9
10 9 9 0 16 -4 16 -10 0 -25 18 -6 43 45 23 47 27 69 28 143 l0 87 58 47 c62
50 71 70 71 154 0 42 -12 58 -24 32 -8 -21 -5 51 6 129 8 54 16 77 34 94 13
12 24 27 24 33 1 21 46 43 100 49 30 3 65 9 76 13 18 5 44 -17 150 -124 140
-140 185 -167 260 -155 49 8 99 58 114 113 7 25 17 54 22 66 5 12 8 32 6 45
-2 17 2 24 15 24 9 0 26 13 36 28 l18 28 6 -35 c8 -51 91 -161 153 -202 15
-11 19 -22 16 -48 -4 -30 -7 -34 -31 -33 -24 2 -26 -1 -26 -37 0 -38 1 -40 50
-56 99 -34 95 -33 95 -11 0 15 4 19 17 14 11 -4 12 -8 5 -11 -29 -9 -7 -19 49
-20 41 -1 68 3 85 14 30 20 33 55 4 47 -22 -6 -27 -22 -7 -24 6 -1 -1 -4 -18
-8 -35 -8 -46 -4 -25 9 13 9 13 10 0 11 -8 0 3 6 25 13 29 8 40 17 39 31 -3
55 -5 65 -16 65 -19 0 -56 105 -69 194 -10 68 -18 88 -66 159 -30 45 -86 114
-126 154 -69 70 -73 72 -141 84 -97 16 -135 4 -175 -59 -17 -27 -31 -52 -31
-56 0 -5 9 -21 21 -37 l20 -29 -43 -54 c-56 -71 -84 -76 -127 -25 -17 21 -34
52 -37 68 -4 17 -13 36 -22 43 -13 11 -15 9 -9 -19 8 -43 -15 -107 -50 -138
-24 -22 -35 -25 -73 -20 -75 8 -79 9 -75 13 2 2 -1 16 -7 31 -5 14 -9 58 -9
96 1 65 3 72 31 98 19 17 42 27 63 28 30 1 31 1 7 9 -14 4 -53 8 -86 9 -102 2
-158 20 -104 34 11 3 20 12 20 21 0 15 21 21 60 18 28 -2 135 21 150 32 8 7
42 20 75 30 107 32 141 53 154 96 6 21 8 45 5 54 -4 11 -1 16 10 16 8 0 23 11
32 25 14 22 14 26 -2 55 -10 16 -21 30 -25 30 -4 0 -13 16 -19 35 -6 19 -25
44 -42 56 -27 20 -39 21 -115 16 l-84 -6 -30 32 c-24 26 -29 38 -25 67 7 44
-16 70 -59 70 -36 0 -50 -12 -60 -51 -4 -17 -1 -30 9 -38 13 -11 16 -11 16 0
1 10 5 9 14 -4 11 -14 15 -15 19 -5 3 7 6 2 6 -11 1 -23 0 -24 -19 -6 -14 12
-20 14 -20 5 0 -7 -21 8 -46 34 -29 28 -62 51 -88 58 -22 6 -58 27 -79 45 -22
20 -48 33 -65 33 -26 1 -26 1 -8 15 11 8 35 15 54 15 19 0 46 7 62 16 31 19
53 75 44 112 -5 18 -2 22 14 22 45 0 46 45 2 95 -10 11 -20 31 -23 45 -8 34
-50 56 -120 65 -42 5 -62 3 -74 -6 -13 -11 -17 -10 -28 4 -9 12 -27 17 -64 17
-28 0 -51 -4 -51 -8z m-152 -99 c-10 -2 -26 -2 -35 0 -10 3 -2 5 17 5 19 0 27
-2 18 -5z m7 -163 c4 -6 -7 -10 -25 -10 -18 0 -29 4 -25 10 3 6 15 10 25 10
10 0 22 -4 25 -10z m375 -20 c0 -5 -4 -10 -10 -10 -5 0 -10 5 -10 10 0 6 5 10
10 10 6 0 10 -4 10 -10z m-3 -145 c4 -5 3 -7 -2 -3 -4 4 -15 2 -23 -5 -10 -7
-13 -8 -9 -1 4 7 -2 12 -18 12 -14 0 -23 -3 -21 -7 2 -3 -7 -6 -20 -6 -13 0
-24 4 -24 8 0 5 -4 6 -8 3 -4 -2 -14 0 -22 5 -10 6 11 9 63 7 43 -1 81 -7 84
-13z m19 -77 c9 -6 9 -15 0 -33 -9 -21 -17 -25 -56 -24 -55 2 -87 16 -71 32 7
7 15 6 28 -4 17 -13 17 -13 4 4 -13 16 -12 19 8 24 17 4 20 8 9 15 -8 5 2 6
27 2 22 -4 45 -11 51 -16z m-100 3 c-3 -5 -14 -7 -25 -4 -19 5 -51 -20 -50
-40 0 -7 7 -2 16 11 21 30 37 28 17 -3 -22 -34 -44 -32 -44 3 0 16 3 32 7 35
10 11 85 8 79 -2z m252 -70 c6 0 12 -7 12 -13 0 -9 -19 -14 -56 -15 -31 -1
-60 -6 -63 -11 -3 -6 -12 -12 -20 -14 -7 -2 -28 -16 -47 -32 l-34 -30 31 -13
c43 -18 44 -18 62 27 10 25 22 40 33 40 16 0 16 -1 1 -17 -8 -10 -19 -30 -22
-45 -6 -24 -12 -28 -42 -28 -69 0 -113 -48 -113 -121 0 -16 -5 -29 -11 -29 -6
0 -9 9 -6 20 3 11 1 20 -4 20 -5 0 -9 -18 -9 -40 0 -26 5 -40 13 -40 20 0 37
22 38 50 0 21 3 19 15 -14 12 -35 12 -41 -1 -56 -9 -10 -13 -25 -9 -34 11 -28
-24 -18 -40 12 -14 25 -15 25 -16 5 0 -12 -5 -25 -10 -28 -10 -6 -26 26 -40
80 -7 28 -8 28 -9 5 -2 -29 -26 -66 -35 -52 -6 10 12 84 23 92 4 3 15 22 24
42 10 21 25 42 35 47 9 5 14 13 10 16 -4 4 8 22 27 40 18 19 31 35 30 37 -6 6
115 82 148 94 18 6 41 10 52 9 11 -1 26 -3 33 -4z m-548 -10 c0 -6 -5 -13 -10
-16 -6 -4 -8 -11 -5 -16 7 -11 -1 -11 -44 -3 -30 6 -31 8 -15 25 18 19 74 27
74 10z m77 -42 c-5 -17 -3 -18 11 -7 12 10 14 10 8 1 -4 -8 -2 -13 6 -13 10 0
10 -2 -1 -9 -11 -7 -11 -9 0 -14 8 -2 2 -4 -13 -3 -14 0 -26 3 -26 6 1 20 -4
30 -16 30 -8 0 -18 5 -21 10 -4 7 2 9 19 4 16 -4 26 -2 26 5 0 6 3 11 6 11 4
0 4 -9 1 -21z m-132 -19 c3 -5 1 -18 -4 -27 -6 -10 -11 -14 -11 -9 0 5 -7 3
-15 -4 -11 -9 -15 -10 -15 -1 0 8 -8 10 -21 6 -22 -7 -21 1 4 33 11 14 53 16
62 2z m98 -43 c-4 -6 3 -8 18 -4 23 6 23 5 5 -8 -15 -11 -22 -12 -27 -3 -9 14
-75 -39 -71 -58 1 -7 -3 -16 -9 -20 -8 -5 -10 1 -7 20 4 21 1 26 -16 27 -11 1
-5 5 14 8 21 4 34 12 32 20 -1 7 2 10 8 6 5 -3 15 -3 21 1 8 5 8 9 -1 14 -7 5
-2 8 14 8 15 0 23 -5 19 -11z m535 -18 c-7 -5 -22 -9 -32 -9 -19 0 -19 0 -1
14 11 8 25 11 33 8 11 -4 11 -6 0 -13z m-1048 -19 c0 -5 -16 -10 -36 -10 -21
0 -33 4 -29 10 3 6 19 10 36 10 16 0 29 -4 29 -10z m490 -24 c0 -2 -8 -10 -17
-17 -16 -13 -17 -12 -4 4 13 16 21 21 21 13z m-163 -47 c4 -20 -9 -36 -32 -41
-25 -4 -31 24 -9 46 18 19 38 17 41 -5z m482 -53 c-3 -3 -11 5 -18 17 -13 21
-12 21 5 5 10 -10 16 -20 13 -22z m221 14 c0 -5 -5 -10 -11 -10 -7 0 -9 -10
-7 -25 4 -21 1 -25 -18 -25 -17 0 -25 7 -30 24 -3 14 -3 30 1 35 8 14 65 14
65 1z m27 -22 c-3 -7 -5 -2 -5 12 0 14 2 19 5 13 2 -7 2 -19 0 -25z m-1057
-22 c0 -2 -13 -6 -30 -8 -16 -3 -30 -1 -30 4 0 4 14 8 30 8 17 0 30 -2 30 -4z
m370 -11 c6 -8 10 -22 8 -31 -3 -17 -4 -17 -20 0 -19 18 -24 46 -9 46 5 0 14
-7 21 -15z m460 -18 c0 -5 -4 -5 -10 -2 -5 3 -10 14 -10 23 0 15 2 15 10 2 5
-8 10 -19 10 -23z m-340 -15 c0 -12 -23 -32 -37 -32 -17 0 -17 27 0 33 19 8
37 8 37 -1z m895 -2 c3 -5 -1 -10 -9 -10 -9 0 -16 5 -16 10 0 6 4 10 9 10 6 0
13 -4 16 -10z m-1046 -9 c8 -5 -13 -7 -55 -4 -93 6 -103 11 -24 12 36 0 71 -3
79 -8z m-141 -65 c-10 -23 -9 -29 3 -37 11 -7 9 -9 -8 -9 -13 0 -23 2 -23 5 0
14 31 77 36 73 2 -3 -1 -18 -8 -32z m29 14 c-3 -13 0 -20 9 -20 8 0 11 6 7 17
-5 14 -1 15 34 11 24 -4 46 -1 52 5 13 13 14 -7 2 -38 -7 -16 -16 -19 -66 -17
-32 1 -59 3 -61 5 -4 4 19 57 25 57 2 0 1 -9 -2 -20z m228 10 c3 -5 1 -10 -4
-10 -6 0 -11 5 -11 10 0 6 2 10 4 10 3 0 8 -4 11 -10z m-66 -13 c6 -8 8 -17 4
-21 -4 -4 0 -4 8 -1 9 3 22 -1 29 -9 10 -13 8 -19 -11 -35 l-24 -19 42 11 c38
10 44 9 89 -20 l47 -31 -59 -8 c-98 -13 -147 -11 -151 6 -4 13 -3 13 6 0 9
-13 11 -13 11 1 0 29 -40 54 -99 60 l-56 6 52 2 c50 1 52 2 63 36 12 37 30 44
49 22z m359 -63 c-5 -28 -28 -29 -28 -1 0 13 3 27 7 31 10 10 25 -10 21 -30z
m-125 -35 l32 -31 -37 27 c-21 15 -38 29 -38 31 0 10 14 1 43 -27z m-393 -24
c0 -8 -7 -15 -15 -15 -8 0 -15 7 -15 15 0 8 7 15 15 15 8 0 15 -7 15 -15z
m1562 -39 c-21 -6 -44 -25 -64 -53 -39 -53 -55 -39 -24 21 18 34 26 41 54 42
18 1 36 4 39 8 3 3 11 2 17 -1 6 -4 -3 -11 -22 -17z m-1432 -28 c0 -5 -13 -8
-29 -8 -28 0 -29 -1 -24 -42 l6 -43 -22 28 c-50 61 -141 11 -141 -76 0 -53 22
-84 65 -93 38 -7 82 30 91 76 5 24 9 28 20 19 9 -8 10 -17 3 -35 -5 -14 -9
-27 -9 -28 0 -2 20 -4 45 -4 27 -1 43 3 40 8 -3 5 -21 8 -39 5 -29 -3 -33 -1
-29 15 4 16 9 17 31 7 35 -14 58 -35 49 -43 -4 -4 -32 -8 -62 -10 -31 -1 -67
-9 -80 -18 -37 -24 -91 -20 -120 8 -22 23 -55 110 -55 148 0 10 16 36 36 57
l35 40 94 -2 c52 -1 95 -5 95 -9z m1504 -57 c-9 -10 -26 18 -18 30 5 9 9 8 14
-7 4 -10 6 -21 4 -23z m-2217 -1 c27 0 38 -7 63 -42 38 -53 32 -60 -12 -14
-24 27 -44 38 -72 41 -46 6 -51 9 -41 25 5 9 10 9 18 1 6 -6 26 -11 44 -11z
m1037 3 c-5 -17 -5 -17 8 -1 17 21 85 19 98 -2 7 -10 10 -11 10 -2 0 6 5 12
12 12 6 0 8 -3 5 -7 -4 -3 1 -12 11 -20 15 -11 4 -13 -75 -11 -50 1 -91 4 -89
7 2 3 6 14 9 24 4 9 9 17 11 17 3 0 3 -8 0 -17z m1215 -42 c1 -35 -5 -22 -12
24 -5 28 -4 34 3 20 5 -11 9 -31 9 -44z m-989 26 c0 -7 -7 -22 -15 -33 -13
-17 -14 -16 -4 14 11 33 19 41 19 19z m-1376 -46 c-2 -3 -12 3 -22 13 -16 17
-16 18 5 5 12 -7 20 -15 17 -18z m2108 -108 c7 -9 7 -18 -3 -30 -7 -10 -14
-19 -15 -21 -1 -2 -15 11 -32 28 l-31 31 32 42 32 43 3 -40 c2 -23 8 -46 14
-53z m-61 59 c-5 -9 -19 -26 -32 -37 -17 -15 -15 -10 7 17 32 41 40 48 25 20z
m359 3 c0 -8 -4 -15 -10 -15 -5 0 -10 7 -10 15 0 8 5 15 10 15 6 0 10 -7 10
-15z m-153 -21 c-3 -3 -12 -4 -19 -1 -8 3 -5 6 6 6 11 1 17 -2 13 -5z m53 2
c0 -2 -7 -6 -15 -10 -8 -3 -15 -1 -15 4 0 6 7 10 15 10 8 0 15 -2 15 -4z
m-1305 -16 c-3 -5 -12 -10 -18 -10 -7 0 -6 4 3 10 19 12 23 12 15 0z m80 2
c-10 -11 -53 -13 -59 -3 -3 5 10 9 30 9 19 0 33 -3 29 -6z m1243 -19 c-5 -25
-28 -28 -28 -4 0 12 6 21 16 21 9 0 14 -7 12 -17z m-1378 3 c0 -11 -19 -15
-25 -6 -3 5 1 10 9 10 9 0 16 -2 16 -4z m-1140 -25 c-13 -11 -29 -17 -34 -14
-5 3 4 12 20 19 40 17 43 16 14 -5z m1745 9 c-3 -5 -25 -9 -48 -8 l-42 1 45 7
c25 4 46 8 48 8 2 1 0 -2 -3 -8z m-197 -70 c1 -23 0 -23 -8 -5 -5 11 -8 34 -8
50 0 29 0 29 8 5 4 -14 8 -36 8 -50z m-1117 2 l19 -23 -27 -34 c-16 -19 -31
-35 -35 -35 -12 0 -10 18 2 25 6 4 8 11 4 16 -4 6 -11 6 -20 -2 -17 -14 -19 2
-3 18 6 6 12 30 13 53 1 36 2 39 14 23 7 -10 22 -28 33 -41z m2119 39 c0 -5
-7 -12 -16 -15 -14 -5 -15 -4 -4 9 14 17 20 19 20 6z m-1159 -21 c10 -6 19
-16 19 -22 0 -7 -5 -6 -15 2 -8 6 -19 9 -25 5 -5 -3 -10 1 -10 9 0 19 5 20 31
6z m-1071 -25 c-16 -20 -36 -19 -44 1 -5 14 -4 15 8 5 11 -9 17 -9 28 2 17 19
25 12 8 -8z m1900 9 c8 -9 -25 -24 -42 -20 -28 7 -70 -47 -72 -93 0 -31 -3
-37 -13 -29 -7 6 -13 7 -13 2 0 -5 -5 -1 -11 9 -7 11 -7 23 0 35 9 15 11 14
11 -8 1 -20 4 -17 17 17 8 23 28 54 45 68 16 14 23 25 16 25 -16 0 -62 -46
-71 -70 -4 -12 -6 -11 -6 3 -1 10 14 32 32 48 27 26 37 29 67 24 19 -4 37 -9
40 -11z m-2300 -88 c-42 -50 -77 -103 -86 -131 -20 -58 -27 -53 -17 13 7 46
15 59 81 127 41 41 78 75 83 75 6 0 -22 -38 -61 -84z m198 61 c2 -10 -3 -17
-12 -17 -18 0 -29 16 -21 31 9 14 29 6 33 -14z m1039 -19 c-3 -8 -6 -5 -6 6
-1 11 2 17 5 13 3 -3 4 -12 1 -19z m1067 6 c9 -4 21 -16 27 -28 9 -19 9 -19
-4 -3 -28 35 -80 13 -93 -39 -4 -17 0 -31 11 -44 22 -25 42 -25 69 -2 21 17
21 17 2 -5 -36 -43 -96 -20 -96 35 0 45 11 69 33 80 27 13 31 14 51 6z m-1784
-39 c-7 -9 -15 -13 -19 -10 -3 3 1 10 9 15 21 14 24 12 10 -5z m110 5 c-11 -7
-7 -10 19 -10 45 0 32 -13 -17 -17 -26 -2 -44 -11 -60 -30 -31 -36 -15 -6 18
36 14 17 32 31 40 31 13 0 13 -1 0 -10z m592 -46 c19 -6 19 -7 5 -16 -25 -13
-37 -1 -36 35 1 23 3 26 6 10 2 -12 14 -25 25 -29z m-1159 21 c-3 -9 -8 -14
-10 -11 -3 3 -2 9 2 15 9 16 15 13 8 -4z m1313 -30 c-10 -14 -26 -25 -39 -25
-17 0 -19 2 -8 9 11 7 10 10 -5 14 -17 4 -17 5 2 6 11 0 29 10 40 22 24 26 31
7 10 -26z m-926 1 c-14 -14 -24 0 -16 21 6 15 8 15 16 3 6 -9 5 -19 0 -24z
m254 -18 c25 -35 20 -76 -13 -109 -36 -35 -54 -36 -86 -4 -32 31 -32 66 1 104
32 38 75 42 98 9z m2104 -74 c30 -15 41 -27 17 -18 -29 10 -65 45 -65 63 0 10
5 6 13 -9 7 -13 23 -30 35 -36z m-1412 19 c-3 -10 -21 -70 -39 -133 -19 -63
-40 -148 -47 -187 -6 -40 -15 -73 -18 -73 -4 0 -8 42 -9 92 -1 69 -5 95 -16
102 -11 7 -8 14 18 38 27 23 47 61 47 88 -1 3 5 12 12 20 6 8 18 27 26 43 15
30 34 37 26 10z m94 -3 c0 -11 -4 -20 -10 -20 -5 0 -10 9 -10 20 0 11 5 20 10
20 6 0 10 -9 10 -20z m67 4 c3 -8 1 -25 -5 -37 -10 -21 -11 -21 -12 -2 -1 16
-4 14 -16 -10 l-15 -30 7 40 c3 22 8 43 10 47 8 13 24 9 31 -8z m1170 -61 c-3
-10 -5 -4 -5 12 0 17 2 24 5 18 2 -7 2 -21 0 -30z m-37 3 c0 -3 -4 -8 -10 -11
-5 -3 -10 -1 -10 4 0 6 5 11 10 11 6 0 10 -2 10 -4z m-2827 -31 c-7 -21 -13
-19 -13 6 0 11 4 18 10 14 5 -3 7 -12 3 -20z m1295 -17 c3 -110 2 -160 -7
-213 l-9 -60 -2 85 c-3 146 2 220 14 220 1 0 3 -15 4 -32z m1563 5 c13 -17 13
-17 -5 -3 -18 14 -19 13 -13 -3 4 -11 3 -16 -3 -12 -12 8 -13 35 -1 35 5 0 15
-8 22 -17z m-1184 -25 c-3 -7 -5 -2 -5 12 0 14 2 19 5 13 2 -7 2 -19 0 -25z
m-1612 -24 c-1 -14 -8 -29 -15 -34 -7 -4 -10 -15 -7 -25 4 -9 12 -13 19 -9 8
5 9 2 5 -10 -4 -10 -10 -28 -13 -41 -4 -16 -11 -21 -25 -18 -14 4 -19 0 -19
-15 0 -18 -18 -32 -40 -32 -11 0 19 80 38 103 9 9 16 28 18 41 2 17 31 66 39
66 0 0 0 -12 0 -26z m1252 -16 c-3 -8 -6 -5 -6 6 -1 11 2 17 5 13 3 -3 4 -12
1 -19z m-1350 -111 c-14 -27 -14 -27 -32 -7 -18 19 -17 20 3 20 11 0 24 5 27
11 14 21 15 1 2 -24z m1411 -59 c19 -19 14 -46 -9 -53 -31 -10 -55 16 -40 44
13 24 31 27 49 9z m-1267 -25 c-8 -15 -10 -15 -11 -2 0 17 10 32 18 25 2 -3
-1 -13 -7 -23z m1387 -18 c0 -14 -4 -25 -9 -25 -10 0 -11 12 -3 34 9 22 12 20
12 -9z m-1362 -30 c-19 -14 -19 -15 9 -15 15 0 26 -3 23 -6 -4 -3 -9 -6 -12
-5 -3 0 -19 -4 -35 -9 -36 -10 -47 -2 -23 16 16 12 16 13 -3 15 -16 1 -1 6 55
17 3 1 -4 -5 -14 -13z m1157 -5 c3 -11 1 -18 -4 -14 -5 3 -9 12 -9 20 0 20 7
17 13 -6z m-1513 -10 c0 -5 -2 -10 -4 -10 -3 0 -8 5 -11 10 -3 6 -1 10 4 10 6
0 11 -4 11 -10z m1657 -102 c-2 -40 -3 -64 0 -53 3 11 12 28 21 38 12 13 13
20 4 29 -17 17 -15 28 7 28 34 0 59 -51 36 -74 -8 -8 -15 -28 -15 -45 0 -19
-8 -38 -20 -48 -11 -10 -20 -24 -20 -32 0 -8 -3 -11 -7 -7 -6 6 -9 18 -15 63
-1 7 -4 10 -8 8 -4 -3 -5 -16 -2 -30 2 -15 0 -25 -7 -25 -6 0 -11 9 -11 20 0
26 -29 40 -85 40 -38 0 -48 -4 -52 -20 -3 -11 -9 -20 -14 -20 -5 0 -4 12 1 26
6 14 10 36 10 49 0 28 24 44 71 47 19 1 37 7 41 13 5 6 8 5 8 -3 0 -7 5 -10
10 -7 6 3 10 1 10 -4 0 -6 5 -11 10 -11 6 0 10 9 10 21 0 11 -4 17 -10 14 -5
-3 -2 8 8 24 9 17 19 31 21 31 2 0 1 -33 -2 -72z m-260 -100 c-3 -8 -6 -5 -6
6 -1 11 2 17 5 13 3 -3 4 -12 1 -19z m126 -55 c-13 -2 -33 -2 -45 0 -13 2 -3
4 22 4 25 0 35 -2 23 -4z m80 -10 c-7 -2 -21 -2 -30 0 -10 3 -4 5 12 5 17 0
24 -2 18 -5z m41 -29 c3 -9 5 -41 4 -72 l-1 -57 -6 60 c-3 33 -10 66 -14 73
-5 6 -4 12 1 12 6 0 13 -7 16 -16z m-227 -31 c-3 -10 -5 -4 -5 12 0 17 2 24 5
18 2 -7 2 -21 0 -30z m348 18 c3 -5 1 -12 -4 -15 -5 -3 -11 1 -15 9 -6 16 9
21 19 6z m-39 -27 c-3 -9 -6 -18 -6 -20 0 -3 -6 1 -14 8 -10 9 -11 15 -2 20
19 13 28 9 22 -8z m84 4 c0 -4 -4 -8 -9 -8 -6 0 -12 4 -15 8 -3 5 1 9 9 9 8 0
15 -4 15 -9z m-224 -23 c-19 -14 -96 -22 -83 -9 7 7 63 22 87 23 11 0 10 -3
-4 -14z"/>
<path d="M2324 1754 c2 -10 8 -20 14 -22 17 -5 15 13 -2 27 -12 10 -14 9 -12
-5z"/>
<path d="M1700 1721 c0 -5 5 -13 10 -16 6 -3 10 -2 10 4 0 5 -4 13 -10 16 -5
3 -10 2 -10 -4z"/>
<path d="M1720 1551 c0 -5 7 -15 17 -22 15 -13 15 -12 4 9 -12 23 -21 28 -21
13z"/>
<path d="M1237 998 c-9 -7 -21 -26 -27 -42 -15 -40 9 -76 50 -76 55 0 83 83
38 114 -27 19 -39 20 -61 4z"/>
<path d="M485 710 c-3 -5 -1 -10 4 -10 6 0 11 5 11 10 0 6 -2 10 -4 10 -3 0
-8 -4 -11 -10z"/>
<path d="M1785 390 c28 -12 57 -12 50 0 -3 6 -21 10 -38 9 -27 0 -29 -2 -12
-9z"/>
<path d="M1772 365 c9 -9 68 -12 68 -4 0 5 -16 9 -37 9 -20 0 -34 -2 -31 -5z"/>
<path d="M2527 1390 c-54 -43 -53 -137 2 -163 37 -18 66 -11 96 24 70 84 -15
204 -98 139z"/>
<path d="M3520 900 c6 -11 8 -25 5 -30 -9 -15 6 -60 21 -60 9 0 14 11 14 31 0
36 -14 64 -35 73 -13 4 -14 2 -5 -14z"/>
<path d="M420 496 c0 -21 5 -26 26 -26 21 0 25 4 22 23 -2 14 -11 23 -25 25
-19 3 -23 -1 -23 -22z"/>
<path d="M1828 115 c-4 -4 -4 -13 -1 -21 4 -10 0 -12 -11 -8 -9 3 -16 10 -16
15 0 5 -11 9 -25 9 -20 0 -25 -5 -25 -25 0 -24 2 -25 43 -19 51 8 49 7 45 34
-2 12 -6 19 -10 15z"/>
<path d="M1778 43 c7 -3 16 -2 19 1 4 3 -2 6 -13 5 -11 0 -14 -3 -6 -6z"/>
</g>
</svg>
