<?xml version="1.0" standalone="no"?>
<!DOCTYPE svg PUBLIC "-//W3C//DTD SVG 20010904//EN"
 "http://www.w3.org/TR/2001/REC-SVG-20010904/DTD/svg10.dtd">
<svg version="1.0" xmlns="http://www.w3.org/2000/svg"
 width="360.000000pt" height="510.000000pt" viewBox="0 0 360.000000 510.000000"
 preserveAspectRatio="xMidYMid meet">

<g transform="translate(0.000000,510.000000) scale(0.100000,-0.100000)"
fill="#000000" stroke="none">
<path d="M1890 4783 l-65 -68 68 65 c62 60 72 70 64 70 -1 0 -32 -30 -67 -67z"/>
<path d="M2781 4714 c0 -11 3 -14 6 -6 3 7 2 16 -1 19 -3 4 -6 -2 -5 -13z"/>
<path d="M1799 4693 c-13 -16 -12 -17 4 -4 9 7 17 15 17 17 0 8 -8 3 -21 -13z"/>
<path d="M2643 4703 c9 -2 23 -2 30 0 6 3 -1 5 -18 5 -16 0 -22 -2 -12 -5z"/>
<path d="M2379 4638 c-6 -24 -13 -47 -16 -52 -6 -9 58 2 70 13 4 4 10 24 14
44 5 36 5 37 -25 37 -28 0 -32 -4 -43 -42z"/>
<path d="M2678 4675 c-2 -3 -23 -6 -45 -9 -66 -6 -86 -30 -37 -42 25 -6 25 -7
-15 -31 -53 -31 -44 -48 12 -23 46 22 111 26 153 10 27 -11 27 -11 21 30 -3
22 -1 43 4 46 19 11 8 19 -29 21 -29 1 -32 0 -12 -6 31 -9 17 -17 -35 -20 -38
-2 -39 -1 -20 13 11 9 17 16 14 16 -3 0 -8 -2 -11 -5z"/>
<path d="M1701 4601 c-41 -37 -70 -70 -65 -72 5 -3 40 28 78 68 38 40 68 73
65 73 -2 -1 -37 -31 -78 -69z"/>
<path d="M2800 4646 c0 -3 9 -10 20 -16 11 -6 20 -8 20 -6 0 3 -9 10 -20 16
-11 6 -20 8 -20 6z"/>
<path d="M2085 4630 c-11 -5 -16 -9 -11 -9 5 -1 1 -10 -8 -20 -16 -18 -16 -19
1 -17 10 0 21 9 25 19 9 21 28 23 28 2 0 -8 13 -29 28 -47 16 -18 26 -41 24
-50 -5 -24 -39 -23 -47 1 -6 20 -62 35 -71 19 -3 -4 8 -8 24 -8 25 0 29 -3 25
-20 -4 -16 0 -20 21 -20 27 0 33 -9 18 -25 -5 -6 -15 -29 -22 -53 -14 -46 -33
-67 -50 -57 -6 4 -6 -3 2 -19 12 -28 24 -33 31 -13 4 7 6 6 6 -4 2 -29 -25
-43 -49 -26 -11 7 -17 17 -13 20 3 4 -1 7 -10 7 -9 0 -17 -7 -17 -16 0 -10 -6
-14 -15 -10 -9 3 -15 0 -15 -9 0 -23 -21 -29 -38 -11 -15 14 -15 19 -3 39 35
55 53 87 48 87 -3 0 -19 -22 -36 -50 -25 -41 -36 -50 -60 -50 -22 0 -36 10
-65 48 -66 84 -140 161 -150 154 -6 -3 -30 -5 -54 -3 -24 1 -50 -3 -58 -10
-16 -13 -30 -6 -19 10 3 6 24 11 46 11 37 0 38 1 27 20 -7 11 -24 20 -38 20
-28 0 -59 -29 -52 -48 2 -6 -13 -21 -32 -33 -20 -11 -36 -25 -36 -30 0 -5 11
-2 25 7 14 9 31 14 39 11 8 -3 17 -3 20 1 12 11 46 9 38 -2 -51 -69 -148 -193
-157 -199 -6 -5 -3 -7 7 -5 9 2 51 48 93 102 76 99 121 138 136 115 5 -8 8 -8
11 2 8 23 36 1 96 -78 76 -99 101 -125 113 -118 5 4 9 2 9 -3 0 -23 -80 -49
-175 -57 -38 -4 -73 -9 -77 -11 -4 -3 -8 7 -8 23 l-1 28 -14 -34 c-8 -18 -15
-44 -15 -57 0 -13 -4 -24 -10 -24 -16 0 -12 -37 5 -44 8 -3 15 -17 15 -32 l0
-26 -34 29 c-19 15 -35 37 -36 48 -2 17 -3 17 -7 3 -9 -34 -23 -18 -23 26 0
26 6 48 15 56 30 25 14 30 -67 25 -86 -6 -220 -23 -225 -28 -1 -2 -11 -30 -21
-62 -15 -46 -23 -59 -40 -60 -18 -1 -22 4 -22 30 l0 32 -52 -8 c-38 -6 -54 -5
-60 4 -11 17 -10 25 5 29 20 5 407 261 402 266 -3 3 -40 -18 -83 -47 -43 -28
-81 -51 -85 -51 -4 0 -18 -9 -31 -21 -39 -34 -190 -122 -208 -121 -10 0 -18
-8 -20 -21 -2 -14 -11 -23 -25 -25 -21 -3 -23 1 -23 43 0 37 -3 46 -15 42 -16
-7 -30 9 -16 17 5 4 30 8 55 10 36 4 46 1 46 -10 0 -8 5 -12 11 -9 6 4 8 9 6
12 -3 2 -1 18 3 34 5 17 5 29 -1 29 -5 0 -9 -4 -9 -10 0 -5 -9 -10 -21 -10
-12 0 -18 4 -13 11 3 6 1 15 -7 20 -11 6 -9 12 6 30 20 22 20 22 -2 11 -54
-29 -116 -158 -110 -232 1 -17 -5 -28 -20 -35 -12 -5 -24 -17 -26 -27 -3 -10
-10 -18 -17 -18 -6 0 -8 6 -4 13 6 9 4 9 -7 0 -20 -20 -28 -122 -12 -161 l14
-33 28 21 c32 22 90 26 124 8 20 -10 21 -10 8 5 -7 10 -19 17 -26 17 -7 0 -15
7 -19 15 -3 9 -18 15 -37 15 -32 0 -32 0 -26 45 6 57 11 62 42 45 21 -11 25
-21 25 -58 0 -43 1 -44 28 -38 15 3 50 9 77 12 28 4 55 10 60 15 6 4 29 12 50
17 22 5 49 13 60 17 15 5 17 5 5 -3 -11 -8 -7 -11 17 -10 22 1 30 5 26 14 -3
8 5 30 17 49 17 27 20 39 11 48 -18 18 -12 37 12 37 13 0 28 5 35 12 18 18 15
-4 -4 -31 -17 -23 -16 -23 15 -16 38 8 39 3 2 -43 -45 -58 -47 -76 -9 -87 41
-13 52 -38 11 -29 -15 3 -45 6 -66 5 -20 -1 -50 5 -67 14 -16 8 -37 15 -47 15
-28 -1 57 -32 102 -37 22 -3 45 -8 50 -12 6 -4 24 -7 42 -5 39 2 52 -24 29
-58 l-15 -21 -11 28 c-13 34 -20 30 -13 -7 4 -19 12 -28 25 -28 28 0 68 30 68
51 0 11 6 19 13 19 6 0 4 5 -5 11 -10 5 -18 15 -18 21 0 14 -27 35 -69 54 -43
20 -33 30 15 14 43 -14 107 -77 100 -96 -3 -8 -1 -14 5 -14 11 0 4 -48 -8 -60
-2 -3 -32 -8 -66 -11 -51 -5 -42 -6 46 -7 71 0 112 -4 122 -12 9 -7 19 -10 23
-6 4 4 -1 13 -10 20 -15 11 -15 13 0 22 21 14 43 7 36 -11 -3 -7 -1 -16 5 -20
18 -11 12 -43 -11 -60 l-23 -17 23 7 c26 7 30 -10 5 -20 -10 -3 -20 -6 -23 -6
-3 -1 -11 -5 -17 -11 -9 -7 -59 -8 -148 -3 -118 6 -137 9 -146 26 -11 22 -39
26 -39 6 0 -8 -17 -27 -38 -43 -32 -26 -41 -29 -68 -21 -24 7 -37 5 -58 -8
-14 -10 -26 -22 -26 -28 0 -6 11 0 24 12 19 18 31 22 53 16 l28 -7 -45 -39
c-52 -45 -60 -47 -61 -16 -1 19 -2 20 -5 2 -10 -46 -27 -105 -30 -105 -3 0
-13 5 -23 12 -16 10 -25 7 -56 -16 -29 -22 -36 -34 -32 -52 2 -14 1 -27 -4
-30 -10 -6 -51 71 -42 80 4 3 1 6 -5 6 -15 0 -15 -6 -2 -31 8 -14 7 -19 -2
-19 -6 0 -3 -6 7 -14 11 -8 19 -28 21 -52 1 -22 0 -33 -3 -26 -2 6 -10 12 -17
12 -23 0 -77 32 -73 43 2 6 14 15 28 19 22 6 21 7 -6 5 -22 -1 -30 2 -29 15 1
10 -8 17 -26 20 -17 3 -27 -1 -27 -9 0 -7 5 -13 11 -13 6 0 4 -5 -3 -12 -10
-11 -16 -8 -33 12 -11 14 -25 24 -30 22 -5 -1 -6 3 -3 9 4 6 16 9 26 6 11 -3
16 -1 13 4 -3 5 8 12 25 15 l31 6 -24 19 c-27 21 -36 24 -36 10 0 -5 8 -11 17
-14 17 -4 16 -5 -1 -12 -15 -7 -29 2 -68 43 -55 58 -70 67 -39 23 11 -15 18
-31 14 -35 -3 -3 0 -6 9 -6 8 0 23 -9 33 -20 19 -22 7 -28 -14 -7 -10 10 -11
9 -6 -5 11 -28 -5 -21 -42 18 -31 31 -40 35 -76 32 -36 -3 -42 -7 -46 -28 -1
-14 -12 -38 -23 -53 -18 -25 -19 -34 -9 -66 6 -21 22 -51 36 -67 29 -33 28
-31 25 -107 -1 -39 3 -66 14 -82 9 -13 16 -30 16 -37 0 -18 -75 -103 -90 -103
-8 0 -15 -6 -18 -14 -3 -8 0 -11 7 -7 14 9 14 1 1 -43 l-10 -35 38 37 c21 20
42 37 47 37 5 0 19 9 31 21 12 11 30 19 40 17 16 -3 13 -9 -19 -44 -20 -23
-37 -46 -37 -52 0 -6 -10 -18 -22 -26 -12 -9 -18 -16 -12 -16 5 0 30 20 54 45
24 25 49 43 55 41 5 -2 38 23 71 56 84 82 100 70 21 -15 -46 -49 -68 -66 -80
-61 -11 4 -19 0 -24 -12 -3 -11 -57 -76 -120 -145 l-113 -127 -38 9 c-50 11
-82 11 -82 -1 0 -6 3 -9 8 -9 28 5 92 -3 92 -10 0 -9 -76 -6 -107 4 -18 6 -16
-33 2 -69 9 -16 14 -30 13 -30 -2 -1 -16 -6 -33 -12 -16 -5 -34 -19 -40 -31
-5 -12 -20 -25 -34 -28 -13 -3 -34 -13 -45 -22 -21 -15 -21 -15 2 -8 18 5 22
2 22 -14 0 -11 -9 -25 -20 -31 -11 -6 -18 -15 -16 -19 3 -4 -1 -8 -9 -8 -18 0
-18 3 -5 28 6 10 8 19 5 19 -20 0 -40 -118 -23 -135 2 -3 24 15 47 40 41 44
61 55 61 35 0 -5 -3 -10 -7 -10 -10 0 -48 -79 -41 -85 9 -9 58 36 52 47 -4 6
-2 8 4 4 13 -8 52 45 52 71 0 10 9 29 20 43 11 14 20 30 20 35 0 6 9 16 20 23
17 10 21 8 35 -18 10 -20 27 -32 53 -39 77 -22 82 -19 198 104 59 63 111 115
116 115 4 0 8 -13 8 -29 0 -70 69 -165 139 -193 33 -13 247 -37 272 -31 10 3
31 -4 47 -16 26 -18 32 -32 47 -112 10 -50 29 -112 41 -136 13 -24 24 -49 24
-56 0 -31 -22 -87 -35 -87 -7 0 -20 -6 -27 -14 -8 -8 -22 -15 -32 -17 -9 -2
-31 -28 -47 -56 -40 -68 -32 -68 11 -1 51 83 46 41 -6 -46 -33 -55 -51 -76
-61 -71 -11 4 -13 1 -9 -11 3 -8 6 -27 6 -40 0 -24 0 -24 20 -4 11 11 30 20
42 20 19 0 20 -2 8 -10 -13 -9 -13 -10 0 -10 9 -1 5 -5 -8 -10 -12 -5 -26 -20
-31 -32 -7 -19 -4 -25 18 -34 14 -6 28 -8 31 -3 6 9 70 7 70 -2 0 -4 6 -7 13
-6 6 0 26 -1 42 -2 l30 -2 -36 -19 c-37 -19 -109 -18 -109 2 0 5 -5 6 -11 3
-6 -4 -30 -4 -55 0 -36 5 -44 10 -45 28 -1 12 -7 -7 -14 -43 -15 -74 -13 -85
6 -41 16 37 37 47 56 28 16 -15 16 -14 -69 -160 -30 -52 -44 -67 -57 -62 -14
4 -19 -7 -32 -74 -11 -63 -12 -81 -2 -90 21 -20 15 -31 -17 -31 -23 0 -33 -6
-42 -25 -6 -14 -15 -25 -19 -25 -13 0 -43 -63 -40 -83 1 -9 -3 -17 -10 -17
-11 0 -8 -67 8 -144 l5 -29 -43 7 c-24 4 -57 8 -72 9 -34 2 -62 34 -46 53 7 9
4 14 -13 20 -19 6 -20 8 -6 13 10 3 14 11 10 18 -5 8 -12 8 -25 -2 -14 -10
-16 -17 -8 -32 5 -10 13 -40 16 -66 5 -39 11 -50 31 -57 13 -5 24 -12 24 -15
0 -15 -32 -65 -38 -61 -4 3 -9 -4 -9 -15 -1 -14 5 -19 23 -19 13 0 24 -4 24
-9 0 -6 -12 -6 -32 0 -18 5 -33 9 -33 9 0 0 -1 -11 -1 -25 -1 -14 3 -25 10
-26 6 0 21 -2 34 -3 13 -2 27 4 32 13 9 15 9 14 10 0 0 -22 -26 -43 -45 -35
-9 3 -13 2 -10 -3 3 -5 -4 -12 -15 -16 -11 -3 -20 -10 -20 -15 0 -5 -10 -12
-22 -16 -12 -3 -28 -12 -35 -19 -7 -7 -18 -15 -25 -18 -7 -2 -10 -7 -7 -11 3
-3 18 3 32 15 39 30 33 8 -8 -29 -39 -36 -47 -38 -65 -17 -7 8 -16 12 -21 9
-5 -2 -22 2 -38 11 -16 8 -37 12 -45 9 -21 -8 -20 4 1 30 10 12 3 8 -14 -8
-26 -23 -31 -35 -27 -55 10 -43 33 -71 57 -71 13 0 27 -4 33 -9 5 -4 28 -13
51 -18 33 -8 61 -6 142 12 55 12 106 27 114 34 8 6 22 9 31 5 9 -3 24 -3 34 1
9 4 26 9 36 10 11 1 29 14 41 28 25 32 56 34 123 8 33 -13 53 -16 65 -10 11 7
24 6 38 -1 15 -8 24 -8 34 0 7 6 25 8 39 4 16 -4 26 -2 26 5 0 6 8 10 18 9 9
-1 38 0 63 0 39 2 48 6 57 27 7 14 12 37 12 50 0 25 10 32 24 17 4 -4 11 -7
14 -7 4 -1 18 -7 32 -15 30 -17 90 -21 107 -8 7 6 19 6 30 1 10 -5 52 -8 93
-6 41 1 98 3 127 4 59 1 70 10 73 59 3 58 2 64 -13 51 -16 -12 -100 16 -91 30
3 5 -1 10 -8 10 -23 2 -33 4 -57 13 -17 6 -20 10 -11 16 7 4 9 13 6 19 -9 13
-36 15 -36 2 0 -6 -18 2 -40 16 -22 15 -40 34 -40 44 0 9 -7 19 -15 22 -11 5
-12 1 -5 -18 6 -16 6 -25 0 -25 -6 0 -10 5 -10 10 0 6 -6 10 -14 10 -15 0 -29
27 -21 40 7 12 -48 20 -61 9 -7 -5 -34 -9 -62 -8 l-50 2 -6 76 c-4 52 -2 92 8
128 16 61 5 87 -44 98 -16 4 -32 11 -35 15 -11 17 26 59 88 99 34 22 70 54 80
71 10 16 25 30 33 30 8 0 17 7 21 15 3 9 32 29 64 46 67 33 79 65 35 88 l-24
13 20 34 c25 43 44 54 78 44 15 -4 34 -4 41 1 12 7 11 13 -2 38 -10 16 -13 34
-9 41 5 7 6 28 3 45 -4 26 1 38 25 63 17 17 39 56 48 87 17 53 17 58 0 105
l-18 49 26 34 c23 30 26 43 26 114 0 86 -17 124 -60 138 -11 4 -20 13 -20 21
0 11 18 14 83 14 55 1 88 5 101 15 17 13 22 12 47 -6 48 -34 170 -68 258 -71
69 -3 82 -6 87 -22 3 -10 22 -35 41 -56 27 -30 39 -57 54 -122 11 -45 27 -93
35 -106 13 -20 14 -32 4 -75 -13 -53 -43 -97 -66 -97 -18 0 -27 -18 -73 -162
-40 -121 -42 -132 -39 -235 3 -108 3 -108 17 -65 13 38 17 42 47 42 34 0 34 0
29 -42 -5 -53 -40 -156 -60 -178 -9 -10 -27 -16 -41 -14 -26 2 -26 2 -22 -67
2 -40 -1 -71 -7 -74 -5 -2 9 -3 33 -1 34 2 47 -2 67 -22 18 -18 23 -28 15 -36
-17 -17 -43 -13 -62 9 -22 25 -22 16 -2 -46 18 -56 41 -64 51 -19 13 68 32 32
34 -65 1 -31 -9 -76 -25 -120 -14 -38 -26 -89 -26 -112 0 -34 -4 -43 -17 -43
-15 0 -16 2 -3 10 10 6 11 10 3 10 -7 0 -12 3 -11 8 3 14 -14 42 -23 36 -5 -3
-9 -4 -9 -2 -4 42 -13 114 -16 117 -2 2 -4 -23 -4 -56 0 -60 -20 -130 -33
-116 -14 13 -7 43 11 44 14 0 14 2 -3 10 -12 6 -25 20 -30 32 -8 18 -25 24
-100 37 -49 8 -82 16 -72 18 19 4 23 37 6 47 -6 4 -9 27 -6 56 3 27 2 47 -3
44 -13 -8 -18 -55 -9 -93 4 -20 4 -41 0 -45 -11 -11 -4 -78 15 -144 15 -50 16
-93 2 -83 -10 8 -59 -53 -53 -67 2 -8 -4 -13 -15 -13 -23 0 -26 -22 -6 -39 7
-6 42 -14 77 -18 35 -3 71 -9 79 -13 8 -4 25 -6 38 -4 12 2 22 -1 22 -8 0 -9
3 -9 12 0 23 23 29 11 10 -20 -11 -18 -25 -58 -32 -88 -7 -30 -17 -63 -22 -73
-9 -17 -10 -16 -29 5 -11 13 -18 17 -14 11 4 -8 0 -13 -9 -13 -16 0 -18 32 -3
46 11 11 8 24 -5 21 -7 -1 -13 5 -13 13 0 8 -6 14 -13 13 -6 -2 -9 4 -6 12 4
8 1 15 -5 15 -6 0 -11 -4 -11 -9 0 -5 -18 -8 -40 -7 -28 0 -40 5 -40 15 0 11
-3 12 -11 4 -6 -6 -18 -9 -26 -6 -11 4 -14 -1 -13 -23 3 -44 -1 -62 -8 -37 -6
19 -9 20 -26 8 -17 -13 -17 -19 -6 -65 14 -59 39 -79 75 -60 15 8 34 10 52 5
15 -5 38 -9 51 -10 13 0 27 -6 30 -13 16 -25 156 -8 178 22 6 9 16 16 23 16 6
0 14 6 17 14 3 8 14 16 25 19 10 3 19 14 19 24 0 10 20 36 45 56 39 33 47 36
65 25 11 -7 20 -16 20 -20 0 -14 48 -8 53 6 5 12 12 13 34 4 23 -9 36 -7 66 7
20 9 39 25 42 36 9 26 48 34 100 19 27 -7 62 -10 90 -5 35 5 52 2 71 -10 20
-13 39 -15 94 -9 39 4 70 10 70 14 0 3 13 5 30 2 16 -2 38 -1 47 3 10 4 30 7
45 6 14 -1 29 2 32 8 4 6 14 7 22 4 16 -6 63 41 64 63 0 25 -86 107 -141 134
-32 15 -73 37 -91 48 -18 11 -53 23 -78 27 -25 3 -54 9 -65 11 -16 4 -17 3 -5
-5 13 -9 13 -11 -2 -11 -10 0 -18 4 -18 8 0 4 -16 15 -36 24 l-37 17 33 -34
c32 -33 33 -55 4 -55 -8 0 -13 4 -10 9 5 8 -39 26 -55 23 -4 -1 -5 8 -2 18 3
11 0 20 -6 20 -21 0 -11 19 12 22 24 4 -80 30 -120 30 -19 0 -22 6 -21 48 0
26 -7 61 -15 77 -13 25 -14 41 -4 103 11 70 10 73 -12 91 -13 11 -29 19 -37
19 -16 0 -18 11 -6 25 5 6 14 29 22 52 7 24 25 50 42 63 16 11 36 39 44 61 9
21 22 39 29 39 8 0 17 9 20 20 3 11 10 20 13 20 4 0 22 13 40 29 36 34 41 64
13 87 -16 14 -17 21 -8 50 8 27 16 34 41 36 25 2 30 7 28 23 -8 50 8 137 28
160 32 36 48 121 37 201 -9 66 -8 73 15 110 20 31 26 58 32 135 6 88 4 98 -15
123 -11 14 -27 26 -35 26 -18 0 -18 0 13 55 14 26 35 50 45 53 10 2 31 28 45
56 14 28 32 59 41 69 9 10 30 43 47 74 25 46 37 57 61 60 41 6 52 21 134 178
40 77 77 146 83 153 5 7 7 15 4 18 -3 3 -10 -4 -17 -15 -6 -12 -15 -19 -20
-16 -5 3 -12 0 -16 -6 -4 -8 -3 -9 4 -5 17 10 15 -10 -3 -28 -9 -8 -15 -18
-14 -21 2 -11 -52 -115 -60 -115 -5 0 -11 -12 -14 -27 -3 -16 -13 -37 -22 -48
-10 -12 -15 -14 -12 -5 4 12 -3 15 -33 12 -21 -2 -40 0 -43 5 -11 17 4 49 31
67 l27 17 -32 -6 c-24 -5 -43 0 -72 16 -45 25 -44 33 6 111 29 45 54 94 59
116 6 28 56 102 69 102 8 0 15 4 15 10 0 5 16 39 36 76 26 47 39 62 45 52 7
-10 9 -9 9 5 0 26 17 12 40 -34 17 -32 18 -39 6 -39 -8 0 -18 -5 -22 -12 -5
-7 -3 -8 5 -3 10 5 11 -4 5 -41 -4 -27 -8 -56 -8 -65 0 -23 -23 -12 -30 14 -4
17 -8 19 -18 9 -9 -9 -9 -15 -1 -23 9 -9 8 -20 -4 -43 l-16 -31 25 22 c21 20
27 21 43 9 18 -13 21 -10 37 26 14 31 16 48 9 79 -8 34 -5 46 25 101 28 53 33
73 32 123 l-1 60 -6 -51 c-6 -49 -48 -144 -64 -144 -4 0 4 20 18 43 27 47 31
62 15 52 -5 -3 -10 -2 -10 4 0 5 8 12 18 14 12 3 13 5 2 6 -8 0 -21 10 -28 21
-10 17 -10 26 3 50 8 16 15 36 15 45 0 20 -22 15 -28 -6 -3 -11 -2 -11 7 1 23
32 11 -15 -17 -65 -18 -32 -41 -57 -67 -72 -22 -13 -35 -23 -28 -23 7 0 10 -7
6 -16 -4 -12 -7 -13 -14 -3 -11 18 -16 10 -21 -26 -1 -16 -10 -36 -18 -43 -11
-10 -12 -12 -1 -6 11 5 13 3 8 -10 -4 -10 -7 -21 -7 -24 0 -4 -5 0 -10 8 -8
12 -10 10 -8 -8 2 -16 -5 -29 -22 -40 l-25 -17 18 28 c10 15 15 31 13 36 -9
14 15 71 29 71 8 0 12 11 11 29 -1 17 2 28 6 25 4 -3 5 2 2 11 -8 20 -34 1
-34 -26 0 -10 -5 -21 -11 -24 -6 -4 -8 -13 -5 -20 4 -13 -11 -35 -26 -35 -4 0
-5 8 -2 18 4 11 -1 9 -15 -8 l-21 -25 6 45 c11 73 -9 36 -26 -50 -9 -44 -14
-77 -11 -75 2 3 10 0 17 -6 8 -6 21 -9 29 -5 19 7 19 4 1 -39 -8 -19 -20 -35
-26 -35 -6 0 -9 4 -6 9 3 5 -8 11 -25 13 -16 3 -32 1 -35 -4 -3 -4 6 -8 21 -8
14 0 28 -7 32 -16 3 -8 -15 -57 -41 -109 -25 -52 -46 -101 -46 -111 0 -26 -40
-85 -53 -77 -6 4 -8 0 -4 -10 3 -10 2 -17 -4 -17 -5 0 -13 9 -17 20 -10 26
-22 15 -52 -45 -35 -71 -35 -72 -14 -53 18 16 19 15 21 -14 3 -38 -54 -148
-77 -148 -12 0 -13 -2 -1 -9 11 -7 9 -14 -13 -36 -14 -14 -24 -30 -22 -34 3
-5 -1 -17 -9 -27 -13 -18 -14 -17 -9 9 2 15 0 27 -6 27 -5 0 -10 -12 -10 -27
0 -19 -3 -24 -11 -16 -8 8 -5 22 10 51 29 57 26 62 -9 14 -17 -23 -30 -49 -30
-57 0 -8 -7 -15 -15 -15 -8 0 -15 4 -15 9 0 5 -29 13 -65 17 -44 6 -62 13 -57
20 5 8 28 10 75 5 37 -4 67 -4 67 0 0 4 -29 10 -65 14 -36 3 -65 9 -65 11 0 9
44 93 143 268 60 106 102 193 104 214 4 36 36 106 53 117 6 4 16 3 23 -2 17
-12 86 -8 100 6 8 8 -4 11 -49 11 -33 0 -65 5 -72 12 -7 7 -12 8 -12 2 0 -6
-6 -18 -13 -29 -13 -17 -14 -17 -20 4 -6 24 17 53 36 45 8 -3 13 3 13 15 0 19
-1 19 -28 -1 -15 -10 -28 -24 -28 -29 0 -5 -34 -9 -76 -9 -64 0 -75 2 -70 15
3 8 1 15 -4 15 -5 0 -13 12 -16 26 -5 18 -10 22 -18 14 -7 -7 -7 -16 2 -30 6
-11 12 -34 12 -50 0 -19 4 -29 10 -25 6 4 8 10 6 14 -5 8 21 12 41 5 14 -4
-19 -71 -63 -131 -13 -17 -24 -37 -24 -44 0 -7 6 -4 14 7 12 15 18 17 33 8 22
-13 29 -60 12 -80 -6 -8 -29 -47 -50 -87 -21 -39 -39 -67 -39 -60 0 6 -15 13
-32 15 -29 3 -35 -2 -51 -31 -10 -18 -16 -36 -13 -39 3 -2 8 3 12 12 5 12 14
15 43 10 l37 -6 53 94 c29 51 57 95 61 98 12 8 16 78 5 89 -6 5 -18 11 -27 13
-16 3 -14 10 15 58 24 40 40 56 62 61 17 4 37 10 46 13 12 5 18 0 22 -20 3
-19 -6 -45 -34 -94 -22 -37 -39 -74 -39 -83 0 -8 -6 -18 -12 -20 -10 -4 -10
-8 1 -15 10 -7 -9 -47 -89 -188 -57 -99 -118 -203 -136 -232 -19 -29 -34 -57
-34 -62 0 -13 -18 -22 -31 -15 -7 5 -6 12 4 23 8 10 20 28 27 42 l13 25 -22
-19 c-19 -18 -26 -18 -56 -7 -19 7 -45 9 -56 6 -12 -4 -20 -3 -18 1 2 5 19 37
37 72 l33 64 -31 66 c-22 47 -28 68 -20 76 8 8 9 6 4 -8 -6 -15 -4 -18 7 -14
22 8 47 -14 54 -48 l6 -29 -17 30 c-10 17 -19 25 -21 18 -6 -16 28 -66 38 -56
17 17 58 104 47 98 -7 -4 -3 2 8 12 34 29 101 154 108 203 4 24 11 49 17 56 7
8 2 14 -18 19 -33 8 -264 7 -310 -1 -20 -4 -33 -2 -33 4 0 6 -22 26 -49 46
-45 33 -56 37 -139 42 -50 4 -96 11 -104 16 -20 13 40 58 79 58 18 0 36 7 40
15 7 12 26 13 118 5 85 -6 115 -5 135 5 30 16 50 53 50 96 0 23 7 34 33 49 28
16 37 31 50 80 21 74 21 75 -2 97 -10 10 -22 29 -26 43 -10 36 -48 90 -62 90
-7 0 -13 5 -13 10 0 6 6 10 13 9 48 -6 66 2 93 45 43 67 54 48 51 -83 -3 -157
7 -184 114 -298 17 -18 38 -33 47 -34 9 -1 28 -2 41 -2 28 -2 47 -27 37 -52
-4 -11 -13 -15 -26 -12 -11 3 -20 1 -20 -4 0 -6 33 -7 81 -3 76 7 80 6 86 -14
5 -21 6 -21 22 -2 13 15 25 18 68 13 l51 -5 -3 -37 c-2 -20 1 -11 6 19 12 64
34 156 44 185 4 11 -4 3 -17 -19 -22 -37 -24 -38 -67 -32 -24 3 -70 6 -103 6
-37 0 -57 4 -53 10 3 6 36 10 72 10 83 0 79 8 -5 11 -34 1 -62 5 -62 9 0 3 10
16 21 29 20 21 28 23 130 19 80 -2 110 0 114 10 3 9 -24 12 -115 12 -134 0
-128 3 -184 -85 -30 -47 -66 -72 -66 -43 1 30 106 213 128 223 13 6 22 18 22
32 0 25 72 112 78 95 2 -7 13 -7 34 0 l31 11 -35 14 -35 14 -1 76 c-2 93 -12
111 -12 22 -1 -60 -2 -62 -15 -39 -14 26 -55 37 -55 15 0 -6 -17 -24 -37 -38
-34 -24 -37 -25 -50 -9 -13 16 -13 15 -11 -4 3 -23 -15 -33 -20 -11 -2 8 24
36 57 62 33 26 62 55 65 64 2 9 14 58 26 109 l21 92 -21 86 c-22 94 -25 124
-11 124 5 0 20 -44 33 -97 12 -53 24 -90 26 -82 6 31 -47 218 -67 241 -24 25
-24 23 -12 66 7 22 6 46 -2 73 -12 39 -12 38 -14 -49 -1 -76 -5 -95 -26 -128
-36 -57 -59 -74 -106 -78 -38 -3 -42 -1 -39 18 2 13 12 23 28 26 51 10 86 40
99 87 18 58 9 115 -24 164 -17 23 -25 46 -22 58 5 20 -18 49 -30 37 -3 -3 -1
-6 6 -6 7 0 11 -10 9 -22 -3 -20 -8 -22 -44 -20 -35 3 -48 -2 -78 -28 -20 -18
-36 -37 -36 -43 0 -6 18 -32 40 -58 22 -26 40 -51 40 -55 0 -4 12 -21 28 -37
26 -28 27 -29 7 -43 -19 -14 -97 -16 -89 -2 3 4 -5 12 -16 18 -16 8 -20 8 -20
-4 0 -8 5 -17 10 -19 6 -3 5 -4 -1 -3 -7 1 -16 12 -20 25 -5 13 -5 20 0 16 5
-3 12 -1 16 5 3 5 -3 10 -14 10 -14 0 -23 10 -31 33 l-10 32 3 -32 c3 -28 1
-31 -12 -21 -9 7 -22 19 -28 27 -11 13 -13 12 -13 -8 0 -12 -4 -20 -9 -16 -5
3 -13 -4 -16 -16 -5 -15 -12 -19 -28 -15 -12 3 -31 6 -42 6 -18 0 -20 7 -22
62 -4 122 -2 143 14 160 22 24 12 31 -30 23 -23 -5 -37 -14 -40 -26 -6 -22
-47 -26 -47 -5 0 8 11 28 25 44 21 25 22 29 7 25 -20 -5 -23 -10 -70 -108 -49
-102 -47 -100 -76 -98 -14 1 -26 -2 -26 -8 0 -5 -5 -9 -11 -9 -16 0 -2 85 22
132 21 41 54 68 84 68 15 0 17 2 6 9 -11 7 -10 11 5 20 11 6 14 11 8 11 -6 0
-27 -11 -47 -24 -28 -19 -38 -22 -46 -12 -6 7 -9 16 -6 19 3 4 2 5 -2 2 -10
-8 -33 16 -33 36 0 15 5 17 33 12 17 -3 40 -10 49 -14 21 -11 28 -11 28 0 0 5
-24 14 -52 21 -83 18 -92 19 -113 10z m281 -168 c6 -1 9 -13 6 -27 -3 -18 -11
-25 -28 -25 -29 0 -32 -6 -36 -62 -3 -46 -18 -57 -45 -35 -18 13 -16 94 3 125
15 26 44 32 100 24z m344 1 c0 -5 13 -15 29 -24 19 -11 31 -29 39 -59 10 -41
6 -81 -7 -63 -3 5 -25 23 -48 42 -24 18 -43 39 -43 46 0 7 -9 15 -20 18 -13 3
-18 11 -14 20 5 14 15 18 57 26 4 0 7 -2 7 -6z m-340 -88 c0 -8 -9 -15 -20
-15 -20 0 -26 11 -13 23 12 13 33 7 33 -8z m-10 -51 c0 -8 -7 -14 -15 -14 -15
0 -21 21 -9 33 10 9 24 -2 24 -19z m-134 -31 c-3 -4 -6 -1 -6 5 0 7 -8 12 -17
12 -15 0 -16 2 -3 10 10 6 17 4 23 -6 5 -9 6 -18 3 -21z m-49 21 c-3 -3 -12
-4 -19 -1 -8 3 -5 6 6 6 11 1 17 -2 13 -5z m-123 -79 c3 -8 1 -15 -4 -15 -6 0
-10 7 -10 15 0 8 2 15 4 15 2 0 6 -7 10 -15z m646 -41 c0 -23 -2 -25 -16 -13
-10 8 -12 15 -5 17 6 2 9 8 5 13 -3 5 0 9 5 9 6 0 11 -12 11 -26z m190 -14 c4
-3 17 -45 29 -93 22 -87 22 -91 6 -165 -9 -43 -19 -85 -21 -94 -8 -28 -24 -21
-24 10 0 37 -14 56 -36 48 -10 -4 -21 -1 -26 6 -5 9 -8 7 -8 -8 0 -28 -10 -36
-28 -21 -13 10 -14 9 -8 -1 11 -19 16 -122 5 -122 -4 0 -5 -8 -2 -17 4 -10 -8
-2 -25 17 -18 19 -32 39 -32 45 1 5 12 -3 25 -20 34 -41 32 -23 -2 21 -22 29
-24 37 -12 45 11 7 10 9 -5 9 -18 0 -18 1 -2 19 19 21 18 40 -4 58 -17 14 -8
15 102 17 57 1 95 16 42 16 -16 1 -66 1 -111 2 -90 1 -91 2 -85 71 1 12 -2 16
-11 11 -9 -6 -9 -5 1 8 6 8 11 27 10 41 -3 30 -18 26 -18 -5 0 -12 -3 -19 -6
-15 -4 3 -3 26 0 51 7 42 9 44 29 36 12 -5 35 -11 51 -15 21 -4 26 -9 17 -14
-7 -5 -22 -6 -32 -4 -24 7 -26 -19 -3 -41 21 -21 27 -20 19 3 -6 19 18 36 36
25 5 -3 9 2 9 10 0 9 17 24 38 35 20 11 33 20 28 21 -5 0 1 12 15 26 21 23 24
24 28 7 2 -10 7 -20 11 -23z m-815 20 c3 -5 1 -10 -4 -10 -6 0 -11 5 -11 10 0
6 2 10 4 10 3 0 8 -4 11 -10z m466 -27 c-10 -17 -10 -16 -11 3 0 23 13 41 18
25 2 -6 -1 -18 -7 -28z m-59 17 c2 -5 1 -32 0 -59 -4 -46 -5 -49 -35 -54 -18
-2 -35 0 -39 6 -9 14 3 80 16 89 6 4 7 8 3 8 -5 0 -5 5 -2 10 8 13 52 13 57 0z
m86 -91 c-7 -5 -8 -9 -3 -9 31 0 56 56 32 71 -6 4 -5 14 2 25 11 20 11 20 15
-11 2 -11 6 -30 10 -42 4 -13 3 -23 -2 -23 -6 0 -4 -22 4 -52 58 -209 59 -213
29 -188 -8 7 -15 24 -15 39 0 15 -5 32 -12 39 -7 7 -9 12 -5 12 4 0 3 10 -4
21 -8 15 -8 19 0 15 12 -8 14 4 5 28 -3 9 -10 13 -15 10 -5 -3 -9 2 -9 11 0
10 -16 23 -40 32 -28 11 -40 22 -41 37 -1 19 -2 18 -9 -4 l-8 -25 -1 25 c-1
30 13 55 27 46 5 -3 18 7 28 22 l19 27 3 -49 c2 -32 -1 -52 -10 -57z m-1608
81 c0 -5 -4 -10 -10 -10 -5 0 -10 5 -10 10 0 6 5 10 10 10 6 0 10 -4 10 -10z
m-13 -42 c-3 -8 -6 -5 -6 6 -1 11 2 17 5 13 3 -3 4 -12 1 -19z m471 -10 c-6
-18 -28 -21 -28 -4 0 9 7 16 16 16 9 0 14 -5 12 -12z m52 -3 c-15 -17 -7 -19
21 -5 16 9 19 7 19 -15 0 -23 -4 -25 -42 -25 -32 0 -39 3 -28 10 13 8 12 10
-2 10 -10 0 -18 4 -18 8 0 14 24 32 43 32 16 0 17 -3 7 -15z m705 5 c-9 -15
-45 -32 -45 -22 0 5 10 14 23 20 29 14 29 14 22 2z m195 -54 c0 -26 -6 -18
-14 19 -5 22 -4 26 4 15 5 -8 10 -24 10 -34z m-1070 19 c15 -18 13 -20 -20
-28 -36 -9 -58 6 -41 27 17 20 45 20 61 1z m655 -115 c35 -37 25 -52 -13 -19
l-27 24 20 -25 c12 -14 26 -36 32 -50 15 -32 63 -200 63 -219 0 -31 -13 3 -40
103 -24 87 -34 110 -61 134 -26 23 -31 33 -25 55 8 34 16 34 51 -3z m-1075
-10 c0 -23 -5 -30 -19 -30 -10 0 -21 9 -24 21 -5 17 -3 18 11 7 13 -11 15 -11
10 4 -7 16 -1 28 14 28 4 0 8 -13 8 -30z m1010 20 c0 -5 -7 -7 -15 -4 -8 4
-15 8 -15 10 0 2 7 4 15 4 8 0 15 -4 15 -10z m205 -50 c-3 -5 -11 -10 -16 -10
-6 0 -7 5 -4 10 3 6 11 10 16 10 6 0 7 -4 4 -10z m-95 -27 c0 -10 3 -29 5 -43
3 -16 0 -12 -9 10 -18 43 -19 50 -6 50 6 0 10 -8 10 -17z m700 1 c0 -8 -4 -12
-10 -9 -5 3 -10 10 -10 16 0 5 5 9 10 9 6 0 10 -7 10 -16z m166 -88 c2 -32 -1
-46 -12 -50 -8 -3 -14 0 -13 7 3 27 -2 47 -12 47 -6 0 -8 -7 -5 -16 4 -9 1
-24 -6 -32 -10 -12 -10 -14 0 -8 6 4 12 3 12 -3 0 -26 -20 -17 -30 14 -9 28
-9 39 1 51 6 8 14 12 17 9 3 -3 12 4 20 16 18 26 24 20 28 -35z m-182 -12 c4
-9 4 -19 2 -21 -8 -8 -26 8 -26 23 0 19 16 18 24 -2z m-962 -146 c-20 -20 -14
-25 57 -47 89 -27 112 -26 145 4 28 26 86 35 86 14 0 -8 5 -8 15 1 31 26 202
-5 192 -34 -2 -6 5 -15 16 -21 11 -5 26 -27 33 -49 l14 -38 -30 4 c-18 3 -31
0 -34 -9 -8 -20 -63 -16 -86 7 l-20 20 0 -20 c0 -25 -27 -37 -43 -20 -9 10 -9
11 0 6 6 -3 14 -2 17 3 3 5 -4 11 -17 15 -31 8 -52 -20 -31 -42 13 -12 13 -16
2 -23 -21 -14 -23 -12 -42 40 -9 27 -26 57 -36 66 -11 10 -17 22 -14 26 3 5
-12 9 -33 9 -21 0 -49 3 -63 5 -14 3 -4 -3 22 -12 26 -10 55 -27 65 -38 24
-26 45 -74 38 -86 -10 -16 -43 -10 -50 10 -4 13 -19 20 -58 25 -106 12 -160 1
-150 -31 3 -7 -3 -13 -12 -13 -11 0 -15 5 -11 15 3 8 1 15 -4 15 -5 0 -11 8
-13 18 -3 10 -5 6 -6 -10 -1 -25 -5 -28 -36 -28 -31 0 -36 3 -41 30 -5 25 -11
30 -35 30 -19 0 -30 -6 -34 -20 -5 -17 -12 -19 -48 -14 -23 4 -59 6 -79 5 -42
-2 -54 10 -38 40 15 27 10 31 -45 39 -40 6 -48 4 -77 -21 -18 -16 -41 -28 -50
-29 -9 0 -20 -4 -23 -10 -10 -16 -35 -12 -29 5 4 8 16 15 28 15 11 0 28 5 36
11 12 8 9 9 -10 4 -20 -5 -16 2 25 40 l50 46 -50 -35 c-27 -19 -63 -45 -79
-57 -59 -46 -19 1 49 58 104 87 108 88 288 74 128 -9 158 -9 192 4 51 18 74
20 57 3z m1199 -39 c-13 -11 -27 -17 -30 -13 -7 7 28 34 43 34 6 -1 0 -10 -13
-21z m34 -8 c-3 -6 -12 -11 -19 -11 -8 0 -16 -8 -20 -17 -3 -10 -10 -25 -15
-33 -5 -8 -14 -26 -19 -40 l-11 -25 0 27 c-1 15 6 33 14 42 8 8 15 19 15 25 0
11 51 53 58 47 2 -3 1 -9 -3 -15z m-190 -31 c3 -5 1 -10 -4 -10 -6 0 -11 5
-11 10 0 6 2 10 4 10 3 0 8 -4 11 -10z m110 -7 c-4 -10 -12 -37 -17 -61 -5
-23 -14 -40 -19 -36 -21 13 3 114 28 114 11 0 13 -5 8 -17z m-1530 -63 c0 -8
-8 -16 -19 -18 -11 -3 -16 0 -12 7 4 7 -1 11 -13 11 -12 0 -21 5 -21 11 0 6
14 9 33 7 20 -2 32 -8 32 -18z m-75 -5 c0 -10 -10 -15 -27 -15 -26 0 -26 1 -7
15 25 19 34 19 34 0z m308 -38 c4 -19 -6 -21 -27 -8 -16 10 -5 34 12 28 7 -2
13 -11 15 -20z m-558 3 c0 -5 -4 -10 -10 -10 -5 0 -10 5 -10 10 0 6 5 10 10
10 6 0 10 -4 10 -10z m847 -25 c-1 -5 -29 -10 -62 -11 -64 -1 -78 2 -70 16 7
11 135 7 132 -5z m-789 -29 c2 -16 -1 -26 -6 -22 -5 3 -18 -1 -28 -9 -10 -8
-35 -14 -54 -14 l-35 0 23 17 c13 9 35 27 50 39 33 28 46 25 50 -11z m818 7
c-10 -10 -19 5 -10 18 6 11 8 11 12 0 2 -7 1 -15 -2 -18z m789 7 c-3 -5 -22
-10 -41 -10 -21 0 -33 4 -29 10 3 6 22 10 41 10 21 0 33 -4 29 -10z m-2164
-53 c-13 -13 -15 11 -4 40 7 16 8 15 11 -6 2 -13 -1 -28 -7 -34z m85 -15 c-11
-10 -14 3 -7 38 l6 35 3 -33 c2 -19 1 -36 -2 -40z m-26 48 c0 -5 -2 -10 -4
-10 -3 0 -8 5 -11 10 -3 6 -1 10 4 10 6 0 11 -4 11 -10z m1660 -46 c0 -1 -3
-10 -6 -19 -6 -14 -8 -14 -27 2 -19 18 -19 17 -13 -4 5 -17 3 -23 -8 -23 -19
0 -29 17 -22 35 3 9 18 14 41 13 19 -1 35 -2 35 -4z m-1235 -27 c11 4 13 1 9
-11 -3 -9 -8 -16 -9 -16 -9 0 -35 33 -35 43 0 7 5 4 11 -5 5 -10 16 -15 24
-11z m1122 6 c2 -6 -7 -8 -21 -6 -14 3 -24 9 -21 13 7 11 38 6 42 -7z m-1262
-3 c8 -13 -5 -13 -25 0 -13 8 -13 10 2 10 9 0 20 -4 23 -10z m115 -55 c12 -4
19 -9 17 -12 -7 -6 -67 26 -67 36 0 18 15 20 21 2 4 -10 17 -22 29 -26z m1190
14 c0 -25 8 -24 31 4 l19 22 -9 -25 c-7 -21 -16 -26 -51 -28 -23 -2 -50 0 -59
4 -9 4 -23 6 -30 5 -13 -2 -13 0 -1 14 10 13 15 13 21 3 5 -7 9 -9 9 -4 0 5 7
3 14 -4 10 -8 21 -8 32 -2 11 6 13 11 5 16 -6 4 -11 1 -11 -6 0 -10 -3 -9 -10
2 -6 9 -5 17 2 21 17 11 38 -1 38 -22z m-1086 -25 c3 -8 2 -12 -4 -9 -6 3 -10
10 -10 16 0 14 7 11 14 -7z m-27 -26 c-3 -8 -6 -5 -6 6 -1 11 2 17 5 13 3 -3
4 -12 1 -19z m971 -17 c-15 -5 -21 7 -13 26 7 17 8 17 15 -2 4 -11 3 -22 -2
-24z m168 18 c4 -8 0 -9 -15 -4 -12 4 -21 2 -21 -4 0 -6 -12 -11 -27 -10 -25
0 -26 1 -8 9 16 6 12 9 -20 12 -31 4 -27 5 22 6 36 1 65 -3 69 -9z m-1032 -8
c3 -5 -1 -11 -9 -14 -9 -4 -12 -1 -8 9 6 16 10 17 17 5z m-514 -21 c0 -5 -4
-10 -10 -10 -5 0 -10 5 -10 10 0 6 5 10 10 10 6 0 10 -4 10 -10z m1084 -22
c15 -57 3 -88 -35 -88 -13 0 -11 84 3 98 17 17 25 15 32 -10z m71 12 l-30 -7
28 -7 c15 -5 27 -12 27 -17 0 -5 9 -9 20 -9 11 0 20 -7 20 -15 0 -8 -9 -15
-20 -15 -11 0 -20 -7 -20 -15 0 -11 -11 -15 -37 -15 l-38 0 -1 55 -2 55 42 -1
c38 -1 39 -2 11 -9z m1372 -42 c-3 -7 -5 -2 -5 12 0 14 2 19 5 13 2 -7 2 -19
0 -25z m-2396 -11 c-10 -9 -11 -8 -5 6 3 10 9 15 12 12 3 -3 0 -11 -7 -18z
m-91 -11 c0 -9 -30 -14 -35 -6 -4 6 3 10 14 10 12 0 21 -2 21 -4z m44 -32 c31
-12 -6 -29 -56 -26 -40 3 -47 6 -37 18 12 14 65 19 93 8z m211 -4 c34 -1 37
-2 21 -12 -23 -13 -117 -21 -96 -7 11 6 6 9 -18 9 -22 0 -31 4 -26 11 4 7 21
9 43 5 20 -3 54 -6 76 -6z m-135 -20 c0 -5 -5 -10 -11 -10 -5 0 -7 5 -4 10 3
6 8 10 11 10 2 0 4 -4 4 -10z m139 -40 c-6 -16 -15 -30 -21 -30 -6 0 -7 7 -4
16 3 9 6 22 6 30 0 8 7 14 14 14 12 0 13 -6 5 -30z m-331 -6 c-14 -15 -32 -24
-39 -22 -17 6 25 48 48 48 14 0 13 -5 -9 -26z m112 19 c0 -4 -10 -17 -21 -29
-17 -19 -26 -21 -41 -13 -11 6 -26 8 -34 5 -18 -7 -18 3 1 25 15 16 95 26 95
12z m460 -8 c0 -8 -9 -15 -20 -15 -20 0 -26 11 -13 23 12 13 33 7 33 -8z
m-360 -2 c0 -4 -12 -21 -27 -38 -16 -17 -11 -14 10 7 33 33 67 50 67 32 0 -3
-18 -26 -40 -51 -22 -25 -40 -52 -40 -59 0 -8 -6 -14 -14 -14 -8 0 -18 -4 -21
-10 -3 -6 1 -7 9 -4 27 10 18 -23 -16 -63 -18 -21 -37 -43 -43 -49 -124 -137
-184 -202 -204 -218 -13 -12 -32 -30 -42 -40 -10 -11 -22 -16 -26 -12 -4 4 0
12 9 17 9 5 27 24 38 42 l22 32 -26 -27 c-20 -23 -34 -28 -70 -28 -25 0 -47 4
-50 9 -7 11 251 301 269 301 8 0 11 7 8 19 -4 16 1 19 36 19 49 1 52 -10 11
-44 -16 -14 -29 -30 -27 -37 1 -6 -10 -17 -25 -24 -16 -8 -28 -20 -28 -27 0
-8 -10 -11 -27 -9 -19 3 -31 -1 -39 -14 -10 -16 -7 -18 24 -18 30 0 42 9 88
60 29 32 51 62 48 67 -3 4 2 5 10 2 11 -4 16 0 16 13 0 10 5 24 12 31 7 7 8
12 4 12 -5 0 -2 8 5 18 13 15 12 16 -3 4 -10 -8 -23 -12 -30 -10 -8 3 9 27 41
61 50 53 71 68 71 50z m-256 -58 c-4 -8 -10 -15 -15 -15 -4 0 -6 7 -3 15 4 8
10 15 15 15 4 0 6 -7 3 -15z m106 -4 c0 -12 -20 -25 -27 -18 -7 7 6 27 18 27
5 0 9 -4 9 -9z m400 -1 c0 -5 -7 -10 -15 -10 -8 0 -15 -4 -15 -10 0 -5 -15 -9
-32 -9 -30 2 -30 2 -6 6 18 3 25 9 21 19 -4 10 2 14 21 14 14 0 26 -4 26 -10z
m746 -15 c19 -8 38 -25 43 -39 6 -13 15 -27 21 -31 5 -3 8 -10 5 -15 -3 -4 3
-11 12 -14 15 -6 13 -10 -12 -32 -17 -14 -37 -23 -47 -21 -20 6 -23 -3 -8 -21
6 -6 7 -10 4 -7 -4 3 -13 0 -20 -6 -19 -16 -31 -4 -38 40 -4 29 -10 39 -20 35
-16 -6 -14 -40 3 -36 6 1 11 -2 11 -8 0 -5 -4 -10 -10 -10 -5 0 -10 -7 -10
-16 0 -9 5 -12 13 -8 9 6 8 3 -1 -9 -12 -13 -10 -18 7 -29 12 -7 21 -18 21
-25 0 -6 5 -13 12 -15 6 -2 8 -9 4 -16 -11 -18 -38 -2 -33 19 3 12 0 19 -10
19 -8 0 -11 -4 -8 -10 3 -5 2 -10 -4 -10 -17 0 -30 33 -41 106 -10 63 -14 72
-53 106 -23 21 -50 38 -59 38 -21 0 -24 16 -5 23 33 11 191 6 223 -8z m-168
-58 c33 -34 56 -117 33 -117 -7 0 -10 4 -6 10 3 5 -5 16 -19 25 -13 9 -26 24
-29 34 -2 10 -28 29 -56 44 -41 20 -49 27 -36 34 29 17 82 2 113 -30z m-705 5
c-27 -24 -30 -29 -18 -45 15 -20 18 -117 3 -117 -5 0 -7 -4 -3 -9 8 -14 -31
-27 -90 -31 -17 -1 -24 -4 -15 -7 8 -3 19 -12 23 -20 5 -8 16 -11 27 -8 14 5
18 1 17 -15 -1 -12 -8 -20 -19 -20 -10 0 -18 -4 -18 -9 0 -5 -13 -14 -30 -19
-28 -10 -30 -10 -36 24 -4 22 -2 40 5 47 6 6 11 21 11 34 0 20 5 23 35 23 19
0 35 5 35 10 0 6 -18 10 -41 10 -32 0 -42 -4 -46 -20 -4 -13 -14 -20 -30 -20
-20 0 -23 4 -18 23 4 12 23 47 44 77 29 42 53 63 100 88 78 40 109 42 64 4z
m1407 -3 c36 -1 52 -4 36 -6 -18 -3 -44 -20 -63 -41 -36 -39 -36 -58 0 -24 44
42 55 24 13 -21 -35 -37 -58 -80 -91 -172 l-7 -20 -8 20 c-4 11 -5 24 -3 28 3
5 -4 4 -16 -3 -12 -6 -19 -16 -15 -22 4 -7 9 -6 15 3 7 11 9 10 9 -4 0 -15 -7
-18 -32 -15 -29 3 -33 7 -36 36 -3 31 -5 32 -48 32 -41 0 -45 -2 -50 -30 -8
-36 -17 -38 -38 -8 -18 25 -21 42 -6 33 5 -3 7 0 4 9 -16 43 50 142 118 177
46 24 106 39 133 33 11 -2 49 -4 85 -5z m125 -19 c-3 -5 -10 -10 -16 -10 -5 0
-9 5 -9 10 0 6 7 10 16 10 8 0 12 -4 9 -10z m75 -142 c0 -6 -9 1 -20 15 -11
14 -20 29 -20 34 1 11 40 -37 40 -49z m574 39 c16 -12 17 -17 6 -36 -8 -15 -8
-21 -1 -17 20 13 11 -18 -27 -90 -37 -70 -38 -72 -62 -58 -14 7 -37 13 -52 14
-20 0 -28 5 -28 18 0 14 2 15 10 2 5 -8 13 -11 17 -6 4 4 -3 16 -16 27 l-23
19 40 38 c22 20 47 52 56 70 18 35 48 42 80 19z m-1440 -23 c9 -3 16 -15 16
-25 0 -17 -3 -18 -20 -9 -11 6 -20 17 -20 25 0 17 2 17 24 9z m701 -4 c-3 -6
-19 -17 -36 -25 -16 -9 -29 -22 -29 -29 0 -8 -9 -16 -20 -19 -11 -3 -20 -10
-20 -16 0 -6 6 -8 14 -5 19 7 10 -32 -16 -65 -16 -21 -18 -22 -19 -5 -4 73 14
118 60 150 36 24 78 33 66 14z m45 6 c0 -3 -4 -8 -10 -11 -5 -3 -10 -1 -10 4
0 6 5 11 10 11 6 0 10 -2 10 -4z m-1320 -16 c0 -5 -7 -10 -15 -10 -8 0 -15 5
-15 10 0 6 7 10 15 10 8 0 15 -4 15 -10z m420 -5 c0 -8 -9 -15 -20 -15 -20 0
-26 11 -13 23 12 13 33 7 33 -8z m460 5 c0 -5 -7 -7 -15 -4 -8 4 -15 8 -15 10
0 2 7 4 15 4 8 0 15 -4 15 -10z m485 -48 c-6 -7 -35 18 -35 31 0 5 9 2 20 -8
11 -10 18 -20 15 -23z m-1702 -9 c-7 -2 -21 -2 -30 0 -10 3 -4 5 12 5 17 0 24
-2 18 -5z m1192 -3 c3 -5 -1 -10 -9 -10 -9 0 -16 5 -16 10 0 6 4 10 9 10 6 0
13 -4 16 -10z m1235 0 c0 -5 -5 -10 -11 -10 -5 0 -7 5 -4 10 3 6 8 10 11 10 2
0 4 -4 4 -10z m-1060 -25 c0 -22 -4 -25 -35 -25 -19 0 -35 4 -35 9 0 27 15 41
41 41 24 0 29 -4 29 -25z m-1368 -45 c1 -33 0 -60 -4 -60 -5 0 -8 9 -8 21 0
11 -4 18 -9 14 -11 -6 -35 61 -26 75 3 5 15 10 25 10 15 0 19 -9 22 -60z
m1568 20 c0 -5 -4 -10 -10 -10 -5 0 -10 5 -10 10 0 6 5 10 10 10 6 0 10 -4 10
-10z m-299 -63 l0 -22 9 23 c6 13 18 22 30 22 12 0 18 5 15 10 -3 6 -1 10 4
10 6 0 11 -5 11 -11 0 -5 5 -7 10 -4 6 4 10 -6 10 -24 0 -16 3 -37 7 -47 5
-15 2 -16 -24 -11 -17 3 -35 1 -42 -6 -8 -8 -11 -5 -12 14 0 13 -3 18 -6 12
-5 -15 -33 -18 -33 -4 0 5 -9 12 -20 16 -16 5 -19 14 -18 45 l1 39 29 -20 c15
-11 28 -30 29 -42z m337 -23 l32 -65 -32 3 c-17 2 -33 9 -36 17 -3 9 1 11 16
6 20 -6 21 -4 11 25 -10 26 -13 28 -23 15 -9 -13 -12 -12 -22 9 -10 21 -9 23
10 18 17 -4 19 -2 9 9 -15 15 -17 29 -5 29 4 0 22 -30 40 -66z m-203 46 c-11
-5 -14 -9 -6 -9 10 -1 11 -4 2 -14 -6 -8 -8 -17 -5 -20 3 -3 2 -12 -2 -19 -6
-9 -10 -4 -14 17 -8 41 -2 55 24 54 20 0 20 -1 1 -9z m75 -7 c-1 -19 -16 -31
-29 -24 -7 5 -10 14 -7 20 8 12 36 15 36 4z m-1915 -13 c3 -5 1 -10 -4 -10 -6
0 -11 5 -11 10 0 6 2 10 4 10 3 0 8 -4 11 -10z m2670 0 c3 -5 15 -10 26 -10
16 0 19 -4 13 -22 -12 -41 -41 -93 -63 -112 -23 -21 -51 -71 -51 -91 0 -16
-25 -26 -44 -19 -8 3 -20 -3 -27 -13 -14 -19 -65 -30 -54 -12 4 5 13 9 21 9 9
0 14 6 11 13 -2 6 12 41 32 76 19 36 29 61 23 57 -23 -14 -12 38 16 82 37 55
48 43 16 -19 -31 -62 -24 -63 12 -2 42 72 56 85 69 63z m-2595 -38 c0 -4 -16
-7 -35 -8 -19 0 -35 3 -35 8 0 4 16 8 35 8 19 0 35 -3 35 -8z m-153 -51 c-1
-15 -4 -17 -19 -7 -21 13 -23 23 -5 29 18 6 26 -1 24 -22z m153 -1 c0 -5 -4
-10 -10 -10 -5 0 -10 5 -10 10 0 6 5 10 10 10 6 0 10 -4 10 -10z m1990 -30 c0
-5 -5 -10 -11 -10 -5 0 -7 5 -4 10 3 6 8 10 11 10 2 0 4 -4 4 -10z m-2177 -15
c4 -8 2 -17 -4 -21 -15 -9 -39 3 -39 21 0 19 36 20 43 0z m2442 -95 c-3 -5
-10 -10 -16 -10 -5 0 -9 5 -9 10 0 6 7 10 16 10 8 0 12 -4 9 -10z m225 -44 c0
-25 -12 -46 -26 -46 -17 0 -18 14 -4 41 12 22 30 25 30 5z m-450 -16 c0 -5 -4
-10 -10 -10 -5 0 -10 5 -10 10 0 6 5 10 10 10 6 0 10 -4 10 -10z m380 -20 c9
0 20 -36 13 -43 -5 -5 -53 40 -53 50 0 3 7 2 16 -1 9 -3 19 -6 24 -6z m44 -58
c3 -5 -1 -9 -9 -9 -8 0 -15 4 -15 9 0 4 4 8 9 8 6 0 12 -4 15 -8z m-65 -20
c13 -25 -4 -51 -29 -45 -11 3 -20 12 -20 19 0 20 -17 17 -29 -3 -6 -10 -11
-13 -11 -8 -1 43 70 73 89 37z m31 -66 c0 -14 -4 -28 -10 -31 -6 -4 -10 7 -10
24 0 17 5 31 10 31 6 0 10 -11 10 -24z m-90 -9 c0 -13 5 -28 10 -33 15 -15
-43 -76 -63 -68 -27 10 -29 51 -5 89 27 40 58 47 58 12z m20 -90 c0 -2 -10
-12 -22 -23 l-23 -19 19 23 c18 21 26 27 26 19z m-1460 -51 c0 -15 -18 -31
-26 -23 -7 7 7 37 17 37 5 0 9 -6 9 -14z m63 -14 c-3 -12 -10 -22 -15 -22 -5
0 -7 3 -5 8 2 4 7 16 11 26 9 25 17 16 9 -12z m1158 -89 c0 -15 2 -15 9 2 7
17 9 15 9 -12 1 -18 -3 -33 -9 -33 -5 0 -10 5 -10 10 0 6 -6 10 -14 10 -9 0
-12 7 -9 20 7 25 23 26 24 3z m-1368 -193 c-5 -19 -23 -29 -23 -12 0 7 20 32
26 32 1 0 0 -9 -3 -20z m1239 15 c3 -3 -7 -31 -23 -63 -15 -32 -29 -67 -31
-77 -1 -11 -11 -29 -20 -39 -10 -11 -18 -25 -18 -30 0 -6 7 -2 16 9 12 16 16
17 23 6 10 -15 -24 -61 -45 -61 -26 0 -32 86 -9 149 13 39 45 83 45 64 1 -4 8
4 16 20 13 25 33 34 46 22z m43 -46 c-4 -12 -18 -37 -31 -56 l-24 -36 0 31 c0
17 5 34 11 38 6 3 9 15 6 25 -4 15 0 19 20 19 20 0 23 -4 18 -21z m-745 -5 c0
-8 -5 -12 -10 -9 -6 4 -8 11 -5 16 9 14 15 11 15 -7z m880 -49 c-16 -41 -21
-25 -7 20 6 22 13 33 15 24 1 -9 -2 -28 -8 -44z m-117 25 c3 -11 1 -20 -4 -20
-5 0 -9 9 -9 20 0 11 2 20 4 20 2 0 6 -9 9 -20z m-1253 -52 c0 -10 -97 -197
-109 -210 -3 -4 -16 -5 -28 -2 -20 6 -19 10 29 107 27 56 54 107 59 113 11 14
49 7 49 -8z m1331 -72 c-12 -11 -21 -15 -21 -9 0 6 7 16 15 23 8 7 16 22 16
34 2 19 2 18 6 -3 3 -15 -3 -31 -16 -45z m262 49 c-3 -9 -8 -14 -10 -11 -3 3
-2 9 2 15 9 16 15 13 8 -4z m-429 -10 c3 -8 1 -15 -4 -15 -6 0 -10 7 -10 15 0
8 2 15 4 15 2 0 6 -7 10 -15z m496 -10 c0 -8 -7 -15 -15 -15 -16 0 -20 12 -8
23 11 12 23 8 23 -8z m-1260 -20 c0 -8 -7 -15 -15 -15 -16 0 -20 12 -8 23 11
12 23 8 23 -8z m1103 -90 c-3 -9 -8 -14 -10 -11 -3 3 -2 9 2 15 9 16 15 13 8
-4z m49 -38 c-19 -53 -32 -61 -32 -19 0 25 36 79 46 70 1 -2 -5 -25 -14 -51z
m-95 25 c13 10 15 9 11 -7 -2 -11 -9 -19 -15 -18 -6 1 -8 -9 -5 -23 2 -13 -1
-30 -7 -37 -12 -15 -5 -27 14 -27 7 0 11 10 8 23 -5 29 12 56 27 41 7 -7 5
-24 -7 -57 -10 -26 -20 -47 -24 -47 -21 0 -34 49 -30 110 2 36 6 57 9 47 3
-15 6 -16 19 -5z m-227 -23 c0 -11 -4 -17 -10 -14 -17 11 -11 -4 11 -26 15
-15 19 -28 15 -47 -5 -20 -4 -23 3 -12 6 8 13 11 17 7 4 -4 -4 -31 -18 -59
-15 -29 -28 -60 -31 -68 -2 -8 -4 7 -4 33 0 26 3 43 7 37 5 -8 9 -6 14 6 3 9
4 19 1 22 -3 3 -5 -1 -5 -9 0 -11 -2 -11 -9 -1 -6 10 -12 4 -22 -20 -8 -18
-14 -37 -14 -43 0 -5 -15 -11 -33 -13 -34 -3 -34 -3 -27 30 4 18 18 62 32 98
13 36 27 73 30 83 8 25 43 22 43 -4z m385 11 c-3 -5 -15 -15 -26 -21 -19 -10
-20 -9 -9 10 6 12 18 21 26 21 8 0 12 -4 9 -10z m-200 -69 c6 -10 -32 -51 -47
-51 -17 0 -7 18 12 23 11 3 20 12 20 21 0 18 6 21 15 7z m-24 -212 c-5 -13
-10 -19 -10 -12 -1 15 10 45 15 40 3 -2 0 -15 -5 -28z m-1714 -111 c-3 -8 -6
-5 -6 6 -1 11 2 17 5 13 3 -3 4 -12 1 -19z m413 -23 c39 -20 38 -24 -8 -18
-27 4 -42 1 -51 -11 -17 -20 -31 -21 -31 -2 0 15 36 46 53 46 4 0 21 -7 37
-15z m-584 -140 c19 -14 19 -14 -2 -15 -12 0 -24 7 -28 15 -7 19 5 19 30 0z
m134 -15 c0 -11 -4 -20 -9 -20 -5 0 -11 9 -14 20 -3 13 0 20 9 20 8 0 14 -9
14 -20z m1755 0 c3 -5 1 -10 -4 -10 -6 0 -11 5 -11 10 0 6 2 10 4 10 3 0 8 -4
11 -10z m-23 -41 c-3 -23 -2 -23 14 -4 13 17 15 17 10 3 -3 -10 -1 -18 4 -18
6 0 7 -15 4 -35 -3 -22 -1 -35 5 -35 6 0 11 -4 11 -9 0 -6 -9 -9 -20 -8 -20 1
-23 7 -34 72 -2 17 -8 38 -12 49 -5 14 -3 17 7 14 8 -3 13 -15 11 -29z m-1692
17 c0 -11 -19 -15 -25 -6 -3 5 1 10 9 10 9 0 16 -2 16 -4z m1550 0 c0 -3 -4
-8 -10 -11 -5 -3 -10 -1 -10 4 0 6 5 11 10 11 6 0 10 -2 10 -4z m218 -45 c2
-18 -2 -39 -9 -45 -9 -8 -10 -6 -6 11 2 12 -1 30 -9 40 -18 25 -17 35 4 31 11
-2 18 -14 20 -37z m-206 7 c-7 -7 -12 -8 -12 -2 0 14 12 26 19 19 2 -3 -1 -11
-7 -17z m-357 -69 c-15 -7 -11 -8 19 -5 25 3 43 0 52 -9 24 -23 17 -38 -15
-32 -15 3 -51 9 -80 13 -31 4 -51 12 -51 19 0 17 17 23 60 24 29 0 32 -2 15
-10z m-1275 -19 c0 -5 -2 -10 -4 -10 -3 0 -8 5 -11 10 -3 6 -1 10 4 10 6 0 11
-4 11 -10z m-15 -39 c-3 -6 -11 -11 -17 -11 -6 0 -6 6 2 15 14 17 26 13 15 -4z
m2238 -48 c4 -2 7 -14 8 -26 0 -19 1 -20 8 -4 6 17 8 17 25 -2 11 -12 16 -21
11 -21 -4 0 3 -9 16 -19 13 -11 21 -23 16 -27 -4 -4 -14 1 -23 12 -8 10 -13
13 -9 7 9 -19 -6 -16 -20 3 -10 14 -14 14 -26 3 -19 -19 -34 -21 -63 -9 -34
13 -25 43 10 34 33 -8 31 14 -3 44 l-28 23 35 -7 c19 -3 38 -8 43 -11z m-789
-8 c3 -8 1 -15 -4 -15 -6 0 -10 7 -10 15 0 8 2 15 4 15 2 0 6 -7 10 -15z
m-229 -144 c-4 -14 1 -20 22 -24 24 -4 25 -4 10 8 -27 20 -21 22 43 11 68 -11
83 -31 18 -22 -43 5 -43 5 -9 -5 19 -6 45 -9 56 -6 14 2 22 -1 22 -11 0 -10
-10 -12 -41 -8 -23 3 -74 8 -113 12 -40 4 -73 10 -73 15 0 10 49 49 62 49 5 0
7 -8 3 -19z m1242 -7 c-3 -3 -12 -4 -19 -1 -8 3 -5 6 6 6 11 1 17 -2 13 -5z
m-1300 -181 c-3 -5 11 -8 31 -8 29 0 37 -4 40 -20 2 -15 1 -17 -6 -6 -12 17
-24 -1 -15 -25 5 -14 2 -16 -18 -11 -13 4 -29 7 -36 7 -6 0 -18 7 -27 15 -14
14 -14 18 2 35 16 19 38 29 29 13z"/>
<path d="M2795 4101 c-3 -5 -1 -12 5 -16 5 -3 10 1 10 9 0 18 -6 21 -15 7z"/>
<path d="M1275 3630 c-3 -5 -2 -10 4 -10 5 0 13 5 16 10 3 6 2 10 -4 10 -5 0
-13 -4 -16 -10z"/>
<path d="M1653 3633 c9 -2 23 -2 30 0 6 3 -1 5 -18 5 -16 0 -22 -2 -12 -5z"/>
<path d="M746 2893 c-6 -14 -5 -15 5 -6 7 7 10 15 7 18 -3 3 -9 -2 -12 -12z"/>
<path d="M1805 2940 c-3 -5 1 -10 10 -10 9 0 13 5 10 10 -3 6 -8 10 -10 10 -2
0 -7 -4 -10 -10z"/>
<path d="M1756 2907 c3 -10 9 -15 12 -12 3 3 0 11 -7 18 -10 9 -11 8 -5 -6z"/>
<path d="M1843 2876 c-8 -10 -9 -16 0 -25 17 -17 31 -13 17 4 -11 13 -10 14 6
8 17 -6 17 -5 5 10 -16 20 -13 20 -28 3z"/>
<path d="M2278 2913 c6 -2 18 -2 25 0 6 3 1 5 -13 5 -14 0 -19 -2 -12 -5z"/>
<path d="M2001 2614 c0 -11 3 -14 6 -6 3 7 2 16 -1 19 -3 4 -6 -2 -5 -13z"/>
<path d="M2310 1609 c0 -5 5 -7 10 -4 6 3 10 8 10 11 0 2 -4 4 -10 4 -5 0 -10
-5 -10 -11z"/>
<path d="M2295 4590 c-4 -6 3 -10 14 -10 25 0 27 6 6 13 -8 4 -17 2 -20 -3z"/>
<path d="M2853 4585 c21 -75 27 -107 21 -118 -5 -9 -4 -9 5 -1 10 9 9 24 -3
69 -8 31 -18 60 -22 63 -3 4 -4 -2 -1 -13z"/>
<path d="M2024 4581 c4 -5 0 -12 -6 -14 -8 -3 -6 -6 5 -6 9 -1 17 6 17 14 0 8
-5 15 -11 15 -5 0 -8 -4 -5 -9z"/>
<path d="M1432 4520 c-14 -23 -15 -30 -3 -30 8 0 24 41 18 47 -2 1 -8 -7 -15
-17z"/>
<path d="M1330 4523 c0 -5 8 -17 17 -28 13 -16 15 -17 10 -2 -4 9 -2 17 3 17
6 0 10 5 10 10 0 6 -9 10 -20 10 -11 0 -20 -3 -20 -7z"/>
<path d="M2046 4478 l-18 -33 21 25 c18 22 26 40 18 40 -1 0 -11 -15 -21 -32z"/>
<path d="M1200 4465 c-5 -14 -17 -40 -26 -58 -16 -31 -16 -32 2 -15 11 9 29
26 42 38 25 23 30 60 7 60 -9 0 -20 -11 -25 -25z"/>
<path d="M1061 4446 c-25 -7 -49 -20 -55 -31 -6 -11 -14 -22 -17 -25 -3 -3 -9
-14 -12 -24 -6 -16 -5 -17 8 -6 8 7 28 10 45 8 16 -3 28 -2 25 0 -6 6 15 32
26 32 5 0 6 -7 3 -15 -4 -8 -1 -15 5 -15 6 0 10 3 10 8 -3 19 2 32 13 30 17
-4 22 38 6 44 -7 3 -33 0 -57 -6z m49 -20 c-21 -20 -104 -33 -98 -15 5 15 39
27 83 28 25 1 27 -1 15 -13z"/>
<path d="M1634 4398 c-19 -23 -19 -23 1 -7 11 10 29 19 40 22 19 4 19 5 -1 6
-11 0 -29 -9 -40 -21z"/>
<path d="M2002 4349 c-43 -69 -40 -76 4 -11 20 30 34 56 31 58 -2 2 -18 -19
-35 -47z"/>
<path d="M1250 4375 c0 -5 5 -17 10 -25 5 -8 10 -10 10 -5 0 6 -5 17 -10 25
-5 8 -10 11 -10 5z"/>
<path d="M1123 4353 c-18 -6 -16 -23 1 -23 17 0 30 16 19 23 -5 2 -14 2 -20 0z"/>
<path d="M1570 4315 c-6 -8 -10 -19 -8 -24 1 -6 8 1 15 14 13 28 11 31 -7 10z"/>
<path d="M1820 4272 c0 -12 19 -26 26 -19 2 2 -2 10 -11 17 -9 8 -15 8 -15 2z"/>
<path d="M1075 4150 c-3 -5 1 -10 9 -10 8 0 18 5 21 10 3 6 -1 10 -9 10 -8 0
-18 -4 -21 -10z"/>
<path d="M822 4090 c0 -14 2 -19 5 -12 2 6 2 18 0 25 -3 6 -5 1 -5 -13z"/>
<path d="M2981 3934 c0 -11 3 -14 6 -6 3 7 2 16 -1 19 -3 4 -6 -2 -5 -13z"/>
<path d="M1166 3901 c-3 -4 3 -16 14 -26 20 -18 28 -55 11 -55 -4 0 -29 -16
-55 -36 -26 -20 -50 -34 -52 -31 -3 3 8 15 25 28 43 31 47 49 12 49 -24 0 -31
-6 -40 -32 -9 -25 -14 -30 -21 -19 -7 12 -12 12 -23 3 -11 -9 -23 -9 -53 2
-33 11 -45 11 -84 -2 -44 -15 -60 -27 -60 -47 1 -5 5 -2 10 7 14 23 75 41 115
34 51 -10 57 -30 6 -21 -40 7 -111 -9 -111 -25 0 -15 25 -28 63 -32 33 -4 43
1 79 34 32 29 44 35 55 27 19 -16 16 -29 -5 -29 -11 0 -27 -10 -38 -22 -19
-23 -19 -23 2 -5 11 9 29 17 39 17 9 0 47 21 84 48 36 26 75 50 86 54 17 5 17
6 3 7 -28 2 -21 21 7 21 31 0 75 27 75 46 0 11 -17 14 -69 14 -39 0 -72 -4
-75 -9z"/>
<path d="M2971 3884 c0 -11 3 -14 6 -6 3 7 2 16 -1 19 -3 4 -6 -2 -5 -13z"/>
<path d="M1110 3861 c0 -15 38 -20 44 -5 4 10 -2 14 -19 14 -14 0 -25 -4 -25
-9z"/>
<path d="M1340 3860 c0 -5 7 -10 16 -10 8 0 12 5 9 10 -3 6 -10 10 -16 10 -5
0 -9 -4 -9 -10z"/>
<path d="M786 3825 c-22 -19 -37 -37 -35 -40 3 -2 23 13 44 35 48 49 43 51 -9
5z"/>
<path d="M1318 3823 c6 -2 18 -2 25 0 6 3 1 5 -13 5 -14 0 -19 -2 -12 -5z"/>
<path d="M1211 3801 c-7 -5 17 -7 60 -4 99 6 109 11 24 12 -38 0 -76 -3 -84
-8z"/>
<path d="M1629 3790 c-12 -13 -43 -19 -130 -24 -62 -4 -120 -12 -129 -17 -12
-8 -11 -9 5 -5 11 3 70 8 132 12 91 5 115 10 129 25 21 24 15 32 -7 9z"/>
<path d="M1145 3750 c-8 -13 -1 -24 14 -19 6 3 7 10 2 18 -6 10 -10 10 -16 1z"/>
<path d="M762 3720 c-10 -17 -10 -20 6 -20 11 0 18 7 18 20 0 11 -3 20 -6 20
-3 0 -11 -9 -18 -20z"/>
<path d="M657 3713 c-4 -3 -7 -15 -7 -25 0 -14 6 -19 23 -16 29 4 38 48 9 48
-10 0 -22 -3 -25 -7z m19 -30 c-10 -10 -19 5 -10 18 6 11 8 11 12 0 2 -7 1
-15 -2 -18z"/>
<path d="M850 3706 c0 -18 22 -46 35 -46 8 0 15 -7 15 -15 0 -8 5 -15 10 -15
6 0 10 6 10 14 0 9 12 16 32 18 17 2 33 10 36 18 4 12 2 13 -9 3 -15 -15 -113
-18 -105 -4 3 5 -1 14 -9 21 -8 7 -15 9 -15 6z"/>
<path d="M3379 3681 c14 -12 19 -25 14 -36 -4 -12 -3 -16 4 -12 6 4 14 1 17
-5 3 -7 3 -2 0 12 -7 28 -32 60 -47 60 -6 0 0 -8 12 -19z"/>
<path d="M3120 3680 c-18 -12 -2 -12 25 0 13 6 15 9 5 9 -8 0 -22 -4 -30 -9z"/>
<path d="M3315 3680 c3 -5 8 -10 11 -10 2 0 4 5 4 10 0 6 -5 10 -11 10 -5 0
-7 -4 -4 -10z"/>
<path d="M3441 3654 c0 -11 3 -14 6 -6 3 7 2 16 -1 19 -3 4 -6 -2 -5 -13z"/>
<path d="M3330 3594 c-35 -79 -37 -85 -10 -56 11 12 20 27 20 35 0 7 4 17 9
23 10 11 24 64 16 64 -3 0 -18 -30 -35 -66z"/>
<path d="M902 3571 c-27 -22 -52 -38 -55 -35 -2 3 -7 -2 -10 -11 -10 -23 1
-18 57 27 70 57 71 58 64 58 -3 0 -29 -18 -56 -39z"/>
<path d="M2970 3585 c-7 -9 -11 -17 -9 -20 3 -2 10 5 17 15 14 24 10 26 -8 5z"/>
<path d="M3420 3581 c0 -25 6 -27 13 -6 4 8 2 17 -3 20 -6 4 -10 -3 -10 -14z"/>
<path d="M540 3580 c0 -5 7 -7 15 -4 8 4 15 8 15 10 0 2 -7 4 -15 4 -8 0 -15
-4 -15 -10z"/>
<path d="M3461 3544 c0 -11 3 -14 6 -6 3 7 2 16 -1 19 -3 4 -6 -2 -5 -13z"/>
<path d="M2935 3530 c-3 -5 -2 -10 4 -10 5 0 13 5 16 10 3 6 2 10 -4 10 -5 0
-13 -4 -16 -10z"/>
<path d="M3471 3494 c0 -11 3 -14 6 -6 3 7 2 16 -1 19 -3 4 -6 -2 -5 -13z"/>
<path d="M2963 3486 c-36 -20 -16 -26 89 -26 71 0 98 -3 98 -12 1 -13 29 30
30 45 0 12 -193 6 -217 -7z"/>
<path d="M3281 3455 c0 -5 6 -28 14 -50 8 -22 14 -31 14 -20 0 21 -27 88 -28
70z"/>
<path d="M2710 3220 c-6 -11 -8 -20 -6 -20 3 0 10 9 16 20 6 11 8 20 6 20 -3
0 -10 -9 -16 -20z"/>
<path d="M2657 3090 c-3 -11 -1 -33 3 -48 7 -23 8 -21 9 21 1 50 -3 60 -12 27z"/>
<path d="M3035 3090 c3 -5 8 -10 11 -10 2 0 4 5 4 10 0 6 -5 10 -11 10 -5 0
-7 -4 -4 -10z"/>
<path d="M2675 3009 c-4 -6 -5 -12 -2 -15 2 -3 7 2 10 11 7 17 1 20 -8 4z"/>
<path d="M2901 2968 c-6 -10 -11 -23 -11 -30 0 -8 5 -5 11 5 11 20 49 23 49 5
0 -15 20 11 20 27 0 17 -58 11 -69 -7z"/>
<path d="M2947 2888 c-2 -18 -1 -40 4 -48 6 -11 8 -8 9 12 0 43 20 44 21 1 2
-33 3 -34 6 -9 5 28 -13 76 -28 76 -4 0 -9 -15 -12 -32z"/>
<path d="M3007 2913 c-4 -3 -7 -11 -7 -17 0 -6 5 -5 12 2 6 6 9 14 7 17 -3 3
-9 2 -12 -2z"/>
<path d="M467 2873 c-15 -15 -5 -23 28 -23 26 0 33 3 29 15 -6 15 -45 21 -57
8z"/>
<path d="M3002 2845 c0 -16 2 -22 5 -12 2 9 2 23 0 30 -3 6 -5 -1 -5 -18z"/>
<path d="M2946 2801 c-4 -7 -5 -15 -2 -18 9 -9 19 4 14 18 -4 11 -6 11 -12 0z"/>
<path d="M2865 2779 c-4 -6 -5 -12 -2 -15 2 -3 7 2 10 11 7 17 1 20 -8 4z"/>
<path d="M2778 2715 c-10 -19 -13 -35 -8 -35 6 0 10 5 10 11 0 7 15 10 40 7
41 -4 47 3 34 36 -4 9 -18 16 -33 16 -20 0 -30 -9 -43 -35z"/>
<path d="M2860 2560 c0 -5 5 -10 10 -10 6 0 10 5 10 10 0 6 -4 10 -10 10 -5 0
-10 -4 -10 -10z"/>
<path d="M796 1118 c3 -4 9 -8 15 -8 5 0 9 4 9 8 0 5 -7 9 -15 9 -8 0 -12 -4
-9 -9z"/>
<path d="M647 1080 c-3 -11 -1 -20 4 -20 5 0 9 9 9 20 0 11 -2 20 -4 20 -2 0
-6 -9 -9 -20z"/>
<path d="M2049 1053 c-13 -16 -12 -17 4 -4 16 13 21 21 13 21 -2 0 -10 -8 -17
-17z"/>
<path d="M640 1044 c0 -13 18 -39 24 -34 2 3 -2 14 -10 24 -8 11 -14 16 -14
10z"/>
<path d="M793 959 c-10 -26 -10 -34 1 -43 8 -6 16 -18 19 -26 8 -22 7 17 -1
63 l-7 39 -12 -33z"/>
<path d="M2030 930 c-8 -5 -12 -12 -9 -15 4 -3 12 1 19 10 14 17 11 19 -10 5z"/>
<path d="M2254 903 c-3 -10 -11 -29 -18 -43 -14 -26 -11 -50 5 -50 4 0 6 7 3
15 -4 8 0 22 7 31 12 15 22 64 13 64 -3 0 -7 -8 -10 -17z"/>
<path d="M2285 880 c-3 -6 1 -7 9 -4 18 7 21 14 7 14 -6 0 -13 -4 -16 -10z"/>
<path d="M2171 834 c0 -11 3 -14 6 -6 3 7 2 16 -1 19 -3 4 -6 -2 -5 -13z"/>
<path d="M2170 765 c0 -8 5 -15 10 -15 6 0 10 7 10 15 0 8 -4 15 -10 15 -5 0
-10 -7 -10 -15z"/>
<path d="M645 760 c3 -5 8 -10 11 -10 2 0 4 5 4 10 0 6 -5 10 -11 10 -5 0 -7
-4 -4 -10z"/>
<path d="M1735 760 c-3 -5 -1 -10 4 -10 6 0 11 5 11 10 0 6 -2 10 -4 10 -3 0
-8 -4 -11 -10z"/>
<path d="M1981 684 c0 -11 3 -14 6 -6 3 7 2 16 -1 19 -3 4 -6 -2 -5 -13z"/>
<path d="M466 585 c-11 -8 -16 -18 -11 -22 4 -5 10 -2 12 5 3 6 13 12 24 12
10 0 19 5 19 10 0 14 -22 12 -44 -5z"/>
<path d="M520 580 c0 -5 5 -10 10 -10 6 0 10 5 10 10 0 6 -4 10 -10 10 -5 0
-10 -4 -10 -10z"/>
<path d="M510 549 c0 -5 5 -7 10 -4 6 3 10 8 10 11 0 2 -4 4 -10 4 -5 0 -10
-5 -10 -11z"/>
<path d="M1992 350 c0 -14 2 -19 5 -12 2 6 2 18 0 25 -3 6 -5 1 -5 -13z"/>
<path d="M1967 353 c-4 -3 -7 -11 -7 -17 0 -6 5 -5 12 2 6 6 9 14 7 17 -3 3
-9 2 -12 -2z"/>
<path d="M2030 351 c0 -17 22 -24 31 -10 6 10 9 8 9 -8 0 -13 5 -23 10 -23 13
0 13 6 0 31 -11 19 -50 27 -50 10z"/>
<path d="M1921 341 c-7 -5 -12 -14 -10 -20 2 -6 10 -2 17 9 14 22 13 23 -7 11z"/>
<path d="M2141 331 c-8 -5 -9 -11 -3 -15 5 -3 12 1 16 9 6 17 6 18 -13 6z"/>
<path d="M2125 290 c-3 -5 1 -10 10 -10 9 0 13 5 10 10 -3 6 -8 10 -10 10 -2
0 -7 -4 -10 -10z"/>
<path d="M2097 283 c-4 -3 -7 -11 -7 -17 0 -6 5 -5 12 2 6 6 9 14 7 17 -3 3
-9 2 -12 -2z"/>
</g>
</svg>
