<?xml version="1.0" standalone="no"?>
<!DOCTYPE svg PUBLIC "-//W3C//DTD SVG 20010904//EN"
 "http://www.w3.org/TR/2001/REC-SVG-20010904/DTD/svg10.dtd">
<svg version="1.0" xmlns="http://www.w3.org/2000/svg"
 width="348.000000pt" height="433.000000pt" viewBox="0 0 348.000000 433.000000"
 preserveAspectRatio="xMidYMid meet">

<g transform="translate(0.000000,433.000000) scale(0.100000,-0.100000)"
fill="#000000" stroke="none">
<path d="M1014 4307 c18 -57 18 -67 2 -67 -9 0 -16 -3 -17 -7 0 -5 -3 -19 -5
-33 -2 -14 -7 -50 -10 -80 -4 -33 -12 -58 -21 -64 -11 -6 -13 -17 -8 -42 6
-34 -8 -48 -19 -18 -11 29 -6 79 14 123 25 54 25 64 1 27 -11 -16 -22 -44 -26
-63 -8 -42 -23 -33 -50 27 -10 22 -20 38 -22 36 -3 -2 5 -22 16 -45 12 -22 21
-49 21 -61 0 -11 10 -30 22 -42 25 -25 39 -130 19 -142 -6 -4 -11 -28 -11 -53
0 -36 4 -46 19 -50 23 -6 30 -40 39 -198 4 -66 10 -103 15 -91 4 11 13 16 22
12 8 -3 14 -2 12 2 -1 4 3 7 8 7 5 0 9 -3 8 -7 -2 -5 2 -8 8 -8 6 0 9 7 6 15
-4 8 -2 17 3 20 6 4 10 -3 10 -14 0 -10 2 -25 3 -33 2 -7 2 -10 0 -5 -7 11
-51 8 -73 -5 -17 -11 -22 -10 -29 1 -10 15 -65 -13 -157 -80 l-52 -38 -30 50
c-30 47 -45 55 -89 50 -6 -1 -35 7 -64 18 -59 23 -76 19 -56 -12 17 -28 20
-107 4 -107 -18 1 -48 47 -41 64 3 9 12 12 22 8 15 -5 15 -4 3 12 -14 16 -16
16 -28 -9 -19 -36 -13 -81 10 -77 9 2 17 -2 17 -8 0 -5 7 -10 15 -10 11 0 15
-12 15 -46 0 -47 -4 -49 -43 -16 -10 9 -28 17 -40 19 -17 2 -18 1 -8 -6 12 -8
12 -12 2 -25 -7 -8 -18 -14 -24 -13 -6 1 -11 -4 -12 -12 0 -17 -25 -28 -25
-11 0 9 -5 9 -17 -1 -10 -8 2 9 25 37 23 27 42 58 42 67 0 8 4 18 8 21 5 3 6
22 3 43 -6 35 -9 38 -39 38 -40 0 -42 14 -2 22 17 3 30 9 30 13 0 4 -18 26
-40 49 -25 25 -34 41 -25 41 8 0 15 5 15 10 0 14 -38 12 -42 -2 -3 -9 -13 -7
-33 7 -15 11 -44 31 -64 44 l-36 24 25 -27 c24 -27 25 -28 6 -42 -24 -17 -38
-18 -54 -2 -9 9 -15 9 -24 0 -9 -9 -8 -12 7 -12 20 -1 20 -1 0 -18 -35 -31
-55 -59 -61 -83 -11 -45 -13 -98 -3 -104 5 -4 9 -15 9 -26 0 -10 4 -19 9 -19
5 0 11 -11 13 -25 4 -17 1 -25 -8 -25 -22 0 -17 -11 19 -41 27 -24 30 -30 17
-39 -11 -7 12 -10 79 -10 85 0 96 -2 123 -25 19 -16 24 -25 14 -25 -13 0 -16
-20 -19 -122 l-3 -123 -2 126 c-3 157 -4 159 -119 159 -111 0 -111 0 -114
-170 -2 -75 1 -141 5 -148 4 -7 21 -12 38 -12 17 0 28 3 24 8 -4 4 -13 7 -19
7 -7 0 -12 14 -12 32 0 17 -3 29 -7 26 -14 -8 -9 212 4 225 18 18 152 16 168
-3 8 -10 11 -53 8 -144 -1 -71 -5 -128 -8 -126 -3 2 -16 -3 -30 -11 l-25 -13
32 -1 c21 0 37 7 46 20 8 11 16 17 19 14 11 -11 -42 -53 -59 -47 -11 5 -14 3
-8 -6 5 -10 2 -12 -11 -8 -11 3 -39 8 -64 11 l-45 6 49 -15 c27 -7 79 -13 115
-13 36 1 92 -4 123 -11 49 -10 62 -18 88 -54 16 -22 30 -47 30 -54 0 -18 10
-16 24 3 11 14 15 14 46 -4 51 -29 79 -36 85 -20 2 7 9 26 15 41 l10 29 41
-33 c43 -34 124 -59 195 -59 54 0 117 45 134 94 6 20 15 36 19 36 28 0 102
-36 116 -56 12 -19 24 -24 60 -24 l44 0 3 -47 c3 -48 3 -48 41 -51 37 -3 38
-5 32 -30 -4 -15 -8 -28 -10 -30 -1 -2 -43 -6 -93 -9 l-90 -6 -6 -38 c-5 -30
-11 -39 -26 -39 -12 0 -20 7 -20 16 0 9 -9 29 -21 45 -19 28 -24 29 -95 29
-46 0 -86 6 -103 14 -28 15 -71 12 -71 -5 0 -5 -51 -9 -112 -9 l-113 0 -27
-39 c-28 -39 -39 -105 -24 -148 5 -18 4 -23 -8 -23 -9 0 -16 5 -16 12 0 9 -3
9 -13 -1 -8 -9 -12 -60 -13 -179 0 -134 -5 -187 -22 -264 -12 -54 -22 -113
-22 -132 0 -19 -3 -41 -6 -50 -9 -23 -31 -20 -37 5 -4 16 -12 20 -38 17 -30
-3 -35 -8 -47 -49 -13 -42 -13 -62 6 -195 l20 -149 84 -78 c45 -42 100 -87
122 -98 l38 -21 -6 -71 c-4 -40 -14 -112 -22 -162 -7 -49 -14 -113 -14 -142 0
-47 3 -55 30 -74 34 -26 27 -44 -24 -57 -34 -9 -43 -30 -45 -110 -1 -44 -21
-95 -43 -109 -19 -12 -58 -87 -58 -111 0 -11 -5 -22 -12 -24 -15 -5 -41 -182
-28 -186 6 -2 10 -12 10 -23 0 -25 16 -24 32 1 11 17 24 20 76 20 55 0 65 -3
69 -20 7 -26 19 -26 26 0 3 11 11 19 19 18 7 -2 24 20 38 49 l25 53 76 0 77 0
-5 -42 c-3 -27 1 -54 10 -70 l14 -28 23 20 c17 15 37 20 80 20 51 0 58 -3 63
-22 6 -21 7 -21 33 7 17 19 32 52 41 92 8 35 18 63 23 63 9 0 41 134 42 178 1
41 -13 62 -23 34 -15 -41 -27 -22 -33 56 -11 120 -14 132 -41 132 -16 0 -25 7
-29 27 -7 24 0 36 28 46 5 1 10 99 13 217 2 118 6 234 9 258 5 38 8 42 34 42
27 0 29 3 35 53 8 59 1 257 -14 427 -5 63 -10 123 -10 133 -1 12 -9 17 -31 17
-35 0 -50 -27 -50 -91 0 -28 4 -39 15 -39 11 0 15 -11 15 -39 0 -36 -3 -40
-30 -46 -16 -4 -33 -4 -38 -1 -9 6 -23 -7 -67 -59 -29 -36 -34 -19 -5 18 26
32 25 38 -2 36 -13 -1 -38 -1 -56 -1 l-34 2 31 30 c26 27 33 29 55 19 21 -10
30 -8 58 9 18 12 29 22 23 23 -5 0 -1 4 10 9 17 7 17 9 3 9 -22 1 -22 12 -2
126 11 62 23 100 40 122 13 17 24 38 24 45 0 23 22 38 57 38 23 0 33 -5 33
-15 0 -8 7 -15 15 -15 17 0 38 -44 52 -104 7 -33 15 -43 52 -63 52 -27 138
-32 147 -8 4 8 15 15 25 15 10 0 19 6 19 13 0 8 4 7 10 -3 5 -8 10 -31 10 -51
0 -20 3 -57 6 -83 l7 -46 133 0 132 0 6 27 c2 16 8 60 12 98 4 39 9 64 11 58
3 -7 13 -13 23 -13 10 0 20 -7 24 -15 9 -23 96 -19 150 7 45 22 48 26 60 100
6 37 24 68 40 68 8 0 16 7 20 15 3 9 18 15 39 15 35 0 57 -15 57 -38 0 -7 11
-28 24 -45 17 -22 29 -60 40 -122 20 -114 20 -125 -1 -125 -15 0 -16 -2 -3
-10 11 -7 11 -10 2 -10 -7 0 -10 -5 -7 -11 4 -6 13 -8 20 -5 8 3 19 -2 25 -10
14 -16 56 -19 65 -4 11 18 25 10 25 -14 0 -13 6 -27 13 -30 6 -3 -5 -5 -25 -4
-49 3 -56 -6 -30 -42 12 -16 22 -35 22 -42 0 -6 -11 4 -25 23 -38 54 -54 66
-78 62 -32 -5 -44 7 -52 50 -6 30 -4 37 9 37 12 0 16 10 16 39 0 64 -15 91
-49 91 l-29 0 -6 -97 c-3 -54 -10 -123 -16 -154 -11 -61 -13 -282 -4 -341 6
-33 10 -38 35 -38 25 0 28 -4 33 -43 3 -23 7 -138 9 -255 4 -216 5 -222 40
-235 5 -1 5 -15 2 -30 -5 -20 -13 -27 -30 -27 -29 0 -32 -10 -41 -122 -6 -87
-17 -108 -33 -66 -10 28 -24 7 -23 -34 1 -44 33 -178 43 -178 4 0 13 -27 20
-60 8 -40 21 -70 41 -92 28 -31 29 -32 35 -10 5 19 12 22 63 22 43 0 63 -5 81
-21 21 -18 24 -18 27 -5 2 9 8 16 14 16 7 0 9 20 6 55 l-5 55 77 0 77 0 18
-46 c11 -29 26 -49 41 -54 13 -5 24 -16 24 -25 0 -22 17 -18 23 5 4 17 14 20
69 20 52 0 65 -3 76 -20 16 -25 32 -26 32 -1 0 11 4 21 10 23 9 3 -3 122 -15
156 -2 6 -18 12 -35 12 -17 0 -29 4 -25 9 3 5 18 8 33 6 15 -2 21 -2 15 1 -7
3 -13 12 -13 20 0 21 -42 108 -57 117 -28 17 -53 104 -53 184 0 14 -9 24 -30
31 -19 7 -30 7 -32 1 -2 -6 -15 2 -28 16 -14 15 -20 25 -14 23 7 -2 26 7 43
20 28 20 31 28 31 75 -1 29 -7 88 -15 132 -8 44 -18 117 -21 162 l-7 81 39 20
c21 11 78 58 125 104 l87 83 17 147 c13 110 14 151 6 165 -11 17 -11 17 -9 -2
2 -13 -3 -20 -14 -20 -9 0 -29 -11 -43 -25 -25 -23 -27 -23 -23 -5 2 16 -4 21
-37 26 -22 3 -34 7 -26 8 7 0 11 7 7 16 -4 11 2 15 27 15 38 0 62 13 53 29 -4
6 -2 11 3 11 6 0 11 5 11 11 0 6 -8 9 -17 7 -10 -2 -17 -11 -17 -21 1 -12 -6
-17 -22 -17 -19 0 -24 5 -24 24 0 13 -3 38 -6 56 l-7 32 -12 -28 c-11 -25 -14
-26 -20 -12 -6 16 -9 15 -27 -8 -16 -20 -23 -23 -30 -12 -7 10 -8 9 -6 -5 2
-10 7 -17 12 -17 11 2 26 -21 26 -41 0 -12 -7 -15 -25 -11 -15 2 -25 0 -25 -7
0 -6 -5 -11 -11 -11 -21 0 -3 35 19 36 36 2 39 14 4 14 -22 0 -32 5 -32 15 0
8 5 15 10 15 6 0 10 16 10 35 0 29 4 35 21 35 11 0 17 5 14 10 -3 6 -1 10 5
10 7 0 10 7 6 15 -3 8 -1 15 4 15 6 0 10 -4 10 -10 0 -5 5 -10 11 -10 6 0 9 7
5 15 -9 25 2 17 18 -12 l15 -28 -5 35 c-3 19 -14 72 -26 117 -16 66 -17 86 -8
104 14 25 5 255 -11 280 -10 16 -9 19 -12 -59 -2 -24 1 -46 5 -48 5 -3 7 -22
7 -42 -1 -20 -3 -29 -6 -19 -10 38 -18 13 -20 -63 -1 -43 2 -82 7 -85 6 -3 10
-14 9 -23 0 -14 -2 -14 -10 3 -7 16 -8 14 -4 -10 10 -54 12 -86 4 -78 -4 4 -9
19 -11 33 -1 14 -9 25 -15 24 -7 -1 -29 -2 -48 -2 -36 -2 -36 -2 -29 -39 4
-21 12 -41 18 -45 6 -4 -28 -8 -76 -8 l-88 0 0 45 c0 45 0 45 -35 45 -19 0
-38 0 -42 -1 -8 -1 -21 29 -22 51 -1 13 0 13 10 0 8 -12 9 -11 6 5 -2 11 -8
19 -14 18 -5 -1 -18 26 -27 60 -9 34 -28 84 -42 110 -13 26 -22 52 -19 57 3 5
0 12 -6 16 -8 4 -9 3 -5 -4 4 -7 5 -12 2 -12 -3 0 -13 14 -22 32 -12 22 -13
33 -5 36 6 2 8 8 5 13 -3 6 0 33 7 62 7 29 12 57 11 63 -1 6 19 14 45 18 27 3
56 7 67 8 18 3 45 -26 35 -36 -3 -3 -19 -2 -36 3 -26 8 -35 5 -51 -12 -17 -18
-36 -87 -37 -132 0 -5 -7 -13 -15 -17 -10 -4 -5 -7 13 -7 19 -1 26 -5 21 -13
-4 -6 -3 -8 3 -5 16 10 51 -34 58 -73 15 -80 14 -92 -6 -87 -11 3 -19 1 -19
-4 0 -5 9 -9 20 -9 13 0 20 -7 20 -19 0 -28 11 -52 21 -45 5 3 9 0 9 -5 0 -6
10 -11 23 -11 13 0 17 -3 11 -8 -7 -4 -8 -15 -3 -27 6 -17 8 -17 8 -2 1 9 5
17 10 17 5 0 18 3 28 6 15 5 16 4 3 -6 -12 -9 -10 -11 13 -7 16 3 34 -1 42 -9
7 -8 15 -10 17 -5 5 14 58 25 58 12 0 -20 15 -12 33 18 16 27 16 36 2 127 -14
95 -14 100 4 124 11 14 23 24 28 23 4 -1 8 14 8 32 0 18 -3 31 -7 29 -3 -2
-20 20 -36 50 -33 57 -60 72 -108 60 -24 -6 -26 -5 -19 16 5 17 4 21 -5 15 -9
-6 -11 -4 -5 5 12 19 -11 27 -73 24 -31 -1 -49 0 -39 3 9 2 17 8 17 13 0 16
-44 19 -71 4 -17 -8 -57 -14 -103 -14 -69 0 -76 -2 -95 -26 -12 -15 -21 -35
-21 -45 0 -13 -7 -19 -24 -19 -21 0 -25 5 -28 38 -3 35 -5 37 -38 39 -156 11
-160 12 -160 44 0 27 3 29 35 29 l35 0 0 50 0 50 48 0 c41 0 51 4 69 29 12 15
34 31 50 34 15 4 37 9 49 12 17 5 22 0 32 -32 16 -51 75 -93 130 -93 69 0 145
22 193 56 l46 32 13 -39 c15 -44 20 -46 76 -20 36 16 42 25 56 72 l15 54 12
-50 c7 -31 20 -56 33 -64 18 -11 24 -10 44 11 14 13 25 38 26 58 3 31 7 36 43
45 22 6 70 9 106 8 36 -1 88 5 115 13 l49 14 -49 -6 c-27 -3 -55 -8 -64 -12
-11 -4 -13 -1 -7 7 5 9 2 12 -11 9 -10 -2 -27 6 -39 17 -19 19 -20 30 -17 160
4 177 2 175 126 176 50 0 85 3 79 6 -18 7 -16 30 4 37 13 5 14 9 4 19 -9 9
-14 9 -21 -3 -5 -8 -10 -12 -10 -8 0 4 16 25 36 45 47 49 62 95 51 151 -6 30
-5 47 3 57 8 10 9 19 1 32 -8 14 -11 15 -12 3 -1 -8 -1 -19 0 -25 1 -5 -8 0
-18 13 -11 13 -30 32 -43 42 l-23 19 28 1 c20 0 27 -4 25 -16 -5 -29 17 -26
47 6 27 28 28 31 12 47 -16 16 -18 16 -39 -4 -22 -20 -82 -28 -71 -9 3 5 -11
7 -31 4 -42 -5 -43 -2 -13 30 l22 24 -40 -23 c-22 -13 -42 -26 -45 -29 -3 -3
-22 -6 -43 -6 -23 -1 -50 -10 -68 -23 -32 -24 -33 -24 -83 22 -43 38 -62 -1
-21 -43 34 -35 28 -44 -28 -47 -23 -1 -53 -5 -65 -8 -16 -4 -21 -2 -17 5 12
20 -53 -19 -80 -48 -15 -15 -33 -39 -41 -54 -13 -25 -12 -28 9 -45 13 -10 47
-29 75 -42 47 -22 52 -27 58 -66 3 -23 4 -53 1 -66 -2 -15 -5 -7 -6 19 0 27
-5 41 -11 37 -6 -4 -8 -14 -6 -23 3 -10 2 -22 -2 -29 -12 -20 -44 12 -47 49
-6 54 -7 55 -15 13 l-7 -40 -2 37 c0 20 -6 40 -11 43 -7 4 -9 -2 -4 -19 7 -30
-11 -36 -21 -7 -3 10 -17 31 -30 45 -13 14 -20 26 -16 26 5 0 14 -7 21 -15 7
-8 18 -15 24 -15 6 1 0 10 -13 21 -13 11 -30 18 -38 15 -15 -6 -103 33 -103
46 0 4 8 5 18 1 9 -3 14 -3 10 1 -3 4 -12 9 -20 10 -7 1 -24 8 -38 15 l-25 12
25 -20 c27 -22 21 -28 -11 -11 -10 6 -19 17 -19 25 0 8 -5 15 -11 15 -5 0 -8
-4 -5 -8 3 -5 -1 -9 -9 -9 -8 0 -11 5 -8 10 4 6 -1 8 -12 4 -9 -4 -24 -2 -31
4 -8 6 -14 8 -14 5 0 -4 -20 5 -43 19 -50 29 -102 32 -129 8 -11 -9 -18 -11
-18 -5 0 7 4 12 10 12 5 0 9 6 7 13 -1 6 5 11 14 11 12 -1 16 7 16 30 -1 17
-6 34 -12 38 -15 11 14 10 55 -2 19 -6 50 -12 69 -15 18 -2 44 -11 57 -20 13
-8 26 -15 29 -15 3 0 5 59 5 130 0 110 2 130 15 130 31 0 46 96 17 107 -7 3
-10 13 -6 25 3 10 0 25 -6 33 -12 14 7 64 36 93 8 7 14 21 14 30 0 9 11 42 25
72 24 53 18 51 -17 -7 -10 -15 -22 -35 -27 -43 -5 -8 -15 -30 -21 -47 -7 -18
-19 -33 -27 -33 -11 0 -11 4 -2 21 8 16 8 23 -1 29 -7 5 -12 30 -11 66 0 32
-3 63 -8 68 -5 6 -12 22 -16 35 -5 17 -4 21 5 16 9 -6 9 -3 1 14 -7 11 -19 21
-27 21 -11 0 -14 6 -10 16 3 9 9 28 12 42 3 18 -2 12 -15 -15 -12 -27 -27 -43
-38 -43 -14 0 -15 -2 -4 -9 9 -6 10 -11 2 -15 -6 -4 -11 -15 -11 -24 0 -10 -9
-35 -20 -57 -11 -22 -20 -45 -20 -51 0 -7 -16 -21 -35 -33 -19 -11 -36 -28
-36 -38 -4 -54 -9 -77 -21 -84 -9 -6 -14 -2 -16 11 -5 31 -21 24 -40 -17 -21
-46 -32 -58 -60 -67 -19 -6 -22 -14 -22 -62 0 -46 3 -54 19 -54 14 0 20 -10
25 -46 3 -26 6 -60 6 -75 0 -24 4 -29 25 -29 14 0 25 -4 25 -9 0 -5 10 -7 23
-4 l22 5 -23 -17 c-36 -27 -63 -91 -63 -149 0 -48 18 -131 20 -93 1 9 9 17 19
17 10 0 13 -3 6 -8 -11 -8 -4 -54 9 -53 19 2 21 0 7 -9 -13 -8 -12 -10 4 -10
12 0 16 -5 12 -15 -3 -9 0 -15 10 -15 10 0 14 -6 11 -14 -3 -8 1 -17 9 -20 9
-3 12 -10 9 -16 -3 -5 1 -10 10 -10 12 0 15 -5 11 -16 -4 -12 -2 -15 9 -10 9
3 15 0 15 -10 0 -9 5 -12 13 -8 9 6 9 5 0 -7 -12 -15 -12 -43 0 -55 3 -4 4 6
1 21 -3 16 -1 24 5 21 16 -10 7 -61 -10 -60 -9 1 -16 -5 -16 -12 0 -7 4 -11 9
-8 4 3 8 -3 8 -13 0 -16 -6 -18 -35 -15 -19 2 -35 9 -35 16 0 6 -5 4 -11 -4
-9 -12 -10 -10 -6 8 4 17 2 21 -6 14 -7 -4 -19 -8 -27 -7 -8 0 -18 -4 -22 -10
-5 -6 -8 -3 -8 8 0 9 -7 17 -15 17 -8 0 -15 -4 -15 -10 0 -16 -27 -11 -34 6
-5 13 -9 14 -20 5 -11 -9 -15 -8 -20 5 -4 10 -1 21 6 26 11 6 11 8 0 8 -10 0
-10 3 0 14 11 11 15 9 24 -13 11 -25 12 -25 8 9 -11 118 -17 156 -26 165 -6 7
-8 -3 -5 -28 3 -21 1 -50 -3 -65 -7 -24 -8 -25 -9 -4 -1 12 -7 22 -14 22 -8 0
-22 9 -31 19 -13 15 -14 20 -4 25 7 3 4 4 -7 3 -16 -2 -21 6 -25 39 -3 22 -16
54 -29 72 -12 18 -19 37 -16 42 4 6 16 -3 28 -21 12 -18 29 -34 37 -36 9 -3 6
3 -6 14 -12 10 -25 27 -28 39 -4 11 -18 32 -33 45 -14 13 -23 18 -18 11 5 -10
2 -13 -11 -10 -11 2 -19 12 -19 23 0 15 -7 20 -29 20 -15 1 -33 7 -40 15 -6 8
-24 16 -41 18 -16 2 -35 8 -41 13 -12 10 -74 1 -74 -11 0 -4 -10 -7 -23 -6
-35 2 -36 49 -2 64 32 15 46 15 23 1 -19 -11 -25 -39 -8 -39 5 0 21 5 35 12
28 13 34 38 8 38 -15 0 -14 2 3 15 15 12 16 16 5 24 -11 7 -11 9 0 13 8 3 10
9 6 14 -4 4 -27 1 -50 -8 -78 -30 -82 -30 -40 -4 48 30 119 43 160 29 15 -6
37 -7 48 -2 11 4 14 8 8 10 -7 1 -16 2 -20 3 -24 4 -53 49 -54 84 -1 48 -12
87 -24 87 -6 0 -16 4 -24 9 -18 12 -29 -8 -37 -72 -3 -29 -11 -55 -17 -59 -6
-3 -7 -1 -3 5 4 7 5 12 1 12 -13 0 -124 -61 -151 -83 -27 -22 -57 -31 -160
-44 l-41 -5 -6 54 c-11 87 -9 95 18 102 22 6 25 11 25 56 0 46 -2 50 -24 50
-14 0 -36 4 -50 10 -17 6 -26 6 -26 0 0 -18 -22 -11 -27 8 -2 11 -19 24 -36
31 -30 12 -32 17 -34 62 l-1 49 19 -23 18 -22 1 32 c0 24 -7 37 -25 49 -14 9
-25 24 -26 33 0 12 -2 11 -9 -4 l-8 -20 -7 20 c-4 11 -21 50 -36 88 -25 59
-26 67 -11 68 13 0 12 2 -5 9 -12 5 -31 26 -43 47 -12 21 -19 30 -16 20z m46
-102 c0 -9 -9 -15 -25 -15 -18 0 -23 4 -19 15 4 8 15 15 25 15 10 0 19 -7 19
-15z m1394 -12 c-4 -14 -11 -19 -25 -16 -25 7 -24 23 1 23 11 0 20 5 20 12 0
6 2 9 5 7 2 -3 2 -14 -1 -26z m-1274 -165 c0 -13 -23 -5 -28 10 -2 7 2 10 12
6 9 -3 16 -11 16 -16z m1130 -8 c0 -5 -4 -10 -10 -10 -5 0 -10 5 -10 10 0 6 5
10 10 10 6 0 10 -4 10 -10z m-1239 -192 c-4 -13 -6 -30 -3 -38 3 -8 1 -11 -4
-7 -12 12 -11 50 1 59 15 11 15 10 6 -14z m144 1 c4 -11 4 -23 0 -27 -7 -7
-25 17 -25 36 0 20 18 14 25 -9z m76 -68 c-6 -4 -11 -12 -10 -17 1 -5 1 -21 0
-36 -1 -28 -23 -39 -36 -18 -3 5 0 7 8 4 10 -4 13 6 13 40 -1 24 3 42 8 38 5
-3 7 2 3 10 -9 25 6 32 17 8 7 -15 6 -24 -3 -29z m-82 -31 c0 -8 -7 -1 -14 15
-8 17 -14 37 -14 45 0 8 7 2 14 -15 8 -16 14 -37 14 -45z m1285 2 c-4 -34 -11
-62 -16 -62 -4 0 -6 10 -3 23 3 12 7 40 9 62 6 52 5 49 11 43 3 -2 2 -32 -1
-66z m-1197 -44 c-3 -7 -5 -2 -5 12 0 14 2 19 5 13 2 -7 2 -19 0 -25z m179
-100 c4 -7 4 -10 -1 -6 -4 4 -14 3 -22 -3 -13 -11 -19 2 -6 14 10 11 21 8 29
-5z m-63 -17 c-12 -10 -19 -22 -15 -26 4 -5 1 -5 -6 -1 -7 4 -18 4 -25 -2 -7
-5 -20 -12 -30 -15 -27 -10 -11 10 31 38 45 29 78 34 45 6z m-63 -1 c-8 -5
-24 -10 -35 -10 -17 0 -17 2 -5 10 8 5 24 10 35 10 17 0 17 -2 5 -10z m1805
-30 c-3 -5 -12 -10 -18 -10 -7 0 -6 4 3 10 19 12 23 12 15 0z m-37 -16 c-4 -3
-9 -5 -13 -4 -6 1 -65 -75 -65 -85 0 -3 10 -5 23 -5 12 -1 33 -7 47 -15 23
-13 23 -14 5 -15 -11 -1 -32 -3 -47 -4 -14 -1 -24 2 -22 6 3 4 0 8 -7 8 -17 0
-5 -117 15 -139 20 -22 20 -37 1 -45 -30 -11 -45 33 -45 137 0 101 11 143 36
133 7 -3 18 3 24 14 6 11 20 20 32 20 12 0 19 -3 16 -6z m-1963 -74 c3 -5 -3
-10 -14 -10 -10 0 -28 -3 -38 -6 -10 -3 -7 2 7 10 30 18 37 19 45 6z m-192
-54 c-3 -4 -9 -2 -14 5 -13 22 -11 31 5 17 8 -7 12 -17 9 -22z m992 -6 c-3 -5
-10 -10 -16 -10 -5 0 -9 5 -9 10 0 6 7 10 16 10 8 0 12 -4 9 -10z m1022 -22
c-3 -8 -6 -5 -6 6 -1 11 2 17 5 13 3 -3 4 -12 1 -19z m-30 -30 c-3 -7 -5 -2
-5 12 0 14 2 19 5 13 2 -7 2 -19 0 -25z m263 -62 c0 -19 -4 -37 -8 -40 -4 -2
-6 11 -4 30 4 30 2 33 -14 28 -16 -5 -16 -4 -4 5 24 17 30 13 30 -23z m-2546
-21 c-4 -8 -8 -15 -10 -15 -2 0 -4 7 -4 15 0 8 4 15 10 15 5 0 7 -7 4 -15z
m-55 -49 c-9 -8 -10 -7 -5 7 3 10 7 24 7 30 1 7 3 4 6 -7 3 -10 -1 -23 -8 -30z
m847 6 c-18 -16 -18 -16 -6 6 6 13 14 21 18 18 3 -4 -2 -14 -12 -24z m550 -15
c6 2 19 -6 29 -17 21 -23 4 -28 -19 -5 -8 9 -18 16 -21 15 -20 -1 -25 2 -25
18 1 15 2 15 13 1 7 -9 17 -14 23 -12z m341 6 c-4 -3 -1 -13 6 -22 11 -14 10
-14 -5 -2 -16 12 -16 31 -1 31 4 0 3 -3 0 -7z m423 -22 c0 -6 -4 -13 -10 -16
-5 -3 -10 1 -10 9 0 9 5 16 10 16 6 0 10 -4 10 -9z m-2533 -7 c-3 -3 -12 -4
-19 -1 -8 3 -5 6 6 6 11 1 17 -2 13 -5z m80 0 c-3 -3 -12 -4 -19 -1 -8 3 -5 6
6 6 11 1 17 -2 13 -5z m213 -4 c0 -5 -2 -10 -4 -10 -3 0 -8 5 -11 10 -3 6 -1
10 4 10 6 0 11 -4 11 -10z m1526 -42 c0 -10 -1 -18 -1 -18 0 0 -8 9 -17 19
-16 18 -15 20 1 18 9 0 17 -9 17 -19z m329 2 c8 -13 -5 -13 -25 0 -13 8 -13
10 2 10 9 0 20 -4 23 -10z m-1922 -75 c-7 -21 -13 -19 -13 6 0 11 4 18 10 14
5 -3 7 -12 3 -20z m2416 -47 c-2 -58 -3 -65 -8 -33 -6 39 -3 105 5 105 2 0 3
-33 3 -72z m-1566 37 c-3 -9 -8 -14 -10 -11 -3 3 -2 9 2 15 9 16 15 13 8 -4z
m-703 -26 c0 -6 -4 -7 -10 -4 -5 3 -10 11 -10 16 0 6 5 7 10 4 6 -3 10 -11 10
-16z m1552 -18 c20 10 21 10 12 -2 -9 -11 -9 -17 2 -27 11 -10 14 -10 15 0 0
10 2 10 6 -1 4 -9 8 -10 12 -3 4 7 11 4 18 -8 11 -17 10 -18 -13 -14 -19 4
-27 0 -31 -14 -3 -14 -11 -18 -24 -15 -18 5 -18 7 -4 23 8 9 15 21 15 26 0 5
-5 2 -11 -6 -9 -13 -10 -13 -6 0 2 8 -5 19 -16 25 -11 5 -22 17 -24 25 -3 11
0 10 11 -3 12 -16 18 -17 38 -6z m-1347 0 c3 -5 19 -12 36 -16 25 -6 33 -20
11 -20 -4 0 -22 -10 -39 -23 l-33 -23 0 45 c0 43 11 59 25 37z m1875 -36 c0
-25 6 -56 14 -68 21 -33 28 -75 14 -83 -6 -4 -8 -3 -4 4 12 19 -12 60 -51 86
-21 14 -32 26 -26 26 7 0 15 -4 18 -10 3 -5 12 -10 18 -10 17 1 -41 50 -59 50
-25 0 -15 15 24 32 52 23 52 23 52 -27z m-30 -85 c23 -23 29 -70 6 -48 -7 7
-12 18 -9 24 3 9 -21 25 -57 37 -8 3 -3 6 13 6 15 1 36 -8 47 -19z m-26 -39
c-2 -2 -11 2 -19 9 -13 11 -13 15 -3 21 8 5 15 2 19 -9 4 -9 5 -19 3 -21z
m-2024 -72 c0 -73 -8 -81 -30 -29 -11 25 -15 28 -32 19 -13 -7 -18 -7 -14 -1
3 6 -11 16 -31 23 -51 16 -53 17 -47 33 4 11 13 12 42 4 20 -6 42 -14 49 -20
8 -6 17 -1 28 16 10 14 21 26 26 26 5 0 9 -32 9 -71z m2418 45 c-4 -21 -99
-58 -113 -43 -12 12 10 27 65 46 48 16 52 15 48 -3z m-73 -64 c3 -5 1 -10 -4
-10 -6 0 -11 5 -11 10 0 6 2 10 4 10 3 0 8 -4 11 -10z m-805 -325 c0 -8 -4
-17 -10 -20 -6 -4 -10 5 -10 20 0 15 4 24 10 20 6 -3 10 -12 10 -20z m372 -75
c5 0 8 7 4 15 -4 13 9 15 89 15 80 0 93 -2 89 -15 -4 -10 0 -15 11 -15 12 0
15 5 11 18 -4 10 1 8 13 -7 16 -21 17 -27 5 -39 -8 -7 -14 -23 -14 -35 0 -15
-3 -18 -8 -9 -12 18 -42 4 -35 -15 4 -9 2 -14 -3 -10 -5 3 -10 -3 -10 -13 0
-10 3 -17 7 -14 4 2 10 -4 12 -13 4 -15 5 -15 6 2 1 14 9 21 23 22 27 2 51 32
44 56 -2 9 0 15 5 11 15 -9 10 -34 -11 -64 -23 -32 -29 -124 -11 -157 14 -27
14 -34 0 -30 -6 1 -14 -4 -16 -11 -3 -8 1 -10 13 -5 12 4 15 3 10 -5 -4 -8
-37 -12 -87 -12 -62 0 -79 3 -79 14 0 8 -5 18 -12 22 -8 5 -9 1 -4 -12 6 -17
5 -17 -8 -4 -8 9 -17 46 -21 90 -6 68 -9 78 -41 108 -38 37 -38 36 -23 83 20
63 22 66 26 47 3 -10 9 -18 15 -18z m-461 -22 c46 -37 53 -68 14 -60 -24 4
-25 3 -25 -57 l0 -62 33 3 c27 3 32 7 30 28 -3 41 6 72 20 63 7 -4 5 1 -3 12
-14 17 -13 17 8 11 28 -9 52 9 51 38 0 21 0 21 -9 -1 -6 -13 -18 -23 -30 -23
-26 0 -25 2 8 37 l27 30 23 -22 c29 -28 28 -72 -3 -115 -14 -19 -25 -39 -25
-46 0 -7 -6 -19 -12 -26 -7 -7 -13 -22 -13 -33 0 -23 -2 -23 -77 -6 -53 11
-58 15 -57 39 0 16 3 21 6 12 4 -8 13 -21 22 -30 13 -13 14 -13 6 5 -5 11 -12
47 -15 80 -4 33 -8 54 -8 48 -1 -7 -6 -13 -11 -13 -5 0 -7 9 -4 20 3 11 9 17
14 14 5 -3 9 7 9 23 0 22 -2 25 -10 13 -8 -12 -10 -11 -10 8 0 19 -5 22 -37
22 -28 0 -34 3 -23 10 27 18 61 10 101 -22z m-81 -7 c0 -10 -42 -23 -49 -15
-7 6 20 24 37 24 6 0 12 -4 12 -9z m-243 -36 c0 -8 -7 -17 -16 -20 -8 -3 -12
-3 -8 1 4 4 3 12 -3 18 -6 8 -3 12 9 13 10 1 18 -5 18 -12z m239 -4 c-8 -12
-46 -21 -46 -11 0 9 18 18 38 19 7 1 11 -3 8 -8z m-976 -11 c0 -5 -5 -10 -11
-10 -5 0 -7 5 -4 10 3 6 8 10 11 10 2 0 4 -4 4 -10z m-360 -21 c0 -5 -4 -9
-10 -9 -5 0 -10 7 -10 16 0 8 5 12 10 9 6 -3 10 -10 10 -16z m1050 1 c0 -5 -2
-10 -4 -10 -3 0 -8 5 -11 10 -3 6 -1 10 4 10 6 0 11 -4 11 -10z m-165 -18 c-3
-3 -11 0 -18 7 -9 10 -8 11 6 5 10 -3 15 -9 12 -12z m455 9 c0 -10 -42 -23
-49 -15 -7 6 20 24 37 24 6 0 12 -4 12 -9z m-1230 -21 c6 -11 8 -20 6 -20 -3
0 -10 9 -16 20 -6 11 -8 20 -6 20 3 0 10 -9 16 -20z m1230 -20 c0 -5 -4 -10
-9 -10 -5 0 -18 -3 -28 -6 -16 -5 -16 -4 1 10 23 18 36 20 36 6z m-336 -15
c-4 -8 -8 -15 -10 -15 -2 0 -4 7 -4 15 0 8 4 15 10 15 5 0 7 -7 4 -15z m206 0
c0 -8 -2 -15 -4 -15 -2 0 -6 7 -10 15 -3 8 -1 15 4 15 6 0 10 -7 10 -15z m120
-35 c-16 -11 -40 -13 -40 -5 0 8 44 24 50 18 2 -2 -2 -8 -10 -13z m-13 -36
c-3 -3 -12 -4 -19 -1 -8 3 -5 6 6 6 11 1 17 -2 13 -5z m-1100 -170 c-3 -3 -12
-4 -19 -1 -8 3 -5 6 6 6 11 1 17 -2 13 -5z m1933 -164 c0 -22 -4 -40 -10 -40
-11 0 -14 63 -3 73 11 12 13 8 13 -33z m-40 -16 c0 -14 -4 -23 -10 -19 -13 8
-13 -35 0 -72 9 -26 9 -27 -5 -9 -18 24 -20 97 -3 114 17 17 18 16 18 -14z
m-1690 -5 c0 -12 -8 -23 -20 -26 -11 -3 -20 -12 -20 -19 0 -17 -12 -18 -28 -2
-9 9 -12 8 -12 -7 0 -15 -2 -17 -9 -6 -6 9 -10 10 -16 2 -9 -16 -35 5 -35 28
0 12 2 13 9 3 7 -11 9 -10 15 3 4 11 12 14 26 10 13 -4 20 -2 18 5 -2 7 10 14
26 15 15 2 31 6 34 9 9 10 12 7 12 -15z m1530 -9 c0 -5 -4 -10 -10 -10 -5 0
-10 5 -10 10 0 6 5 10 10 10 6 0 10 -4 10 -10z m114 -1 c-3 -5 -18 -9 -33 -9
-27 0 -29 -2 -35 -61 -6 -49 -10 -60 -22 -55 -9 3 -24 6 -35 6 -10 0 -19 5
-19 11 0 7 10 9 24 5 14 -3 28 -2 31 4 4 6 -6 10 -24 10 -21 0 -31 5 -31 15 0
19 56 21 63 3 3 -7 6 7 6 32 l1 45 40 1 c22 1 37 -2 34 -7z m-1786 -89 c-1
-22 -6 -30 -19 -30 -9 0 -24 -3 -33 -6 -11 -4 -16 0 -16 14 0 37 11 52 40 52
25 0 29 -4 28 -30z m-235 3 c-7 -2 -21 -2 -30 0 -10 3 -4 5 12 5 17 0 24 -2
18 -5z m-17 -16 c6 2 14 -5 17 -17 3 -11 1 -20 -4 -20 -5 0 -9 5 -9 11 0 7
-10 9 -25 7 -20 -4 -25 -1 -25 14 0 15 4 17 18 10 9 -5 22 -7 28 -5z m159 -50
c16 -13 15 -14 -12 -10 -22 4 -32 0 -37 -12 -3 -9 -4 -20 -1 -24 2 -5 -6 -18
-19 -30 -17 -16 -30 -20 -50 -15 -14 3 -26 13 -26 20 0 12 4 12 21 4 30 -17
49 -5 49 30 0 26 -4 30 -27 30 -22 0 -25 2 -13 10 22 14 93 12 115 -3z m1875
3 c0 -5 -15 -10 -32 -10 -25 0 -29 3 -18 10 20 13 50 13 50 0z m50 0 c13 -8
12 -10 -2 -10 -13 0 -18 -8 -18 -30 0 -35 19 -47 49 -30 17 8 21 8 21 -3 0 -8
-14 -17 -31 -21 -24 -5 -35 -1 -48 16 -10 12 -17 31 -16 42 1 12 3 27 4 34 1
14 20 15 41 2z m-2244 -25 c2 -29 -4 -31 -22 -7 -18 23 -17 32 4 32 11 0 17
-8 18 -25z m357 -27 c7 -27 9 -25 -28 -33 -24 -5 -27 -4 -12 5 9 6 17 20 17
30 0 27 16 25 23 -2z m1781 -9 c15 -29 14 -30 -7 -23 -28 8 -27 6 -20 32 7 28
9 28 27 -9z m-1744 6 c0 -8 -2 -15 -4 -15 -2 0 -6 7 -10 15 -3 8 -1 15 4 15 6
0 10 -7 10 -15z m267 -62 c-3 -10 -5 -2 -5 17 0 19 2 27 5 18 2 -10 2 -26 0
-35z m-367 33 c0 -11 -19 -15 -25 -6 -3 5 1 10 9 10 9 0 16 -2 16 -4z m1907
-2 c-3 -3 -12 -4 -19 -1 -8 3 -5 6 6 6 11 1 17 -2 13 -5z m-1807 -114 c0 -5
-7 -10 -16 -10 -8 0 -12 5 -9 10 3 6 10 10 16 10 5 0 9 -4 9 -10z m1701 -3
c-1 -12 -15 -9 -19 4 -3 6 1 10 8 8 6 -3 11 -8 11 -12z m123 -382 c-7 -16 -24
-21 -24 -6 0 8 7 13 27 20 1 1 0 -6 -3 -14z m18 -17 c-7 -7 -9 -31 -6 -57 4
-44 -4 -40 -20 12 -4 11 -16 17 -38 18 -27 0 -29 2 -13 8 11 5 25 6 32 4 6 -2
19 7 30 20 10 14 20 21 22 15 2 -5 -2 -15 -7 -20z m-1857 -67 c-3 -5 -1 -12 5
-16 18 -11 10 -25 -15 -25 -23 0 -24 2 -13 25 6 14 15 25 20 25 5 0 7 -4 3 -9z
m143 -51 c0 -9 -3 -7 -8 5 -5 11 -8 29 -8 40 0 16 2 15 8 -5 4 -14 8 -32 8
-40z m1590 35 c11 -23 10 -25 -13 -25 -26 0 -29 7 -19 34 9 23 19 20 32 -9z
m22 -285 c0 -5 -5 -10 -11 -10 -5 0 -7 5 -4 10 3 6 8 10 11 10 2 0 4 -4 4 -10z
m85 0 c-3 -5 -17 -10 -30 -10 -13 0 -27 5 -30 10 -4 6 8 10 30 10 22 0 34 -4
30 -10z m-1688 -25 c22 -19 24 -24 11 -25 -10 0 -18 5 -18 11 0 6 -7 8 -17 5
-10 -4 -14 -4 -10 0 4 4 2 13 -4 21 -20 23 8 15 38 -12z m-246 -61 c-9 -28 -9
-29 -10 -3 -1 14 2 29 6 32 11 12 13 2 4 -29z m254 -19 c13 -27 23 -51 20 -53
-4 -4 -55 92 -55 104 0 13 9 -1 35 -51z m1655 17 l0 -27 -14 25 c-13 26 -11
44 5 35 5 -4 9 -18 9 -33z m-1907 -103 c-4 -12 0 -25 8 -30 11 -6 8 -9 -8 -9
-19 0 -23 6 -23 30 0 19 5 30 14 30 9 0 12 -7 9 -21z m35 -4 c-3 -3 -9 2 -12
12 -6 14 -5 15 5 6 7 -7 10 -15 7 -18z m82 3 c0 -19 -2 -20 -10 -8 -13 19 -13
30 0 30 6 0 10 -10 10 -22z m1680 15 c0 -5 -5 -15 -10 -23 -8 -12 -10 -11 -10
8 0 12 5 22 10 22 6 0 10 -3 10 -7z m118 -26 c5 -37 -15 -34 -20 3 -3 19 -1
29 6 27 6 -2 12 -16 14 -30z m-1844 8 c-4 -8 -8 -15 -10 -15 -2 0 -4 7 -4 15
0 8 4 15 10 15 5 0 7 -7 4 -15z m1984 -74 c-18 -24 -31 -30 -62 -30 -60 -1
-36 11 36 18 4 1 10 10 13 21 3 11 13 20 21 20 12 0 10 -7 -8 -29z m-1804 -22
c-8 -14 -34 -11 -34 4 0 8 3 17 7 20 9 9 34 -13 27 -24z m-344 -5 c0 -2 -11
-4 -25 -4 -14 0 -25 4 -25 9 0 4 11 6 25 3 14 -2 25 -6 25 -8z m1755 6 c3 -5
1 -10 -4 -10 -6 0 -11 5 -11 10 0 6 2 10 4 10 3 0 8 -4 11 -10z m-1511 -37
c-9 -38 -10 -38 -22 -4 -10 28 -9 31 9 31 16 0 18 -5 13 -27z m1616 10 c0 -10
-5 -25 -10 -33 -8 -13 -10 -13 -10 2 0 9 -3 23 -6 32 -4 11 -1 16 10 16 9 0
16 -8 16 -17z m-2015 -83 c4 -6 -6 -10 -22 -9 -25 0 -26 1 -8 9 11 5 21 9 22
9 1 1 5 -3 8 -9z m57 -12 c-7 -7 -12 -8 -12 -2 0 14 12 26 19 19 2 -3 -1 -11
-7 -17z m98 -14 l0 -35 -26 28 c-28 30 -32 31 -45 11 -7 -10 -9 -9 -9 4 0 12
10 18 38 21 20 2 38 4 40 5 1 1 2 -14 2 -34z m360 26 c0 -5 -5 -10 -11 -10 -5
0 -7 5 -4 10 3 6 8 10 11 10 2 0 4 -4 4 -10z m64 4 c27 -10 18 -19 -16 -17
-42 2 -40 1 -33 13 7 11 26 13 49 4z m1436 -37 c-1 -31 -1 -31 -13 -9 -7 12
-16 19 -20 16 -4 -4 -7 -2 -7 4 0 14 -22 12 -32 -3 -5 -6 -8 -5 -8 4 0 7 -6
11 -15 7 -8 -3 -15 -1 -15 4 0 8 86 19 103 12 4 -2 7 -18 7 -35z m330 22 c0
-6 -4 -7 -10 -4 -5 3 -10 11 -10 16 0 6 5 7 10 4 6 -3 10 -11 10 -16z m-1860
0 c0 -5 -5 -7 -11 -3 -6 3 -15 0 -20 -7 -5 -8 -9 -9 -9 -3 0 18 -38 11 -54
-11 -15 -19 -15 -19 -16 8 0 26 2 27 55 27 32 0 55 -4 55 -11z m1368 4 c-10
-2 -26 -2 -35 0 -10 3 -2 5 17 5 19 0 27 -2 18 -5z m462 -10 c0 -11 -3 -14 -8
-8 -6 10 -15 11 -49 7 -6 -1 -14 -10 -16 -19 -3 -11 -5 -7 -6 10 -1 25 2 27
39 27 31 0 40 -4 40 -17z m-2207 -46 c-3 -5 -9 -3 -14 4 -4 7 -5 17 -2 22 3 5
9 3 14 -4 4 -7 5 -17 2 -22z m324 1 c-3 -7 -5 -2 -5 12 0 14 2 19 5 13 2 -7 2
-19 0 -25z m1530 0 c-3 -7 -5 -2 -5 12 0 14 2 19 5 13 2 -7 2 -19 0 -25z"/>
<path d="M3033 3473 c-15 -5 -17 -23 -4 -23 5 0 11 7 15 15 3 8 4 15 3 14 -1
0 -8 -3 -14 -6z"/>
<path d="M2630 2325 c7 -9 15 -13 17 -11 7 7 -7 26 -19 26 -6 0 -6 -6 2 -15z"/>
<path d="M2720 2329 c0 -5 5 -7 10 -4 6 3 10 8 10 11 0 2 -4 4 -10 4 -5 0 -10
-5 -10 -11z"/>
<path d="M2495 2300 c-4 -6 -3 -16 3 -22 13 -13 23 4 13 21 -7 10 -10 10 -16
1z"/>
<path d="M2700 2170 c0 -11 4 -20 8 -20 4 0 8 9 8 20 0 11 -4 20 -8 20 -4 0
-8 -9 -8 -20z"/>
<path d="M2155 2230 c3 -5 8 -10 11 -10 2 0 4 5 4 10 0 6 -5 10 -11 10 -5 0
-7 -4 -4 -10z"/>
<path d="M2070 2121 c0 -5 11 -12 24 -15 13 -3 31 -9 40 -12 10 -4 16 -1 16 9
0 8 -9 17 -20 20 -11 3 -18 1 -14 -4 7 -12 -3 -11 -27 1 -11 6 -19 7 -19 1z"/>
<path d="M865 1650 c3 -5 12 -7 20 -3 21 7 19 13 -6 13 -11 0 -18 -4 -14 -10z"/>
<path d="M2496 4148 c9 -17 22 -47 29 -67 8 -20 14 -29 14 -21 1 17 -45 120
-54 120 -3 0 2 -14 11 -32z"/>
<path d="M2312 4090 c0 -14 2 -19 5 -12 2 6 2 18 0 25 -3 6 -5 1 -5 -13z"/>
<path d="M1752 3602 c0 -22 6 -31 26 -40 l27 -11 -27 6 c-37 7 -38 -19 -3 -35
34 -16 35 -15 35 8 0 23 6 24 40 5 19 -11 21 -14 8 -15 -22 0 -24 -28 -3 -36
8 -4 12 -11 9 -16 -4 -6 1 -6 13 1 14 7 23 7 31 -1 7 -7 14 -9 17 -6 10 9 -6
35 -28 47 -22 11 -22 11 2 5 19 -5 23 -3 18 9 -3 9 -1 18 6 20 20 8 -4 24 -82
57 -41 16 -77 30 -81 30 -4 0 -7 -13 -8 -28z"/>
<path d="M2061 3597 c2 -1 13 -9 24 -17 19 -14 19 -14 6 3 -7 9 -18 17 -24 17
-6 0 -8 -1 -6 -3z"/>
<path d="M483 3549 c-38 -33 -39 -37 -15 -64 9 -11 16 -18 14 -16 -1 3 14 21
33 41 34 35 35 37 18 52 -17 15 -20 14 -50 -13z"/>
<path d="M74 3558 c-4 -6 7 -24 27 -42 29 -26 34 -28 37 -12 4 17 -33 66 -49
66 -4 0 -11 -5 -15 -12z"/>
<path d="M2111 3567 c2 -1 15 -11 29 -22 l25 -20 -19 23 c-11 12 -24 22 -29
22 -6 0 -8 -1 -6 -3z"/>
<path d="M2011 3528 c14 -26 21 -108 8 -87 -5 8 -9 21 -9 29 0 8 -12 29 -26
45 l-25 30 14 -30 c8 -16 18 -46 22 -65 12 -62 16 -69 38 -72 14 -2 24 -13 30
-35 12 -39 33 -50 33 -17 0 13 -4 24 -10 24 -5 0 -7 3 -4 6 4 3 2 20 -4 37 -5
18 -11 41 -12 52 -5 39 -43 105 -61 105 -3 0 0 -10 6 -22z m39 -128 c0 -5 -2
-10 -4 -10 -3 0 -8 5 -11 10 -3 6 -1 10 4 10 6 0 11 -4 11 -10z"/>
<path d="M407 3521 c6 -25 19 -35 27 -22 3 4 -3 16 -14 26 -18 16 -18 16 -13
-4z"/>
<path d="M2310 3510 c0 -5 5 -10 11 -10 5 0 7 5 4 10 -3 6 -8 10 -11 10 -2 0
-4 -4 -4 -10z"/>
<path d="M1940 3496 c0 -21 43 -92 48 -78 3 11 -34 92 -43 92 -3 0 -5 -6 -5
-14z"/>
<path d="M94 3468 c-11 -17 6 -22 22 -7 13 14 13 16 -1 16 -9 0 -18 -4 -21 -9z"/>
<path d="M437 3464 c3 -7 9 -14 14 -14 14 0 10 17 -5 23 -10 4 -13 1 -9 -9z"/>
<path d="M2410 3451 c0 -14 23 -28 58 -34 38 -8 42 4 7 27 -26 17 -65 22 -65
7z"/>
<path d="M2540 3410 c0 -11 58 -50 74 -50 14 0 -16 30 -46 46 -17 9 -28 10
-28 4z"/>
<path d="M2460 3400 c0 -5 5 -10 10 -10 6 0 10 5 10 10 0 6 -4 10 -10 10 -5 0
-10 -4 -10 -10z"/>
<path d="M76 3371 c-4 -7 -5 -15 -2 -18 9 -9 19 4 14 18 -4 11 -6 11 -12 0z"/>
<path d="M3390 3366 c0 -9 5 -16 10 -16 6 0 10 4 10 9 0 6 -4 13 -10 16 -5 3
-10 -1 -10 -9z"/>
<path d="M471 3294 c0 -11 3 -14 6 -6 3 7 2 16 -1 19 -3 4 -6 -2 -5 -13z"/>
<path d="M510 3261 c0 -5 5 -13 10 -16 6 -3 10 -2 10 4 0 5 -4 13 -10 16 -5 3
-10 2 -10 -4z"/>
<path d="M3370 3259 c0 -5 5 -7 10 -4 6 3 10 8 10 11 0 2 -4 4 -10 4 -5 0 -10
-5 -10 -11z"/>
<path d="M2840 3230 c6 -11 12 -20 14 -20 2 0 2 9 -1 20 -3 11 -9 20 -15 20
-5 0 -4 -9 2 -20z"/>
<path d="M3335 3221 c-6 -11 9 -23 19 -14 9 9 7 23 -3 23 -6 0 -12 -4 -16 -9z"/>
<path d="M2266 3103 c4 -32 3 -34 -6 -15 -10 24 -16 27 -67 36 -31 5 -33 4
-33 -22 0 -45 22 -66 69 -66 22 0 41 -4 41 -9 0 -5 7 -4 15 3 18 15 19 33 3
77 -16 44 -28 42 -22 -4z"/>
<path d="M3136 3111 c-14 -15 -16 -40 -15 -155 0 -99 4 -136 12 -133 9 3 11
40 8 131 -2 90 0 131 9 141 17 21 153 21 170 1 19 -23 11 -267 -9 -283 -14
-10 -12 -12 8 -8 13 2 26 7 29 10 3 2 4 67 3 142 -3 173 -3 173 -116 173 -67
0 -85 -3 -99 -19z"/>
<path d="M174 3063 c0 -17 4 -29 9 -26 5 3 6 8 3 11 -3 3 2 15 11 26 15 17 15
18 1 8 -13 -10 -17 -10 -21 0 -2 7 -4 -1 -3 -19z"/>
<path d="M285 3079 c-3 -4 2 -6 10 -5 21 3 28 13 10 13 -9 0 -18 -4 -20 -8z"/>
<path d="M2141 3064 c0 -11 3 -14 6 -6 3 7 2 16 -1 19 -3 4 -6 -2 -5 -13z"/>
<path d="M290 3016 c0 -2 8 -10 18 -17 15 -13 16 -12 3 4 -13 16 -21 21 -21
13z"/>
<path d="M3140 2810 c0 -5 5 -10 10 -10 6 0 10 5 10 10 0 6 -4 10 -10 10 -5 0
-10 -4 -10 -10z"/>
<path d="M2725 2470 c-13 -6 -15 -9 -5 -9 8 0 22 4 30 9 18 12 2 12 -25 0z"/>
<path d="M2800 2431 c0 -6 4 -13 10 -16 6 -3 7 1 4 9 -7 18 -14 21 -14 7z"/>
<path d="M2835 2340 c-3 -5 -1 -10 4 -10 6 0 11 5 11 10 0 6 -2 10 -4 10 -3 0
-8 -4 -11 -10z"/>
<path d="M2840 2179 c0 -5 5 -7 10 -4 6 3 10 8 10 11 0 2 -4 4 -10 4 -5 0 -10
-5 -10 -11z"/>
<path d="M2530 1971 c0 -5 7 -12 16 -15 24 -9 27 -7 10 9 -17 17 -26 19 -26 6z"/>
<path d="M2805 1960 c-3 -5 -1 -10 4 -10 6 0 11 5 11 10 0 6 -2 10 -4 10 -3 0
-8 -4 -11 -10z"/>
<path d="M2618 1933 c7 -3 16 -2 19 1 4 3 -2 6 -13 5 -11 0 -14 -3 -6 -6z"/>
<path d="M2646 1905 c4 -8 10 -12 15 -9 11 6 2 24 -11 24 -5 0 -7 -7 -4 -15z"/>
</g>
</svg>
