<?xml version="1.0" standalone="no"?>
<!DOCTYPE svg PUBLIC "-//W3C//DTD SVG 20010904//EN"
 "http://www.w3.org/TR/2001/REC-SVG-20010904/DTD/svg10.dtd">
<svg version="1.0" xmlns="http://www.w3.org/2000/svg"
 width="360.000000pt" height="351.000000pt" viewBox="0 0 360.000000 351.000000"
 preserveAspectRatio="xMidYMid meet">

<g transform="translate(0.000000,351.000000) scale(0.100000,-0.100000)"
fill="#000000" stroke="none">
<path d="M2648 3316 c-22 -8 -26 -14 -22 -32 3 -12 1 -25 -6 -29 -13 -8 -4
-92 12 -112 5 -7 8 -48 7 -92 -2 -44 0 -83 4 -87 4 -4 7 -28 7 -53 0 -25 4
-52 9 -60 6 -9 1 -25 -14 -47 -12 -18 -25 -51 -29 -73 -5 -33 -10 -41 -27 -41
-19 0 -20 4 -14 43 9 52 12 57 29 51 17 -6 31 12 16 21 -5 3 -10 2 -10 -3 0
-5 -13 -7 -29 -4 -28 4 -30 1 -41 -39 -16 -65 -18 -69 -33 -69 -23 0 -25 8
-14 55 7 32 15 45 27 45 10 0 23 6 29 14 8 9 26 13 51 11 27 -2 38 0 34 7 -4
7 -2 8 4 4 7 -4 12 -2 12 3 0 6 -21 11 -50 11 -39 0 -53 -4 -62 -20 -7 -11
-22 -20 -34 -20 -21 0 -22 5 -26 128 -6 154 -27 211 -80 212 -26 0 -68 -57
-68 -93 l0 -31 -28 27 c-34 33 -78 35 -142 6 -65 -29 -141 -122 -124 -152 4
-7 3 -8 -1 -4 -5 4 -15 -3 -22 -15 -12 -21 -12 -20 -6 12 3 19 10 39 14 45 5
5 9 16 9 25 0 28 82 96 137 114 29 10 58 25 64 34 10 16 10 16 5 0 -5 -16 2
-18 44 -18 28 0 50 5 50 10 0 6 9 19 20 30 14 14 16 20 6 20 -7 0 -21 11 -30
25 -9 14 -22 25 -29 25 -8 0 -24 12 -38 26 -26 28 -22 28 -269 9 -44 -3 -58
-2 -45 4 18 9 17 10 -9 10 -17 1 -34 -6 -42 -16 -7 -10 -16 -14 -20 -10 -5 4
-2 12 6 17 11 7 7 10 -17 10 -19 0 -40 -8 -50 -19 -11 -12 -36 -20 -65 -22
l-48 -4 -15 52 c-11 36 -22 54 -36 58 -23 8 -39 -8 -39 -37 0 -10 -4 -18 -10
-18 -5 0 -10 11 -10 25 0 15 -6 25 -15 25 -8 0 -13 -6 -11 -12 1 -7 1 -10 -1
-5 -3 4 -11 7 -18 7 -16 0 -28 -75 -20 -122 8 -50 -12 -68 -94 -84 -108 -20
-268 -104 -332 -174 -28 -31 -39 -37 -49 -27 -8 8 -14 8 -16 2 -3 -6 -33 -9
-77 -7 -62 3 -76 1 -99 -18 -43 -33 -63 -140 -38 -204 9 -24 7 -26 -16 -26
-17 0 -43 17 -79 51 -52 49 -55 50 -106 47 -52 -3 -54 -4 -64 -39 -13 -46 -32
-69 -58 -69 -11 0 -28 -7 -38 -16 -12 -10 -51 -19 -119 -24 -56 -5 -108 -15
-116 -21 -21 -17 -20 -262 0 -279 19 -15 173 -29 246 -23 62 6 70 1 89 -58 9
-28 18 -38 40 -42 47 -10 73 3 131 63 52 54 58 58 114 64 33 4 64 10 70 15 17
13 211 33 250 25 33 -6 36 -4 50 27 8 19 17 42 20 52 5 16 7 16 23 1 10 -9 46
-36 81 -60 62 -44 79 -74 42 -74 -34 0 -226 -99 -288 -148 -137 -111 -171
-177 -207 -412 -29 -189 -31 -240 -11 -240 10 0 14 -9 12 -27 -2 -16 1 -34 6
-41 6 -7 15 -33 19 -58 5 -26 16 -52 26 -59 10 -7 14 -20 11 -33 -7 -27 39
-56 104 -66 37 -6 48 -4 55 9 7 11 17 14 41 9 25 -5 32 -12 32 -30 0 -18 7
-25 33 -32 39 -10 39 -30 -3 -112 -16 -31 -32 -74 -36 -95 -4 -26 -19 -52 -41
-73 -19 -18 -40 -47 -47 -65 -7 -18 -30 -75 -50 -128 -35 -93 -38 -96 -76
-108 -37 -11 -40 -14 -40 -49 0 -47 24 -63 127 -86 93 -21 167 -21 187 0 9 9
31 20 49 24 17 5 51 14 75 20 30 8 42 16 42 29 0 12 10 21 25 25 16 4 25 13
25 26 0 24 15 26 27 5 8 -13 28 -14 132 -8 83 4 124 10 128 19 2 6 -7 35 -21
63 -29 57 -25 56 -166 52 -51 -2 -79 -7 -86 -17 -15 -18 -34 -18 -34 1 0 8 9
29 20 47 11 18 20 43 20 55 0 11 18 59 40 105 22 45 46 115 53 155 10 51 24
87 49 125 20 29 39 71 43 93 3 22 13 59 21 83 8 23 14 67 14 97 0 49 2 55 23
59 131 27 184 52 173 82 -3 7 -1 16 4 19 6 4 10 18 10 33 0 20 3 23 12 14 8
-8 12 -64 13 -171 1 -92 6 -166 12 -173 14 -18 25 -66 24 -109 -1 -23 6 -43
21 -59 14 -15 21 -34 20 -51 -4 -35 36 -65 101 -74 38 -6 51 -4 60 8 9 12 23
14 60 10 46 -5 47 -6 49 -42 1 -20 1 -55 0 -78 -2 -23 2 -44 8 -48 7 -4 7 -12
0 -24 -5 -10 -6 -21 -3 -25 3 -3 1 -6 -5 -6 -5 0 -15 -24 -22 -52 -7 -36 -20
-61 -39 -79 -16 -14 -36 -41 -45 -60 -12 -26 -86 -263 -86 -276 0 -1 -20 -11
-45 -22 -41 -18 -45 -23 -45 -54 0 -30 6 -38 36 -56 51 -30 186 -61 266 -61
58 0 70 3 80 20 8 13 39 29 81 41 62 19 67 23 67 49 0 16 7 30 15 34 8 3 15
15 15 27 0 21 1 22 20 4 18 -16 32 -17 142 -11 68 4 128 12 135 18 10 8 7 21
-12 59 -39 75 -57 83 -180 76 -58 -2 -105 -4 -105 -2 0 1 7 16 15 31 8 16 15
40 15 53 0 13 13 67 29 120 16 53 32 108 35 124 4 18 13 27 26 27 13 0 20 7
20 18 0 10 16 51 36 91 46 94 53 117 64 220 l9 84 -40 58 -40 59 65 0 c73 0
171 31 184 58 5 9 7 27 7 39 -1 12 3 21 8 20 16 -3 15 21 -1 73 -19 64 -22 90
-9 87 13 -2 13 4 2 67 -4 22 -10 34 -14 28 -4 -6 -6 10 -4 36 1 26 2 52 2 59
1 15 70 55 83 47 6 -4 7 16 3 59 -6 59 -5 69 19 110 36 60 44 66 127 87 52 14
81 28 105 51 l34 33 0 135 c-1 134 -1 136 -29 170 -26 32 -34 35 -92 38 -83 5
-100 15 -135 74 l-29 49 -63 0 c-47 0 -64 -4 -67 -15 -3 -8 -7 -23 -11 -32 -3
-12 -16 3 -44 55 -39 72 -39 73 -47 219 -4 82 -7 198 -7 260 -1 61 -4 115 -8
119 -5 4 -8 17 -8 29 0 31 -11 37 -32 18 -18 -16 -18 -16 -12 0 4 12 1 17 -10
17 -11 0 -16 -9 -16 -30 0 -20 -5 -30 -15 -30 -9 0 -15 9 -15 24 0 31 -8 35
-42 22z m-460 -83 c-24 -6 -23 -21 2 -25 17 -3 14 -9 -24 -50 -40 -44 -67 -63
-50 -37 4 7 -1 7 -16 -1 -25 -13 -24 -18 -4 64 5 20 2 25 -17 29 -24 4 -24 4
1 6 14 1 32 6 40 11 8 5 31 9 50 9 19 -1 27 -3 18 -6z m-393 -43 c-11 -5 -27
-9 -35 -9 -13 -1 -13 0 0 9 8 5 24 9 35 9 l20 0 -20 -9z m195 -2 c-30 -4 -96
-15 -146 -23 -50 -8 -124 -25 -165 -38 -73 -23 -73 -23 -84 -67 -8 -34 -16
-46 -35 -50 -18 -4 -26 -15 -31 -39 -16 -77 -156 -171 -257 -171 -55 0 -66 11
-17 16 14 1 32 10 41 18 15 16 34 20 64 16 8 -1 12 2 7 6 -10 10 42 44 59 37
7 -2 19 5 26 16 7 12 21 21 30 21 14 0 18 8 18 39 l0 39 -102 4 c-57 2 -112 0
-123 -5 -19 -8 -19 -7 -2 6 14 11 45 13 156 9 l139 -5 7 47 7 46 92 29 c50 16
125 34 166 40 41 6 86 13 100 15 14 2 43 3 65 3 35 0 34 -1 -15 -9z m744 -75
c10 -66 7 -103 -9 -103 -9 0 -15 9 -15 24 0 13 -3 44 -6 70 -5 37 -4 46 8 46
10 0 18 -14 22 -37z m-459 17 c-3 -5 -11 -10 -16 -10 -6 0 -7 5 -4 10 3 6 11
10 16 10 6 0 7 -4 4 -10z m-220 -56 c0 -10 -14 -37 -31 -59 -30 -39 -93 -169
-95 -197 0 -9 -2 -9 -5 -1 -10 24 47 167 83 207 20 22 32 41 26 43 -18 6 -165
-62 -242 -111 -68 -44 -77 -47 -105 -37 -20 7 -22 9 -7 6 22 -4 81 18 81 31 0
2 -9 0 -19 -6 -11 -5 -28 -9 -38 -9 -16 1 -16 2 1 6 11 3 37 17 58 31 28 18
35 28 26 33 -9 6 -4 9 15 9 15 0 27 -4 27 -10 0 -5 -3 -10 -7 -10 -5 0 -19
-10 -33 -21 -34 -28 4 -8 48 24 19 14 69 38 113 54 43 15 79 31 79 36 0 5 6 7
12 5 7 -3 13 -13 13 -24z m-375 -43 c0 -5 -7 -12 -16 -15 -14 -5 -15 -4 -4 9
14 17 20 19 20 6z m-47 -13 c-13 -21 -13 -42 0 -50 9 -5 8 -8 -3 -8 -34 0 -41
16 -20 43 22 27 38 37 23 15z m120 5 c-7 -2 -21 -2 -30 0 -10 3 -4 5 12 5 17
0 24 -2 18 -5z m487 -31 c0 -19 61 -43 97 -38 l38 5 -38 -10 c-29 -9 -46 -8
-65 0 l-27 12 25 -20 c20 -16 22 -21 11 -35 -7 -9 -25 -16 -39 -16 -24 0 -25
-1 -8 -13 16 -11 17 -17 7 -33 -12 -18 -12 -18 -8 4 5 21 2 22 -48 22 -67 0
-80 -16 -20 -24 24 -4 48 -12 51 -18 5 -7 -4 -9 -24 -6 -17 2 -29 1 -26 -4 10
-16 -5 -8 -32 17 -26 24 -27 26 -9 45 12 13 15 24 9 30 -7 7 -16 -8 -28 -40
-10 -28 -21 -49 -23 -46 -3 3 2 26 10 51 9 25 12 43 6 40 -18 -12 -9 12 13 31
12 10 18 13 14 6 -4 -6 9 -3 29 9 20 12 44 19 56 16 16 -4 18 -3 8 9 -9 11 -8
14 5 14 9 0 16 -4 16 -8z m-760 -32 c0 -11 -33 -12 -105 0 -48 7 -48 7 28 9
45 0 77 -3 77 -9z m1270 -68 c0 -37 4 -73 10 -80 5 -7 -1 -2 -14 10 -18 18
-25 36 -28 81 -4 50 -2 57 14 57 16 0 18 -9 18 -68z m-346 39 c4 -5 -3 -7 -14
-4 -23 6 -26 13 -6 13 8 0 17 -4 20 -9z m-977 -17 c-3 -3 -12 -4 -19 -1 -8 3
-5 6 6 6 11 1 17 -2 13 -5z m457 -10 c13 -34 6 -52 -25 -63 -18 -6 -33 -11
-34 -11 -2 0 -6 12 -10 27 -5 21 -1 31 17 45 29 22 44 23 52 2z m-694 -24 c0
-5 -5 -10 -11 -10 -5 0 -7 5 -4 10 3 6 8 10 11 10 2 0 4 -4 4 -10z m377 -35
c-37 -35 -47 -31 -12 5 16 16 31 27 34 25 3 -3 -7 -17 -22 -30z m-37 15 c0 -5
-2 -10 -4 -10 -3 0 -8 5 -11 10 -3 6 -1 10 4 10 6 0 11 -4 11 -10z m-340 -20
c0 -5 -4 -10 -9 -10 -6 0 -13 5 -16 10 -3 6 1 10 9 10 9 0 16 -4 16 -10z
m1270 0 c11 -8 8 -9 -13 -4 -45 10 -85 -35 -98 -111 l-6 -40 -2 38 c-2 83 67
152 119 117z m-323 -16 c-3 -3 -12 -4 -19 -1 -8 3 -5 6 6 6 11 1 17 -2 13 -5z
m-957 -14 c0 -5 -2 -10 -4 -10 -3 0 -8 5 -11 10 -3 6 -1 10 4 10 6 0 11 -4 11
-10z m234 -12 c-4 -7 -14 -22 -23 -32 -15 -18 -15 -19 8 -13 17 4 21 3 13 -5
-5 -5 -19 -7 -31 -3 -37 12 -20 65 22 65 12 0 16 -4 11 -12z m1347 -25 c13
-15 12 -15 -8 -2 -36 22 -64 -13 -74 -93 l-8 -63 3 67 c1 49 7 72 20 87 23 25
49 27 67 4z m-194 -29 c-3 -20 -9 -39 -12 -42 -11 -12 -16 8 -10 42 9 48 29
48 22 0z m-1390 -10 c-3 -3 -12 -4 -19 -1 -8 3 -5 6 6 6 11 1 17 -2 13 -5z
m96 -1 c-13 -2 -33 -2 -45 0 -13 2 -3 4 22 4 25 0 35 -2 23 -4z m97 3 c0 -8
-51 -13 -56 -5 -3 5 9 9 25 9 17 0 31 -2 31 -4z m213 -48 c-4 -21 -3 -22 10
-5 16 19 33 22 42 7 3 -6 -1 -7 -9 -4 -9 4 -18 -1 -22 -10 -8 -22 -34 -20 -34
2 0 16 8 32 16 32 1 0 0 -10 -3 -22z m-285 -73 c-16 -31 -27 -62 -24 -70 3
-10 -1 -15 -14 -15 -25 0 -36 18 -16 26 9 3 13 10 10 15 -5 9 56 98 68 99 3 0
-7 -25 -24 -55z m1269 29 c-3 -3 -12 -4 -19 -1 -8 3 -5 6 6 6 11 1 17 -2 13
-5z m-2107 -74 c0 -5 -2 -10 -4 -10 -3 0 -8 5 -11 10 -3 6 -1 10 4 10 6 0 11
-4 11 -10z m1153 3 c-7 -2 -19 -2 -25 0 -7 3 -2 5 12 5 14 0 19 -2 13 -5z
m-406 -29 c-3 -3 -12 -4 -19 -1 -8 3 -5 6 6 6 11 1 17 -2 13 -5z m-887 -18 c0
-3 -4 -8 -10 -11 -5 -3 -10 -1 -10 4 0 6 5 11 10 11 6 0 10 -2 10 -4z m1427
-2 c-3 -3 -12 -4 -19 -1 -8 3 -5 6 6 6 11 1 17 -2 13 -5z m-808 -60 c3 -16 -1
-14 -18 6 l-21 25 -20 -24 c-25 -29 -26 -68 -2 -95 17 -21 17 -21 -5 -2 -31
25 -31 88 -2 117 18 18 23 19 42 6 12 -8 24 -23 26 -33z m1041 31 c30 -8 78
-15 106 -15 35 0 59 -6 76 -19 13 -11 40 -21 59 -24 24 -3 19 -4 -16 -4 -39 0
-233 48 -290 71 -24 10 14 5 65 -9z m-968 -40 c-2 -19 -8 -35 -12 -35 -5 0
-15 -3 -24 -6 -13 -5 -16 1 -16 29 0 34 7 42 45 46 7 1 9 -13 7 -34z m1576 17
c9 -7 8 -13 -8 -27 -14 -13 -20 -31 -20 -62 0 -49 -7 -53 -39 -19 l-22 23 31
33 c16 17 30 38 30 46 0 16 9 18 28 6z m-2268 -6 c0 -3 -4 -8 -10 -11 -5 -3
-10 -1 -10 4 0 6 5 11 10 11 6 0 10 -2 10 -4z m2590 -26 c0 -5 -2 -10 -4 -10
-3 0 -8 5 -11 10 -3 6 -1 10 4 10 6 0 11 -4 11 -10z m215 -20 c3 -5 1 -10 -4
-10 -6 0 -11 5 -11 10 0 6 2 10 4 10 3 0 8 -4 11 -10z m-2035 -35 c0 -5 -5 -3
-10 5 -5 8 -10 20 -10 25 0 6 5 3 10 -5 5 -8 10 -19 10 -25z m1845 25 c3 -5 1
-10 -4 -10 -6 0 -11 5 -11 10 0 6 2 10 4 10 3 0 8 -4 11 -10z m-2615 -4 c0 -3
-4 -8 -10 -11 -5 -3 -10 -1 -10 4 0 6 5 11 10 11 6 0 10 -2 10 -4z m2051 -157
c76 -82 96 -108 82 -111 -14 -2 -9 -9 20 -27 21 -13 36 -26 33 -29 -3 -2 -21
7 -40 22 -19 14 -39 26 -43 26 -5 0 -17 15 -26 34 -13 29 -25 37 -73 51 -32 9
-73 15 -92 13 -33 -4 -35 -2 -65 59 -39 79 -32 96 39 103 41 4 50 2 57 -14 4
-10 52 -67 108 -127z m329 137 c0 -3 -4 -8 -10 -11 -5 -3 -10 -1 -10 4 0 6 5
11 10 11 6 0 10 -2 10 -4z m-1775 -16 c-3 -5 -12 -10 -18 -10 -7 0 -6 4 3 10
19 12 23 12 15 0z m615 -20 c8 -5 11 -10 5 -10 -5 0 -17 5 -25 10 -8 5 -10 10
-5 10 6 0 17 -5 25 -10z m-1220 -4 c0 -3 -4 -8 -10 -11 -5 -3 -10 -1 -10 4 0
6 5 11 10 11 6 0 10 -2 10 -4z m2440 0 c0 -3 -4 -8 -10 -11 -5 -3 -10 -1 -10
4 0 6 5 11 10 11 6 0 10 -2 10 -4z m-676 -88 c3 -34 4 -64 1 -66 -12 -13 -24
16 -25 63 -2 63 -2 65 9 65 4 0 11 -28 15 -62z m616 52 c0 -5 -4 -10 -10 -10
-5 0 -10 5 -10 10 0 6 5 10 10 10 6 0 10 -4 10 -10z m-1037 -35 l32 5 -29 -10
c-32 -10 -46 -6 -45 13 0 9 2 9 5 0 3 -8 18 -10 37 -8z m977 5 c0 -5 -5 -10
-11 -10 -5 0 -7 5 -4 10 3 6 8 10 11 10 2 0 4 -4 4 -10z m-1213 -16 c-3 -3
-12 -4 -19 -1 -8 3 -5 6 6 6 11 1 17 -2 13 -5z m733 -4 c0 -5 -5 -10 -11 -10
-5 0 -7 5 -4 10 3 6 8 10 11 10 2 0 4 -4 4 -10z m710 6 c0 -3 -4 -8 -10 -11
-5 -3 -10 -1 -10 4 0 6 5 11 10 11 6 0 10 -2 10 -4z m-700 -36 c0 -5 -2 -10
-4 -10 -3 0 -8 5 -11 10 -3 6 -1 10 4 10 6 0 11 -4 11 -10z m640 0 c0 -5 -5
-10 -11 -10 -5 0 -7 5 -4 10 3 6 8 10 11 10 2 0 4 -4 4 -10z m-925 -21 c-22
-4 -62 -8 -88 -8 -29 -1 -46 -5 -42 -11 3 -5 1 -10 -4 -10 -6 0 -11 5 -11 10
0 6 -17 11 -37 12 -35 2 109 13 187 15 l35 1 -40 -9z m72 -5 c-3 -3 -12 -4
-19 -1 -8 3 -5 6 6 6 11 1 17 -2 13 -5z m103 -24 c0 -6 -23 -34 -51 -62 -42
-42 -48 -46 -36 -21 9 17 27 37 41 47 16 10 23 22 20 31 -4 9 0 15 10 15 9 0
16 -5 16 -10z m-560 -9 c0 -5 -7 -11 -15 -15 -15 -5 -20 5 -8 17 9 10 23 9 23
-2z m515 -11 c-3 -5 -12 -10 -18 -10 -7 0 -6 4 3 10 19 12 23 12 15 0z m685 6
c0 -3 -4 -8 -10 -11 -5 -3 -10 -1 -10 4 0 6 5 11 10 11 6 0 10 -2 10 -4z
m-360 -45 c-6 -12 -15 -21 -21 -21 -6 0 -3 7 5 16 9 8 16 20 16 26 0 6 3 9 6
6 3 -4 1 -16 -6 -27z m-647 2 c-7 -2 -21 -2 -30 0 -10 3 -4 5 12 5 17 0 24 -2
18 -5z m521 -8 c-7 -16 -24 -21 -24 -6 0 8 7 13 27 20 1 1 0 -6 -3 -14z m-436
-20 c32 4 61 8 66 8 5 1 12 -10 17 -26 4 -16 4 -25 -2 -21 -5 3 -9 12 -9 20 0
8 -7 14 -15 14 -20 0 -19 -25 2 -46 13 -13 14 -16 3 -12 -8 2 -19 14 -25 26
-10 23 -39 27 -100 13 l-30 -7 32 -5 c18 -3 30 -3 28 1 -2 3 7 6 20 6 17 0 21
-3 14 -12 -6 -7 -27 -10 -52 -8 -42 4 -44 3 -64 -38 -11 -24 -23 -50 -27 -58
-3 -8 -3 1 0 20 8 43 42 110 60 117 8 3 15 13 15 22 1 13 2 12 6 -3 4 -16 11
-17 61 -11z m590 -25 c-13 -22 -26 -40 -30 -40 -12 0 -10 8 15 45 31 48 43 44
15 -5z m-881 24 c-3 -3 -12 -4 -19 -1 -8 3 -5 6 6 6 11 1 17 -2 13 -5z m13
-34 c0 -5 -4 -10 -9 -10 -6 0 -13 5 -16 10 -3 6 1 10 9 10 9 0 16 -4 16 -10z
m80 1 c0 -5 -9 -7 -20 -4 -11 3 -20 7 -20 9 0 2 9 4 20 4 11 0 20 -4 20 -9z
m580 5 c0 -2 -8 -10 -17 -17 -16 -13 -17 -12 -4 4 13 16 21 21 21 13z m160
-38 c0 -5 -4 -8 -9 -8 -15 0 -69 -117 -80 -173 -18 -98 -21 -133 -10 -117 9
13 10 13 6 0 -2 -8 -10 -15 -18 -15 -19 0 -23 -38 -8 -67 7 -13 14 -30 15 -38
4 -19 -16 -41 -29 -33 -6 3 -7 1 -3 -5 4 -6 -2 -20 -14 -32 -11 -11 -20 -25
-20 -31 0 -17 -42 -109 -50 -109 -13 0 -22 101 -10 115 7 8 9 23 5 34 -3 11 1
34 10 51 l16 31 -23 -11 -23 -11 22 18 c12 10 25 36 29 58 3 22 11 46 17 54
29 36 38 55 66 146 23 79 55 136 72 133 6 -2 14 3 16 10 3 6 0 12 -6 12 -6 0
-11 5 -11 10 0 6 8 5 20 -2 11 -7 20 -16 20 -20z m198 15 c-21 -25 -40 -63
-49 -98 l-7 -30 -1 28 c-1 40 39 117 62 117 5 0 3 -8 -5 -17z m307 7 c-4 -7 5
-9 27 -5 24 4 29 3 18 -5 -23 -15 -60 -12 -60 5 0 8 5 15 11 15 5 0 7 -5 4
-10z m-1371 -14 c-3 -8 3 -16 15 -19 27 -7 16 -45 -17 -58 -14 -5 -27 -8 -29
-6 -6 7 20 97 29 97 4 0 5 -6 2 -14z m301 -42 c-28 -30 -40 -31 -23 -1 7 12
11 25 10 28 -1 4 7 5 17 2 17 -4 17 -6 -4 -29z m635 0 c0 -8 -4 -14 -10 -14
-5 0 -10 9 -10 21 0 11 5 17 10 14 6 -3 10 -13 10 -21z m500 6 c0 -11 -7 -20
-15 -20 -8 0 -15 5 -15 10 0 7 -6 7 -19 1 -10 -6 -21 -7 -25 -4 -7 7 39 31 62
32 6 1 12 -8 12 -19z m-1666 -27 c-3 -14 -10 -35 -16 -46 -10 -20 -11 -20 -24
-2 -8 11 -27 25 -42 32 -25 12 -25 12 -2 7 14 -4 29 -10 34 -15 6 -5 17 4 28
21 22 37 28 38 22 3z m329 -10 c-7 -2 -19 -2 -25 0 -7 3 -2 5 12 5 14 0 19 -2
13 -5z m980 -11 c-21 -22 -26 -21 -17 2 3 9 12 16 20 16 11 0 10 -4 -3 -18z
m-93 0 c0 -14 -11 -21 -26 -15 -21 8 -17 23 6 23 11 0 20 -4 20 -8z m-1278
-29 c20 -18 24 -58 6 -69 -7 -4 -8 -3 -4 4 10 17 -12 52 -34 52 -10 0 -21 -6
-23 -12 -3 -7 -6 -4 -6 8 -2 37 29 46 61 17z m444 9 c-5 -8 -66 -4 -66 4 0 2
16 4 36 4 19 0 33 -4 30 -8z m1267 -24 c-3 -18 -7 -35 -10 -38 -2 -3 -2 11 0
30 6 41 6 40 11 40 2 0 2 -15 -1 -32z m22 -10 c-10 -13 -14 -16 -11 -8 3 8 9
24 13 35 4 11 8 14 11 7 2 -6 -4 -22 -13 -34z m-1099 -6 c-15 -15 -15 -15 -4
10 7 15 15 23 17 17 2 -6 -4 -18 -13 -27z m1194 -24 c0 -16 -3 -19 -11 -11 -6
6 -8 16 -5 22 11 17 16 13 16 -11z m-1279 -11 c-10 -9 -11 -8 -5 6 3 10 9 15
12 12 3 -3 0 -11 -7 -18z m269 13 c0 -4 -3 -22 -6 -39 -7 -36 -21 -41 -26 -10
-2 13 -18 30 -37 40 l-34 18 52 -1 c28 -1 51 -5 51 -8z m300 6 c0 -3 -4 -8
-10 -11 -5 -3 -10 -1 -10 4 0 6 5 11 10 11 6 0 10 -2 10 -4z m-362 -42 c27
-19 28 -35 3 -65 l-19 -24 5 28 c6 33 -13 60 -39 54 -11 -3 -18 0 -18 9 0 19
40 18 68 -2z m955 -4 c-3 -12 -8 -19 -11 -16 -5 6 5 36 12 36 2 0 2 -9 -1 -20z
m-239 -47 c5 -33 3 -43 -8 -43 -19 0 -67 -39 -65 -53 1 -7 -1 -29 -6 -51 -5
-24 -4 -41 3 -45 15 -9 18 -89 4 -103 -9 -9 -12 -9 -12 0 0 18 -46 44 -97 53
-55 11 -83 -7 -83 -53 0 -15 -2 -28 -5 -28 -11 0 -75 29 -75 34 0 9 54 121 61
126 4 3 20 28 37 55 25 41 39 53 81 68 27 9 63 29 79 42 17 14 37 25 45 25 9
0 19 5 22 11 9 14 11 10 19 -38z m276 43 c0 -2 -7 -6 -15 -10 -8 -3 -15 -1
-15 4 0 6 7 10 15 10 8 0 15 -2 15 -4z m-1270 -10 c0 -2 -8 -10 -17 -17 -16
-13 -17 -12 -4 4 13 16 21 21 21 13z m1280 -27 c0 -5 4 -8 9 -5 5 4 7 -4 3
-16 -3 -12 -7 -17 -10 -10 -2 7 -9 9 -14 6 -7 -4 -8 -2 -4 4 5 8 -2 12 -21 13
l-28 1 25 8 c36 11 40 11 40 -1z m-73 -15 c-3 -3 -12 -4 -19 -1 -8 3 -5 6 6 6
11 1 17 -2 13 -5z m-1394 -77 c9 -30 17 -64 17 -76 0 -12 4 -19 10 -16 6 3 10
3 9 -2 0 -9 -113 -103 -123 -103 -3 0 -6 6 -6 14 0 19 -51 31 -61 14 -5 -7 -9
-8 -9 -3 0 15 14 31 25 30 34 -2 65 -17 59 -27 -4 -6 9 1 30 17 42 32 35 45
-25 45 -54 0 -73 18 -62 60 8 29 15 37 45 44 22 5 41 19 49 33 7 12 15 23 19
23 3 0 14 -24 23 -53z m660 18 c-3 -9 -8 -14 -10 -11 -3 3 -2 9 2 15 9 16 15
13 8 -4z m166 -12 l12 -28 -21 25 c-12 15 -20 20 -20 11 0 -8 -3 -12 -6 -8 -7
7 4 27 15 27 4 0 13 -12 20 -27z m-1259 -38 c0 -8 -4 -15 -10 -15 -5 0 -7 7
-4 15 4 8 8 15 10 15 2 0 4 -7 4 -15z m-13 -57 c-3 -8 -6 -5 -6 6 -1 11 2 17
5 13 3 -3 4 -12 1 -19z m1903 -25 c-19 -8 -59 -17 -90 -19 l-55 -3 55 9 c30 5
66 13 80 19 40 16 49 11 10 -6z m-1090 -10 c-19 -8 -59 -17 -90 -19 l-55 -3
55 9 c30 5 66 13 80 19 40 16 49 11 10 -6z m-557 -10 c-7 -2 -19 -2 -25 0 -7
3 -2 5 12 5 14 0 19 -2 13 -5z m364 -39 c-3 -3 -12 -4 -19 -1 -8 3 -5 6 6 6
11 1 17 -2 13 -5z m-37 -8 c0 -2 -8 -10 -17 -17 -16 -13 -17 -12 -4 4 13 16
21 21 21 13z m-600 -31 c0 -8 -4 -15 -10 -15 -5 0 -7 7 -4 15 4 8 8 15 10 15
2 0 4 -7 4 -15z m1520 -90 c-30 -30 -61 -55 -69 -55 -9 0 8 24 39 55 30 30 61
55 69 55 9 0 -8 -24 -39 -55z m412 29 c-43 -19 -152 -33 -177 -24 -13 5 1 8
40 9 33 0 80 7 105 15 58 18 74 18 32 0z m-589 -9 c-3 -9 -8 -14 -10 -11 -3 3
-2 9 2 15 9 16 15 13 8 -4z m-796 -27 c-3 -7 -5 -2 -5 12 0 14 2 19 5 13 2 -7
2 -19 0 -25z m1176 15 c-7 -2 -19 -2 -25 0 -7 3 -2 5 12 5 14 0 19 -2 13 -5z
m-323 -13 c0 -5 -7 -7 -15 -4 -8 4 -15 8 -15 10 0 2 7 4 15 4 8 0 15 -4 15
-10z m-115 -40 c-9 -16 -17 -30 -19 -30 -3 0 1 14 7 30 6 17 15 30 19 30 5 0
2 -13 -7 -30z m-1205 -21 c-7 -11 -14 -18 -17 -15 -3 3 0 12 7 21 18 21 23 19
10 -6z m1630 11 c0 -5 -5 -10 -11 -10 -5 0 -7 5 -4 10 3 6 8 10 11 10 2 0 4
-4 4 -10z m-1485 -20 c-3 -5 -12 -10 -18 -10 -7 0 -6 4 3 10 19 12 23 12 15 0z
m997 -87 c-22 -37 -53 -79 -69 -93 l-28 -25 20 25 c28 34 65 88 65 94 0 12 43
76 48 72 2 -3 -14 -36 -36 -73z m428 59 c0 -5 -12 -19 -26 -33 l-27 -24 17 33
c15 29 36 43 36 24z m62 -54 c-17 -17 -47 9 -30 29 10 12 13 12 27 -1 11 -12
12 -19 3 -28z m-99 -35 c2 -5 -7 -28 -20 -53 -14 -25 -22 -36 -18 -25 4 11 9
35 12 53 5 30 17 41 26 25z m47 -152 c0 -6 -4 -12 -8 -15 -5 -3 -9 1 -9 9 0 8
4 15 9 15 4 0 8 -4 8 -9z m-1328 -36 c-9 -19 -21 -35 -26 -35 -4 0 -2 10 6 23
8 12 18 28 22 35 16 27 15 10 -2 -23z m-88 -10 c-4 -8 -11 -12 -16 -9 -6 4 -5
10 3 15 19 12 19 11 13 -6z m110 -20 c-4 -8 -11 -12 -16 -9 -6 4 -5 10 3 15
19 12 19 11 13 -6z m150 -43 c-8 -18 -18 -32 -20 -32 -3 0 -4 3 -2 8 20 41 32
61 35 59 2 -2 -4 -18 -13 -35z m1083 6 c-3 -8 -6 -5 -6 6 -1 11 2 17 5 13 3
-3 4 -12 1 -19z m-1207 -61 c0 -2 -10 -12 -21 -23 -22 -19 -22 -19 -8 4 12 19
29 30 29 19z m970 -36 c-5 -11 -14 -31 -20 -46 -6 -15 -15 -23 -21 -19 -7 4
-7 9 -1 13 5 3 17 21 26 39 9 17 19 32 22 32 2 0 0 -9 -6 -19z m-892 -21 c3
-8 1 -12 -3 -7 -5 4 -19 -3 -32 -15 l-23 -21 0 25 c0 13 3 28 7 32 12 11 46 2
51 -14z m-218 -20 c0 -5 -5 -10 -11 -10 -5 0 -7 5 -4 10 3 6 8 10 11 10 2 0 4
-4 4 -10z m50 -9 c0 -5 -7 -11 -15 -15 -9 -3 -15 0 -15 9 0 8 7 15 15 15 8 0
15 -4 15 -9z m80 -1 c0 -5 -2 -10 -4 -10 -3 0 -8 5 -11 10 -3 6 -1 10 4 10 6
0 11 -4 11 -10z m1075 -16 c11 4 15 2 13 -6 -6 -16 -58 -18 -58 -3 0 18 13 26
21 14 4 -7 15 -9 24 -5z m-1096 -20 c32 -40 25 -50 -9 -14 -32 35 -35 40 -21
40 5 0 19 -12 30 -26z m-98 -12 c-44 -82 -152 -244 -158 -238 -4 4 157 256
164 256 2 0 -1 -8 -6 -18z m1354 -24 c-20 -64 -35 -101 -40 -96 -7 7 35 138
44 138 5 0 3 -19 -4 -42z m-150 -113 c-14 -26 -25 -40 -25 -30 0 19 40 89 47
82 2 -3 -8 -26 -22 -52z m-867 33 c-16 -10 -88 -11 -88 0 0 4 23 7 50 8 29 0
45 -3 38 -8z m47 2 c3 -5 1 -10 -4 -10 -6 0 -11 5 -11 10 0 6 2 10 4 10 3 0 8
-4 11 -10z m58 3 c-7 -2 -19 -2 -25 0 -7 3 -2 5 12 5 14 0 19 -2 13 -5z m881
-48 c3 -9 0 -15 -9 -15 -8 0 -20 -9 -27 -19 -10 -16 -14 -17 -25 -5 -11 10
-11 18 -3 34 13 23 55 27 64 5z m-94 -35 c0 -5 -4 -10 -10 -10 -5 0 -10 5 -10
10 0 6 5 10 10 10 6 0 10 -4 10 -10z m-117 -67 c-89 -166 -144 -263 -153 -268
-16 -10 -12 -1 28 72 21 37 62 112 92 166 29 53 57 97 61 97 5 0 -8 -30 -28
-67z m-45 16 c-6 -16 -12 -28 -14 -26 -5 5 13 57 20 57 3 0 0 -14 -6 -31z
m-1158 -19 c18 -12 2 -12 -25 0 -13 6 -15 9 -5 9 8 0 22 -4 30 -9z m60 -10 c0
-13 -11 -13 -30 0 -12 8 -11 10 8 10 12 0 22 -4 22 -10z m1047 -16 c-3 -3 -12
-4 -19 -1 -8 3 -5 6 6 6 11 1 17 -2 13 -5z m283 -39 c0 -8 -4 -15 -10 -15 -5
0 -10 7 -10 15 0 8 5 15 10 15 6 0 10 -7 10 -15z m116 -33 c-32 -2 -63 1 -67
5 -4 4 22 6 59 3 l67 -5 -59 -3z m-116 -22 c-18 -11 -22 -7 -14 14 5 13 10 14
18 6 8 -8 7 -13 -4 -20z"/>
<path d="M2170 2940 l-21 -30 40 -2 c23 -1 49 -2 58 -2 30 -2 24 21 -12 43
-20 11 -38 21 -40 21 -2 0 -13 -13 -25 -30z"/>
<path d="M2252 1973 c-29 -58 -54 -140 -50 -165 3 -15 8 -5 16 32 7 30 24 79
37 109 29 62 26 83 -3 24z"/>
<path d="M2190 1615 c-7 -9 -10 -18 -7 -21 3 -3 10 4 17 15 13 25 8 27 -10 6z"/>
</g>
</svg>
