<?xml version="1.0" standalone="no"?>
<!DOCTYPE svg PUBLIC "-//W3C//DTD SVG 20010904//EN"
 "http://www.w3.org/TR/2001/REC-SVG-20010904/DTD/svg10.dtd">
<svg version="1.0" xmlns="http://www.w3.org/2000/svg"
 width="640.000000pt" height="640.000000pt" viewBox="0 0 640.000000 640.000000"
 preserveAspectRatio="xMidYMid meet">

<g transform="translate(0.000000,640.000000) scale(0.100000,-0.100000)"
fill="#000000" stroke="none">
<path d="M3200 6209 c12 -9 11 -10 -7 -6 -46 10 -21 -13 30 -28 28 -8 93 -31
142 -50 88 -33 89 -34 47 -35 -31 0 -49 6 -60 19 -14 15 -116 51 -144 51 -18
0 8 -40 33 -51 36 -14 32 -24 -4 -10 -22 8 -25 7 -29 -13 -5 -25 10 -30 200
-57 46 -6 90 -18 98 -26 20 -20 17 -43 -5 -43 -11 0 -25 -2 -33 -3 -7 -2 -10
-2 -5 0 4 3 7 13 7 23 0 20 0 20 -134 38 l-69 9 24 -20 c44 -35 74 -65 99
-100 15 -21 31 -33 40 -30 12 4 13 3 1 -5 -12 -8 -10 -15 6 -38 11 -16 42 -72
68 -124 37 -73 53 -122 71 -212 13 -65 35 -145 49 -178 14 -32 25 -62 25 -65
0 -3 -10 -5 -23 -5 -19 0 -29 12 -52 60 -25 52 -27 61 -14 77 13 16 12 17 -4
4 -15 -12 -23 -8 -75 41 -31 29 -94 80 -139 112 l-82 59 32 56 c17 31 41 73
54 93 27 44 28 49 8 42 -8 -4 -15 -14 -15 -25 0 -10 -9 -24 -20 -32 -11 -7
-26 -30 -34 -49 -21 -49 -50 -55 -75 -15 -47 77 -83 160 -79 182 5 21 -5 26
-158 75 -199 63 -327 90 -417 89 -58 -1 -73 -6 -108 -31 l-40 -29 30 -28 c35
-33 38 -39 15 -37 -9 0 -32 -25 -55 -64 -24 -39 -46 -64 -54 -62 -10 2 -13 -3
-9 -13 7 -16 -15 -18 -69 -6 l-29 6 21 27 c13 16 17 29 11 33 -5 3 -10 0 -10
-8 0 -20 -29 -43 -73 -57 -20 -6 -35 -15 -32 -20 3 -4 -2 -11 -11 -14 -8 -3
-12 -2 -9 4 3 5 0 7 -7 5 -26 -10 -37 -45 -63 -192 -26 -145 -32 -163 -68
-193 -9 -8 -36 -59 -60 -113 l-42 -98 -87 -33 c-80 -30 -135 -63 -179 -107 -9
-9 -33 -28 -52 -41 l-36 -24 20 -33 20 -33 36 22 c42 25 56 21 16 -5 -32 -20
-57 -48 -79 -88 l-15 -28 28 14 c25 14 31 13 75 -9 26 -13 52 -24 59 -24 6 0
23 -9 38 -19 26 -19 26 -19 38 5 8 18 8 26 -2 34 -10 8 -13 6 -11 -7 0 -9 -7
-19 -16 -21 -23 -4 -23 16 -2 40 16 16 15 18 -2 24 -54 19 -104 44 -104 52 0
9 108 80 168 112 32 16 75 -2 104 -43 l21 -30 -43 -37 c-24 -20 -39 -39 -34
-43 5 -3 50 17 99 44 50 27 82 49 73 49 -23 0 -24 36 -2 44 32 12 63 6 69 -14
3 -11 4 -24 1 -29 -3 -5 10 -12 30 -16 29 -5 41 -16 66 -56 26 -41 34 -47 47
-38 9 6 0 -3 -19 -20 -19 -17 -35 -37 -35 -44 0 -38 -292 21 -327 66 -13 17
-20 19 -29 10 -16 -16 -5 -29 29 -36 16 -3 42 -17 58 -30 23 -19 42 -25 84
-26 100 -3 145 -14 142 -34 -2 -10 2 -24 7 -31 11 -13 -7 -63 -34 -96 -7 -8
-30 -41 -50 -74 -32 -50 -34 -56 -13 -40 13 10 42 44 63 76 22 32 52 70 67 85
l27 26 68 -60 c37 -32 76 -65 86 -72 32 -25 7 21 -32 58 -20 18 -29 28 -20 22
9 -6 20 -7 24 -3 5 4 5 2 1 -5 -4 -7 6 -18 26 -27 48 -23 98 -74 98 -99 0 -12
12 -62 26 -111 l26 -89 -31 -24 c-57 -45 -96 -152 -51 -140 21 5 64 -23 114
-75 23 -23 26 -29 11 -23 -11 4 -38 9 -60 10 -22 1 -50 7 -62 13 -12 7 -32 12
-45 11 -13 0 -18 -3 -11 -5 8 -4 10 -16 7 -33 -4 -16 -1 -32 5 -35 7 -4 11 1
11 12 0 11 7 22 15 26 20 7 110 -26 111 -42 1 -7 2 -21 3 -32 0 -11 5 -20 11
-20 5 0 7 7 4 15 -4 8 -1 15 5 15 6 0 11 -7 11 -15 0 -9 11 -21 25 -27 14 -6
25 -15 25 -20 0 -4 5 -8 10 -8 6 0 9 3 8 8 -2 4 -1 9 2 11 7 6 104 -7 158 -21
36 -9 42 -14 42 -37 0 -14 9 -46 20 -70 11 -24 19 -46 16 -48 -5 -5 -46 61
-46 76 0 6 -7 11 -15 11 -8 0 -15 5 -15 11 0 6 7 9 15 5 18 -6 20 10 3 20 -14
9 -125 33 -152 34 -11 0 16 -18 61 -39 47 -23 82 -46 85 -57 3 -11 9 -27 13
-38 7 -15 5 -17 -13 -11 -12 3 -22 4 -22 2 0 -14 42 -100 61 -127 22 -29 23
-30 92 -23 75 7 89 -9 20 -22 -21 -4 -42 -10 -48 -14 -10 -8 -95 -31 -115 -31
-6 0 -8 5 -5 10 9 14 -19 12 -33 -2 -10 -10 -16 -7 -28 10 -8 12 -33 31 -54
42 -21 10 -51 33 -68 50 -17 16 -39 30 -49 29 -11 0 -13 -3 -5 -6 22 -9 42
-60 46 -123 l4 -63 49 -17 c93 -33 155 -79 189 -141 10 -20 10 -20 29 1 27 30
38 24 20 -10 -9 -17 -19 -28 -24 -26 -12 8 -4 -265 8 -297 10 -27 0 -145 -15
-169 -6 -10 8 -24 63 -61 22 -16 43 -37 46 -48 3 -10 10 -19 16 -19 9 0 9 5 1
20 -9 16 -8 20 5 20 8 0 15 -9 15 -21 0 -12 4 -17 11 -14 6 4 8 14 5 22 -9 22
40 8 77 -23 16 -13 41 -24 55 -24 45 0 167 29 170 40 3 8 8 8 16 1 9 -8 24 -5
52 8 73 35 80 35 97 -1 22 -47 64 -201 78 -286 18 -107 3 -173 -70 -322 -34
-69 -61 -132 -61 -141 0 -8 10 -43 21 -78 15 -43 24 -59 30 -50 6 10 10 4 15
-19 l7 -34 19 31 c23 35 38 41 115 46 37 2 61 9 69 19 6 9 16 16 22 16 16 0
73 -51 67 -60 -3 -5 3 -15 13 -22 10 -7 26 -30 36 -52 14 -30 16 -44 7 -62 -6
-13 -6 -24 -2 -24 5 0 12 -8 14 -17 3 -10 6 0 7 22 2 40 2 40 12 11 14 -38 -5
-106 -30 -106 -9 0 -26 -17 -37 -37 -19 -36 -30 -44 -102 -77 -25 -11 -35 -11
-40 -3 -5 7 -29 22 -55 34 -54 25 -87 74 -113 166 -20 69 -45 121 -45 94 0
-10 5 -28 11 -40 9 -16 9 -22 0 -25 -13 -4 -15 -105 -2 -130 6 -9 17 -50 27
-90 19 -84 78 -184 124 -210 31 -18 39 -32 17 -32 -17 0 -95 -77 -113 -112
-10 -20 -22 -28 -40 -28 -23 0 -25 -2 -14 -15 9 -10 12 -41 11 -86 -2 -65 14
-147 27 -135 9 10 19 95 10 90 -10 -7 -10 -1 2 30 16 42 27 30 22 -24 -9 -92
35 -166 115 -196 l38 -15 -34 6 c-19 3 -50 18 -69 33 -72 56 -86 66 -78 54 4
-7 2 -19 -4 -27 -9 -11 -6 -22 14 -51 40 -59 105 -123 147 -145 50 -25 193
-40 387 -39 169 0 232 15 252 62 9 21 10 21 7 2 -4 -20 3 -23 92 -38 53 -10
101 -21 106 -26 13 -11 161 -30 232 -30 51 0 70 14 38 26 -16 6 -11 24 6 24 6
0 8 -4 5 -8 -7 -12 49 -52 71 -52 13 1 8 10 -21 35 -34 31 -37 35 -18 35 12 0
22 -4 22 -10 0 -20 50 -57 84 -63 43 -7 45 1 9 35 -39 36 -91 61 -119 55 -13
-2 -21 0 -18 4 3 5 17 9 31 9 16 0 27 7 30 19 6 23 33 17 33 -8 0 -25 104
-111 134 -111 31 0 33 13 7 48 -10 15 -25 43 -33 62 -9 19 -40 59 -71 87 -31
29 -58 62 -62 73 -9 29 -38 45 -122 68 l-72 20 -18 -20 c-18 -20 -18 -20 -61
28 -27 32 -41 56 -38 67 3 14 0 17 -12 12 -18 -7 -112 80 -112 104 0 11 6 9
23 -7 13 -12 33 -22 45 -22 11 0 24 -5 27 -10 5 -9 52 -4 64 6 7 7 -32 44 -46
44 -15 0 -17 12 -3 26 6 6 -8 21 -40 43 -47 32 -49 35 -34 52 14 16 14 19 -5
38 -22 22 -27 41 -11 41 6 0 10 28 10 64 l0 64 -27 -7 c-20 -5 -29 -16 -35
-42 -14 -54 -30 -89 -41 -89 -15 0 -134 66 -174 97 -42 33 -40 58 10 132 19
27 43 70 53 95 17 41 37 59 69 61 6 1 21 7 34 14 13 7 36 10 55 7 30 -6 32 -8
28 -42 -3 -24 -1 -34 6 -30 6 3 14 32 17 64 4 31 13 86 21 121 8 35 12 66 9
69 -11 11 -23 -15 -35 -78 -6 -36 -14 -73 -17 -84 -8 -28 -26 -3 -32 46 -8 54
-38 67 -43 18 l-3 -32 -22 29 -21 30 24 29 c19 22 22 24 14 7 -16 -34 -6 -28
55 30 53 52 66 79 45 92 -13 8 -13 65 0 65 13 0 23 -63 15 -99 -3 -16 -15 -43
-27 -58 -11 -15 -1 -8 21 16 30 32 40 49 35 64 -4 14 -3 17 6 12 6 -4 10 -15
7 -25 -3 -12 0 -17 8 -13 9 3 15 -6 17 -28 2 -18 9 -34 16 -37 16 -5 17 183 1
193 -21 14 24 136 56 148 8 4 14 10 13 14 0 4 4 21 10 36 13 32 15 121 3 152
l-8 20 -6 -20 c-3 -11 -9 -53 -13 -93 -6 -62 -11 -78 -34 -100 -28 -27 -49
-107 -51 -193 0 -28 -2 -30 -9 -14 -10 25 -34 47 -48 43 -5 -2 -10 1 -10 5 0
5 -11 21 -24 35 -14 15 -55 98 -93 184 -64 150 -76 170 -89 149 -3 -5 -22 -12
-42 -15 -28 -6 -39 -3 -50 11 -8 10 -12 26 -10 36 3 11 -2 17 -14 17 -12 0
-29 18 -47 52 -56 102 -178 151 -247 97 -21 -17 -26 -18 -26 -5 0 10 -9 16
-25 16 -28 0 -28 0 -15 -34 9 -24 13 -25 54 -20 40 6 47 4 70 -22 14 -16 34
-51 45 -79 19 -49 50 -79 38 -36 -3 13 -1 19 5 15 5 -4 7 -21 4 -39 -5 -23 -2
-36 6 -42 8 -4 21 -21 31 -38 14 -23 9 -20 -23 14 -22 24 -38 46 -36 49 3 2
-13 20 -35 40 -27 25 -36 38 -27 43 9 6 8 12 -5 27 -9 10 -17 24 -17 30 0 7
-4 12 -8 12 -12 0 -11 -34 1 -41 5 -4 8 -12 5 -19 -2 -8 -15 -1 -33 19 -17 17
-33 31 -37 31 -4 0 -10 -21 -13 -48 -13 -94 -27 -152 -36 -147 -9 6 -29 -36
-32 -67 -1 -9 -4 -15 -8 -12 -4 2 -18 -8 -33 -23 -25 -25 -26 -25 -26 -4 0 12
9 40 21 62 13 25 16 40 8 37 -18 -6 -49 -69 -49 -100 0 -16 -5 -28 -11 -28 -5
0 -16 -15 -24 -33 -8 -19 -21 -39 -29 -46 -9 -8 -4 13 14 56 25 58 29 81 30
158 0 101 -12 158 -68 328 l-40 117 31 22 c17 12 27 17 23 10 -4 -7 -2 -12 3
-12 6 0 11 -8 11 -18 0 -16 10 -17 128 -14 129 4 195 19 190 44 -2 10 20 12
101 10 71 -2 106 0 111 8 4 6 6 45 4 86 -3 63 -9 85 -38 137 -18 34 -42 84
-51 110 -29 78 -1 134 108 213 l29 20 -25 30 c-18 21 -24 39 -22 68 1 21 -2
51 -8 67 -9 23 -7 36 12 76 13 26 37 62 53 79 18 20 26 37 22 47 -9 25 -18 21
-59 -24 -59 -65 -86 -159 -65 -228 5 -19 8 -36 6 -38 -2 -2 -34 6 -71 18 -62
21 -73 22 -137 11 -83 -15 -123 -34 -206 -101 l-63 -51 -40 32 c-30 24 -51 33
-78 33 -36 0 -38 1 -28 22 5 12 14 20 19 17 10 -6 -13 49 -25 57 -4 3 -5 14
-1 23 5 13 15 17 40 14 21 -2 34 0 34 7 0 6 6 20 14 31 14 19 15 19 39 -4 l25
-24 41 41 c44 44 52 81 31 136 -9 24 -5 32 40 82 28 31 49 57 47 60 -2 2 -37
-29 -77 -69 -45 -46 -64 -60 -49 -38 13 19 24 40 24 45 0 6 5 10 12 10 6 0 21
10 33 23 l21 22 -48 1 c-26 1 -52 1 -56 0 -4 -1 -15 5 -23 14 -14 13 -14 15 0
15 10 0 16 9 16 23 0 20 4 23 30 19 17 -2 45 3 64 12 37 17 86 21 86 7 0 -5
-14 -21 -32 -36 -25 -21 -39 -26 -65 -22 -20 4 -33 2 -33 -5 0 -7 18 -9 51 -6
38 4 58 12 82 35 20 19 47 33 71 36 41 7 106 58 106 85 0 11 -3 10 -16 -2 -20
-20 -30 -21 -14 -1 19 23 5 29 -24 9 l-26 -17 25 51 c14 28 33 56 43 61 14 8
15 10 2 15 -17 5 -106 14 -231 23 -82 5 -88 4 -98 -16 -16 -29 -4 -44 30 -39
27 4 28 3 13 -13 -9 -10 -33 -29 -54 -44 l-38 -26 -51 27 c-43 22 -56 25 -79
16 -60 -24 -69 -20 -106 38 l-35 55 55 28 c30 15 59 36 66 46 11 19 12 19 38
0 25 -19 60 -18 60 2 0 4 9 17 20 27 18 17 21 32 22 123 0 57 4 114 9 127 7
18 4 28 -15 46 -14 12 -28 34 -31 49 -8 29 -24 34 -43 15 -8 -8 -12 -8 -12 -1
0 6 7 16 15 23 13 11 13 16 -1 44 -23 44 -44 65 -59 60 -7 -3 -15 5 -18 18 -6
23 -72 98 -87 98 -4 0 -33 25 -63 55 -41 40 -68 58 -102 66 l-45 11 0 94 c0
93 0 94 25 94 35 0 45 27 37 101 -7 60 -9 65 -39 79 -31 14 -33 18 -33 71 l0
57 69 56 69 57 89 -63 c134 -95 177 -139 225 -233 35 -69 45 -82 59 -74 13 7
22 0 44 -32 17 -26 32 -39 41 -35 8 3 14 -1 14 -10 0 -18 40 -34 84 -34 55 0
70 -19 63 -76 -4 -27 -10 -61 -13 -77 -6 -25 -2 -29 47 -52 78 -35 171 -57
231 -53 l53 3 11 65 c7 36 12 68 13 71 1 3 12 4 26 1 14 -2 32 1 40 8 22 18
57 102 52 122 -3 9 0 19 7 22 6 3 0 3 -14 0 -14 -4 -22 -3 -18 1 3 3 -1 23 -9
43 l-15 37 29 -26 c24 -22 32 -25 56 -17 32 12 34 19 7 43 -11 10 -20 23 -20
28 0 6 11 0 25 -13 20 -19 27 -21 39 -11 17 14 30 2 102 -91 32 -40 39 -45 55
-35 26 16 31 7 36 -67 4 -39 10 -66 17 -66 8 0 8 -2 0 -8 -10 -6 -17 -30 -27
-94 -2 -10 -6 -21 -10 -24 -4 -4 -7 -17 -7 -28 0 -12 -20 -53 -45 -91 l-45
-70 27 -20 c41 -30 73 -63 73 -75 0 -6 -6 -7 -17 -1 -10 5 -30 14 -45 21 -16
8 -34 23 -42 35 -12 19 -13 26 -1 49 22 42 -9 34 -34 -10 -25 -42 -25 -44 -6
-44 22 0 19 -24 -12 -86 -28 -59 -43 -68 -43 -29 0 14 -4 25 -9 25 -5 0 -32
-35 -62 -77 -69 -102 -135 -190 -173 -232 -31 -34 -31 -35 -4 -18 36 22 41 22
55 -9 11 -24 11 -39 -2 -171 -7 -72 0 -107 21 -99 18 7 18 1 -2 -19 -14 -14
-15 -27 -5 -112 7 -54 14 -99 16 -102 3 -2 14 4 24 14 19 17 23 16 86 -13 76
-36 85 -54 20 -39 -63 14 -109 0 -113 -36 -2 -15 -8 -25 -13 -22 -14 9 -67
-48 -75 -81 -12 -47 15 -106 58 -127 44 -21 61 -15 121 41 l37 36 0 -26 c0
-34 -38 -78 -81 -95 l-34 -13 35 4 35 5 -31 -14 c-53 -24 -57 -37 -23 -74 28
-31 32 -33 91 -29 40 2 62 -1 65 -9 3 -7 -3 -9 -16 -6 -17 4 -21 1 -20 -18 1
-17 3 -19 6 -6 5 20 14 22 31 5 17 -17 15 -46 -4 -50 -14 -3 -14 -5 2 -23 11
-11 16 -16 12 -11 -12 16 -9 28 6 24 19 -4 108 -111 98 -117 -5 -3 15 -44 44
-91 29 -47 56 -92 60 -100 4 -8 13 -19 21 -23 7 -4 13 -15 13 -22 0 -8 4 -15
8 -15 5 0 15 -11 22 -25 7 -14 19 -25 27 -25 7 0 13 -8 13 -17 0 -14 2 -15 9
-4 5 8 11 9 15 3 3 -6 2 -13 -3 -17 -6 -3 -7 -13 -4 -21 5 -13 3 -14 -13 -6
-10 6 -29 20 -41 32 -29 26 -29 19 0 -39 13 -25 38 -76 56 -114 29 -58 56 -89
193 -220 150 -143 192 -179 172 -146 -6 11 -5 12 7 3 16 -13 49 -14 49 -2 0 5
-12 13 -26 19 -15 5 -24 12 -21 15 9 9 74 -34 82 -54 5 -14 9 -11 20 15 7 17
11 41 8 52 -3 11 -2 32 1 46 6 22 9 23 26 13 16 -10 24 -10 41 0 12 8 25 10
28 5 39 -45 70 -95 80 -125 8 -26 19 -38 31 -38 10 0 29 -6 43 -13 24 -13 25
-14 7 -37 -12 -16 -24 -21 -38 -18 -11 3 -23 1 -25 -6 -6 -16 10 -56 23 -56 6
0 -3 -12 -20 -27 -22 -20 -32 -39 -34 -67 -3 -32 -11 -46 -41 -70 -20 -16 -41
-40 -46 -53 -5 -14 -14 -21 -20 -18 -6 5 -9 0 -8 -11 2 -11 0 -25 -5 -32 -14
-22 1 -25 28 -5 14 10 26 27 28 38 2 14 9 19 23 17 17 -2 17 -1 5 8 -13 9 -13
11 0 20 21 13 44 12 58 -2 7 -7 20 -13 29 -13 9 0 18 -6 20 -12 3 -7 -2 -13
-10 -13 -7 0 -21 -8 -30 -18 -14 -16 -15 -21 -3 -37 13 -18 14 -18 27 3 10 16
19 20 38 15 20 -5 23 -3 18 10 -3 9 -2 19 3 22 6 4 10 -1 10 -9 0 -24 15 -19
53 14 19 16 41 30 48 30 24 0 61 52 53 75 -8 24 -8 49 0 133 5 60 5 62 -15 51
-26 -14 -49 -5 -49 19 0 16 10 20 50 25 27 3 61 13 75 23 14 9 25 12 26 8 8
-97 7 -139 -3 -152 -7 -8 -15 -50 -18 -94 -4 -66 -3 -77 10 -73 8 3 4 -3 -9
-13 -55 -41 -92 -84 -94 -109 -2 -34 32 -46 40 -14 3 12 13 21 24 21 10 0 28
14 41 30 12 16 25 30 30 30 4 0 21 12 37 26 24 21 31 38 40 101 6 41 8 80 5
85 -5 8 3 9 24 5 36 -7 67 17 32 26 -12 3 -20 13 -19 24 1 16 2 16 6 0 6 -25
22 -21 35 8 14 31 -4 54 -46 59 -33 3 -42 16 -41 53 0 17 -10 40 -27 57 -15
17 -24 35 -20 40 9 16 10 46 0 52 -4 3 -8 0 -8 -6 0 -6 -5 -8 -10 -5 -6 4 -8
11 -5 16 4 5 -2 9 -12 9 -11 0 -25 6 -32 12 -11 11 -11 9 -2 -10 6 -12 9 -22
5 -22 -3 0 4 -9 17 -20 13 -11 18 -19 10 -18 -8 2 -18 -11 -23 -32 -8 -30 -11
-32 -20 -17 -7 13 -6 23 3 35 11 14 11 15 -1 4 -18 -15 -72 -16 -88 0 -18 18
-14 52 9 82 20 26 25 27 78 21 54 -6 57 -6 58 17 1 33 -28 138 -38 138 -5 0
-9 -13 -9 -29 0 -33 -13 -46 -52 -53 -19 -4 -28 -1 -28 7 0 17 27 27 34 12 2
-7 4 4 4 23 0 19 -2 29 -5 22 -7 -18 -23 -4 -23 21 0 16 3 18 9 9 7 -11 9 -11
14 2 5 12 0 16 -24 16 -18 0 -28 4 -24 10 3 6 21 10 40 10 24 0 35 5 40 19 8
25 -5 53 -21 47 -10 -4 -14 2 -14 19 0 17 -9 29 -29 39 -16 9 -31 22 -35 31
-3 9 -10 13 -16 10 -6 -3 -9 4 -9 17 2 22 -26 98 -35 98 -3 0 -17 -5 -32 -10
-20 -8 -31 -7 -43 3 -9 8 -47 30 -84 48 -64 31 -72 39 -107 103 -36 66 -150
199 -250 294 -28 26 -39 42 -29 42 18 0 148 -132 200 -202 21 -29 30 -36 26
-21 -3 13 1 43 8 67 14 44 13 45 -25 105 -34 52 -47 63 -112 94 -40 19 -83 38
-95 41 -13 4 -23 11 -23 16 0 5 8 7 18 4 9 -3 -13 11 -50 31 -44 23 -68 41
-68 53 0 9 -5 24 -10 32 -7 10 -8 3 -5 -25 3 -32 3 -34 -3 -10 -5 21 -14 31
-30 33 -20 3 -22 0 -16 -22 4 -15 2 -26 -4 -26 -6 0 -13 13 -17 30 -4 16 -11
32 -16 35 -5 4 -9 15 -9 26 0 27 -35 59 -64 59 -19 0 -27 8 -36 34 -12 37 -7
89 10 94 5 2 10 11 10 19 0 14 -2 14 -18 0 -25 -23 -35 -21 -22 3 13 24 8 52
-16 103 l-18 38 -17 -23 c-24 -32 -30 -21 -20 40 9 59 5 67 -11 21 -14 -40
-19 -30 -47 91 -12 52 -26 110 -31 129 l-9 34 38 -37 c47 -46 60 -30 29 34
-22 44 -16 59 24 60 12 0 15 5 11 16 -4 11 -9 12 -16 5 -14 -14 -87 -14 -87
-1 0 6 18 10 40 10 40 0 48 7 31 26 -12 11 -18 91 -8 100 4 4 7 17 7 29 0 12
6 29 13 39 12 16 14 16 34 -3 13 -12 24 -39 29 -66 3 -25 10 -48 15 -51 14 -8
10 -24 -6 -24 -14 0 -16 -5 -14 -27 0 -5 9 -11 20 -15 12 -5 18 -4 14 2 -6 10
12 14 54 10 18 -1 22 2 18 14 -4 11 0 19 11 23 26 9 72 55 66 65 -5 8 25 4 63
-7 6 -2 15 -25 18 -52 13 -97 22 -102 48 -25 15 43 12 126 -4 116 -4 -2 -20
14 -35 36 l-27 41 -24 -30 c-21 -26 -31 -31 -68 -31 -43 0 -44 1 -57 43 -16
57 -16 88 2 110 8 10 15 29 16 42 0 13 8 39 17 58 17 36 14 72 -6 60 -6 -3 -7
-1 -3 5 8 14 36 16 36 3 0 -5 10 -11 22 -14 20 -6 20 -7 -10 -35 -28 -26 -32
-37 -32 -80 0 -28 3 -57 6 -66 9 -24 26 -19 19 5 -5 13 -3 19 3 15 13 -8 36
20 27 34 -3 5 -1 10 5 10 18 0 1 -82 -20 -100 -10 -8 -23 -25 -29 -37 -10 -20
-9 -23 14 -29 15 -4 32 -1 40 6 18 15 20 34 3 24 -7 -4 -8 -3 -4 5 4 6 11 9
16 6 9 -6 36 48 50 101 10 39 10 39 5 4 -2 -19 -7 -50 -11 -67 -6 -31 -5 -33
19 -33 22 0 27 6 33 35 15 84 -15 290 -63 428 -23 68 -33 83 -65 103 -21 14
-38 30 -38 37 0 6 -5 4 -11 -5 -18 -32 -43 -20 -77 36 -33 56 -39 76 -22 76 6
0 10 5 10 10 0 6 -7 10 -15 10 -9 0 -34 9 -56 20 -28 15 -44 18 -57 11 -12 -6
-28 -5 -51 5 -46 19 -46 19 -8 -28 19 -24 40 -53 46 -66 12 -23 7 -62 -8 -62
-7 0 -65 65 -109 122 -11 14 -8 27 17 82 16 36 26 66 20 66 -5 0 -9 5 -9 10 0
6 7 10 15 10 21 0 34 30 24 57 -11 28 7 70 33 78 10 4 18 13 18 21 0 11 4 12
19 5 18 -10 31 -6 31 10 0 17 -137 61 -188 60 -29 0 -71 8 -95 18 -23 10 -47
16 -53 14 -6 -2 -16 8 -22 22 -11 23 -27 33 -104 64 -16 6 -28 15 -28 21 0 13
17 13 25 0 3 -5 17 -10 30 -10 18 0 22 4 18 20 -3 11 -9 17 -14 14 -5 -3 -9
-1 -9 4 0 14 -36 52 -43 46 -3 -3 -5 8 -5 25 1 17 4 31 7 31 17 0 91 -59 82
-64 -6 -4 -11 -2 -11 3 0 6 -7 11 -16 11 -14 0 -14 -3 -4 -15 7 -8 24 -14 39
-13 46 3 65 -10 116 -77 27 -36 60 -72 73 -81 13 -9 -6 19 -42 62 -70 82 -72
85 -56 114 11 20 4 50 -11 50 -5 0 -9 -6 -9 -14 0 -7 -7 -19 -15 -26 -12 -10
-23 -7 -62 19 l-48 31 56 -6 c55 -6 56 -6 61 20 8 41 -13 70 -61 85 l-44 14
39 23 c40 24 70 32 59 15 -3 -5 -1 -12 4 -15 4 -3 11 -24 15 -46 3 -22 11 -40
16 -40 13 0 13 4 -5 69 -8 30 -12 58 -9 63 9 14 -10 8 -51 -17 -47 -29 -92
-32 -177 -9 -33 8 -67 13 -74 10 -16 -6 -19 15 -3 31 7 7 5 15 -6 27 -26 26
-45 20 -45 -14 0 -16 5 -30 10 -30 6 0 10 -4 10 -10 0 -5 -37 4 -82 21 -171
62 -278 98 -273 90 2 -5 18 -14 35 -21 22 -9 30 -19 30 -37 0 -21 -3 -23 -22
-17 -13 4 -43 7 -66 6 -29 -1 -74 10 -132 32 -150 58 -317 98 -270 65z m693
-145 c7 -8 -13 -54 -25 -54 -4 0 -8 5 -8 11 0 5 -4 7 -10 4 -11 -7 -14 28 -3
38 8 9 38 9 46 1z m56 -23 c18 -11 5 -31 -20 -31 -18 0 -26 20 -12 33 8 9 15
9 32 -2z m28 -81 c64 0 114 -2 111 -5 -3 -4 -55 -8 -114 -11 -95 -5 -171 -16
-363 -55 -23 -5 -61 -22 -84 -39 -22 -16 -45 -26 -51 -23 -6 4 4 13 22 20 44
18 40 31 -10 36 -43 3 -43 4 7 5 28 1 93 13 145 26 52 14 116 28 143 31 26 4
47 12 47 17 0 6 7 7 16 4 9 -3 68 -6 131 -6z m273 -5 c10 -12 9 -16 -5 -21
-19 -8 -65 11 -65 26 0 16 56 12 70 -5z m-162 -71 c36 -25 27 -37 -23 -32 -47
6 -79 24 -69 39 9 15 68 10 92 -7z m-1598 -98 c12 -33 -5 -53 -97 -113 -63
-40 -88 -52 -97 -43 -8 8 -5 12 12 16 12 4 22 11 22 16 0 5 6 8 13 6 17 -3 59
21 52 31 -6 11 22 34 33 27 18 -11 45 32 40 63 -5 33 9 31 22 -3z m1594 28
c23 -9 20 -44 -3 -44 -33 0 -71 19 -71 35 0 16 43 21 74 9z m-1252 -14 c23 -7
50 -26 71 -51 21 -24 37 -35 39 -28 3 9 7 7 11 -5 4 -11 3 -15 -4 -10 -8 4 -9
-4 -4 -27 14 -72 14 -72 55 -12 56 83 95 127 106 120 10 -6 134 -182 134 -190
0 -2 -29 -27 -65 -56 l-65 -53 -72 46 c-39 25 -77 46 -83 46 -6 0 -19 24 -28
54 -46 145 -133 185 -285 132 -46 -17 -58 -12 -14 5 90 37 147 44 204 29z
m-402 -25 c0 -27 -12 -32 -29 -12 -8 10 -7 17 1 25 19 19 28 14 28 -13z m1100
-28 c0 -5 4 -6 9 -2 5 3 22 -6 38 -20 15 -13 23 -25 17 -25 -6 0 -17 7 -24 15
-8 9 -21 13 -32 9 -10 -3 -17 -2 -16 3 1 4 -6 24 -16 43 l-17 35 20 -25 c11
-14 21 -29 21 -33z m30 32 c0 -14 -17 -10 -23 5 -4 10 -1 13 9 9 7 -3 14 -9
14 -14z m385 -10 c11 -17 0 -20 -21 -4 -17 13 -17 14 -2 15 9 0 20 -5 23 -11z
m-70 -9 c-3 -5 -10 -10 -16 -10 -5 0 -9 5 -9 10 0 6 7 10 16 10 8 0 12 -4 9
-10z m125 -10 c0 -5 -4 -10 -10 -10 -5 0 -10 5 -10 10 0 6 5 10 10 10 6 0 10
-4 10 -10z m-1000 -31 c15 -28 5 -23 -15 7 -9 15 -12 23 -6 20 6 -4 16 -16 21
-27z m685 -37 c-6 -7 -35 18 -35 31 0 5 9 2 20 -8 11 -10 18 -20 15 -23z m251
27 c4 -8 -5 -9 -32 -5 -46 7 -63 -4 -92 -59 -12 -22 -21 -34 -22 -27 0 22 29
70 52 86 26 18 84 21 94 5z m-1317 -25 c25 -23 8 -22 -39 3 -45 24 -45 24 -10
17 19 -3 41 -12 49 -20z m1448 10 c-3 -3 -12 -4 -19 -1 -8 3 -5 6 6 6 11 1 17
-2 13 -5z m-169 -16 c17 -17 15 -33 -3 -18 -17 14 -50 6 -40 -10 3 -5 1 -10
-4 -10 -6 0 -11 -11 -11 -25 0 -25 -14 -33 -25 -15 -11 18 37 90 60 90 6 0 16
-5 23 -12z m116 -3 c-22 -17 -34 -19 -34 -6 0 5 8 12 18 14 32 9 36 7 16 -8z
m-1173 -100 c33 -71 21 -128 -23 -108 -23 12 -23 12 5 12 27 1 28 3 22 34 -16
71 -21 77 -56 67 -43 -13 -51 -3 -11 11 38 13 38 15 10 48 l-23 26 29 -25 c16
-14 37 -43 47 -65z m-173 12 c2 -20 -1 -37 -5 -37 -18 0 -33 25 -33 53 0 22 4
28 18 25 12 -2 18 -14 20 -41z m32 -4 c0 -55 -5 -54 -14 5 -4 26 -2 42 4 42 5
0 10 -21 10 -47z m1014 -24 c-3 -5 -10 -7 -15 -3 -5 3 -7 10 -3 15 3 5 10 7
15 3 5 -3 7 -10 3 -15z m716 -14 c0 -47 -49 -63 -71 -23 -10 18 -8 24 11 40
17 13 26 15 41 8 10 -6 19 -17 19 -25z m-1398 -24 l75 -49 5 -93 c4 -61 10
-95 18 -97 9 -3 9 -6 1 -11 -6 -4 -14 -65 -18 -146 l-8 -139 -63 61 c-37 37
-60 67 -57 75 5 12 -10 119 -46 318 -9 56 -4 130 11 130 4 0 41 -22 82 -49z
m729 26 c-13 -13 -26 -3 -16 12 3 6 11 8 17 5 6 -4 6 -10 -1 -17z m481 -9
c-24 -5 -51 -7 -60 -3 -29 11 3 21 55 16 l48 -4 -43 -9z m-423 -85 c20 -39 65
-85 161 -165 55 -46 133 -162 160 -240 16 -43 4 -100 -22 -104 -15 -2 -15 1
-2 32 18 44 12 69 -44 174 -43 80 -102 150 -127 150 -19 0 -124 114 -140 153
-8 20 -13 37 -10 37 2 0 13 -17 24 -37z m-1424 -3 c-3 -5 -10 -10 -16 -10 -5
0 -9 5 -9 10 0 6 7 10 16 10 8 0 12 -4 9 -10z m1819 4 c18 -7 21 -30 5 -39
-11 -7 -49 22 -49 37 0 9 22 11 44 2z m296 -20 c0 -8 -4 -14 -10 -14 -5 0 -10
9 -10 21 0 11 5 17 10 14 6 -3 10 -13 10 -21z m-2165 6 c-3 -5 -11 -10 -16
-10 -6 0 -7 5 -4 10 3 6 11 10 16 10 6 0 7 -4 4 -10z m1960 -29 l20 -24 -22
14 c-13 8 -23 20 -23 28 0 8 1 12 3 10 1 -2 11 -15 22 -28z m-670 -21 c3 -5 2
-10 -4 -10 -5 0 -13 5 -16 10 -3 6 -2 10 4 10 5 0 13 -4 16 -10z m601 -20 c32
0 24 -25 -9 -27 -43 -3 -44 -10 -9 -46 l31 -32 -21 -28 c-17 -23 -18 -30 -7
-44 13 -15 12 -15 -9 -4 -12 7 -20 16 -17 21 3 6 -2 7 -12 4 -17 -5 -17 -5 -1
8 9 7 25 19 36 27 21 14 20 15 -5 28 -14 7 -30 13 -37 13 -13 0 -41 58 -32 67
3 4 6 1 6 -5 0 -7 7 -12 16 -12 12 0 15 6 11 21 -5 18 -2 20 16 15 12 -3 31
-6 43 -6z m-1815 -29 c58 -37 133 -116 125 -130 -10 -16 -26 -14 -26 4 0 8 -9
19 -20 25 -11 6 -20 17 -20 25 0 8 -3 15 -7 15 -5 0 -25 16 -46 35 -20 19 -45
39 -55 44 -9 6 -12 11 -6 11 5 0 30 -13 55 -29z m1708 -88 c17 -60 34 -117 37
-128 5 -19 4 -19 -8 -2 -7 10 -21 28 -30 39 -9 11 -20 33 -23 49 -4 16 -10 29
-14 29 -4 0 -23 14 -41 30 -18 17 -37 30 -42 30 -4 0 -8 5 -8 10 0 7 7 7 21 0
53 -29 84 -19 60 20 -10 14 -6 30 8 30 4 0 22 -48 40 -107z m321 42 c10 -12
10 -15 -4 -15 -9 0 -16 7 -16 15 0 8 2 15 4 15 2 0 9 -7 16 -15z m-2379 -45
l24 -20 -35 17 c-44 20 -47 23 -28 23 9 0 26 -9 39 -20z m536 14 c-3 -3 -12
-4 -19 -1 -8 3 -5 6 6 6 11 1 17 -2 13 -5z m-555 -59 c9 -19 8 -29 -6 -50 -9
-14 -21 -25 -26 -25 -6 0 -10 -4 -10 -10 0 -12 40 -13 56 -2 6 4 16 16 22 27
6 11 12 14 12 8 0 -22 -39 -53 -68 -53 -36 0 -72 26 -72 51 0 13 4 18 12 13 6
-4 8 -3 4 4 -3 6 -2 22 4 36 13 35 56 36 72 1z m516 -58 c3 -59 -13 -97 -40
-97 -24 0 -23 12 2 35 15 14 20 29 18 57 -1 21 -7 38 -12 39 -6 0 -2 4 9 9 11
5 20 9 20 9 0 1 1 -23 3 -52z m2070 -15 c21 -45 25 -59 12 -42 -18 21 -60 97
-60 107 0 2 3 3 8 2 4 0 22 -30 40 -67z m-579 -34 c38 -69 39 -97 5 -138 -36
-42 -40 -33 -9 22 l25 45 -30 58 c-17 32 -30 63 -30 68 0 15 5 8 39 -55z
m-1047 -75 c3 -9 71 -64 162 -133 32 -24 60 -50 63 -56 2 -7 -3 -26 -11 -43
-9 -16 -16 -42 -16 -56 0 -15 -4 -24 -10 -20 -15 9 -12 -8 7 -34 16 -23 16
-24 -5 -19 -30 8 -206 115 -227 138 -9 10 -20 40 -23 66 -5 44 -4 46 15 36 11
-6 32 -13 48 -15 37 -5 59 -60 36 -95 -10 -17 -11 -26 -2 -35 8 -8 11 -8 11 1
0 7 7 12 16 12 10 0 14 -6 11 -14 -3 -8 1 -20 9 -26 11 -10 14 -9 14 7 0 10
-6 28 -14 38 -12 16 -12 22 1 42 l16 24 37 -39 37 -38 17 30 c12 20 14 32 7
34 -6 2 -32 15 -57 28 -56 30 -64 30 -64 2 0 -19 -2 -20 -10 -8 -5 8 -10 29
-10 46 0 26 -6 34 -41 49 -47 22 -66 49 -48 71 13 15 25 18 31 7z m-1222 -58
c-7 -9 -15 -13 -19 -10 -3 3 1 10 9 15 21 14 24 12 10 -5z m-31 -19 c-10 -9
-89 -46 -89 -41 0 6 72 44 84 45 5 0 7 -2 5 -4z m1031 -4 c0 -13 -101 -122
-113 -122 -6 0 -2 7 9 15 12 8 39 37 60 65 39 51 44 56 44 42z m418 -3 c-2 -6
-8 -10 -13 -10 -5 0 -11 4 -13 10 -2 6 4 11 13 11 9 0 15 -5 13 -11z m1530
-20 c11 -17 11 -24 1 -33 -9 -8 -10 -8 -5 2 4 7 1 12 -8 12 -9 0 -16 9 -16 20
0 26 12 25 28 -1z m-14 -50 c7 -17 15 -29 17 -28 2 2 13 -2 24 -8 18 -11 17
-12 -13 -11 -34 1 -57 20 -57 47 0 9 -12 18 -30 22 -29 6 -29 7 8 8 33 1 40
-3 51 -30z m-2229 -9 c3 -5 1 -10 -4 -10 -6 0 -11 5 -11 10 0 6 2 10 4 10 3 0
8 -4 11 -10z m-120 -10 c4 -6 -6 -10 -22 -9 -25 0 -26 1 -8 9 11 5 21 9 22 9
1 1 5 -3 8 -9z m2319 -35 c-4 -8 -11 -12 -16 -9 -6 4 -5 10 3 15 19 12 19 11
13 -6z m-2993 -17 l46 -11 -20 -20 -20 -20 -55 27 c-42 21 -52 30 -41 37 8 5
21 6 29 3 8 -3 36 -10 61 -16z m1587 -44 c-5 -27 -48 -32 -48 -5 0 22 30 44
43 31 5 -4 7 -16 5 -26z m1579 0 c-3 -3 -12 -4 -19 -1 -8 3 -5 6 6 6 11 1 17
-2 13 -5z m-2624 -39 c-3 -9 -8 -14 -10 -11 -3 3 -2 9 2 15 9 16 15 13 8 -4z
m537 -11 c-6 -14 -8 -29 -6 -33 3 -4 -1 -8 -9 -8 -19 0 -19 12 1 42 21 32 26
32 14 -1z m2007 4 c-3 -8 -6 -5 -6 6 -1 11 2 17 5 13 3 -3 4 -12 1 -19z m-87
-9 c0 -11 -4 -18 -10 -14 -5 3 -7 12 -3 20 7 21 13 19 13 -6z m-2490 4 c0 -14
-19 -38 -25 -32 -8 8 5 39 16 39 5 0 9 -3 9 -7z m2668 -31 c2 -7 -6 -12 -17
-12 -12 0 -21 -5 -21 -12 0 -6 -3 -9 -6 -6 -3 4 0 16 6 28 12 22 31 23 38 2z
m-2401 -28 c3 -8 17 -14 32 -14 20 0 23 -2 11 -10 -25 -16 -112 -11 -157 10
-24 10 -43 23 -43 27 0 4 34 7 76 5 53 -3 77 -8 81 -18z m363 -1 c16 -9 37
-31 46 -49 18 -33 18 -34 -6 -59 -31 -33 -73 -33 -104 0 -13 14 -26 37 -28 50
-7 35 -1 31 16 -10 20 -47 56 -64 91 -41 14 9 25 22 25 29 0 21 -30 57 -64 78
-17 10 -25 19 -18 19 8 0 27 -8 42 -17z m1845 7 c-3 -5 -11 -10 -16 -10 -6 0
-7 5 -4 10 3 6 11 10 16 10 6 0 7 -4 4 -10z m-2085 -112 c0 -51 -5 -47 -13 10
-3 24 -1 40 4 36 5 -3 9 -24 9 -46z m133 -58 c14 -36 29 -90 33 -120 9 -72 38
-154 62 -181 22 -23 35 -59 21 -59 -16 0 -58 74 -75 130 -12 40 -27 64 -55 88
-22 19 -44 43 -50 55 -6 12 5 3 26 -20 20 -24 41 -43 46 -43 14 0 0 75 -27
149 -41 110 -24 112 19 1z m1777 70 c0 -5 -5 -10 -11 -10 -5 0 -7 5 -4 10 3 6
8 10 11 10 2 0 4 -4 4 -10z m-2050 -24 c0 -3 -4 -8 -10 -11 -5 -3 -10 -1 -10
4 0 6 5 11 10 11 6 0 10 -2 10 -4z m2030 -15 c0 -6 -4 -13 -10 -16 -5 -3 -10
1 -10 9 0 9 5 16 10 16 6 0 10 -4 10 -9z m-28 -53 c-7 -7 -12 -8 -12 -2 0 6 3
14 7 17 3 4 9 5 12 2 2 -3 -1 -11 -7 -17z m-1412 -61 c0 -10 4 -16 9 -13 20
13 89 -47 114 -98 44 -91 44 -91 -12 -115 -58 -25 -57 -25 -58 -8 -2 26 -51
149 -67 166 -9 10 -16 25 -16 34 0 19 -16 23 -22 5 -3 -7 -10 -8 -17 -4 -15 9
-7 49 16 85 l15 23 19 -28 c10 -16 19 -37 19 -47z m-385 -137 c15 -36 45 -98
67 -137 22 -40 35 -73 29 -73 -36 0 -163 310 -160 392 0 13 8 -8 18 -47 10
-38 30 -99 46 -135z m286 167 c-10 -9 -11 -8 -5 6 3 10 9 15 12 12 3 -3 0 -11
-7 -18z m-27 -38 c-10 -11 -28 -26 -39 -31 -14 -8 -12 -2 9 21 33 34 61 44 30
10z m109 -178 c37 -73 67 -135 67 -137 0 -1 -9 -2 -19 -1 -11 0 -18 4 -15 8 2
4 -5 23 -16 41 -30 50 -43 81 -41 96 4 24 -37 -6 -55 -39 -8 -17 -18 -29 -20
-26 -7 6 27 87 36 87 13 0 6 49 -8 55 -7 3 -27 -2 -44 -11 -33 -17 -30 -1 5
25 10 7 16 20 13 27 -4 10 0 14 12 12 11 -2 41 -51 85 -137z m7 69 c18 -43 7
-47 -12 -5 -8 19 -12 35 -8 35 4 0 13 -14 20 -30z m1313 -108 c38 -24 66 -46
63 -49 -3 -4 -32 12 -63 34 -32 22 -63 43 -70 46 -8 5 -11 -8 -11 -43 -1 -48
1 -51 36 -70 40 -23 37 -23 -20 -1 l-37 15 2 71 c2 63 4 70 17 56 8 -8 46 -34
83 -59z m193 -132 c24 -100 44 -194 43 -209 -1 -29 -98 341 -98 378 -2 48 11
10 55 -169z m-1911 129 c20 -12 34 -23 32 -26 -5 -4 -77 36 -77 43 0 7 9 4 45
-17z m-24 -45 c23 -25 23 -26 2 -13 -13 7 -25 19 -27 26 -8 19 -2 16 25 -13z
m527 -26 c10 -23 9 -28 -3 -28 -8 0 -15 6 -15 13 0 6 -3 23 -6 37 -8 31 7 17
24 -22z m1321 -46 c17 2 28 1 25 -4 -3 -4 -23 -8 -45 -8 -29 0 -39 4 -39 16 0
13 3 14 15 4 8 -7 28 -10 44 -8z m-1630 5 c-2 -1 -15 -11 -29 -22 l-25 -20 19
23 c11 12 24 22 29 22 6 0 8 -1 6 -3z m471 -15 c0 -10 11 -45 24 -78 22 -55
27 -60 72 -76 49 -18 131 -20 167 -4 12 6 17 4 17 -7 0 -44 -212 -28 -251 19
-24 29 -68 153 -55 158 21 8 26 6 26 -12z m-420 -63 c0 -47 -3 -59 -16 -59
-11 0 -14 6 -8 22 6 21 5 21 -10 9 -16 -13 -16 -12 -5 13 9 19 9 30 2 37 -17
17 -33 1 -33 -32 0 -18 -4 -28 -10 -24 -16 10 -12 41 9 66 16 20 21 21 34 10
9 -7 18 -22 21 -34 2 -12 4 -3 3 20 -1 23 1 39 5 37 5 -3 8 -32 8 -65z m346
26 c7 -19 14 -49 14 -66 0 -36 -20 -99 -31 -99 -15 0 -18 18 -10 76 6 44 5 66
-5 86 -18 34 -17 38 2 38 8 0 22 -16 30 -35z m1038 -35 l7 -25 -15 25 c-17 28
-21 50 -7 35 5 -6 12 -21 15 -35z m-1465 -71 c23 -7 41 -18 41 -26 0 -16 0
-16 -36 1 -16 8 -63 19 -104 26 -41 6 -77 14 -80 17 -8 10 135 -5 179 -18z
m181 -57 c0 -15 -2 -15 -10 -2 -13 20 -13 33 0 25 6 -3 10 -14 10 -23z m1387
-7 c12 -27 5 -32 -17 -12 -7 6 -4 -5 8 -25 24 -44 13 -51 -17 -12 -24 30 -26
45 -9 62 17 17 21 15 35 -13z m-998 -35 c-17 -27 -36 -53 -42 -57 -7 -4 -5 4
4 17 9 14 24 40 33 58 9 17 21 32 26 32 5 0 -4 -22 -21 -50z m-39 10 c0 -9 -5
-21 -11 -27 -17 -17 -45 12 -30 31 15 18 41 16 41 -4z m292 -22 c-19 -34 -61
-78 -72 -78 -5 0 -6 9 -3 20 3 11 9 17 14 14 5 -3 10 1 10 8 3 27 4 34 16 55
9 14 19 20 33 16 19 -5 19 -6 2 -35z m-477 2 c-21 -24 -51 -26 -59 -5 -4 11 2
15 24 15 16 0 32 5 35 11 4 6 10 8 13 5 3 -3 -3 -15 -13 -26z m1433 8 c7 -7
12 -9 12 -5 0 4 14 1 30 -8 17 -9 30 -17 30 -19 0 -2 -16 -3 -36 -2 -26 1 -41
8 -52 24 -15 23 -4 30 16 10z m-1549 -79 c23 -34 41 -66 41 -71 0 -5 -20 20
-45 56 -25 37 -45 68 -45 71 0 13 12 0 49 -56z m36 21 c-3 -5 -11 -10 -16 -10
-6 0 -7 5 -4 10 3 6 11 10 16 10 6 0 7 -4 4 -10z m30 -40 c8 -16 15 -33 15
-37 -1 -13 -40 41 -40 55 0 20 9 14 25 -18z m524 -23 c6 -8 13 -27 17 -43 5
-29 5 -29 -45 -31 -57 -2 -63 6 -26 35 14 11 25 27 25 36 0 20 14 21 29 3z
m841 -75 c0 -13 -3 -12 -20 3 -11 10 -20 28 -20 39 1 20 1 20 20 -3 11 -13 20
-30 20 -39z m128 51 c0 -5 2 -15 5 -23 13 -28 33 -170 25 -170 -4 0 -10 10
-13 23 -40 174 -40 177 -25 177 6 0 9 -3 8 -7z m-1217 -30 c-14 -24 -55 -72
-45 -53 12 24 45 70 50 70 3 0 0 -8 -5 -17z m79 -13 c0 -26 -30 -80 -44 -80
-23 0 -20 40 6 67 23 25 38 30 38 13z m-504 -29 c-8 -13 -36 -15 -36 -3 0 4 5
13 12 20 14 14 34 0 24 -17z m339 -12 c-8 -12 -35 -12 -35 0 0 11 22 20 33 14
4 -2 5 -9 2 -14z m-94 1 c10 -6 19 -17 19 -25 0 -8 6 -15 13 -15 26 0 50 -38
45 -70 -4 -26 -1 -31 21 -37 34 -8 51 -22 51 -41 0 -13 -3 -12 -20 3 -16 15
-22 15 -35 5 -8 -7 -15 -19 -15 -26 0 -8 -4 -14 -10 -14 -16 0 -12 21 8 43 16
19 16 20 -5 8 -47 -24 -113 -5 -113 34 0 8 -8 30 -17 49 -15 33 -15 37 0 54 9
10 17 24 17 30 0 15 15 15 41 2z m1474 -10 c10 -11 14 -20 8 -20 -5 0 -18 9
-28 20 -10 11 -14 20 -8 20 5 0 18 -9 28 -20z m-1355 -30 c0 -5 -7 -10 -15
-10 -8 0 -15 5 -15 10 0 6 7 10 15 10 8 0 15 -4 15 -10z m50 6 c0 -11 -19 -15
-25 -6 -3 5 1 10 9 10 9 0 16 -2 16 -4z m1055 -51 c-7 -5 -15 -17 -18 -25 -3
-9 -6 -6 -6 8 -1 13 4 33 11 45 11 21 11 21 18 2 4 -12 2 -24 -5 -30z m-1396
6 c10 -6 4 -11 -20 -19 -77 -23 -89 -24 -89 -3 0 16 8 21 43 24 23 2 44 4 47
5 3 1 11 -2 19 -7z m-224 -41 c-3 -5 -13 -10 -21 -10 -8 0 -14 5 -14 10 0 6 9
10 21 10 11 0 17 -4 14 -10z m139 -19 c6 -8 -39 -21 -75 -21 -24 0 -25 17 -1
23 31 8 71 7 76 -2z m906 -21 c0 -5 -8 -10 -19 -10 -10 0 -34 -3 -52 -6 l-34
-5 25 15 c28 17 80 21 80 6z m1140 -22 c0 -4 -13 -8 -30 -8 -28 0 -40 17 -24
33 8 7 54 -13 54 -25z m-1532 -85 c5 -29 6 -50 2 -48 -13 8 -40 97 -34 107 11
17 22 -5 32 -59z m-108 37 c0 -5 -10 -10 -22 -10 -19 0 -20 2 -8 10 19 13 30
13 30 0z m200 6 c0 -3 -4 -8 -10 -11 -5 -3 -10 -1 -10 4 0 6 5 11 10 11 6 0
10 -2 10 -4z m200 -21 c-46 -18 -64 -17 -25 0 17 8 37 14 45 14 8 0 -1 -7 -20
-14z m-466 -11 c4 -10 1 -14 -6 -12 -15 5 -23 28 -10 28 5 0 13 -7 16 -16z
m514 -26 c-3 -7 -28 -16 -56 -19 -29 -4 -63 -14 -77 -23 -33 -22 -32 -6 1 18
45 32 140 50 132 24z m-412 -106 c20 -29 34 -58 32 -64 -2 -6 -13 2 -24 19
-10 17 -39 60 -63 94 -40 59 -41 61 -12 34 18 -16 48 -54 67 -83z m14 83 c7
-14 11 -28 7 -31 -3 -3 -13 8 -22 25 -8 17 -12 31 -7 31 5 0 15 -11 22 -25z
m265 -50 c17 1 22 0 12 -2 -18 -4 -18 -5 0 -18 17 -14 17 -14 -5 -15 -19 0
-22 -4 -17 -27 5 -24 4 -23 -10 7 -9 19 -21 46 -26 60 -8 21 -7 22 4 9 7 -10
24 -15 42 -14z m940 -51 l60 -56 -77 62 c-43 35 -78 64 -78 67 0 9 39 -21 95
-73z m-686 52 c9 -10 8 -16 -3 -25 -12 -10 -17 -8 -25 7 -16 30 6 44 28 18z
m-349 -52 c0 -34 -4 -53 -10 -49 -11 7 -13 48 -4 83 10 36 14 26 14 -34z m908
31 c-3 -3 -9 2 -12 12 -6 14 -5 15 5 6 7 -7 10 -15 7 -18z m-964 -11 c19 -18
20 -34 4 -69 -15 -34 -29 -32 -15 4 11 29 5 61 -12 61 -6 0 -19 -10 -31 -22
-19 -21 -20 -21 -20 -2 0 41 44 58 74 28z m1045 -118 c35 -38 56 -66 48 -66
-2 0 -30 30 -63 68 -60 69 -48 68 15 -2z m-1099 -27 c0 -64 -3 -79 -12 -71
-15 12 -12 152 3 152 5 0 9 -37 9 -81z m207 59 c-3 -8 -6 -5 -6 6 -1 11 2 17
5 13 3 -3 4 -12 1 -19z m1523 -39 c0 -18 -10 -8 -25 24 l-16 32 21 -24 c11
-13 20 -27 20 -32z m-2303 -16 c-3 -10 -5 -4 -5 12 0 17 2 24 5 18 2 -7 2 -21
0 -30z m660 -72 c-3 -71 -10 -119 -21 -139 -22 -43 -38 -50 -24 -10 9 25 8 33
-1 36 -8 3 -5 9 9 19 20 14 21 21 14 94 -7 81 -3 109 17 109 7 0 9 -33 6 -109z
m130 -3 c-2 -13 -4 -5 -4 17 -1 22 1 32 4 23 2 -10 2 -28 0 -40z m297 36 c18
-7 22 -49 5 -60 -6 -3 -15 0 -20 7 -7 11 -9 9 -9 -7 0 -12 -7 -27 -15 -34 -13
-11 -14 -8 -6 16 5 16 12 41 15 57 7 30 7 30 30 21z m126 -44 c0 -20 -5 -30
-15 -30 -16 0 -19 17 -9 44 10 26 24 18 24 -14z m-83 -12 c-3 -7 -5 -2 -5 12
0 14 2 19 5 13 2 -7 2 -19 0 -25z m-566 -45 c-8 -15 -10 -15 -11 -2 0 17 10
32 18 25 2 -3 -1 -13 -7 -23z m-53 -45 c-4 -27 -28 -36 -28 -10 0 20 8 32 22
32 5 0 8 -10 6 -22z m35 -14 c-19 -20 -36 -34 -40 -31 -9 9 40 66 58 66 12 1
6 -10 -18 -35z m47 -1 c0 -5 -4 -15 -10 -23 -11 -18 -25 -7 -17 15 6 15 27 21
27 8z m185 -21 c-6 -7 -45 9 -45 18 0 4 11 3 24 -3 14 -7 23 -13 21 -15z
m-335 -20 c0 -18 -58 -94 -86 -113 -17 -11 -46 -19 -69 -18 l-40 0 45 15 c57
20 106 57 125 95 15 29 25 37 25 21z m2278 -80 c2 -7 -2 -10 -12 -6 -9 3 -16
11 -16 16 0 13 23 5 28 -10z m-148 -62 c0 -5 -4 -10 -10 -10 -5 0 -10 5 -10
10 0 6 5 10 10 10 6 0 10 -4 10 -10z m-640 -29 c0 -10 -7 -22 -16 -25 -8 -3
-13 -2 -11 2 2 4 7 15 10 25 8 23 17 22 17 -2z m883 -43 c-15 -7 -30 -7 -50 0
-26 10 -24 10 22 11 42 0 46 -2 28 -11z m34 -60 c-3 -8 -6 -5 -6 6 -1 11 2 17
5 13 3 -3 4 -12 1 -19z m-588 -62 c-9 -8 -10 -8 -5 2 4 6 2 12 -4 12 -7 0 -6
5 2 14 11 12 13 12 16 -1 2 -8 -2 -20 -9 -27z m438 8 c3 -7 -4 -29 -16 -47
-25 -41 -26 -48 -6 -41 8 4 15 1 15 -4 0 -13 -83 -27 -105 -18 -11 4 -15 21
-15 62 0 51 2 56 20 51 13 -3 20 0 20 8 0 7 6 15 13 18 18 6 68 -13 74 -29z
m33 -44 c0 -5 -7 -10 -16 -10 -8 0 -12 5 -9 10 3 6 10 10 16 10 5 0 9 -4 9
-10z m-1489 -37 c13 -16 12 -17 -3 -4 -17 13 -22 21 -14 21 2 0 10 -8 17 -17z
m1318 -32 c-15 -5 -22 6 -14 19 6 9 10 9 16 -1 5 -8 4 -15 -2 -18z m-1576 -23
c6 -22 5 -22 -8 -4 -17 22 -20 40 -6 32 5 -3 11 -16 14 -28z m1863 -5 c-10
-10 -19 5 -10 18 6 11 8 11 12 0 2 -7 1 -15 -2 -18z m-1436 -77 c0 -46 -13
-41 -15 7 -1 17 -5 46 -9 62 l-6 30 14 -30 c9 -16 15 -48 16 -69z m-70 9 c27
-75 15 -66 -16 12 -26 64 -28 72 -15 58 5 -6 18 -37 31 -70z m1007 58 c1 -10
4 -29 8 -43 4 -16 0 -13 -9 9 -18 37 -20 51 -8 51 4 0 8 -8 9 -17z m351 -23
c9 -26 8 -32 -10 -45 -29 -19 -32 -14 -24 40 8 50 18 51 34 5z m42 9 c0 -11
-4 -17 -10 -14 -5 3 -10 13 -10 21 0 8 5 14 10 14 6 0 10 -9 10 -21z m-120
-25 c0 -8 -4 -14 -10 -14 -5 0 -10 9 -10 21 0 11 5 17 10 14 6 -3 10 -13 10
-21z m125 -23 c-3 -6 -11 -11 -17 -11 -6 0 -6 6 2 15 14 17 26 13 15 -4z
m-224 -18 c13 -16 12 -17 -3 -4 -17 13 -22 21 -14 21 2 0 10 -8 17 -17z m188
-5 c-4 -33 3 -47 24 -50 15 -2 23 -11 25 -30 3 -26 2 -26 -28 -15 -22 8 -30
17 -27 29 3 9 -2 26 -10 38 -13 19 -13 24 -2 31 18 12 20 11 18 -3z m-1383
-35 c-10 -10 -19 5 -10 18 6 11 8 11 12 0 2 -7 1 -15 -2 -18z m1261 -5 c5 -39
-13 -43 -26 -6 -14 40 -14 40 6 36 9 -2 18 -15 20 -30z m53 3 c0 -17 5 -33 10
-36 6 -3 10 -17 10 -31 0 -21 -5 -24 -35 -24 -24 0 -37 6 -45 20 -9 16 -7 20
13 25 19 5 22 11 19 41 -3 26 -1 34 12 34 11 0 16 -9 16 -29z m-1802 -25 c-6
-14 -17 -27 -25 -30 -15 -6 -10 5 16 36 21 24 23 23 9 -6z m452 -26 c19 -16
31 -30 27 -30 -16 0 -96 47 -90 54 12 12 28 6 63 -24z m1650 -9 c0 -24 -18
-37 -32 -23 -8 8 -7 16 2 27 17 21 30 19 30 -4z m-2203 -70 c-24 -45 -33 -55
-35 -40 -2 11 3 26 12 32 8 7 20 24 25 40 6 15 15 27 20 27 6 0 -4 -27 -22
-59z m586 15 c25 -21 26 -26 14 -49 -11 -21 -15 -23 -30 -12 -19 14 -36 85
-21 85 5 0 21 -11 37 -24z m1473 7 c5 3 15 -1 21 -8 10 -11 7 -13 -15 -11 -17
2 -28 10 -30 22 -2 15 -1 16 6 5 6 -7 14 -11 18 -8z m-1591 -49 c-11 -8 -19
-20 -17 -25 1 -5 -4 -8 -10 -6 -7 1 -12 -6 -12 -15 1 -10 -2 -16 -6 -13 -5 3
-11 -1 -13 -7 -4 -9 -6 -8 -6 2 -1 21 50 80 69 80 11 -1 10 -4 -5 -16z m1498
-24 c9 -11 28 -20 42 -20 28 0 34 -15 9 -24 -8 -3 -12 -11 -9 -17 4 -5 -1 -16
-10 -23 -15 -11 -22 -39 -24 -97 -1 -8 -19 -25 -41 -38 -30 -17 -38 -18 -34
-7 4 11 0 14 -15 11 -12 -2 -21 0 -21 4 0 5 11 9 25 9 36 0 40 7 21 36 -12 19
-14 31 -6 51 6 14 14 24 19 21 16 -10 20 47 4 59 -10 8 -13 19 -9 33 9 27 26
28 49 2z m327 -8 c0 -16 -28 -47 -36 -39 -4 4 -2 7 4 7 7 0 12 4 12 10 0 5 -8
6 -17 3 -16 -6 -16 -5 -4 10 14 17 41 23 41 9z m-1701 -63 c8 -23 7 -29 -4
-29 -9 0 -12 6 -9 15 4 8 -2 27 -12 43 -14 22 -14 24 -2 14 9 -7 21 -26 27
-43z m1335 6 c-4 -8 -11 -15 -16 -15 -6 0 -5 6 2 15 7 8 14 15 16 15 2 0 1 -7
-2 -15z m-2017 -35 c-12 -22 -23 -35 -25 -30 -4 12 26 70 37 70 5 0 0 -18 -12
-40z m512 13 c0 -25 -1 -26 -9 -8 -12 27 -12 35 0 35 6 0 10 -12 9 -27z m245
11 c9 -24 7 -70 -5 -101 -26 -70 -102 -105 -140 -64 -20 21 -20 21 0 21 11 0
22 4 25 9 3 5 -12 9 -34 9 -22 0 -47 5 -57 10 -12 7 -4 9 28 5 41 -4 45 -2 67
30 25 38 56 47 46 13 -4 -12 -13 -29 -22 -39 -14 -16 -14 -17 0 -12 23 9 41
59 36 100 -4 32 -2 35 23 35 15 0 29 -7 33 -16z m1586 -14 c0 -5 -6 -10 -14
-10 -8 0 -18 5 -21 10 -3 6 3 10 14 10 12 0 21 -4 21 -10z m-1534 -61 c-9 -59
-74 -140 -110 -139 -6 1 1 8 16 16 35 19 86 113 67 125 -10 6 -10 11 0 23 24
28 34 18 27 -25z m-708 10 c23 2 32 -1 28 -8 -4 -6 -21 -11 -37 -11 -22 0 -39
-10 -64 -37 -19 -21 -37 -34 -41 -31 -3 4 7 21 24 37 16 17 27 32 25 35 -9 9
9 26 20 19 6 -4 27 -6 45 -4z m2184 -31 c-7 -7 -12 -8 -12 -2 0 14 12 26 19
19 2 -3 -1 -11 -7 -17z m-129 -33 c-3 -9 -8 -14 -10 -11 -3 3 -2 9 2 15 9 16
15 13 8 -4z m97 -105 c-16 -29 -70 -54 -70 -32 0 6 67 51 78 52 1 0 -2 -9 -8
-20z m-1580 -73 c13 -24 13 -30 -3 -59 -10 -18 -27 -44 -38 -58 l-21 -25 6 30
c4 17 9 56 13 88 6 62 18 68 43 24z m-600 -279 c34 -30 35 -35 15 -62 -11 -15
-17 -16 -29 -7 -15 13 -50 90 -60 136 l-7 30 26 -35 c14 -19 39 -47 55 -62z
m503 5 c-3 -7 -9 -13 -14 -13 -5 0 -9 6 -9 13 0 8 6 14 14 14 8 0 12 -6 9 -14z
m347 -94 c0 -5 -12 -8 -27 -8 -17 1 -21 3 -10 6 9 2 17 9 17 14 0 6 5 7 10 4
6 -3 10 -10 10 -16z m-230 -54 c5 -14 14 -25 19 -25 6 0 7 8 4 18 -6 14 -4 15
9 4 9 -7 18 -9 20 -4 1 5 25 12 52 14 l49 6 -7 -66 c-7 -63 -18 -92 -37 -92
-5 0 -9 29 -9 65 0 37 -4 65 -10 65 -5 0 -10 -25 -10 -56 0 -36 -4 -53 -11
-49 -6 4 -13 -2 -15 -12 -3 -11 -24 -32 -47 -47 l-42 -28 40 7 c21 4 57 16 79
27 l40 21 55 -59 c30 -33 58 -58 62 -57 4 1 6 -5 5 -15 0 -9 4 -17 11 -17 6 0
15 -4 20 -9 5 -5 3 -6 -4 -2 -9 5 -13 1 -13 -11 0 -25 11 -39 37 -47 19 -6 21
-11 12 -33 -8 -22 -6 -31 18 -57 15 -17 19 -24 8 -15 -44 35 -48 29 -7 -12 34
-36 40 -47 30 -57 -7 -7 -13 -25 -13 -40 0 -17 -6 -28 -17 -30 -13 -2 -18 3
-18 17 0 11 4 22 9 25 14 9 0 56 -22 67 -11 6 -46 13 -78 16 -54 4 -59 3 -59
-15 0 -11 -7 -23 -16 -26 -13 -5 -15 -1 -10 18 4 17 1 26 -10 30 -9 3 -14 12
-11 19 3 10 -52 54 -57 45 -1 -2 -7 -11 -15 -20 -9 -13 -10 -22 -1 -40 11 -22
11 -22 -5 -3 -10 13 -15 35 -14 61 2 34 -4 51 -33 92 -20 28 -40 67 -44 88 -4
24 -18 47 -36 62 -28 24 -36 38 -52 88 -9 28 45 84 79 84 13 0 30 7 37 15 17
19 17 19 28 -10z m-172 -34 c3 -8 -1 -12 -9 -9 -7 2 -15 10 -17 17 -3 8 1 12
9 9 7 -2 15 -10 17 -17z m-394 -69 c-5 -26 -2 -29 33 -39 l38 -10 -53 -2 c-47
-1 -57 -6 -96 -41 -51 -47 -61 -50 -51 -12 7 30 25 54 25 34 0 -7 5 -12 10
-12 6 0 10 16 10 35 0 33 4 38 43 55 23 11 43 20 44 20 1 0 0 -13 -3 -28z
m117 -119 c51 -58 67 -158 36 -220 -21 -39 -63 -73 -91 -73 -16 0 -13 4 14 18
23 11 43 33 58 62 39 78 24 162 -40 222 -18 17 -24 26 -13 20 11 -5 28 -18 36
-29z m-91 -39 c12 -30 30 -24 24 9 l-5 22 13 -23 c9 -19 9 -32 -4 -65 -17 -47
-46 -61 -55 -28 -3 12 -9 21 -13 21 -4 0 -11 12 -15 27 -5 21 -2 32 15 45 28
23 29 23 40 -8z m510 -69 c0 -24 -12 -45 -25 -45 -20 0 -29 20 -15 33 10 9 11
9 6 0 -4 -7 -2 -13 3 -13 6 0 11 9 11 20 0 11 -7 20 -16 20 -8 0 -12 5 -9 10
8 14 45 -6 45 -25z m-311 -26 c-8 -4 -19 -23 -26 -41 l-13 -33 5 34 c3 18 5
39 5 46 0 8 8 11 21 8 15 -4 17 -8 8 -14z m91 1 c0 -5 -4 -10 -9 -10 -6 0 -13
5 -16 10 -3 6 1 10 9 10 9 0 16 -4 16 -10z m234 -25 c-4 -8 -13 -15 -22 -15
-13 0 -12 3 4 15 24 18 25 18 18 0z m-558 -22 c-7 -7 -26 7 -26 19 0 6 6 6 15
-2 9 -7 13 -15 11 -17z m448 -28 c3 -8 1 -15 -4 -15 -6 0 -10 7 -10 15 0 8 2
15 4 15 2 0 6 -7 10 -15z m-254 -13 c0 -5 -7 -17 -15 -28 -14 -18 -14 -17 -4
9 12 27 19 34 19 19z m802 -2 c56 -16 57 -31 1 -24 -50 7 -97 34 -58 34 11 0
37 -5 57 -10z m-352 -20 c0 -5 -4 -10 -10 -10 -5 0 -10 5 -10 10 0 6 5 10 10
10 6 0 10 -4 10 -10z m373 -24 c8 3 18 0 22 -6 5 -8 -3 -10 -26 -8 -18 2 -35
10 -37 18 -4 12 -3 13 10 2 9 -7 22 -10 31 -6z m-443 -36 c0 -13 -17 -13 -25
0 -3 6 -18 10 -33 11 l-27 1 25 7 c26 8 60 -3 60 -19z m-125 -32 c-4 -24 -9
-44 -10 -46 -2 -2 -26 4 -54 14 l-52 17 27 28 c20 21 37 29 62 29 l34 0 -7
-42z m507 0 c-7 -7 -12 -8 -12 -2 0 14 12 26 19 19 2 -3 -1 -11 -7 -17z m116
-14 c32 -7 50 -39 26 -48 -8 -3 -14 -14 -14 -24 0 -10 -7 -27 -15 -38 -14 -17
-15 -17 -9 -1 6 17 5 18 -15 6 -16 -10 -25 -11 -39 -3 -25 16 -22 48 6 52 15
2 22 -2 22 -13 0 -9 -4 -13 -10 -10 -5 3 -10 -1 -10 -10 0 -20 19 -15 34 8 8
12 5 21 -9 37 -23 25 -53 23 -71 -5 -11 -17 -11 -25 1 -50 l15 -30 -20 24
c-30 35 -26 66 13 89 35 22 50 25 95 16z m122 -26 c0 -11 -38 -10 -61 3 -11 5
-17 14 -14 19 6 10 75 -10 75 -22z m-593 -10 c-3 -7 -5 -2 -5 12 0 14 2 19 5
13 2 -7 2 -19 0 -25z m246 25 c-7 -2 -19 -2 -25 0 -7 3 -2 5 12 5 14 0 19 -2
13 -5z m2 -53 c3 -6 -1 -7 -9 -4 -18 7 -21 14 -7 14 6 0 13 -4 16 -10z m483
-11 c7 -12 11 -23 8 -26 -7 -7 -25 6 -36 28 -15 27 11 26 28 -2z"/>
<path d="M3230 3481 c0 -6 5 -13 10 -16 6 -3 10 1 10 9 0 9 -4 16 -10 16 -5 0
-10 -4 -10 -9z"/>
<path d="M4115 1166 c-26 -19 -23 -84 7 -110 l22 -21 -17 21 c-21 25 -22 87
-3 104 25 20 60 8 79 -30 18 -34 19 -34 12 -5 -4 16 -11 36 -17 42 -14 17 -59
16 -83 -1z"/>
<path d="M4165 1137 l20 -16 -20 2 c-11 1 -24 7 -28 12 -5 6 -5 -1 -1 -15 9
-33 26 -43 44 -24 16 16 5 44 -21 52 -8 2 -5 -3 6 -11z"/>
<path d="M4120 1094 c0 -34 59 -45 81 -16 11 14 11 15 -1 5 -19 -18 -40 -16
-62 4 -10 9 -18 12 -18 7z"/>
<path d="M4236 1073 c-6 -14 -5 -15 5 -6 7 7 10 15 7 18 -3 3 -9 -2 -12 -12z"/>
<path d="M4380 888 c0 -4 4 -8 9 -8 6 0 12 4 15 8 3 5 -1 9 -9 9 -8 0 -15 -4
-15 -9z"/>
<path d="M4354 769 c0 -10 4 -19 8 -19 4 0 8 6 8 14 0 8 -4 17 -8 20 -4 2 -8
-4 -8 -15z"/>
<path d="M3645 943 c4 -10 10 -28 12 -39 4 -15 10 -20 24 -17 26 7 24 14 -12
46 -21 19 -29 22 -24 10z"/>
<path d="M2664 6098 l-19 -23 23 19 c21 18 27 26 19 26 -2 0 -12 -10 -23 -22z"/>
<path d="M2710 6090 c-13 -8 -12 -10 3 -10 9 0 17 5 17 10 0 12 -1 12 -20 0z"/>
<path d="M4143 6068 c2 -7 10 -13 17 -13 7 0 15 6 18 13 2 7 -5 12 -18 12 -13
0 -20 -5 -17 -12z"/>
<path d="M4391 5994 c0 -11 3 -14 6 -6 3 7 2 16 -1 19 -3 4 -6 -2 -5 -13z"/>
<path d="M4526 5966 c2 -6 14 -18 27 -25 20 -13 21 -13 9 2 -11 13 -10 17 3
25 13 7 10 9 -13 9 -18 0 -28 -5 -26 -11z"/>
<path d="M3235 5870 c3 -5 8 -10 11 -10 2 0 4 5 4 10 0 6 -5 10 -11 10 -5 0
-7 -4 -4 -10z"/>
<path d="M1817 5805 c-2 -14 -2 -23 1 -20 3 3 18 -7 34 -22 27 -26 29 -26 46
-9 9 11 12 16 5 12 -6 -3 -22 7 -35 22 -35 42 -45 45 -51 17z"/>
<path d="M4586 5822 c-3 -6 -1 -14 5 -17 15 -10 25 3 12 16 -7 7 -13 7 -17 1z"/>
<path d="M1769 5753 c-13 -16 -12 -17 4 -4 9 7 17 15 17 17 0 8 -8 3 -21 -13z"/>
<path d="M1729 5723 c-13 -16 -12 -17 4 -4 9 7 17 15 17 17 0 8 -8 3 -21 -13z"/>
<path d="M1609 5689 l-24 -20 28 17 c15 9 27 18 27 20 0 8 -8 4 -31 -17z"/>
<path d="M1680 5689 c-22 -18 -22 -19 -3 -10 12 6 25 16 28 21 9 15 3 12 -25
-11z"/>
<path d="M1606 5623 c-6 -14 -5 -15 5 -6 7 7 10 15 7 18 -3 3 -9 -2 -12 -12z"/>
<path d="M1415 5583 c-30 -26 -32 -30 -10 -15 17 10 38 24 49 29 10 6 14 13 9
16 -5 3 -27 -10 -48 -30z"/>
<path d="M1498 5547 l-27 -22 23 -29 24 -29 31 22 c37 26 42 41 6 17 -32 -21
-42 -20 -55 4 -9 17 -7 24 12 40 13 11 21 19 18 20 -3 0 -17 -10 -32 -23z"/>
<path d="M1305 5504 l-30 -26 33 22 c17 12 32 23 32 26 0 7 -4 5 -35 -22z"/>
<path d="M1303 5468 c-12 -13 -31 -50 -42 -82 l-21 -59 28 24 c50 45 91 69
117 69 14 0 25 5 25 10 0 6 -8 10 -17 10 -9 0 -29 11 -43 25 l-26 25 -21 -22z
m42 -18 c18 -19 17 -20 -3 -20 -12 0 -22 2 -22 4 0 2 -3 11 -6 20 -9 22 9 20
31 -4z"/>
<path d="M1659 5384 c-51 -26 -114 -69 -153 -105 -117 -107 -157 -214 -50
-133 27 21 54 43 59 50 6 6 53 47 105 90 92 74 139 121 140 137 0 12 -11 8
-101 -39z"/>
<path d="M1410 5394 c-52 -37 -71 -59 -29 -35 20 12 44 30 54 41 23 25 18 24
-25 -6z"/>
<path d="M1403 5340 c-13 -5 -23 -16 -23 -25 0 -22 15 -19 47 10 29 25 18 32
-24 15z"/>
<path d="M1246 5308 c-8 -12 -29 -67 -46 -121 -18 -53 -36 -95 -40 -92 -5 3
-21 -18 -36 -47 -15 -29 -37 -67 -50 -84 -13 -17 -24 -35 -24 -41 0 -12 50
-58 75 -68 19 -8 19 -8 1 -13 -10 -2 -31 6 -47 17 -16 12 -29 20 -29 17 0 -13
87 -130 100 -134 12 -4 13 -2 3 9 -15 15 -18 43 -4 35 12 -8 43 78 35 98 -5
14 -9 15 -15 4 -7 -11 -10 -10 -21 1 -10 11 -10 14 0 18 6 3 12 13 12 23 0 10
9 39 20 65 11 26 20 62 20 80 0 19 16 82 35 141 36 109 39 135 11 92z"/>
<path d="M1497 5137 c-3 -7 1 -14 9 -14 7 0 11 4 8 9 -3 4 0 8 5 8 17 0 13
-18 -6 -30 -16 -10 -16 -10 2 -8 12 2 20 11 20 23 0 23 -30 33 -38 12z"/>
<path d="M3402 5060 c7 -11 17 -20 22 -20 5 0 1 9 -9 20 -10 11 -20 20 -22 20
-2 0 2 -9 9 -20z"/>
<path d="M3735 5010 c10 -11 20 -20 23 -20 3 0 -3 9 -13 20 -10 11 -20 20 -23
20 -3 0 3 -9 13 -20z"/>
<path d="M4530 4948 c0 -70 10 -102 24 -79 4 5 9 43 12 85 7 72 6 75 -15 73
-19 -1 -21 -7 -21 -79z"/>
<path d="M3300 4980 c0 -16 5 -21 23 -18 12 2 22 10 22 18 0 8 -10 16 -22 18
-18 3 -23 -2 -23 -18z m40 0 c0 -5 -7 -10 -15 -10 -8 0 -15 5 -15 10 0 6 7 10
15 10 8 0 15 -4 15 -10z"/>
<path d="M1270 4973 c0 -5 10 -21 23 -36 15 -20 34 -29 62 -32 l40 -5 -35 9
c-19 5 -47 23 -62 40 -16 17 -28 28 -28 24z"/>
<path d="M1454 4969 c-3 -6 -1 -16 5 -22 8 -8 11 -5 11 11 0 24 -5 28 -16 11z"/>
<path d="M3782 4955 c15 -17 42 -39 60 -49 39 -22 30 -13 -37 39 -42 33 -46
34 -23 10z"/>
<path d="M3610 4904 c0 -34 4 -53 10 -49 6 3 10 28 10 56 0 27 -4 49 -10 49
-5 0 -10 -25 -10 -56z"/>
<path d="M1263 4914 c-7 -18 17 -38 31 -24 11 11 1 40 -14 40 -6 0 -13 -7 -17
-16z"/>
<path d="M3650 4860 c0 -33 4 -60 10 -60 6 0 10 27 10 60 0 33 -4 60 -10 60
-6 0 -10 -27 -10 -60z"/>
<path d="M1393 4837 c-13 -28 -28 -77 -35 -107 -7 -30 -27 -80 -45 -110 -33
-56 -45 -91 -18 -56 13 17 15 17 15 4 0 -9 -4 -20 -10 -23 -5 -3 -10 -11 -10
-17 0 -6 9 -3 20 7 13 12 20 31 20 54 0 52 12 66 41 51 30 -16 69 -51 69 -62
0 -5 -12 -14 -26 -20 -14 -7 -37 -32 -50 -57 -23 -43 -24 -44 -18 -13 3 17 3
32 0 32 -16 0 -76 -35 -80 -47 -3 -8 -2 -12 3 -9 5 3 12 -2 15 -11 4 -10 4
-14 0 -10 -4 4 -22 -19 -38 -50 l-31 -58 -45 4 c-70 6 -73 6 -109 -3 -43 -10
-126 -61 -145 -88 -8 -11 -25 -26 -38 -32 -28 -14 -62 -77 -47 -87 6 -3 9 -19
8 -35 -2 -16 0 -35 4 -41 5 -7 1 -26 -9 -42 -16 -27 -16 -31 1 -74 10 -26 21
-44 26 -41 5 3 9 0 9 -5 0 -19 17 -12 34 14 15 23 15 27 2 41 -8 8 -18 31 -22
50 -26 141 96 326 213 323 21 0 16 -4 -20 -13 -27 -8 -59 -23 -70 -36 l-22
-22 43 22 c53 26 138 29 202 6 46 -17 90 -51 90 -70 0 -14 -69 -14 -95 1 -36
20 -83 25 -107 12 -13 -7 -27 -12 -32 -11 -5 2 -4 -3 3 -11 9 -12 7 -16 -16
-22 -33 -8 -83 -52 -83 -73 0 -20 58 -8 75 15 11 15 20 16 73 6 66 -13 159
-49 149 -59 -4 -4 -28 2 -54 14 -26 11 -73 23 -103 27 -48 6 -53 5 -37 -7 17
-12 7 -35 -142 -332 -88 -175 -167 -326 -176 -336 -8 -9 -15 -21 -15 -26 0 -6
-15 -15 -33 -22 -19 -7 -44 -23 -57 -37 l-23 -25 21 0 c12 0 22 5 22 11 0 17
70 41 99 33 28 -7 27 -7 -37 -24 -24 -6 -40 -15 -36 -21 4 -6 11 -6 20 2 13
10 14 6 8 -27 -5 -37 -3 -43 45 -93 53 -55 73 -61 53 -15 -7 15 -17 22 -24 18
-7 -4 -8 -3 -4 4 4 7 16 12 27 12 39 0 139 67 139 92 0 11 90 241 97 248 3 3
2 -35 -2 -85 -4 -49 -5 -87 -1 -84 3 3 11 55 17 115 9 97 13 112 35 132 14 12
20 22 15 22 -17 0 -14 13 41 141 33 77 60 126 75 136 23 15 34 41 11 27 -8 -5
-9 0 -5 17 4 13 7 29 7 35 0 7 9 14 19 17 16 4 20 -2 23 -42 7 -73 -12 -495
-22 -505 -6 -6 -10 -20 -10 -32 0 -12 -7 -27 -15 -34 -9 -7 -14 -15 -11 -17 6
-6 -60 -73 -73 -73 -16 0 -40 -65 -54 -145 -10 -63 -17 -77 -69 -139 -32 -39
-58 -73 -58 -78 0 -4 -16 -28 -35 -54 -39 -51 -41 -49 -53 41 l-7 60 -24 -33
c-13 -19 -36 -63 -51 -99 l-28 -65 33 -72 c18 -40 49 -97 68 -128 23 -35 34
-63 31 -75 -3 -12 -1 -24 4 -27 15 -9 35 128 28 193 -7 60 14 120 44 129 13 4
12 2 -1 -14 -9 -10 -20 -30 -24 -44 -6 -20 -3 -19 17 10 43 63 212 105 251 62
14 -16 15 -21 2 -45 -13 -25 -11 -31 8 -28 4 0 7 -31 7 -70 0 -44 -4 -68 -10
-64 -5 3 -10 1 -10 -4 0 -6 7 -11 15 -11 34 0 7 -66 -47 -116 -18 -18 -69 -50
-113 -72 -85 -43 -90 -48 -37 -33 18 6 42 6 54 2 19 -7 18 -9 -13 -27 -19 -11
-42 -23 -51 -27 -15 -5 -16 -11 -7 -37 12 -34 25 -45 53 -45 11 0 21 -5 23
-12 3 -8 -6 -11 -23 -10 -15 1 -29 -4 -31 -10 -3 -7 2 -13 11 -13 9 0 16 -7
16 -16 0 -8 -4 -12 -10 -9 -6 3 -7 -1 -4 -9 3 -9 1 -16 -4 -16 -6 0 -17 -12
-24 -27 -15 -32 -53 -46 -44 -16 10 37 10 207 -1 210 -17 6 -21 -18 -24 -147
-2 -119 -2 -122 22 -136 13 -7 32 -16 41 -20 9 -3 14 -12 12 -18 -3 -7 -1 -31
4 -54 6 -24 6 -39 1 -36 -5 3 -9 0 -9 -5 0 -6 4 -11 8 -11 5 0 16 -16 25 -35
9 -19 13 -35 8 -35 -6 0 -13 9 -16 20 -3 11 -10 20 -15 20 -5 0 -4 -11 2 -25
6 -14 18 -25 26 -25 23 0 122 -49 122 -61 0 -6 -4 -7 -10 -4 -5 3 -10 -1 -10
-9 0 -9 5 -16 11 -16 16 0 3 -91 -14 -105 -6 -5 -13 -26 -15 -45 -1 -19 -8
-37 -14 -41 -6 -4 -8 -11 -5 -16 3 -5 -2 -23 -12 -39 -28 -47 -42 -95 -31
-109 12 -14 -33 -61 -48 -51 -6 3 -13 -2 -18 -12 -5 -12 -9 -1 -15 37 -8 59
-22 82 -40 64 -7 -7 -13 -27 -14 -45 -1 -18 -8 -85 -14 -148 -7 -63 -11 -153
-9 -200 l3 -85 23 64 c12 36 22 78 22 93 0 15 4 28 9 28 12 0 84 118 84 137 0
7 9 13 19 13 25 0 23 -17 -7 -56 -29 -38 -32 -52 -7 -33 15 13 16 12 3 -3 -7
-10 -17 -15 -22 -13 -4 3 -13 -3 -18 -14 -16 -29 -13 -39 4 -17 28 37 15 -5
-35 -119 -27 -62 -50 -118 -50 -124 0 -23 -32 -73 -40 -65 -5 5 -11 26 -13 47
-4 40 -27 77 -25 41 0 -10 -1 -26 -4 -34 -3 -8 -3 -12 -1 -7 7 11 23 -2 23
-17 0 -8 -9 -16 -21 -19 -20 -5 -21 -10 -14 -69 4 -43 3 -58 -4 -48 -5 8 -13
11 -17 7 -4 -3 -1 -13 5 -21 8 -10 11 -48 8 -120 -3 -94 -6 -109 -26 -130 -23
-24 -22 -46 2 -46 8 0 8 3 -2 9 -10 6 -10 10 -1 16 6 4 14 4 17 1 3 -3 11 -2
17 2 6 5 22 -4 39 -21 23 -24 24 -27 7 -22 -12 4 -20 2 -20 -5 0 -6 -6 -10
-12 -8 -7 3 -19 -1 -26 -9 -11 -11 -10 -23 8 -70 12 -32 26 -63 31 -70 14 -16
136 -43 237 -52 77 -6 84 -5 103 15 19 20 20 26 9 58 -13 40 -6 63 14 47 15
-13 20 -85 7 -110 -9 -17 -6 -20 27 -26 20 -3 56 -18 79 -31 28 -16 66 -27
108 -31 36 -3 68 -10 71 -14 9 -15 46 -11 38 4 -4 6 2 4 14 -7 11 -10 27 -16
34 -14 8 3 -5 21 -35 49 -45 43 -69 82 -27 44 11 -10 23 -16 26 -13 3 3 -11
19 -31 36 -44 35 -29 56 16 23 15 -11 33 -21 39 -21 6 0 22 -23 35 -52 18 -39
21 -55 13 -65 -9 -11 -2 -13 38 -9 63 6 239 34 284 45 19 5 47 12 63 15 31 7
34 25 10 55 -17 19 -21 20 -88 7 -135 -26 -246 -38 -259 -27 -7 6 -16 8 -19 5
-3 -3 -10 9 -15 27 l-9 34 66 16 c36 9 111 19 165 23 55 3 102 9 105 12 11 10
-68 76 -129 108 -42 21 -66 40 -70 54 -3 12 -13 31 -22 42 -10 11 -13 20 -8
20 20 0 10 57 -15 80 -33 31 -35 62 -3 34 17 -14 19 -15 10 -2 -8 9 -20 50
-29 89 -8 40 -23 83 -33 96 -15 19 -17 30 -9 56 12 42 11 60 -2 52 -6 -4 -8
-13 -5 -21 12 -31 -16 -23 -29 9 -7 18 -21 40 -30 47 -18 15 -27 35 -39 84 -6
26 -5 28 8 17 8 -7 13 -18 10 -25 -3 -9 6 -16 27 -20 52 -10 61 -8 57 16 -2
17 -9 23 -25 22 -27 -1 -28 6 -8 74 17 55 14 72 -11 72 -8 0 -14 7 -14 15 0 8
-4 15 -10 15 -5 0 -10 -4 -10 -10 0 -5 -9 -10 -20 -10 -11 0 -20 -4 -20 -9 0
-11 48 -24 60 -16 9 6 25 -13 17 -21 -2 -3 -26 0 -51 7 l-47 12 -50 -57 c-28
-31 -58 -56 -68 -56 -33 0 -121 153 -121 210 0 15 5 13 29 -11 32 -31 62 -37
80 -16 6 8 26 61 45 118 18 57 39 116 46 131 12 26 13 26 51 13 22 -8 45 -12
53 -9 21 8 127 -25 167 -52 l36 -24 -47 -118 c-26 -64 -57 -139 -69 -165 -22
-50 -19 -51 38 -9 l33 25 -7 -34 c-4 -19 -18 -61 -30 -95 -13 -34 -20 -67 -15
-73 11 -20 68 60 86 121 19 64 46 96 91 104 31 6 57 24 34 24 -17 0 -13 30 4
36 8 4 15 13 15 22 0 9 23 48 50 89 63 90 95 158 115 245 13 59 22 73 73 125
73 73 185 281 140 258 -7 -4 -6 0 3 7 27 22 50 87 39 108 -6 12 -1 44 17 109
25 83 26 93 11 107 -26 26 -50 9 -112 -81 -56 -82 -65 -90 -94 -86 -7 1 -28
-3 -47 -9 -28 -9 -40 -23 -72 -88 -21 -42 -39 -79 -40 -81 -1 -1 -8 1 -15 5
-7 5 -15 9 -18 9 -36 6 -69 19 -74 30 -3 10 0 12 11 8 12 -5 14 -1 8 15 -3 12
-2 22 3 22 5 0 9 8 8 17 0 10 9 19 24 23 17 4 21 8 12 14 -18 11 -6 40 35 81
31 31 34 40 29 68 -4 17 -9 54 -11 81 -2 27 -8 53 -14 59 -7 7 -5 14 7 23 16
12 16 14 -2 27 -26 19 -17 47 22 70 40 24 62 16 62 -20 0 -21 -9 -34 -35 -51
-37 -23 -42 -42 -24 -89 19 -50 37 -63 67 -50 53 24 102 107 143 245 29 96 56
149 95 190 24 25 23 48 -5 92 -29 47 -53 52 -76 17 -8 -13 -16 -38 -18 -57 -3
-19 -9 -36 -15 -38 -17 -5 -24 54 -18 162 4 87 3 96 -9 80 -14 -18 -15 -18
-12 6 1 16 -3 24 -10 22 -16 -3 -17 13 -3 39 6 10 9 19 6 19 -2 0 -21 -29 -40
-65 l-36 -64 16 -72 c20 -90 14 -137 -26 -201 -17 -28 -33 -70 -37 -95 -3 -25
-10 -42 -17 -40 -6 2 -18 -6 -27 -17 -17 -20 -17 -20 -40 26 l-22 47 -29 -15
c-27 -14 -32 -14 -54 1 -24 16 -44 52 -44 81 0 28 38 55 68 48 21 -5 25 -4 15
6 -9 10 -9 17 0 31 9 15 6 29 -16 75 -18 36 -25 60 -19 66 12 12 3 50 -9 43
-10 -7 -29 27 -29 53 0 22 -29 34 -53 20 -13 -7 -14 -14 -6 -35 7 -20 7 -34
-2 -50 -18 -34 -39 -11 -39 44 0 41 -2 45 -37 60 -56 23 -94 33 -88 22 4 -5
-7 -9 -24 -9 -24 0 -44 14 -96 66 -96 96 -96 96 -94 210 1 124 10 155 57 190
50 37 50 39 41 90 -12 61 -23 81 -88 147 -45 46 -53 60 -41 67 12 7 12 12 -4
29 -14 16 -22 18 -32 10 -14 -11 -34 -4 -34 12 0 5 9 9 21 9 11 0 17 4 14 10
-3 5 -1 19 5 30 9 16 7 24 -5 36 -34 34 6 58 43 26 16 -14 39 -20 87 -21 l65
-2 -6 58 -6 58 26 -30 c15 -16 38 -51 51 -77 19 -36 31 -48 48 -48 13 0 17 3
11 8 -15 9 -44 79 -36 86 3 3 -2 6 -11 6 -8 0 -19 9 -22 20 -3 11 -11 20 -17
20 -5 0 -8 6 -5 14 3 8 -4 18 -17 24 -13 5 -23 18 -23 27 0 16 2 16 14 -1 8
-11 21 -18 30 -16 8 2 12 -1 9 -7 -4 -5 4 -17 16 -25 21 -15 23 -14 34 12 7
18 8 31 1 40 -7 9 -2 20 17 38 14 15 26 31 26 35 0 5 5 9 11 9 7 0 9 -9 6 -21
-6 -21 -5 -21 16 -2 12 10 36 20 52 22 32 3 45 15 45 43 0 12 -14 19 -50 27
-70 15 -80 14 -107 -11 -20 -19 -20 -15 8 35 l31 57 -42 0 c-23 0 -50 5 -62
11 -17 9 -25 6 -47 -15 -15 -15 -31 -23 -35 -19 -4 4 -11 1 -17 -7 -6 -10 -9
16 -7 79 l1 94 -32 29 c-41 37 -34 48 8 13 l31 -27 0 58 c0 45 -3 55 -12 46
-7 -7 -20 -12 -29 -12 -20 0 -84 68 -105 114 -15 31 -15 35 15 94 35 69 36 72
19 72 -7 0 -23 -24 -35 -53z m125 -353 c-4 -3 -12 5 -18 18 -12 22 -12 22 6 6
10 -10 15 -20 12 -24z m-37 -21 c12 -16 12 -17 -1 -7 -8 6 -22 14 -30 17 -13
5 -12 6 1 6 9 1 23 -7 30 -16z m-102 -71 c1 -16 -6 -26 -18 -29 -14 -4 -21
-16 -24 -42 -2 -22 -4 -11 -5 28 -2 49 2 69 15 83 17 19 18 19 24 1 4 -10 8
-29 8 -41z m96 18 c-12 -19 -43 -31 -51 -18 -4 6 -3 8 3 5 6 -4 19 0 29 8 23
17 27 18 19 5z m-258 -106 c-3 -3 -12 -4 -19 -1 -8 3 -5 6 6 6 11 1 17 -2 13
-5z m268 -82 c-2 -2 -11 3 -20 12 -9 9 -25 16 -36 16 -21 0 -26 16 -6 23 12 5
71 -43 62 -51z m-125 -2 c0 -5 -7 -10 -16 -10 -8 0 -12 5 -9 10 3 6 10 10 16
10 5 0 9 -4 9 -10z m294 -12 c-3 -13 -10 -30 -15 -38 -7 -12 -8 -10 -9 7 0 28
10 53 22 53 5 0 6 -10 2 -22z m-514 -28 c0 -5 7 -7 15 -4 9 4 15 0 15 -10 0
-22 -13 -20 -35 4 -10 11 -13 20 -7 20 7 0 12 -4 12 -10z m317 -16 c-3 -3 -12
-4 -19 -1 -8 3 -5 6 6 6 11 1 17 -2 13 -5z m-159 -43 c23 -40 28 -61 15 -61
-10 1 -54 100 -44 100 4 0 17 -17 29 -39z m-481 -707 c-3 -3 -12 -4 -19 -1 -8
3 -5 6 6 6 11 1 17 -2 13 -5z m843 -415 c0 -5 -4 -9 -10 -9 -5 0 -10 7 -10 16
0 8 5 12 10 9 6 -3 10 -10 10 -16z m-150 -44 c0 5 14 -4 30 -20 42 -40 39 -55
-12 -55 -24 0 -53 -3 -65 -6 -14 -4 -23 -2 -23 5 0 6 5 10 12 9 8 -2 11 10 9
36 -3 45 16 66 37 39 6 -9 12 -13 12 -8z m386 -33 c-9 -8 -26 10 -26 26 1 15
2 15 15 -2 8 -11 13 -21 11 -24z m-671 18 c-3 -5 -14 -10 -23 -9 -14 0 -13 2
3 9 27 11 27 11 20 0z m203 -10 c-14 -22 -24 -19 -15 5 4 8 11 15 17 15 6 0 6
-7 -2 -20z m260 -64 c39 -15 72 -29 72 -31 0 -2 -3 -10 -6 -18 -4 -12 -20 -9
-87 19 -45 19 -83 34 -84 34 -2 0 -3 12 -3 27 0 24 2 25 18 11 9 -8 50 -27 90
-42z m192 20 c0 -3 -4 -8 -10 -11 -5 -3 -10 -1 -10 4 0 6 5 11 10 11 6 0 10
-2 10 -4z m-1029 -69 c-8 -8 -11 -7 -11 4 0 20 13 34 18 19 3 -7 -1 -17 -7
-23z m989 -132 c0 -3 -11 -10 -24 -15 l-24 -9 18 -49 19 -48 -40 -37 c-21 -21
-39 -43 -39 -50 1 -6 10 -1 21 12 40 49 102 64 78 19 -8 -14 -14 -17 -21 -10
-8 8 -20 4 -40 -13 -17 -14 -33 -23 -38 -20 -4 3 -13 -2 -20 -10 -18 -22 -27
-19 -35 12 -4 18 -1 34 13 52 21 29 36 121 19 121 -24 0 43 39 74 43 19 2 35
5 37 5 1 1 2 0 2 -3z m432 -67 c-8 -8 -9 -4 -5 13 4 13 8 18 11 10 2 -7 -1
-18 -6 -23z m-252 -38 c0 -5 -8 -10 -17 -10 -15 0 -16 2 -3 10 19 12 20 12 20
0z m-693 -87 c-3 -10 -5 -2 -5 17 0 19 2 27 5 18 2 -10 2 -26 0 -35z m358 37
c3 -5 -3 -10 -14 -10 -12 0 -21 5 -21 10 0 6 6 10 14 10 8 0 18 -4 21 -10z
m-13 -48 c-14 -4 -62 16 -62 28 0 5 16 2 36 -7 19 -10 31 -19 26 -21z m-382
-9 c0 -20 -3 -24 -11 -16 -7 7 -9 19 -6 27 10 24 17 19 17 -11z m505 -13 c-16
-16 -31 -28 -33 -25 -4 4 48 54 57 55 3 0 -8 -13 -24 -30z m80 21 c3 -5 1 -12
-5 -16 -5 -3 -10 1 -10 9 0 18 6 21 15 7z m-331 -32 c32 -37 33 -75 4 -106
-39 -41 -86 -26 -112 37 -17 42 -7 76 26 90 39 15 55 11 82 -21z m294 -1 c-14
-26 -30 -39 -37 -32 -4 4 38 54 46 54 2 0 -2 -10 -9 -22z m-88 -22 c0 -2 -8
-10 -17 -17 -16 -13 -17 -12 -4 4 13 16 21 21 21 13z m80 -36 c0 -5 -4 -10
-10 -10 -5 0 -10 5 -10 10 0 6 5 10 10 10 6 0 10 -4 10 -10z m-543 -46 c2 -6
-9 -14 -24 -17 -34 -6 -40 -2 -23 18 14 17 41 17 47 -1z m583 -29 c0 -8 -7
-15 -16 -15 -14 0 -14 3 -4 15 7 8 14 15 16 15 2 0 4 -7 4 -15z m-458 -7 c-21
-21 -13 -31 13 -14 37 24 43 20 41 -31 -1 -41 -4 -48 -24 -53 -20 -4 -24 -12
-27 -55 -2 -35 1 -55 12 -67 15 -16 15 -18 0 -18 -9 0 -26 5 -39 10 -22 10
-23 16 -23 109 1 101 10 131 43 131 12 0 13 -3 4 -12z m141 -50 c4 -29 3 -56
-1 -60 -15 -15 -29 9 -34 60 -4 44 -3 52 12 52 13 0 19 -12 23 -52z m-311 21
c65 11 75 6 18 -9 -51 -14 -92 -10 -98 10 -4 13 -3 13 11 2 12 -10 28 -11 69
-3z m-68 -48 c3 -4 2 -11 -2 -15 -4 -4 -7 -11 -7 -14 -2 -30 -18 -82 -24 -82
-30 0 -35 53 -9 103 9 18 33 23 42 8z m88 -3 c-7 -7 -12 -36 -12 -65 0 -39 -4
-53 -14 -53 -23 0 -26 12 -15 60 11 47 25 70 42 70 7 0 7 -4 -1 -12z m552 -34
c9 -8 17 -23 17 -32 2 -30 -3 -57 -11 -60 -4 -2 -6 -12 -3 -23 3 -10 1 -25 -5
-32 -5 -6 -13 -28 -17 -47 -12 -57 -50 -69 -66 -20 -6 16 -15 27 -20 24 -14
-8 -11 33 5 71 18 43 44 71 76 84 l25 10 -23 0 c-56 2 -97 -57 -108 -153 -9
-75 7 -114 44 -110 15 2 19 1 10 -2 -10 -3 -18 -10 -18 -15 0 -12 97 -12 105
1 9 14 45 12 45 -2 0 -7 3 -22 6 -34 6 -23 -28 -44 -71 -44 -14 0 -25 -4 -25
-8 0 -4 -23 -16 -50 -26 -58 -21 -59 -22 -90 -134 -13 -48 -28 -81 -34 -79
-12 4 -16 117 -4 117 4 0 16 18 27 40 19 40 19 40 -1 54 -21 15 -21 15 4 21
21 5 24 11 20 37 -5 30 -4 31 27 25 l33 -7 -23 37 c-18 28 -23 52 -23 102 0
82 17 133 61 182 38 42 62 48 87 23z m91 -14 c-22 -24 -35 -26 -35 -4 0 8 4
13 8 10 4 -2 14 -1 22 5 23 14 25 11 5 -11z m-595 -27 c0 -29 -15 -61 -24 -52
-5 5 14 79 21 79 2 0 3 -12 3 -27z m260 -13 c0 -5 -2 -10 -4 -10 -3 0 -8 5
-11 10 -3 6 -1 10 4 10 6 0 11 -4 11 -10z m-44 -14 c9 -9 10 -17 4 -21 -14 -8
-30 3 -30 21 0 18 8 18 26 0z m-389 -67 c7 -24 20 -59 29 -77 19 -40 29 -132
16 -151 -14 -20 -48 2 -60 39 -9 25 -8 30 5 30 11 0 13 4 6 13 -28 35 -46 203
-21 195 7 -3 18 -24 25 -49z m96 9 c-10 -58 -21 -65 -21 -15 0 33 4 47 14 47
10 0 12 -8 7 -32z m1105 -5 c47 -36 35 -37 -31 -3 -31 15 -51 30 -44 33 17 6
37 -2 75 -30z m-365 7 c-3 -12 -8 -19 -11 -16 -5 6 5 36 12 36 2 0 2 -9 -1
-20z m311 -10 c30 -12 59 -27 66 -35 17 -20 -5 -80 -36 -103 -63 -43 -83 -66
-133 -147 -50 -82 -54 -86 -84 -83 -25 2 -33 8 -35 26 -2 13 2 29 8 37 6 8 9
19 5 25 -3 5 -2 10 3 10 5 0 9 6 9 13 1 12 21 98 31 127 2 8 4 33 4 56 0 33 5
44 29 60 16 10 29 22 29 27 0 13 49 7 104 -13z m-848 -40 c8 0 14 5 14 12 0 6
2 9 5 6 11 -10 -7 -37 -21 -31 -9 3 -14 -1 -14 -12 0 -35 -25 -7 -27 31 -3 38
-3 39 13 17 9 -13 23 -23 30 -23z m-150 -12 c4 -6 3 -13 -3 -15 -6 -2 -8 -22
-5 -49 l5 -45 -34 3 c-22 2 -34 8 -35 18 -1 24 8 33 17 19 7 -11 10 -12 21 -1
11 11 9 17 -11 33 l-24 20 21 6 c12 3 22 9 22 14 0 13 18 11 26 -3z m542 -29
c-2 -6 -8 -10 -13 -10 -5 0 -11 4 -13 10 -2 6 4 11 13 11 9 0 15 -5 13 -11z
m-628 -9 c0 -5 -2 -10 -4 -10 -3 0 -8 5 -11 10 -3 6 -1 10 4 10 6 0 11 -4 11
-10z m652 -26 c-3 -17 -8 -22 -15 -15 -7 7 -6 15 3 26 17 20 18 19 12 -11z
m-351 -21 c1 -17 3 -21 6 -10 2 9 9 17 14 17 5 0 9 -8 9 -17 0 -15 2 -16 10
-3 6 10 10 11 10 3 0 -16 50 5 50 21 0 6 7 3 14 -7 16 -21 10 -57 -11 -57 -10
0 -11 -4 -3 -19 15 -28 12 -51 -5 -51 -25 0 -125 103 -125 128 0 33 30 28 31
-5z m274 -1 c-3 -3 -11 0 -18 7 -9 10 -8 11 6 5 10 -3 15 -9 12 -12z m-322
-77 c-5 -16 -33 -21 -33 -7 0 13 22 32 31 26 5 -2 6 -11 2 -19z m-132 -52 c8
-16 17 -30 20 -33 3 -3 11 -15 17 -26 6 -12 26 -24 44 -28 30 -6 31 -7 15 -23
-15 -15 -20 -14 -71 20 -68 45 -94 80 -76 102 19 22 35 18 51 -12z m678 21
c37 -8 41 -24 7 -24 -14 0 -28 -5 -31 -10 -4 -6 -11 -8 -16 -4 -5 3 -25 -10
-44 -29 -51 -51 -63 -29 -14 26 43 49 47 51 98 41z m-489 -34 c0 -5 -4 -12
-10 -15 -5 -3 -10 -4 -10 -1 0 2 -3 12 -6 20 -5 12 -2 15 10 10 9 -3 16 -10
16 -14z m68 -35 c12 -26 6 -81 -9 -91 -5 -3 -9 -15 -10 -27 0 -22 0 -22 -9 -1
-11 27 -110 110 -110 92 0 -8 -5 -6 -11 5 -14 25 -9 28 28 18 25 -7 36 -5 59
14 33 26 47 24 62 -10z m224 -6 l23 0 -23 -11 c-19 -10 -26 -8 -45 11 l-22 23
22 -11 c12 -6 32 -11 45 -12z m-38 -44 c22 -17 47 -26 77 -27 l44 -1 -44 -4
c-35 -3 -51 1 -82 23 -21 15 -39 28 -39 30 0 9 13 2 44 -21z m208 4 c2 -7 24
-13 48 -14 59 -4 58 -3 36 -20 -11 -8 -36 -14 -55 -14 l-36 1 30 8 30 7 -37 7
c-44 9 -73 36 -40 36 11 0 22 -5 24 -11z m-55 -150 c-34 -54 -54 -76 -60 -70
-13 13 3 49 49 113 21 28 40 45 49 42 10 -4 0 -27 -38 -85z m-750 -114 c-15
-16 -22 -11 -13 10 3 9 10 13 16 10 6 -4 5 -11 -3 -20z m-70 -130 c-11 -24
-37 -35 -37 -16 0 6 34 36 47 40 0 1 -4 -10 -10 -24z m173 6 c0 -26 -17 -36
-35 -21 -18 15 -8 40 16 40 12 0 19 -7 19 -19z m-50 -86 c0 -12 -61 -58 -67
-51 -2 1 6 22 18 45 17 35 23 40 35 31 8 -7 14 -18 14 -25z m50 -12 c0 -5 -4
-15 -10 -23 -11 -18 -25 -7 -17 15 6 15 27 21 27 8z m-240 -47 c0 -3 -4 -8
-10 -11 -5 -3 -10 -1 -10 4 0 6 5 11 10 11 6 0 10 -2 10 -4z m240 -62 c0 -15
-6 -24 -16 -24 -11 0 -14 5 -10 16 3 9 6 22 6 30 0 9 5 12 10 9 6 -3 10 -17
10 -31z m-81 -71 c22 -77 4 -184 -32 -191 -45 -9 -64 162 -22 208 27 30 43 25
54 -17z m71 10 c0 -13 -3 -13 -15 -3 -8 7 -12 16 -9 21 8 13 24 1 24 -18z m70
10 c1 -17 1 -17 14 0 26 34 36 19 36 -55 0 -93 -15 -150 -38 -146 -14 3 -18
19 -22 98 -3 52 -9 101 -13 108 -5 8 -3 12 7 12 9 0 16 -8 16 -17z m130 -169
c0 -8 -6 -11 -15 -8 -8 4 -15 9 -15 13 0 4 7 8 15 8 8 0 15 -6 15 -13z m10
-34 c0 -5 -2 -10 -4 -10 -3 0 -8 5 -11 10 -3 6 -1 10 4 10 6 0 11 -4 11 -10z
m258 -59 c12 -26 20 -59 18 -72 -3 -13 -5 -26 -5 -29 -1 -3 -52 -4 -113 -2
-76 2 -126 -1 -153 -10 l-40 -13 -32 64 c-39 77 -40 81 -10 81 15 0 28 -11 41
-35 18 -32 23 -35 70 -37 51 -2 75 -2 153 2 41 2 42 4 37 29 -11 48 -12 50
-46 44 -22 -3 -30 -1 -23 5 6 6 24 12 40 15 17 2 33 5 36 6 3 0 15 -21 27 -48z
m-438 29 c13 -7 23 -30 31 -73 10 -50 14 -57 19 -37 5 20 8 15 14 -27 4 -29 5
-57 1 -63 -3 -5 -1 -10 4 -10 6 0 11 -7 11 -15 0 -8 5 -15 10 -15 6 0 10 -4
10 -10 0 -5 -9 -10 -19 -10 -23 0 -64 -52 -52 -66 16 -19 32 -131 21 -158 -12
-34 -26 -33 -33 2 -3 15 -26 56 -51 89 -82 112 -116 205 -116 318 l0 61 43 11
c58 14 85 15 107 3z m486 -241 c21 -42 17 -55 -10 -30 -13 12 -36 26 -52 31
-28 8 -28 9 -6 15 12 4 22 14 22 22 0 21 26 -1 46 -38z m-866 -49 c-7 -53 -8
-53 -9 -13 -1 38 7 78 14 71 2 -2 0 -28 -5 -58z m497 38 c-3 -8 -6 -5 -6 6 -1
11 2 17 5 13 3 -3 4 -12 1 -19z m284 -75 c32 -19 41 -50 12 -38 -10 4 -30 12
-45 17 -36 13 -35 29 0 37 2 1 17 -7 33 -16z m-497 -50 c3 -16 8 -59 11 -98
l6 -70 -16 40 c-8 22 -15 57 -15 78 0 30 -4 37 -20 37 -25 0 -26 16 -2 29 26
15 30 14 36 -16z m566 -19 c0 -8 -10 -14 -25 -14 -38 0 -34 24 5 27 11 1 20
-4 20 -13z m-643 -66 c-3 -8 -6 -5 -6 6 -1 11 2 17 5 13 3 -3 4 -12 1 -19z
m413 -37 c0 -12 -29 -41 -41 -41 -5 0 -9 7 -9 16 0 8 4 13 9 10 5 -3 14 1 21
9 14 17 20 19 20 6z m-63 -27 c2 -6 -6 -14 -17 -17 -17 -4 -20 -10 -15 -28 5
-15 4 -19 -5 -14 -7 4 -16 1 -22 -6 -7 -10 -8 -8 -3 8 5 18 1 23 -22 29 -69
15 -69 21 4 34 58 10 75 8 80 -6z m-272 -24 c3 -5 1 -10 -4 -10 -6 0 -11 5
-11 10 0 6 2 10 4 10 3 0 8 -4 11 -10z m239 -76 c10 -26 7 -44 -7 -44 -8 0
-14 12 -14 30 0 32 11 40 21 14z"/>
<path d="M1513 2928 c1 -7 -3 -12 -10 -11 -6 1 -14 -4 -17 -12 -3 -8 -1 -15 4
-15 14 0 41 31 35 41 -9 13 -15 11 -12 -3z"/>
<path d="M1451 2413 c0 -17 6 -39 15 -47 26 -26 37 -18 16 12 -11 15 -22 36
-25 47 -3 14 -5 10 -6 -12z"/>
<path d="M1130 2200 c0 -5 5 -10 10 -10 6 0 10 5 10 10 0 6 -4 10 -10 10 -5 0
-10 -4 -10 -10z"/>
<path d="M1751 2115 c-17 -20 -31 -42 -31 -50 0 -7 -3 -20 -6 -29 -3 -9 -1
-16 5 -16 6 0 11 9 11 21 0 32 30 75 64 92 26 13 28 16 10 16 -13 1 -35 -14
-53 -34z"/>
<path d="M1750 1850 c0 -6 7 -10 15 -10 8 0 15 2 15 4 0 2 -7 6 -15 10 -8 3
-15 1 -15 -4z"/>
<path d="M1129 1013 c-12 -32 -6 -110 10 -126 14 -14 26 -1 35 37 5 22 4 27
-7 23 -19 -7 -41 8 -32 22 3 7 15 9 26 6 11 -4 19 -2 19 4 0 6 -7 11 -15 11
-8 0 -15 5 -15 11 0 5 5 7 10 4 6 -3 10 3 10 14 0 31 -29 26 -41 -6z"/>
<path d="M1241 642 c-7 -13 -8 -22 -2 -22 5 0 16 -3 25 -6 20 -8 21 6 2 31
-13 18 -14 18 -25 -3z"/>
<path d="M3910 4870 c19 -11 42 -19 50 -19 8 0 -3 9 -25 19 -53 24 -70 24 -25
0z"/>
<path d="M3703 4845 c0 -22 2 -30 4 -17 2 12 2 30 0 40 -3 9 -5 -1 -4 -23z"/>
<path d="M4028 4833 c7 -3 16 -2 19 1 4 3 -2 6 -13 5 -11 0 -14 -3 -6 -6z"/>
<path d="M4336 4787 c3 -10 9 -15 12 -12 3 3 0 11 -7 18 -10 9 -11 8 -5 -6z"/>
<path d="M3537 4784 c-13 -13 -7 -24 14 -24 11 0 19 5 17 12 -5 14 -22 21 -31
12z"/>
<path d="M1806 4735 c-4 -14 -11 -25 -17 -25 -6 0 -7 -5 -4 -10 4 -6 11 -7 17
-4 6 4 8 3 5 -3 -8 -13 21 -53 39 -53 17 0 19 27 2 33 -8 2 -13 20 -13 42 0
44 -20 58 -29 20z"/>
<path d="M4325 4730 c11 -52 25 -72 18 -25 -3 22 -10 45 -15 50 -7 7 -8 -2 -3
-25z"/>
<path d="M4296 4713 c4 -16 11 -32 17 -38 6 -7 8 -2 3 15 -3 14 -6 31 -6 38 0
6 -5 12 -10 12 -6 0 -8 -11 -4 -27z"/>
<path d="M1905 4680 c-32 -15 -35 -18 -15 -17 14 1 27 5 30 8 3 3 19 11 35 17
21 7 24 10 10 10 -11 0 -38 -8 -60 -18z"/>
<path d="M1351 4573 c-1 -12 4 -25 9 -28 12 -7 12 2 0 30 -8 19 -9 19 -9 -2z"/>
<path d="M1948 4568 c-22 -19 -132 -167 -152 -207 -22 -42 -12 -51 62 -51 43
0 57 5 75 23 29 32 120 145 130 163 18 31 -12 11 -73 -51 -64 -65 -94 -78
-128 -56 -18 11 89 161 126 178 l27 12 -26 1 c-14 0 -32 -6 -41 -12z"/>
<path d="M2160 4556 c0 -5 7 -18 17 -28 9 -10 13 -21 9 -25 -4 -4 -16 3 -26
17 -13 16 -20 20 -19 10 0 -8 6 -24 14 -34 22 -29 18 -42 -7 -20 l-21 19 17
-27 c17 -25 17 -30 2 -59 -19 -37 -19 -39 -7 -39 5 0 13 10 17 23 4 12 22 53
40 92 34 71 36 92 7 62 -15 -15 -17 -15 -29 1 -8 9 -14 13 -14 8z"/>
<path d="M4329 4503 c-13 -16 -12 -17 4 -4 9 7 17 15 17 17 0 8 -8 3 -21 -13z"/>
<path d="M4980 4481 c0 -5 5 -13 10 -16 6 -3 10 -2 10 4 0 5 -4 13 -10 16 -5
3 -10 2 -10 -4z"/>
<path d="M1640 4449 c7 -11 14 -18 17 -15 8 8 -5 36 -17 36 -7 0 -7 -6 0 -21z"/>
<path d="M2199 4351 c6 -10 12 -44 13 -75 2 -45 7 -59 23 -70 12 -8 47 -37 78
-66 l57 -52 11 29 c6 15 17 44 24 64 l13 36 -66 51 c-68 50 -147 102 -157 102
-3 0 -1 -9 4 -19z m70 -116 l0 -20 -8 20 c-4 11 -11 34 -14 50 l-6 30 14 -30
c8 -16 14 -39 14 -50z m64 -32 c-7 -2 -19 -2 -25 0 -7 3 -2 5 12 5 14 0 19 -2
13 -5z"/>
<path d="M3610 4360 c0 -5 7 -10 16 -10 8 0 12 5 9 10 -3 6 -10 10 -16 10 -5
0 -9 -4 -9 -10z"/>
<path d="M2162 4330 c-7 -11 -8 -20 -3 -20 9 0 24 30 18 36 -1 2 -8 -6 -15
-16z"/>
<path d="M4721 4249 c-11 -31 -5 -37 16 -16 13 13 14 20 5 29 -9 9 -14 6 -21
-13z"/>
<path d="M4664 4240 c1 -8 10 -16 21 -17 15 -1 15 0 3 3 -9 3 -19 11 -21 17
-2 7 -3 5 -3 -3z"/>
<path d="M4750 4221 c0 -24 25 -45 45 -37 12 4 10 10 -11 31 -30 30 -34 31
-34 6z"/>
<path d="M4640 4216 c0 -2 7 -7 16 -10 8 -3 12 -2 9 4 -6 10 -25 14 -25 6z"/>
<path d="M3395 4155 c-36 -18 -42 -22 -20 -18 44 9 72 20 80 32 9 16 -4 13
-60 -14z"/>
<path d="M3598 4173 c17 -2 47 -2 65 0 17 2 3 4 -33 4 -36 0 -50 -2 -32 -4z"/>
<path d="M998 4062 c-10 -2 -18 -10 -18 -18 0 -8 -4 -14 -10 -14 -5 0 -10 -4
-10 -9 0 -5 -5 -22 -11 -38 -7 -15 -11 -41 -10 -58 2 -16 0 -27 -4 -23 -4 4
-17 -5 -30 -20 -20 -23 -21 -28 -7 -41 13 -13 12 -16 -12 -24 -27 -9 -36 -27
-13 -27 6 0 -1 -11 -18 -24 -16 -13 -27 -27 -24 -31 8 -7 72 8 67 16 -2 3 4
12 12 21 22 23 43 55 41 62 -1 4 6 14 14 23 9 9 14 24 12 35 -3 10 -1 16 3 13
9 -6 40 50 40 72 0 7 5 13 11 13 6 0 8 9 4 21 -5 14 -3 19 3 15 6 -4 16 2 21
13 8 14 7 20 -4 25 -8 3 -17 0 -21 -6 -4 -6 -9 -6 -13 -1 -3 5 -14 7 -23 5z
m-43 -182 c3 -5 1 -10 -4 -10 -6 0 -11 5 -11 10 0 6 2 10 4 10 3 0 8 -4 11
-10z"/>
<path d="M4650 3982 c0 -5 7 -13 16 -16 10 -4 14 -1 12 6 -5 15 -28 23 -28 10z"/>
<path d="M4833 3913 c-15 -5 -17 -23 -4 -23 5 0 11 7 15 15 3 8 4 15 3 14 -1
0 -8 -3 -14 -6z"/>
<path d="M4760 3809 c-6 -11 -9 -25 -7 -32 2 -7 11 3 21 21 9 17 12 32 7 32
-6 0 -15 -9 -21 -21z"/>
<path d="M816 3674 c-5 -14 -4 -15 9 -4 17 14 19 20 6 20 -5 0 -12 -7 -15 -16z"/>
<path d="M806 3624 c-9 -8 -16 -21 -15 -27 0 -8 2 -8 6 1 2 6 9 9 14 6 11 -6
39 13 39 27 0 15 -27 10 -44 -7z"/>
<path d="M2466 3613 c-17 -4 -15 -7 11 -18 35 -15 53 -59 53 -127 0 -27 4 -38
15 -38 21 0 20 100 0 140 -13 25 -46 53 -57 49 -2 -1 -12 -4 -22 -6z"/>
<path d="M2416 3580 c-16 -5 -47 -23 -68 -41 -31 -24 -46 -30 -68 -26 -18 4
-32 1 -40 -8 -19 -23 80 -7 106 17 12 10 37 21 57 25 30 4 37 2 51 -20 18 -27
14 -68 -10 -88 -12 -10 -12 -5 0 29 20 55 4 78 -46 68 -39 -7 -69 -33 -51 -44
16 -11 33 -49 33 -76 l0 -25 43 19 c23 11 52 20 65 20 20 0 22 5 22 60 0 47
-4 64 -20 80 -22 22 -30 23 -74 10z"/>
<path d="M780 3564 l-25 -14 29 2 c16 2 31 9 34 16 5 16 -7 15 -38 -4z"/>
<path d="M760 3530 c-8 -5 -11 -12 -8 -15 4 -4 17 0 30 9 24 17 5 23 -22 6z"/>
<path d="M749 3493 c-10 -2 -19 -13 -22 -24 -6 -22 8 -26 17 -4 3 8 12 15 20
15 8 0 18 5 21 10 6 10 -6 11 -36 3z"/>
<path d="M696 3481 c-4 -7 -5 -15 -2 -18 9 -9 19 4 14 18 -4 11 -6 11 -12 0z"/>
<path d="M2277 3458 c-10 -5 -15 -13 -12 -18 7 -11 -34 -40 -56 -40 -35 0 -81
-54 -130 -153 -49 -96 -55 -127 -26 -127 31 0 54 35 60 91 7 74 44 150 80 168
19 8 32 10 39 3 6 -6 0 -12 -16 -16 -45 -11 -89 -124 -62 -161 13 -18 11 -22
-22 -52 -20 -18 -43 -35 -52 -38 -9 -3 -22 -15 -27 -28 -10 -20 -6 -24 44 -49
l53 -26 30 57 c16 32 40 65 54 74 43 29 76 81 81 130 2 25 7 57 11 72 5 20 1
32 -16 51 -13 13 -20 27 -17 31 4 3 16 -4 27 -17 17 -19 20 -20 20 -6 0 43
-33 71 -63 54z m-5 -90 c-5 -33 -7 -33 -15 3 -5 17 -2 26 6 26 9 0 12 -10 9
-29z m-42 -53 c-7 -8 -18 -15 -26 -15 -7 0 -18 -8 -23 -17 -7 -12 -11 -13 -11
-5 0 20 62 80 68 64 2 -7 -2 -19 -8 -27z m-17 -152 c3 -5 -1 -13 -8 -20 -14
-13 -41 0 -31 16 8 13 33 15 39 4z"/>
<path d="M3496 3461 c-4 -7 -5 -15 -2 -18 9 -9 19 4 14 18 -4 11 -6 11 -12 0z"/>
<path d="M747 3446 c-4 -9 -12 -13 -20 -10 -8 3 -20 -2 -27 -11 -10 -12 -10
-15 3 -15 19 0 64 36 56 45 -4 3 -9 -1 -12 -9z"/>
<path d="M2512 3400 c0 -14 2 -19 5 -12 2 6 2 18 0 25 -3 6 -5 1 -5 -13z"/>
<path d="M3559 3398 c-10 -19 -8 -25 17 -45 48 -38 56 -28 27 32 -19 41 -28
43 -44 13z"/>
<path d="M720 3400 c-8 -5 -10 -10 -5 -10 6 0 17 5 25 10 8 5 11 10 5 10 -5 0
-17 -5 -25 -10z"/>
<path d="M1010 3334 c-20 -52 -4 -59 37 -18 21 21 23 28 12 35 -24 15 -39 10
-49 -17z"/>
<path d="M2522 3280 c0 -14 2 -19 5 -12 2 6 2 18 0 25 -3 6 -5 1 -5 -13z"/>
<path d="M1806 3208 c-3 -35 -9 -76 -12 -93 -5 -21 -3 -27 4 -20 17 16 38 153
26 165 -8 8 -13 -8 -18 -52z"/>
<path d="M5276 3225 c16 -22 29 -42 31 -44 2 -2 3 0 3 5 0 5 -14 25 -31 44
l-30 35 27 -40z"/>
<path d="M1480 3226 c0 -2 8 -10 18 -17 15 -13 16 -12 3 4 -13 16 -21 21 -21
13z"/>
<path d="M1567 3130 c25 -27 51 -50 56 -50 6 0 -12 22 -39 50 -64 65 -77 65
-17 0z"/>
<path d="M1740 3121 c0 -5 5 -13 10 -16 6 -3 10 -2 10 4 0 5 -4 13 -10 16 -5
3 -10 2 -10 -4z"/>
<path d="M1959 3118 c-1 -7 -1 -19 0 -25 1 -7 -4 -13 -11 -13 -8 0 -9 -3 -2
-10 7 -7 19 -6 36 3 24 12 24 14 10 25 -16 10 -16 11 1 11 10 1 15 6 12 11 -9
14 -45 12 -46 -2z"/>
<path d="M1710 3108 c0 -9 5 -20 11 -23 17 -11 18 -2 3 19 -12 17 -14 17 -14
4z"/>
<path d="M837 3033 c-4 -3 -7 -11 -7 -17 0 -6 5 -5 12 2 6 6 9 14 7 17 -3 3
-9 2 -12 -2z"/>
<path d="M2810 3011 c0 -6 5 -13 10 -16 6 -3 10 1 10 9 0 9 -4 16 -10 16 -5 0
-10 -4 -10 -9z"/>
<path d="M845 2980 c3 -5 8 -10 11 -10 2 0 4 5 4 10 0 6 -5 10 -11 10 -5 0 -7
-4 -4 -10z"/>
<path d="M4534 2905 c38 -138 74 -300 67 -303 -11 -4 0 -62 11 -62 5 0 6 10 3
21 -5 15 -4 19 5 14 6 -4 9 -17 6 -29 -3 -13 1 -31 10 -42 15 -19 15 -19 8 1
-3 11 -6 29 -6 39 1 11 -5 44 -12 75 -7 31 -11 72 -9 91 3 24 -3 51 -21 87
-14 28 -26 55 -26 59 0 5 -10 23 -21 39 -14 20 -19 23 -15 10z"/>
<path d="M2125 2887 c-4 -10 -5 -21 -1 -24 10 -10 18 4 13 24 -4 17 -4 17 -12
0z"/>
<path d="M2497 2807 c-32 -71 -31 -71 -20 -74 8 -3 56 127 50 133 -2 2 -15
-25 -30 -59z"/>
<path d="M981 2714 c0 -11 3 -14 6 -6 3 7 2 16 -1 19 -3 4 -6 -2 -5 -13z"/>
<path d="M2586 2704 c-4 -9 -4 -19 -1 -22 2 -3 7 3 11 12 4 9 4 19 1 22 -2 3
-7 -3 -11 -12z"/>
<path d="M4660 2710 c0 -5 5 -10 11 -10 5 0 7 5 4 10 -3 6 -8 10 -11 10 -2 0
-4 -4 -4 -10z"/>
<path d="M4143 2663 c-22 -11 -33 -23 -32 -37 1 -15 3 -16 6 -5 4 16 50 44 66
40 5 -1 6 3 2 9 -3 5 -7 10 -8 9 -1 0 -17 -8 -34 -16z"/>
<path d="M2530 2645 c-6 -8 -10 -19 -8 -24 1 -6 8 1 15 14 13 28 11 31 -7 10z"/>
<path d="M2511 2584 c0 -11 3 -14 6 -6 3 7 2 16 -1 19 -3 4 -6 -2 -5 -13z"/>
<path d="M4118 2582 c-4 -14 1 -30 13 -45 21 -25 23 -16 5 33 -11 31 -13 32
-18 12z"/>
<path d="M2502 2530 c0 -19 2 -27 5 -17 2 9 2 25 0 35 -3 9 -5 1 -5 -18z"/>
<path d="M2460 2535 c-11 -13 -10 -14 4 -9 9 3 16 10 16 15 0 13 -6 11 -20 -6z"/>
<path d="M2336 2471 c-7 -25 -12 -49 -9 -53 8 -14 32 -8 37 10 3 9 16 28 29
43 l24 25 -34 11 -33 10 -14 -46z"/>
<path d="M5745 2480 c3 -5 8 -10 11 -10 2 0 4 5 4 10 0 6 -5 10 -11 10 -5 0
-7 -4 -4 -10z"/>
<path d="M927 2457 c-3 -8 -2 -29 3 -48 7 -28 8 -30 9 -9 1 14 4 35 7 48 7 23
-10 31 -19 9z"/>
<path d="M2530 2404 c0 -24 2 -44 5 -44 4 0 35 66 35 75 0 1 -9 5 -20 8 -18 5
-20 0 -20 -39z"/>
<path d="M4185 2434 c-20 -16 -20 -16 1 -10 15 5 24 0 34 -19 17 -31 26 -32
25 -2 -1 46 -24 59 -60 31z"/>
<path d="M4571 2434 c0 -11 3 -14 6 -6 3 7 2 16 -1 19 -3 4 -6 -2 -5 -13z"/>
<path d="M890 2355 c-16 -9 -19 -14 -9 -15 8 0 24 7 35 15 24 18 7 19 -26 0z"/>
<path d="M874 2316 c-21 -16 -15 -20 39 -29 22 -3 27 -1 23 10 -3 8 -6 19 -6
24 0 14 -34 11 -56 -5z"/>
<path d="M2100 2307 c0 -5 5 -17 10 -28 8 -14 7 -28 -3 -52 -16 -36 -20 -77
-8 -77 5 0 21 19 36 41 15 23 22 38 16 35 -7 -5 -11 2 -11 17 0 22 -39 84 -40
64z"/>
<path d="M5722 2268 c3 -7 13 -15 22 -16 12 -3 17 1 14 10 -3 7 -13 15 -22 16
-12 3 -17 -1 -14 -10z"/>
<path d="M4465 2099 c-6 -24 -2 -36 14 -52 25 -25 30 -21 38 28 4 26 2 40 -8
46 -25 16 -37 10 -44 -22z"/>
<path d="M2066 2103 c-6 -14 -5 -15 5 -6 7 7 10 15 7 18 -3 3 -9 -2 -12 -12z"/>
<path d="M5900 2085 c0 -8 5 -15 10 -15 6 0 10 7 10 15 0 8 -4 15 -10 15 -5 0
-10 -7 -10 -15z"/>
<path d="M5478 2083 c7 -3 16 -2 19 1 4 3 -2 6 -13 5 -11 0 -14 -3 -6 -6z"/>
<path d="M2416 2019 c-9 -23 -15 -43 -13 -46 5 -5 47 64 47 78 0 23 -19 5 -34
-32z"/>
<path d="M3750 1811 c0 -5 9 -11 21 -14 16 -4 18 -3 8 9 -13 16 -29 19 -29 5z"/>
<path d="M3744 1774 c3 -9 6 -25 6 -37 0 -16 3 -18 11 -10 14 14 4 63 -12 63
-6 0 -8 -7 -5 -16z"/>
<path d="M4385 1780 c-3 -6 1 -7 9 -4 18 7 21 14 7 14 -6 0 -13 -4 -16 -10z"/>
<path d="M1021 1670 c-11 -53 -15 -157 -5 -148 3 3 6 35 8 71 1 40 8 74 19 90
21 32 21 37 3 37 -9 0 -18 -19 -25 -50z"/>
<path d="M3578 1710 c-36 -22 -32 -118 7 -150 30 -25 86 -17 107 14 14 21 8
91 -10 114 -20 26 -78 38 -104 22z m83 -27 c11 -12 24 -70 13 -60 -5 5 -10 13
-10 18 -1 5 -2 14 -3 19 0 6 -9 10 -18 10 -12 0 -18 -8 -19 -25 -1 -18 3 -25
16 -25 25 0 21 -44 -5 -48 -14 -2 -26 7 -38 28 -18 29 -16 70 3 70 5 0 7 7 3
15 -4 13 0 15 22 11 16 -3 32 -9 36 -13z"/>
<path d="M3765 1669 c4 -13 19 -46 32 -73 l25 -50 14 25 c17 31 18 44 0 30
-16 -13 -26 -3 -46 47 -15 39 -36 56 -25 21z"/>
<path d="M1052 1620 c-7 -34 -11 -64 -9 -67 7 -7 30 102 25 117 -2 6 -9 -16
-16 -50z"/>
<path d="M4424 1475 c-17 -13 -17 -14 -2 -15 9 0 20 5 23 11 11 17 0 20 -21 4z"/>
<path d="M4430 1400 c-12 -8 -11 -10 8 -10 12 0 22 5 22 10 0 13 -11 13 -30 0z"/>
<path d="M1640 1329 c0 -40 11 -53 52 -63 22 -5 29 -1 41 24 15 29 15 30 -8
30 -13 0 -31 3 -41 7 -12 4 -15 3 -10 -5 4 -7 16 -12 27 -12 11 0 19 -7 19
-16 0 -11 -5 -14 -16 -10 -9 3 -22 6 -30 6 -8 0 -14 10 -14 23 0 12 -5 29 -10
37 -7 11 -10 6 -10 -21z"/>
<path d="M4576 1108 c4 -13 17 -43 29 -68 12 -25 27 -56 33 -70 l11 -25 0 26
c1 15 -10 47 -24 70 -14 24 -25 54 -25 67 0 13 -6 22 -16 22 -11 0 -14 -6 -8
-22z"/>
<path d="M4610 945 c7 -8 16 -15 21 -15 5 0 6 7 3 15 -4 8 -13 15 -21 15 -13
0 -13 -3 -3 -15z"/>
<path d="M3430 851 c0 -6 5 -13 10 -16 6 -3 10 1 10 9 0 9 -4 16 -10 16 -5 0
-10 -4 -10 -9z"/>
<path d="M780 808 c-25 -42 -34 -104 -27 -188 6 -68 37 -150 58 -150 6 0 9 3
7 8 -34 65 -42 96 -46 170 -5 102 17 177 50 169 16 -4 17 -3 7 9 -17 21 -27
17 -49 -18z"/>
<path d="M5070 620 c-13 -8 -13 -10 2 -10 9 0 20 5 23 10 8 13 -5 13 -25 0z"/>
<path d="M2038 285 c-2 -3 -75 -14 -161 -26 -86 -12 -157 -26 -157 -32 0 -5
14 -7 33 -4 99 18 280 38 292 33 9 -3 15 0 15 9 0 15 -14 28 -22 20z"/>
</g>
</svg>
