<?xml version="1.0" standalone="no"?>
<!DOCTYPE svg PUBLIC "-//W3C//DTD SVG 20010904//EN"
 "http://www.w3.org/TR/2001/REC-SVG-20010904/DTD/svg10.dtd">
<svg version="1.0" xmlns="http://www.w3.org/2000/svg"
 width="450.000000pt" height="450.000000pt" viewBox="0 0 450.000000 450.000000"
 preserveAspectRatio="xMidYMid meet">

<g transform="translate(0.000000,450.000000) scale(0.100000,-0.100000)"
fill="#000000" stroke="none">
<path d="M2283 4023 c-12 -28 -27 -54 -33 -58 -5 -3 -10 -16 -10 -27 0 -21 0
-21 24 1 31 29 48 71 44 107 -3 25 -5 23 -25 -23z"/>
<path d="M1432 4024 c-28 -19 -29 -65 -2 -89 18 -16 27 -17 60 -8 31 8 42 7
51 -3 13 -16 85 -19 94 -4 4 6 12 4 21 -5 9 -8 33 -15 54 -15 50 0 68 26 50
71 -14 34 -50 47 -89 32 -20 -7 -32 -5 -52 10 -23 16 -29 17 -59 5 -30 -13
-36 -12 -52 4 -22 22 -47 23 -76 2z"/>
<path d="M2341 3992 c-1 -7 -5 -10 -11 -7 -5 3 -10 -3 -10 -15 0 -12 -4 -19
-9 -16 -5 3 -8 -2 -7 -11 0 -11 -14 -25 -36 -38 -36 -19 -49 -35 -29 -35 36 0
119 94 108 122 -4 10 -6 10 -6 0z"/>
<path d="M2381 3942 c-1 -7 -6 -10 -11 -7 -6 4 -9 3 -8 -2 5 -16 -23 -53 -52
-68 -17 -9 -40 -12 -58 -9 -24 5 -32 2 -41 -15 -10 -17 -7 -25 20 -51 18 -16
43 -30 56 -30 36 0 96 34 131 75 35 39 36 43 23 64 -6 10 -15 4 -36 -24 -48
-61 -112 -82 -177 -55 -20 7 -17 9 18 9 62 1 156 76 141 112 -4 11 -6 11 -6 1z"/>
<path d="M2907 3913 c-3 -5 2 -41 10 -81 14 -64 14 -77 1 -124 -19 -69 -11
-102 25 -106 16 -2 27 -9 27 -19 0 -11 -8 -14 -29 -11 -17 2 -28 1 -25 -4 3
-4 16 -8 29 -8 24 0 39 21 63 95 13 37 14 15 3 -42 -9 -44 -6 -45 45 -21 16 8
29 4 59 -16 21 -15 50 -29 64 -32 14 -3 37 -10 51 -15 21 -8 19 -8 -13 -5 -25
3 -35 1 -31 -6 12 -19 -57 0 -98 27 -43 28 -49 30 -45 13 3 -15 87 -88 102
-88 5 0 21 -9 35 -20 21 -16 22 -20 8 -25 -9 -4 -46 9 -89 32 -41 21 -78 40
-84 42 -5 2 22 -22 60 -54 78 -64 78 -64 66 -84 -7 -11 -24 -3 -80 37 -39 29
-73 52 -75 52 -2 0 16 -21 41 -47 89 -96 90 -151 0 -61 -26 26 -53 48 -59 48
-15 0 -1 -46 29 -91 22 -34 24 -43 14 -65 -6 -14 -11 -37 -11 -52 1 -27 1 -27
38 15 20 22 47 46 60 52 12 7 22 17 22 24 0 7 16 25 35 40 20 16 34 34 33 42
-2 7 10 25 25 39 16 15 27 33 24 40 -3 7 7 29 22 47 31 39 48 74 29 63 -7 -4
-2 8 10 28 27 43 30 67 6 47 -10 -8 -8 -1 6 24 19 32 21 47 17 137 -2 55 -6
102 -8 105 -3 2 -32 -2 -64 -10 -89 -21 -135 -20 -135 4 0 16 -9 20 -48 23
l-48 3 14 -60 c13 -53 13 -65 -2 -110 -8 -27 -14 -40 -12 -28 2 12 -7 48 -20
80 -19 46 -24 52 -23 28 3 -38 -10 -115 -20 -115 -3 0 -5 18 -3 41 3 22 -1 46
-7 52 -6 6 -11 20 -11 32 0 29 -26 99 -33 88z m383 -248 c-7 -8 -22 -15 -34
-15 -17 1 -16 3 9 15 39 18 40 18 25 0z m-344 -42 c-11 -11 -17 4 -9 23 7 18
8 18 11 1 2 -10 1 -21 -2 -24z m293 -20 c27 3 38 2 30 -4 -8 -5 -36 -9 -64 -9
-37 0 -46 -3 -35 -10 19 -13 -35 -2 -63 12 -18 9 -18 10 -1 23 15 10 24 10 53
-2 22 -9 52 -13 80 -10z"/>
<path d="M1432 3894 c-27 -18 -29 -65 -5 -89 12 -13 28 -16 62 -12 29 3 52 0
66 -9 16 -10 30 -11 54 -4 26 7 39 6 58 -7 37 -25 97 -8 101 29 7 60 -34 93
-91 73 -20 -7 -37 -9 -37 -6 0 4 -11 14 -24 21 -20 10 -31 10 -56 0 -26 -11
-33 -10 -49 4 -22 20 -50 20 -79 0z"/>
<path d="M2517 3892 c-21 -23 -21 -41 -1 -70 13 -20 24 -23 63 -21 26 1 54 -1
62 -6 7 -5 37 -11 64 -12 28 -1 72 -4 99 -5 63 -4 78 15 54 66 -20 41 -49 52
-89 36 -25 -11 -32 -10 -48 4 -21 19 -62 21 -79 4 -9 -9 -16 -8 -30 5 -25 22
-75 22 -95 -1z"/>
<path d="M1878 3850 c-29 -95 -32 -113 -18 -108 20 6 41 77 38 123 l-3 40 -17
-55z"/>
<path d="M2440 3792 c0 -22 -134 -72 -142 -52 -2 4 -16 10 -33 14 l-30 8 25
-27 c21 -23 31 -26 67 -22 45 5 133 54 133 75 0 6 -4 12 -10 12 -5 0 -10 -4
-10 -8z"/>
<path d="M2550 3783 c-85 -31 -55 -124 40 -123 91 1 194 -16 185 -30 -3 -6 1
-7 11 -3 9 3 30 6 48 7 29 1 31 4 34 40 5 64 -46 104 -99 76 -14 -8 -25 -7
-41 5 -25 17 -65 20 -87 6 -10 -7 -23 -3 -39 10 -26 20 -28 21 -52 12z"/>
<path d="M2430 3700 c-43 -22 -116 -38 -106 -22 7 11 -31 28 -41 18 -4 -3 4
-17 17 -31 17 -18 30 -23 44 -19 44 13 136 57 136 65 0 13 -10 11 -50 -11z"/>
<path d="M2412 3632 c-53 -21 -65 -23 -72 -12 -11 18 -25 6 -17 -13 10 -27 55
-29 118 -6 41 15 59 27 57 37 -5 23 -17 22 -86 -6z"/>
<path d="M2818 3613 c12 -2 32 -2 45 0 12 2 2 4 -23 4 -25 0 -35 -2 -22 -4z"/>
<path d="M2535 3581 c-40 -7 -40 -7 17 -12 44 -3 54 -1 46 9 -6 6 -13 11 -17
11 -3 -1 -24 -5 -46 -8z"/>
<path d="M2745 3458 c-55 -28 -102 -53 -105 -57 -3 -3 -13 -7 -23 -9 -24 -4
-87 -42 -87 -52 0 -18 17 -18 46 1 16 10 35 19 42 19 7 0 19 6 27 13 7 8 63
36 124 63 101 45 127 66 90 71 -8 1 -59 -21 -114 -49z"/>
<path d="M2700 3347 c-68 -23 -84 -35 -70 -52 8 -9 8 -15 0 -20 -5 -3 -10 -23
-10 -43 l0 -37 23 32 c12 18 44 42 72 55 27 13 77 38 110 56 60 32 60 33 20
26 -22 -4 -41 -11 -43 -15 -5 -13 -23 -11 -36 4 -9 11 -21 10 -66 -6z"/>
<path d="M2778 3288 c-63 -29 -67 -34 -87 -86 -12 -30 -20 -56 -18 -58 1 -2
14 17 27 42 20 37 40 55 100 90 86 51 76 56 -22 12z"/>
<path d="M2828 3252 c-65 -25 -90 -52 -49 -52 29 0 34 -16 14 -46 -19 -29 -19
-29 -29 -89 -4 -22 -16 -47 -28 -57 -15 -12 -22 -32 -26 -75 -7 -84 -24 -72
-28 20 -2 64 -5 77 -16 68 -11 -9 -14 -1 -19 41 -6 52 -28 83 -52 75 -5 -2
-13 -32 -17 -66 -4 -35 -16 -101 -28 -148 -12 -47 -24 -129 -27 -183 -5 -90
-7 -96 -27 -95 -15 1 -22 9 -24 31 -6 51 -22 52 -22 1 0 -44 -12 -62 -23 -34
-4 9 -8 9 -15 -2 -10 -14 -52 -7 -52 8 0 5 -13 11 -30 15 -17 3 -30 12 -30 20
0 8 -6 17 -12 19 -7 3 12 6 43 6 42 1 58 5 63 17 3 9 5 93 5 187 -1 104 -4
150 -8 117 -3 -30 -10 -60 -14 -67 -4 -7 -12 -48 -17 -92 -14 -124 -15 -125
-118 -117 -48 4 -143 14 -212 22 -69 8 -137 16 -152 17 -16 2 -28 0 -28 -4 0
-9 15 -14 93 -29 31 -6 57 -16 57 -21 0 -11 2 -10 -99 -39 -89 -26 -83 -39 20
-44 41 -2 81 -6 89 -9 8 -3 44 -8 80 -11 131 -13 150 -17 150 -36 0 -10 -12
-25 -26 -35 -22 -14 -25 -22 -22 -58 3 -23 8 -50 12 -59 6 -14 0 -21 -28 -35
l-36 -17 0 -168 0 -169 -77 7 c-43 4 -84 13 -91 21 -18 18 -27 17 -12 -2 7 -8
10 -15 6 -15 -3 0 4 -10 15 -21 17 -17 19 -23 8 -30 -9 -5 -9 -9 -3 -9 7 0 15
-16 18 -35 4 -19 11 -35 16 -35 5 0 7 -7 4 -15 -4 -8 -1 -15 5 -15 6 0 10 -3
9 -7 -4 -16 24 -83 34 -83 7 0 19 -7 28 -15 24 -22 157 -37 189 -21 29 13 75
10 66 -5 -8 -12 7 -17 88 -28 l67 -10 99 47 c94 44 100 49 111 87 49 169 52
177 70 172 9 -2 24 -1 32 4 13 7 15 -5 16 -84 2 -161 18 -280 33 -255 6 8 9
-3 10 -32 0 -25 3 -39 6 -32 2 6 9 12 15 12 5 0 16 7 24 15 20 20 71 19 82 -1
12 -21 -10 -133 -28 -144 -8 -5 -27 -10 -42 -10 -25 0 -28 4 -34 50 -4 32 -11
50 -20 50 -8 0 -14 -8 -14 -18 0 -33 -30 -63 -58 -60 -24 3 -28 8 -33 53 -3
28 -7 46 -8 40 -1 -5 -6 -3 -11 5 -19 29 -12 -122 8 -160 21 -44 52 -53 52
-15 0 32 43 54 48 24 3 -16 11 -17 73 -12 48 4 69 3 69 -6 0 -16 27 -14 33 3
8 21 -4 126 -15 126 -5 0 -8 10 -6 23 2 12 9 21 16 19 6 -1 12 3 12 8 0 6 11
15 25 22 13 6 22 14 20 18 -2 4 11 13 30 20 19 8 35 17 35 21 0 17 34 39 61
39 25 0 29 4 29 28 0 15 7 106 15 202 9 96 13 189 10 205 -11 57 -57 175 -69
175 -6 0 -29 -10 -51 -23 -39 -22 -41 -26 -67 -126 -15 -57 -29 -106 -33 -109
-8 -8 -88 -3 -158 10 -46 9 -61 8 -67 -1 -16 -27 -18 18 -4 74 8 31 13 60 10
63 -14 13 -46 -35 -56 -84 -9 -42 -16 -54 -30 -54 -10 0 -22 9 -25 20 -8 26
11 87 30 94 8 3 12 12 9 21 -10 26 -37 1 -54 -51 -9 -26 -22 -50 -30 -52 -22
-8 -4 56 26 91 22 26 34 32 68 32 l41 0 3 65 3 65 67 2 c77 3 162 36 162 63 0
10 20 26 50 40 l50 23 135 -16 135 -17 59 29 c64 33 71 47 71 153 0 37 4 50
20 58 18 10 20 21 20 108 0 110 -8 174 -21 166 -5 -3 -10 -26 -10 -52 -2 -50
-15 85 -20 196 -1 37 -7 62 -13 61 -6 0 -31 -10 -56 -22 -42 -21 -45 -25 -48
-67 -3 -44 -4 -45 -17 -20 -13 22 -14 10 -15 -114 0 -77 -2 -137 -4 -135 -3 2
-6 59 -7 127 -2 67 -6 127 -9 133 -13 20 -33 -20 -27 -54 7 -46 -8 -69 -17
-26 -8 43 -24 27 -29 -31 l-4 -45 -1 53 c-1 28 -6 52 -12 52 -5 0 -9 -3 -9 -7
1 -5 1 -26 0 -48 l-2 -40 -14 30 -13 30 -3 -45 c-2 -45 -2 -45 -6 -7 -4 36
-16 45 -40 29 -6 -4 -28 -49 -48 -100 -40 -100 -56 -122 -85 -122 -35 0 -110
-43 -110 -62 0 -10 -4 -18 -10 -18 -5 0 -11 -26 -13 -57 l-3 -58 -2 63 c-2 59
-3 62 -22 50 -16 -10 -20 -24 -21 -68 -1 -51 -2 -53 -10 -23 -14 47 -29 51
-29 7 0 -21 -3 -34 -7 -30 -4 4 -8 15 -8 24 0 9 -8 18 -17 20 -15 3 -18 -4
-18 -44 0 -44 -1 -47 -16 -32 -15 14 -20 14 -65 -10 -47 -26 -49 -28 -50 -72
-1 -25 -1 -48 -1 -51 1 -3 -26 -19 -59 -34 -59 -29 -70 -39 -46 -48 7 -3 0 -9
-15 -16 -16 -6 -28 -16 -28 -22 0 -6 -7 -8 -17 -5 -23 9 -33 -11 -33 -70 0
-105 -13 -204 -26 -204 -8 0 -14 31 -18 108 -11 172 -13 175 -14 23 l-2 -143
-77 7 c-43 4 -85 13 -94 21 -8 8 -28 14 -42 14 l-27 0 0 154 0 154 33 6 c17 4
73 1 123 -5 l90 -12 85 44 84 44 3 47 c3 41 0 49 -22 64 -32 20 -37 81 -8 91
69 23 185 87 190 105 6 25 99 68 146 68 33 0 35 3 65 74 17 41 31 88 31 104 0
16 7 46 15 66 12 28 12 36 3 36 -21 0 -41 -17 -43 -37 -2 -17 -10 -54 -22 -96
-5 -18 -6 -18 -25 0 -16 14 -19 25 -14 56 4 21 14 49 22 63 9 13 12 24 6 24
-18 0 -35 -30 -47 -83 -11 -50 -12 -51 -24 -29 -7 13 -10 35 -6 49 6 27 62 83
82 83 8 0 3 18 -14 51 -22 42 -25 54 -15 70 15 24 11 24 -70 -9z m381 -305
c-8 -7 -28 -43 -44 -80 -28 -67 -76 -119 -90 -97 -3 5 6 12 20 16 13 3 23 10
20 14 -10 16 54 140 77 150 31 12 36 12 17 -3z m-754 -337 c-3 -5 -12 -10 -18
-10 -7 0 -6 4 3 10 19 12 23 12 15 0z m285 -161 c0 -5 -17 -9 -37 -8 l-38 1
30 13 c30 13 45 11 45 -6z m-6 -29 c14 5 26 6 25 2 0 -11 -239 -123 -239 -112
0 5 18 17 41 26 31 14 36 20 23 24 -16 6 -15 7 4 12 12 4 20 2 16 -3 -9 -15 8
-10 56 17 25 14 34 22 20 18 -14 -3 -29 -10 -34 -15 -13 -12 -26 -11 -26 0 0
5 14 12 30 16 17 4 30 11 30 17 0 7 5 6 14 -1 9 -8 21 -8 40 -1z m496 -105 c0
-2 -17 -13 -38 -24 -37 -19 -40 -25 -62 -105 -12 -47 -27 -86 -32 -86 -11 0
-3 47 21 120 16 48 23 58 62 77 51 25 49 25 49 18z m-429 -148 c-13 -13 -15 1
-4 30 7 17 8 17 11 -1 2 -10 -1 -23 -7 -29z m33 -82 c-4 -8 -8 -15 -10 -15 -2
0 -4 7 -4 15 0 8 4 15 10 15 5 0 7 -7 4 -15z m-692 -76 c9 -19 17 -40 18 -48
0 -22 -27 6 -34 35 -5 18 -16 26 -39 31 -31 7 -31 7 -7 14 36 10 43 6 62 -32z
m135 15 c-3 -3 -12 -4 -19 -1 -8 3 -5 6 6 6 11 1 17 -2 13 -5z"/>
<path d="M1580 3255 c-8 -9 -9 -15 -2 -15 6 0 14 5 17 10 4 6 11 8 16 5 5 -4
9 -1 9 4 0 16 -26 13 -40 -4z"/>
<path d="M1508 3201 c-5 -51 -11 -68 -30 -83 -32 -24 -38 -23 -38 11 0 32 -20
55 -20 24 0 -10 -7 -27 -15 -37 -15 -19 -15 -19 -15 1 0 37 -24 46 -50 18 -13
-13 -26 -22 -30 -20 -4 3 -18 -22 -30 -54 -22 -59 -54 -89 -83 -78 -15 6 -27
-36 -27 -96 0 -27 -1 -28 -22 -13 -12 9 -32 16 -45 16 -12 0 -25 5 -28 10 -16
27 -23 0 -27 -115 -3 -83 -9 -130 -18 -140 -12 -15 -11 -16 16 -13 17 2 28 8
26 16 -1 6 3 11 10 10 6 -2 14 6 16 17 5 24 20 35 48 35 20 0 40 24 36 43 -1
4 7 7 18 7 11 0 20 5 20 10 0 6 7 10 16 10 9 0 12 -5 8 -12 -4 -7 2 -5 13 5
22 19 33 22 33 6 0 -5 -6 -7 -12 -3 -10 6 -10 5 0 -8 9 -11 48 -19 138 -28
l126 -13 58 28 58 28 7 57 c8 67 -2 169 -19 189 -9 12 -6 13 22 8 19 -4 42 -2
52 3 13 7 21 7 25 0 14 -23 25 -7 24 38 -1 26 -3 39 -6 30 -2 -10 -13 -18 -22
-18 -27 0 -36 69 -16 117 9 20 12 40 7 45 -11 11 -36 -19 -39 -46 -3 -43 -28
-97 -43 -94 -22 5 -26 83 -5 115 9 13 14 28 10 31 -11 11 -33 -27 -40 -67 -3
-20 -10 -43 -14 -50 -11 -18 -31 -5 -31 20 0 18 -2 19 -15 5 -8 -8 -15 -32
-15 -55 0 -22 -4 -43 -10 -46 -6 -3 -10 34 -12 97 -3 100 -3 101 -10 39z"/>
<path d="M2672 3080 c0 -19 2 -27 5 -17 2 9 2 25 0 35 -3 9 -5 1 -5 -18z"/>
<path d="M1771 2884 c0 -11 3 -14 6 -6 3 7 2 16 -1 19 -3 4 -6 -2 -5 -13z"/>
<path d="M959 2835 c-5 -115 -4 -111 -34 -117 -13 -2 -20 3 -20 12 0 8 -6 22
-14 30 -12 12 -16 11 -35 -12 -11 -14 -26 -34 -32 -44 -10 -17 -13 -17 -30 -4
-18 14 -18 14 -4 -5 8 -11 15 -21 16 -23 1 -2 11 1 21 6 13 7 22 6 31 -4 11
-12 9 -16 -9 -23 -18 -6 -9 -9 41 -14 116 -13 112 -17 99 107 -9 93 -27 147
-30 91z m-9 -140 c7 -9 8 -15 2 -15 -5 0 -12 7 -16 15 -3 8 -4 15 -2 15 2 0 9
-7 16 -15z"/>
<path d="M748 2743 c7 -3 16 -2 19 1 4 3 -2 6 -13 5 -11 0 -14 -3 -6 -6z"/>
<path d="M1798 2713 c7 -3 16 -2 19 1 4 3 -2 6 -13 5 -11 0 -14 -3 -6 -6z"/>
<path d="M2620 2520 c0 -11 7 -20 15 -20 8 0 15 9 15 20 0 11 -7 20 -15 20 -8
0 -15 -9 -15 -20z"/>
<path d="M1888 2493 c7 -3 16 -2 19 1 4 3 -2 6 -13 5 -11 0 -14 -3 -6 -6z"/>
<path d="M1868 2440 c-30 -16 -39 -29 -52 -74 -9 -30 -16 -56 -16 -59 0 -3 -4
-18 -10 -32 -7 -17 -14 -24 -22 -19 -7 5 -29 9 -48 11 -19 1 -53 5 -75 8 -22
3 -65 9 -96 12 l-55 5 8 -78 c4 -44 10 -99 13 -124 2 -25 7 -83 10 -129 3 -55
10 -90 20 -101 8 -9 15 -24 15 -33 0 -10 8 -17 20 -17 17 0 24 9 22 30 -1 13
68 1 83 -14 9 -9 22 -13 28 -9 7 4 6 -1 -2 -10 -8 -10 -11 -20 -7 -24 3 -3 6
0 6 7 0 7 3 11 6 7 12 -12 52 43 47 64 -5 18 -3 20 16 14 30 -9 59 2 57 23 -1
13 9 18 41 20 50 4 46 -6 62 157 14 137 14 175 1 175 -5 0 -10 -7 -10 -16 0
-10 -7 -14 -22 -12 -29 4 -35 51 -14 102 8 20 11 36 6 36 -14 0 -29 -32 -36
-79 -4 -25 -10 -39 -16 -33 -14 14 7 91 33 118 16 17 29 22 46 18 12 -4 23 -4
23 0 0 11 -34 76 -39 76 -3 -1 -23 -10 -43 -20z"/>
<path d="M1805 2430 c-3 -6 1 -7 9 -4 18 7 21 14 7 14 -6 0 -13 -4 -16 -10z"/>
<path d="M2495 2385 c-38 -18 -62 -34 -52 -34 10 -1 39 10 65 24 104 54 94 62
-13 10z"/>
<path d="M2400 2330 c0 -5 5 -10 11 -10 5 0 7 5 4 10 -3 6 -8 10 -11 10 -2 0
-4 -4 -4 -10z"/>
<path d="M1865 1874 c-33 -36 -64 -140 -68 -230 -2 -34 -27 -37 -27 -4 0 10
-7 17 -17 16 -11 -1 -20 13 -29 48 -17 67 -30 76 -39 29 -11 -62 -20 -72 -57
-64 -30 6 -33 10 -36 48 -3 44 -28 67 -38 35 -21 -64 -25 -69 -50 -64 -27 5
-45 37 -46 85 -1 15 -5 27 -10 27 -4 0 -8 -30 -8 -67 0 -99 48 -184 65 -116
10 43 55 62 55 23 0 -23 6 -24 66 -9 39 10 47 9 64 -6 19 -17 21 -17 33 -1 10
14 15 15 29 4 15 -12 15 -20 -3 -113 -11 -55 -33 -170 -49 -255 -16 -85 -51
-272 -78 -415 -28 -143 -53 -280 -57 -304 l-7 -43 33 7 c44 10 51 14 45 30 -2
7 6 18 19 25 14 7 22 17 19 22 -3 5 3 12 15 15 25 6 20 -14 81 298 49 253 115
581 125 623 3 12 12 22 19 22 40 0 96 119 96 206 0 97 -23 138 -83 147 -33 5
-43 2 -62 -19z m-17 -116 l-13 -23 -3 27 c-4 33 21 68 26 38 2 -11 -3 -29 -10
-42z m-37 -446 c-22 -110 -43 -184 -70 -248 -25 -58 -50 -144 -71 -240 -45
-215 -64 -291 -68 -272 -2 9 11 92 27 185 17 92 31 182 31 198 0 17 16 68 36
115 40 94 64 168 71 218 3 17 9 32 13 32 4 0 5 12 2 26 -3 19 -1 25 7 20 7 -5
11 1 11 15 0 34 34 147 38 126 2 -10 -10 -88 -27 -175z"/>
<path d="M2801 1767 c-13 -17 -43 -88 -39 -93 10 -10 68 76 68 101 0 10 -18 5
-29 -8z"/>
<path d="M3182 1737 c-19 -20 -30 -55 -64 -200 -8 -34 -12 -38 -32 -33 -16 4
-23 1 -23 -9 0 -8 4 -15 9 -15 15 0 9 -50 -31 -259 -22 -113 -54 -280 -71
-371 -17 -91 -44 -234 -61 -317 -16 -84 -29 -160 -29 -169 0 -30 66 -10 110
33 l38 38 56 290 c31 160 73 372 93 471 36 171 40 183 70 208 45 37 68 105 68
196 0 91 -18 134 -58 138 -15 2 -25 8 -22 13 13 19 -33 8 -53 -14z m-20 -99
c-7 -7 -12 -8 -12 -2 0 14 12 26 19 19 2 -3 -1 -11 -7 -17z m-37 -500 c-18
-89 -40 -163 -66 -223 -28 -63 -49 -134 -70 -240 -50 -250 -61 -238 -17 18 15
92 30 140 64 213 37 81 62 167 101 347 3 15 8 26 10 23 3 -2 -7 -64 -22 -138z"/>
<path d="M1723 535 c-84 -40 -153 -79 -153 -85 0 -6 9 -21 20 -33 l20 -21 135
69 135 68 0 39 c0 21 -1 38 -2 37 -2 0 -72 -33 -155 -74z"/>
<path d="M1778 438 c-82 -39 -148 -77 -148 -85 0 -7 6 -13 13 -12 23 1 300
144 305 157 7 21 -19 12 -170 -60z"/>
<path d="M1350 469 c1 -46 12 -59 52 -59 36 0 38 2 28 20 -9 17 -7 22 12 30
20 7 17 9 -19 9 -23 1 -48 4 -57 7 -10 4 -16 1 -16 -7z"/>
<path d="M3043 387 c-84 -40 -155 -77 -157 -82 -2 -6 6 -22 18 -36 l23 -26
136 66 137 66 0 42 c0 24 -1 43 -2 42 -2 0 -72 -33 -155 -72z"/>
<path d="M970 420 c0 -22 6 -29 36 -38 42 -12 64 -7 64 17 0 10 -17 21 -50 32
l-50 16 0 -27z"/>
<path d="M1280 446 c0 -2 9 -6 20 -9 11 -3 20 -1 20 4 0 5 -9 9 -20 9 -11 0
-20 -2 -20 -4z"/>
<path d="M1103 423 c-13 -2 -23 -9 -23 -14 0 -11 25 -12 70 -3 22 5 28 9 18
15 -13 9 -27 9 -65 2z"/>
<path d="M1258 393 c7 -3 16 -2 19 1 4 3 -2 6 -13 5 -11 0 -14 -3 -6 -6z"/>
<path d="M940 371 c0 -13 15 -24 53 -37 51 -19 55 -19 172 -2 66 10 145 17
175 15 51 -2 56 -4 79 -39 22 -34 29 -38 66 -38 87 0 165 12 165 26 0 15 -4
16 -130 15 l-85 -1 -20 32 c-20 32 -23 33 -80 32 -33 -1 -82 -4 -110 -7 -172
-20 -178 -20 -228 2 -59 25 -57 25 -57 2z"/>
<path d="M1440 370 c1 -3 6 -13 13 -22 10 -12 31 -17 78 -19 75 -3 89 3 82 31
-5 18 -13 20 -89 18 -46 -2 -84 -5 -84 -8z"/>
<path d="M3095 288 c-82 -38 -152 -72 -153 -73 -2 -2 0 -10 5 -18 6 -11 38 1
163 62 137 68 188 102 148 100 -7 0 -80 -32 -163 -71z"/>
<path d="M2647 312 c7 -30 33 -49 76 -57 37 -7 38 -7 31 19 -5 20 -2 26 10 26
9 0 16 5 16 10 0 6 -15 10 -32 10 -18 0 -50 3 -70 6 -33 6 -36 5 -31 -14z"/>
<path d="M2632 280 c0 -14 2 -19 5 -12 2 6 2 18 0 25 -3 6 -5 1 -5 -13z"/>
<path d="M2300 267 c0 -18 8 -26 36 -35 28 -8 36 -8 41 4 3 7 9 11 14 8 5 -3
9 0 9 7 0 9 17 10 63 6 35 -4 56 -3 49 2 -10 6 -8 10 9 14 48 13 11 15 -69 5
-61 -8 -90 -8 -108 1 -36 16 -44 14 -44 -12z"/>
<path d="M2593 243 c9 -2 23 -2 30 0 6 3 -1 5 -18 5 -16 0 -22 -2 -12 -5z"/>
<path d="M2262 223 c2 -9 25 -26 52 -36 45 -19 55 -20 155 -8 58 7 107 16 109
20 3 8 124 -3 139 -12 6 -4 16 -20 23 -37 l12 -30 104 0 c97 0 104 1 104 20 0
19 -7 20 -105 20 l-104 0 -15 29 c-9 16 -23 31 -31 35 -21 8 -90 8 -97 0 -3
-3 -36 -7 -73 -8 -37 -2 -70 -9 -74 -15 -9 -14 -107 1 -150 23 -39 20 -53 20
-49 -1z m301 -20 c-7 -2 -21 -2 -30 0 -10 3 -4 5 12 5 17 0 24 -2 18 -5z"/>
<path d="M2493 233 c15 -2 39 -2 55 0 15 2 2 4 -28 4 -30 0 -43 -2 -27 -4z"/>
<path d="M2766 213 c3 -15 9 -32 13 -36 4 -4 39 -7 77 -5 67 3 69 4 72 31 l3
27 -70 -6 c-49 -5 -75 -3 -85 5 -13 11 -14 8 -10 -16z"/>
</g>
</svg>
