<?xml version="1.0" standalone="no"?>
<!DOCTYPE svg PUBLIC "-//W3C//DTD SVG 20010904//EN"
 "http://www.w3.org/TR/2001/REC-SVG-20010904/DTD/svg10.dtd">
<svg version="1.0" xmlns="http://www.w3.org/2000/svg"
 width="1422.000000pt" height="800.000000pt" viewBox="0 0 1422.000000 800.000000"
 preserveAspectRatio="xMidYMid meet">

<g transform="translate(0.000000,800.000000) scale(0.100000,-0.100000)"
fill="#000000" stroke="none">
<path d="M7675 6751 c-62 -11 -127 -28 -183 -48 -62 -23 -45 -26 20 -4 93 32
198 44 330 38 267 -12 491 -121 695 -337 69 -73 148 -189 149 -218 0 -15 4
-40 9 -57 7 -26 1 -22 -50 33 -59 65 -134 126 -192 155 -38 20 -47 21 -37 5 4
-8 3 -10 -2 -5 -5 5 -9 14 -9 20 0 15 -139 71 -247 99 -71 19 -111 22 -273 23
-188 0 -335 -16 -335 -38 0 -5 15 -7 33 -4 198 33 309 41 415 29 60 -7 143
-21 183 -31 77 -20 185 -65 139 -57 -14 2 -32 6 -41 10 -10 4 -16 2 -16 -8 0
-8 6 -12 13 -9 8 3 21 -2 29 -11 13 -12 13 -16 3 -17 -7 -1 3 -5 22 -9 l35 -7
-35 -3 c-33 -2 -32 -3 14 -11 27 -4 52 -12 55 -16 3 -5 28 -17 54 -27 71 -27
129 -62 179 -106 l43 -40 -80 45 c-79 45 -119 60 -186 70 l-34 5 30 -10 c17
-6 53 -18 80 -27 93 -29 204 -104 229 -153 7 -15 21 -61 31 -103 10 -43 23
-77 29 -77 7 0 12 9 12 20 0 11 -3 20 -7 20 -4 0 -14 35 -24 78 -50 227 -65
264 -172 404 -46 60 -54 79 -25 57 14 -11 14 -10 -2 8 -10 13 -22 21 -26 18
-4 -2 -49 30 -101 71 -112 90 -274 172 -399 204 -94 23 -274 34 -355 21z"/>
<path d="M6090 6535 c0 -3 9 -24 20 -47 11 -22 18 -44 15 -47 -6 -10 8 -29 25
-33 8 -2 21 -10 28 -18 7 -8 5 1 -4 20 -9 18 -22 40 -29 47 -7 7 -11 22 -8 34
4 14 2 20 -4 16 -6 -4 -13 2 -16 13 -4 17 -27 29 -27 15z"/>
<path d="M5648 6523 c18 -2 45 -2 60 0 15 2 0 4 -33 4 -33 0 -45 -2 -27 -4z"/>
<path d="M5778 6523 c6 -2 18 -2 25 0 6 3 1 5 -13 5 -14 0 -19 -2 -12 -5z"/>
<path d="M5500 6506 c-30 -7 -86 -23 -125 -36 -73 -24 -188 -76 -145 -64 14 3
35 7 47 8 11 0 19 4 17 7 -6 11 133 58 231 79 50 10 77 18 60 18 -16 0 -55 -6
-85 -12z"/>
<path d="M8485 6500 c10 -11 20 -20 23 -20 3 0 -3 9 -13 20 -10 11 -20 20 -23
20 -3 0 3 -9 13 -20z"/>
<path d="M6190 6507 c0 -21 165 -327 210 -389 17 -23 27 -44 24 -47 -3 -3 -12
3 -20 13 -10 15 -14 16 -14 5 0 -8 5 -20 12 -27 7 -7 9 -12 5 -12 -3 0 -16 10
-28 23 -26 26 -16 6 20 -43 24 -32 26 -44 30 -153 4 -159 -20 -271 -96 -437
-40 -86 -150 -218 -236 -284 -35 -27 -36 -29 -20 -52 14 -23 14 -24 -4 -24
-11 0 -52 -11 -91 -24 -50 -17 -69 -20 -66 -11 3 7 0 16 -6 20 -8 5 -7 11 2
23 11 13 11 14 0 8 -8 -5 -18 -1 -27 10 -14 20 -29 16 -91 -26 -29 -19 -32
-19 -30 -3 1 12 -5 17 -19 16 -25 -3 -66 16 -82 38 -7 9 -28 20 -48 23 -23 5
-43 18 -61 41 -14 19 -34 37 -45 40 -27 9 -45 45 -28 57 9 5 3 6 -16 2 -22 -4
-26 -3 -16 4 13 9 25 42 15 42 -2 0 -63 -27 -135 -61 -140 -65 -220 -96 -204
-80 6 5 69 35 140 66 141 61 290 136 321 160 10 9 -12 1 -51 -18 -38 -19 -92
-41 -120 -50 -225 -75 -283 -85 -414 -70 -148 16 -176 33 -234 135 -70 125
-73 136 -58 210 6 35 25 91 41 125 28 62 118 192 133 193 4 0 7 -29 7 -64 0
-209 159 -408 372 -466 66 -18 208 -9 282 18 277 100 412 433 284 701 -37 79
-148 194 -221 229 -50 25 -77 22 -145 -14 -26 -14 -26 -14 14 -8 32 5 53 1 95
-20 231 -110 319 -411 186 -638 -47 -81 -198 -200 -249 -197 -7 0 0 5 16 11
37 13 15 29 -25 18 -38 -11 -149 0 -176 17 -11 8 -42 16 -68 18 -25 2 -52 8
-59 14 -13 11 -82 21 -91 13 -2 -3 1 -12 8 -21 6 -8 -2 -5 -20 7 -38 27 -56
49 -26 33 14 -7 24 -7 33 2 7 7 10 7 7 1 -3 -6 0 -11 8 -11 11 0 12 4 4 13 -6
7 -8 18 -4 25 6 8 2 8 -13 0 -17 -9 -23 -6 -37 15 -12 19 -20 23 -28 15 -7 -7
-6 -15 4 -28 13 -17 13 -17 -4 -4 -28 22 -70 99 -63 117 3 8 2 13 -3 10 -14
-9 -35 85 -35 161 l0 73 88 85 c49 47 111 100 138 117 27 18 45 34 39 36 -37
12 -309 -229 -394 -350 -49 -68 -107 -184 -107 -215 -1 -13 -6 -9 -17 11 -31
58 3 202 77 327 72 121 287 324 321 303 8 -4 9 -3 5 4 -4 6 6 18 23 26 l30 16
27 -55 c16 -30 30 -51 34 -47 3 5 26 17 52 28 47 19 62 34 34 34 -8 0 -17 -6
-19 -12 -4 -10 -6 -10 -6 0 -1 7 -14 12 -31 12 -23 0 -33 7 -45 30 -14 27 -14
30 2 39 10 5 15 12 12 16 -4 3 -13 0 -20 -7 -8 -8 -40 -27 -72 -43 -81 -40
-210 -147 -280 -230 -77 -92 -144 -228 -161 -325 -13 -81 -26 -81 -36 0 -5 42
-7 45 -37 48 -28 3 -35 -2 -55 -35 -35 -56 -48 -107 -55 -210 l-6 -93 39 -15
c88 -35 139 -67 126 -80 -4 -3 -7 -16 -8 -28 -1 -12 -11 -63 -23 -114 -13 -51
-19 -98 -15 -104 5 -8 3 -9 -6 -4 -10 6 -12 1 -8 -19 4 -18 1 -26 -8 -26 -8 0
-16 -11 -20 -25 -3 -14 -10 -25 -15 -25 -4 0 1 -21 12 -46 14 -31 19 -57 15
-78 -7 -35 -86 -163 -145 -234 -20 -24 -35 -48 -33 -53 3 -14 -98 40 -104 54
-3 8 -23 12 -52 12 l-47 -1 2 -47 c2 -26 9 -60 17 -76 23 -44 124 -130 217
-186 222 -132 672 -280 872 -286 31 -2 57 -6 57 -10 0 -5 6 -7 13 -5 6 1 9 1
5 -1 -5 -3 -7 -30 -7 -61 2 -54 2 -55 9 -17 6 38 7 38 11 11 4 -27 6 -25 40
40 25 49 42 70 57 72 12 2 22 1 22 -2 0 -14 -62 -101 -72 -101 -6 0 -18 -15
-25 -33 -16 -39 -6 -46 57 -40 l39 3 6 -55 c14 -143 33 -209 99 -346 36 -75
69 -134 72 -131 3 3 -12 41 -35 84 -79 151 -116 271 -123 391 l-3 64 58 23
c31 13 57 19 57 14 0 -5 -5 -9 -11 -9 -19 0 -74 -45 -77 -64 -5 -28 16 -176
33 -234 14 -45 20 -52 74 -80 32 -18 91 -39 132 -47 l73 -16 25 28 c20 21 21
23 4 9 -16 -13 -23 -15 -23 -6 0 7 -11 28 -25 46 -19 25 -25 45 -25 83 0 28 4
51 9 51 5 0 12 8 15 18 3 9 15 23 27 30 12 8 18 9 14 3 -3 -7 2 -11 14 -11 12
0 26 9 33 20 14 23 30 27 22 6 -4 -11 3 -12 42 -3 39 9 48 8 58 -4 6 -9 17
-14 24 -11 7 2 11 -2 10 -10 -2 -8 12 -16 40 -22 47 -11 55 -31 22 -61 -11
-10 -20 -24 -20 -32 0 -7 -7 -16 -16 -20 -8 -3 -13 -12 -10 -19 6 -14 -19 -20
-27 -6 -2 4 -2 1 0 -6 6 -24 -10 -37 -19 -16 -6 14 -7 11 -5 -13 2 -18 0 -33
-5 -33 -4 0 -8 8 -9 18 0 13 -2 14 -6 2 -8 -20 -29 -40 -36 -34 -3 3 -3 12 -1
19 3 7 0 16 -7 20 -9 6 -10 1 -7 -19 4 -18 1 -26 -8 -26 -8 0 -14 -5 -14 -12
0 -9 -3 -9 -12 0 -21 21 -66 13 -100 -16 -66 -56 -167 -112 -207 -115 -21 -1
-37 -5 -34 -9 2 -5 -3 -8 -11 -8 -9 0 -29 -8 -46 -18 -38 -24 -23 -44 23 -31
17 5 33 5 36 0 4 -4 17 -14 30 -21 16 -8 20 -14 12 -20 -15 -9 32 -49 58 -51
9 -1 5 -4 -9 -9 l-25 -7 30 -12 c17 -6 36 -14 43 -16 10 -4 10 -9 1 -26 -9
-17 -8 -23 2 -30 11 -6 10 -12 -4 -27 -23 -25 -44 -24 -75 5 -14 13 -27 21
-30 18 -3 -2 9 -17 25 -32 17 -16 33 -39 37 -51 4 -12 12 -20 17 -17 5 4 9 -2
9 -11 0 -10 3 -15 6 -11 4 3 15 -4 25 -16 16 -19 20 -20 29 -7 7 11 5 16 -5
18 -8 2 -15 7 -15 12 0 12 92 -21 175 -63 75 -38 223 -133 191 -123 -16 6 -17
4 -6 -9 7 -8 10 -15 7 -15 -14 0 -57 24 -57 32 0 4 -8 8 -17 8 -10 0 -14 -3
-8 -8 15 -11 58 -72 79 -114 10 -21 23 -35 28 -32 5 4 2 -8 -6 -25 -15 -29
-15 -30 1 -25 17 5 17 5 1 -6 -10 -6 -26 -10 -35 -8 -11 2 -22 -8 -31 -27 -8
-16 -23 -40 -34 -52 -11 -12 -17 -26 -14 -31 3 -6 2 -12 -4 -14 -6 -2 -11 -17
-13 -35 -1 -17 -5 -29 -8 -27 -9 5 -19 -22 -11 -30 3 -4 23 10 44 31 46 45 49
40 8 -12 -16 -21 -30 -43 -30 -50 0 -6 -11 -22 -25 -35 -14 -13 -39 -45 -56
-72 -17 -26 -32 -48 -34 -48 -2 0 -1 10 2 23 5 22 5 22 -11 2 -17 -20 -17 -20
-6 3 6 12 15 20 21 17 5 -4 9 1 9 9 0 9 4 16 10 16 5 0 14 9 19 19 8 14 7 20
-4 25 -8 3 -17 0 -21 -6 -4 -7 -3 -8 4 -4 7 4 12 3 12 -3 0 -19 -20 -22 -36
-7 -8 9 -20 16 -25 16 -5 0 -9 5 -9 11 0 6 7 8 18 4 12 -4 14 -3 6 5 -8 8 -19
8 -39 0 -31 -12 -43 -7 -28 12 13 18 18 112 5 104 -15 -9 -22 7 -32 62 l-8 47
-1 -39 c-1 -29 -5 -37 -15 -33 -8 3 -16 2 -18 -4 -2 -5 -30 15 -63 45 -61 56
-75 64 -75 45 0 -24 -20 5 -31 44 -14 54 -39 107 -50 107 -5 0 -9 -4 -9 -10 0
-14 -32 -50 -45 -50 -14 0 -48 66 -51 99 -2 13 -7 27 -12 30 -5 3 -8 14 -6 23
3 23 -7 23 -27 0 -18 -21 -22 -124 -5 -134 8 -6 7 -8 -1 -8 -7 0 -13 -12 -13
-26 0 -22 2 -25 15 -14 18 15 20 -1 3 -19 -11 -11 -9 -11 9 -2 22 11 22 11 -2
-25 -14 -21 -24 -40 -23 -44 2 -3 27 -61 57 -128 l54 -123 22 21 c12 11 30 20
41 20 11 0 24 4 30 10 6 6 24 3 51 -11 55 -27 66 -64 29 -96 -28 -24 -100 -48
-116 -38 -21 13 -5 -35 60 -180 5 -11 28 -65 51 -120 47 -114 47 -113 54 -93
5 13 -65 198 -95 250 -11 19 -13 48 -5 48 3 0 24 -9 46 -20 22 -12 45 -18 51
-14 6 4 8 3 5 -3 -8 -13 43 -33 82 -33 16 0 42 15 70 40 24 22 45 40 47 40 6
0 74 -107 74 -117 0 -6 -6 -15 -13 -21 -7 -6 -14 -31 -16 -56 -1 -24 -6 -58
-11 -75 -5 -17 -5 -29 0 -26 5 3 12 1 15 -5 5 -8 11 -8 20 0 26 21 33 -16 37
-190 4 -143 9 -186 25 -233 39 -111 93 -136 157 -72 42 42 53 96 38 187 -6 35
-14 128 -18 207 -6 131 -5 144 10 138 14 -5 16 2 16 54 0 64 -20 126 -43 135
-16 6 -137 176 -137 192 0 6 4 12 10 14 5 2 2 17 -7 35 -14 30 -14 34 6 59 12
15 21 32 21 39 0 7 8 19 17 26 36 30 166 186 184 221 25 49 24 84 -1 98 -18
10 -21 7 -26 -20 -8 -36 -13 -37 -48 -5 -31 28 -32 40 -8 54 16 10 16 10 0 11
-10 0 -18 6 -19 13 0 6 -2 62 -3 122 -3 127 -31 246 -78 340 -17 33 -35 69
-40 81 -17 36 88 222 176 314 102 106 133 149 116 160 -12 7 -12 10 2 15 11 5
41 -15 96 -62 182 -157 346 -245 493 -265 95 -12 393 -17 454 -6 22 4 63 10
90 13 l50 6 55 101 c30 55 63 109 73 121 9 11 17 29 16 41 0 12 -3 15 -6 9 -2
-7 -11 -13 -19 -13 -9 0 -12 -4 -9 -10 3 -5 0 -10 -7 -10 -7 0 -24 -3 -38 -6
-30 -8 -16 11 15 20 11 3 7 3 -10 0 -77 -14 -106 -15 -119 -5 -10 8 -21 7 -42
-4 -26 -14 -30 -13 -42 2 -7 10 -10 23 -8 30 8 20 -8 15 -28 -8 -16 -19 -18
-34 -13 -113 3 -50 8 -102 13 -116 l7 -25 -25 23 c-13 12 -28 22 -32 22 -4 0
-27 9 -51 20 l-44 20 5 52 c2 35 10 57 24 70 11 10 27 30 36 43 10 15 26 25
40 25 15 0 24 6 24 16 0 25 58 73 96 80 20 4 32 10 27 14 -7 8 -106 -7 -163
-24 -188 -57 -360 -141 -360 -178 0 -22 -9 -22 -79 -3 -75 20 -153 60 -246
126 -126 90 -135 102 -141 194 -6 108 -26 145 -135 250 -52 50 -79 74 -61 55
33 -37 44 -62 16 -39 -8 7 -3 -8 13 -33 15 -25 30 -44 32 -42 2 2 -4 15 -13
30 -10 14 -16 28 -14 30 9 9 62 -58 63 -79 1 -13 5 -28 9 -35 4 -7 3 -12 -3
-12 -6 0 -4 -14 5 -35 7 -19 14 -47 14 -63 0 -16 3 -32 8 -36 4 -4 7 -18 7
-31 1 -14 -1 -23 -2 -21 -2 2 -19 -12 -38 -31 -37 -37 -37 -37 -110 -9 -22 8
-60 16 -85 16 -25 0 -63 7 -85 15 -22 8 -65 17 -95 20 -115 12 -119 14 -182
76 -34 32 -67 59 -73 59 -7 0 -16 -11 -19 -25 -7 -27 -20 -32 -33 -12 -4 7
-20 20 -35 29 -23 15 -27 16 -32 2 -3 -9 -6 -25 -6 -37 -1 -18 -2 -19 -10 -6
-13 22 -50 211 -50 256 0 21 -3 43 -7 49 -5 5 0 1 9 -9 17 -18 18 -18 43 7 18
19 37 26 63 26 29 0 34 3 22 11 -11 8 -6 9 20 5 25 -4 29 -3 15 3 -19 8 -18
10 8 20 16 6 49 12 75 12 53 2 122 16 86 18 -16 1 -22 8 -22 29 0 15 5 31 12
35 7 5 7 10 1 13 -5 2 -28 15 -50 29 l-40 24 50 0 c28 0 68 -4 90 -9 26 -6 44
-5 52 2 8 6 13 6 13 1 0 -5 7 -10 15 -10 8 0 15 4 15 8 0 4 16 43 36 85 43 95
53 164 31 229 -15 43 -15 49 0 72 13 20 15 31 6 54 -11 28 -9 32 44 82 106 98
160 172 219 293 57 119 77 210 77 359 1 272 2 264 -54 378 -80 161 -171 308
-186 302 -8 -2 -12 -1 -9 4 3 5 -1 14 -9 21 -8 7 -15 10 -15 7z m86 -129 c8
-16 13 -28 10 -28 -5 0 -46 69 -46 78 0 8 15 -13 36 -50z m44 -78 c11 -22 18
-40 15 -40 -2 0 -14 18 -25 40 -11 22 -18 40 -15 40 2 0 14 -18 25 -40z
m-1738 -647 c-3 -104 -11 -163 -22 -163 -4 0 -3 19 2 43 5 23 8 69 5 103 -4
50 4 94 16 94 1 0 1 -35 -1 -77z m627 -149 c14 -12 -19 -1 -35 12 -18 14 -18
14 6 3 14 -6 27 -13 29 -15z m214 -31 c-13 -2 -33 -2 -45 0 -13 2 -3 4 22 4
25 0 35 -2 23 -4z m-681 -175 c18 -29 34 -55 36 -59 1 -3 -13 -3 -32 -1 -30 4
-34 8 -40 42 -3 21 -9 45 -12 54 -14 36 16 13 48 -36z m208 -168 c119 -97 249
-160 405 -198 84 -20 328 -23 391 -4 34 10 46 9 72 -3 44 -22 46 -43 13 -116
-15 -35 -34 -81 -41 -102 -9 -30 -16 -37 -31 -32 -31 10 -58 -13 -70 -60 -11
-45 -12 -45 -56 -45 -26 0 -42 -4 -38 -10 4 -6 -6 -7 -26 -3 -21 4 -30 2 -26
-4 4 -6 -3 -8 -18 -5 -30 5 -76 -26 -104 -72 -12 -18 -21 -36 -21 -38 0 -6 95
18 111 27 13 9 79 -3 79 -14 0 -13 -35 -19 -54 -9 -23 13 -20 2 7 -24 l22 -23
-55 -6 c-69 -8 -120 -29 -120 -49 0 -9 -6 -25 -14 -35 -14 -19 -15 -19 -35 -1
-14 13 -21 15 -21 6 0 -29 -237 8 -395 61 -100 34 -282 107 -348 140 -57 29
-157 92 -157 101 0 3 28 44 63 90 71 94 138 210 178 308 l26 65 69 23 c82 28
94 37 94 68 0 22 2 23 28 12 15 -6 47 -28 72 -48z m797 -542 c-1 -23 -8 -34
-20 -36 -14 -3 -17 2 -15 26 1 20 6 28 15 25 9 -4 11 0 6 13 -4 11 -3 15 4 11
6 -4 11 -22 10 -39z m-21 -48 c19 0 34 -4 34 -10 0 -5 -9 -10 -20 -10 -11 0
-20 -7 -20 -16 0 -8 5 -12 10 -9 6 3 10 2 10 -3 0 -11 -50 -23 -63 -15 -4 2 3
13 15 23 l23 18 -55 8 c-49 7 -52 9 -25 15 17 4 36 5 43 3 8 -2 29 -4 48 -4z
m694 -585 c-7 -9 -15 -13 -19 -10 -3 3 1 10 9 15 21 14 24 12 10 -5z m1132
-218 c-24 -26 -29 -66 -9 -86 10 -11 5 -12 -28 -6 -53 10 -87 8 -97 -8 -7 -11
-12 -3 -9 16 0 4 -6 7 -14 7 -8 0 -15 5 -15 10 0 6 3 9 8 9 19 -3 33 2 28 10
-9 14 3 38 22 45 9 3 40 14 67 24 59 21 78 12 47 -21z m-1417 -67 c-3 -5 -11
-10 -16 -10 -6 0 -7 5 -4 10 3 6 11 10 16 10 6 0 7 -4 4 -10z m-42 -110 c-14
-30 -37 -72 -50 -93 -22 -35 -22 -39 -8 -67 9 -17 13 -30 10 -30 -4 0 3 -12
14 -26 12 -15 21 -31 21 -36 0 -5 9 -27 19 -48 21 -43 19 -45 -39 -34 -29 6
-31 10 -26 35 3 15 1 29 -4 31 -8 2 -16 28 -19 61 -1 4 -11 7 -23 7 -12 0 -18
3 -15 7 4 3 -3 18 -15 32 -13 14 -16 20 -8 14 21 -19 31 -16 26 10 -3 12 -7
48 -11 80 -4 45 -2 58 7 54 18 -6 84 19 115 43 14 11 27 19 29 17 2 -1 -9 -27
-23 -57z m39 -417 c9 -35 15 -63 14 -63 -11 0 -78 39 -67 40 11 0 10 3 -4 13
-12 9 -14 16 -7 21 8 5 8 15 2 32 -9 24 -8 25 17 22 25 -3 30 -10 45 -65z m-8
-68 c13 -10 19 -29 21 -65 1 -27 0 -50 -2 -50 -2 0 -21 12 -41 26 -20 15 -30
24 -21 21 9 -3 16 1 16 9 0 8 -7 14 -15 14 -9 0 -6 7 9 21 13 11 18 18 12 14
-7 -3 -13 -2 -13 4 0 5 -8 12 -17 14 -12 3 -10 5 7 6 14 0 33 -6 44 -14z m-9
-119 c32 -26 46 -83 16 -66 -45 25 -56 37 -43 53 11 13 10 17 -5 26 -10 6 -13
11 -8 11 6 0 23 -11 40 -24z m-362 -843 c-7 -2 -19 -2 -25 0 -7 3 -2 5 12 5
14 0 19 -2 13 -5z"/>
<path d="M7452 6395 c-112 -38 -227 -101 -326 -176 l-28 -22 13 21 c8 12 17
22 22 22 4 0 5 5 1 11 -3 6 -15 8 -26 6 -16 -4 -17 -3 -7 9 6 7 15 12 19 9 5
-3 12 0 16 6 3 6 1 15 -6 19 -15 10 -4 30 16 30 8 0 12 5 9 10 -5 8 -11 8 -19
1 -15 -12 -26 -5 -26 17 0 9 3 12 7 9 7 -8 33 11 33 24 0 5 -7 6 -15 3 -8 -4
-15 -1 -15 6 0 7 -14 -5 -31 -26 -17 -22 -37 -38 -44 -38 -7 1 -23 -17 -35
-40 -20 -39 -21 -40 -1 -16 11 14 21 30 21 35 2 14 19 -27 19 -45 0 -10 -4 -8
-10 5 -8 17 -9 16 -6 -7 2 -15 0 -25 -4 -22 -5 3 -9 0 -9 -6 0 -6 -4 -9 -8 -6
-5 3 -9 -8 -10 -24 0 -16 -10 -38 -22 -50 -32 -32 -42 -62 -80 -239 -11 -52
-20 -108 -20 -125 0 -17 -9 -48 -20 -69 -16 -30 -20 -56 -20 -134 0 -104 13
-170 49 -243 20 -41 21 -40 5 8 -3 9 7 -5 21 -31 15 -27 24 -55 21 -63 -3 -8
0 -13 6 -11 6 1 13 -4 16 -12 3 -9 0 -11 -8 -6 -9 6 -11 4 -6 -4 5 -7 10 -10
13 -7 3 3 21 -16 39 -42 32 -44 97 -102 116 -102 16 0 8 19 -40 97 -50 81
-102 187 -102 207 0 6 -6 23 -14 38 -28 52 -47 177 -35 222 38 144 163 280
359 389 36 20 78 41 93 46 l29 11 -21 -27 c-116 -150 -161 -325 -132 -512 26
-169 126 -331 271 -443 92 -71 233 -118 354 -118 153 0 281 54 393 166 186
187 226 475 102 729 -70 143 -179 253 -309 313 -30 14 -58 29 -61 34 -3 5 -37
4 -75 -2 -38 -6 -117 -17 -177 -25 -59 -8 -112 -17 -117 -20 -5 -3 -12 6 -16
20 -5 19 -10 23 -17 16 -6 -6 -21 -11 -34 -11 -19 0 -23 5 -22 28 l1 27 8 -25
c14 -43 11 -3 -6 77 -8 41 -13 81 -10 89 7 18 4 18 -82 -11z m3 -35 c-27 -12
-43 -12 -25 0 8 5 22 9 30 9 10 0 8 -3 -5 -9z m20 -30 c-3 -5 -17 -10 -31 -10
-13 0 -24 5 -24 10 0 6 14 10 31 10 17 0 28 -4 24 -10z m55 -6 c0 -8 -5 -12
-10 -9 -6 4 -8 11 -5 16 9 14 15 11 15 -7z m-20 -124 c8 -5 11 -10 5 -10 -5 0
-17 5 -25 10 -8 5 -10 10 -5 10 6 0 17 -5 25 -10z m60 -9 c0 -5 -19 -13 -41
-19 -33 -8 -45 -8 -56 4 -12 12 -10 13 15 8 17 -3 38 -1 49 5 22 13 33 14 33
2z m370 -16 c211 -56 377 -232 430 -455 17 -70 17 -200 0 -270 -49 -208 -223
-368 -429 -396 -59 -8 -200 6 -162 15 23 6 21 8 -17 19 -24 7 -53 10 -65 7
-20 -5 -20 -5 -5 8 15 12 13 15 -20 27 -20 7 -50 23 -65 36 -29 24 -36 27 -72
26 -17 -1 -17 0 -2 4 18 6 24 24 7 24 -5 0 -10 6 -10 14 0 7 -16 21 -35 30
-20 10 -35 24 -35 34 0 16 -52 100 -69 112 -4 3 -16 30 -27 60 -11 30 -25 54
-32 53 -7 -2 -10 14 -7 50 3 40 2 45 -4 22 -16 -57 -12 147 4 210 41 154 158
296 282 340 26 9 57 21 68 26 51 22 190 24 265 4z m-947 -160 c-3 -9 -8 -14
-10 -11 -3 3 -2 9 2 15 9 16 15 13 8 -4z m-27 -109 c-1 -14 -8 -31 -14 -39
-22 -26 -42 -99 -42 -151 0 -28 -5 -58 -10 -66 -15 -24 -12 65 5 138 13 57 49
142 60 142 2 0 2 -11 1 -24z m774 -826 c13 -8 13 -10 -2 -10 -9 0 -20 5 -23
10 -8 13 5 13 25 0z"/>
<path d="M7760 5805 c-111 -50 -152 -180 -96 -301 77 -166 299 -177 376 -19
19 39 22 58 18 117 -6 81 -36 133 -106 182 -51 36 -137 45 -192 21z m214 -66
c14 -17 26 -39 26 -50 0 -26 -44 -69 -70 -69 -30 0 -70 44 -70 78 0 35 33 72
65 72 14 0 34 -12 49 -31z"/>
<path d="M8610 6368 c56 -74 100 -146 100 -163 0 -9 5 -13 10 -10 6 3 10 2 10
-4 0 -6 9 -15 20 -21 13 -7 4 12 -27 57 -58 85 -132 183 -139 183 -3 0 9 -19
26 -42z"/>
<path d="M6190 6365 c0 -5 9 -23 20 -40 11 -16 20 -25 20 -20 0 6 -9 24 -20
40 -11 17 -20 26 -20 20z"/>
<path d="M6250 6255 c0 -5 9 -23 20 -40 11 -16 20 -25 20 -20 0 6 -9 24 -20
40 -11 17 -20 26 -20 20z"/>
<path d="M6967 6223 c-27 -52 -28 -79 -2 -30 15 27 24 51 21 54 -2 3 -11 -8
-19 -24z"/>
<path d="M8243 6233 c9 -2 25 -2 35 0 9 3 1 5 -18 5 -19 0 -27 -2 -17 -5z"/>
<path d="M8333 6223 c9 -2 23 -2 30 0 6 3 -1 5 -18 5 -16 0 -22 -2 -12 -5z"/>
<path d="M8730 6134 c0 -7 9 -22 20 -35 10 -13 19 -19 20 -13 0 7 -9 22 -20
35 -10 13 -19 19 -20 13z"/>
<path d="M8803 6115 c62 -196 85 -310 90 -433 2 -61 -1 -75 -15 -83 -10 -6
-18 -20 -18 -31 0 -14 -4 -18 -9 -12 -5 5 -11 45 -15 89 -8 111 -30 247 -34
212 -3 -22 -7 -27 -23 -22 -19 6 -26 -5 -12 -19 4 -4 8 -17 10 -29 1 -12 7
-57 12 -100 6 -48 16 -86 26 -97 9 -10 14 -24 10 -29 -3 -6 -1 -11 4 -11 20 0
13 -62 -26 -235 -39 -175 -166 -363 -298 -442 -72 -44 -157 -70 -141 -44 10
16 -68 2 -129 -23 -33 -13 -109 -37 -170 -52 -100 -26 -126 -29 -280 -29 -144
0 -183 4 -253 22 -113 31 -200 74 -269 134 l-58 51 58 -56 c153 -148 397 -237
649 -239 91 0 108 -3 113 -17 3 -9 21 -24 40 -33 27 -13 36 -25 46 -59 6 -24
16 -56 22 -71 5 -15 11 -38 13 -50 2 -12 11 -51 19 -87 27 -121 17 -151 -70
-208 -19 -12 -19 -13 5 -8 14 2 48 7 75 10 l50 6 -45 -15 c-25 -9 -58 -15 -75
-15 -86 0 -101 -1 -118 -6 -9 -3 -15 -10 -12 -15 4 -5 -8 -9 -26 -9 -31 0 -31
-1 -15 -19 20 -22 7 -36 -24 -26 -26 8 -38 -19 -19 -42 13 -15 11 -15 -23 -9
-37 7 -38 6 -38 -21 -1 -24 -2 -25 -11 -10 -7 12 -7 28 0 50 34 108 34 108
-13 68 -18 -15 -18 -15 -7 7 17 32 -3 27 -32 -8 -14 -16 -29 -30 -34 -30 -15
0 -61 -63 -56 -77 8 -22 93 -75 109 -69 16 6 20 -29 4 -39 -5 -3 -10 2 -10 11
0 30 -39 -24 -46 -65 -4 -20 -14 -45 -23 -56 -79 -96 -149 -256 -165 -375 -19
-141 -20 -130 8 -130 14 0 47 -5 74 -10 43 -10 52 -16 85 -67 48 -72 86 -195
92 -292 3 -42 7 -89 11 -105 4 -17 2 -26 -3 -23 -13 8 -48 117 -45 139 5 28
-37 48 -100 48 -32 0 -58 -4 -58 -10 0 -5 -6 -10 -14 -10 -21 0 -24 -8 -37
-89 -12 -82 -26 -104 -84 -133 -22 -11 -56 -32 -75 -46 -21 -16 -29 -19 -20
-8 8 10 37 31 66 47 75 43 85 58 90 131 2 35 1 55 -2 45 -5 -14 -10 -10 -25
20 -11 21 -18 46 -15 56 5 21 -12 77 -24 77 -5 0 -22 -11 -38 -25 -17 -14 -34
-25 -39 -25 -23 0 -53 -181 -46 -280 2 -36 4 -78 4 -94 0 -16 6 -44 14 -62 7
-18 17 -58 20 -89 5 -37 13 -59 25 -65 9 -5 23 -23 29 -39 10 -22 34 -40 104
-76 78 -40 96 -45 130 -40 55 10 123 41 182 84 35 25 61 36 87 37 20 0 35 -3
32 -8 -3 -4 1 -8 8 -8 14 0 44 -107 34 -118 -30 -29 -75 -89 -97 -129 -16 -28
-34 -48 -45 -48 -9 0 -26 -13 -38 -28 -40 -54 -32 -186 25 -427 18 -72 22
-119 21 -198 -3 -133 8 -155 40 -84 13 29 27 49 31 46 3 -4 14 22 24 56 12 44
19 57 23 44 5 -12 9 -1 14 34 6 45 -10 189 -30 268 -3 13 2 28 13 39 13 14 18
35 19 85 0 36 4 72 9 79 9 16 2 25 157 -181 60 -82 112 -148 115 -148 2 0 1 6
-3 13 -13 21 -146 200 -191 255 -42 53 -43 54 -27 84 l16 31 19 -24 c10 -13
19 -27 19 -31 0 -9 70 -49 70 -40 0 8 111 4 119 -4 2 -2 -22 -4 -55 -4 -46 -1
-55 -3 -41 -11 10 -6 108 -13 218 -16 l200 -6 58 62 c45 48 60 59 68 49 6 -7
36 -62 68 -123 32 -60 80 -144 108 -185 l49 -75 -56 -112 c-85 -168 -145 -309
-136 -323 5 -8 9 -4 13 12 4 12 17 35 31 49 13 14 33 44 44 65 54 107 125 240
133 249 5 5 9 17 9 27 0 10 4 18 10 18 5 0 12 11 16 25 3 14 10 25 15 25 5 0
9 5 9 12 0 6 16 43 35 82 19 39 37 84 41 100 6 26 5 27 -15 17 -12 -7 -27 -21
-34 -31 -23 -38 -32 -30 -100 100 -22 41 -46 82 -53 91 -8 8 -14 20 -14 25 0
5 -20 36 -45 69 -25 33 -45 60 -45 61 0 0 19 43 41 95 70 159 65 265 -15 342
-37 35 -178 117 -148 86 6 -7 12 -21 12 -31 0 -10 5 -18 10 -18 16 0 12 -26
-7 -41 -14 -12 -16 -12 -8 0 5 9 4 12 -2 8 -12 -7 -38 -85 -31 -92 3 -3 13 -2
22 1 14 5 15 9 5 15 -8 4 -10 11 -7 14 4 4 13 1 21 -6 12 -11 10 -16 -10 -35
-13 -12 -23 -26 -23 -33 0 -6 -4 -11 -10 -11 -5 0 -10 -7 -10 -15 0 -8 -4 -15
-10 -15 -5 0 -10 -12 -10 -26 0 -17 -6 -28 -20 -31 -11 -3 -18 -9 -15 -13 3
-5 -9 -3 -25 3 l-31 12 28 7 c15 4 34 6 41 3 18 -6 15 10 -5 26 -9 8 -14 9
-10 3 4 -7 -2 -14 -13 -17 -11 -3 -20 -1 -20 4 0 4 -16 8 -35 7 -57 -2 -51 9
16 30 35 11 57 21 48 21 -9 1 -36 -6 -59 -14 -52 -19 -93 -20 -88 -2 3 6 14
13 26 15 12 2 20 7 18 11 -3 4 11 5 30 3 21 -3 34 0 34 7 0 7 4 10 9 6 5 -3
12 4 16 15 3 11 11 19 17 17 12 -2 48 104 48 145 0 17 6 28 18 30 11 3 5 8
-19 16 l-37 13 -1 96 c-1 53 -4 99 -6 102 -2 4 -5 94 -7 201 -3 175 -1 195 13
192 12 -2 27 25 59 108 24 60 44 110 45 110 1 0 14 -18 29 -40 24 -37 30 -40
70 -40 25 0 58 8 74 17 l30 17 -49 47 c-27 26 -49 56 -49 68 0 41 -39 30 -63
-18 -7 -14 -18 -26 -24 -29 -19 -6 -28 27 -15 49 15 23 16 165 2 174 -6 4 -10
-6 -11 -22 0 -28 -2 -44 -14 -137 -3 -27 -26 -99 -51 -158 -25 -60 -42 -113
-39 -118 10 -17 -35 -1 -93 31 -31 18 -58 36 -60 41 -7 15 -23 8 -33 -14 -7
-18 -8 -14 -3 17 3 22 12 44 20 48 17 10 18 34 2 40 -8 4 -7 6 3 6 11 1 19 14
23 39 3 20 8 48 11 62 4 17 0 13 -10 -10 -15 -35 -15 -35 -9 30 3 36 6 82 5
102 0 20 4 40 9 43 20 12 9 27 -16 22 -28 -5 -35 5 -50 78 -11 48 -38 59 -48
20 -4 -15 -4 -35 -1 -46 4 -10 3 -19 -1 -19 -14 0 -33 35 -34 61 0 14 -11 38
-24 52 -25 27 -43 67 -30 67 4 0 13 -8 20 -17 12 -16 13 -15 14 10 0 24 4 27
33 27 17 0 39 5 47 10 13 8 12 10 -3 10 -14 0 -9 10 22 41 22 23 44 38 49 35
12 -7 36 59 27 74 -3 5 0 10 7 10 8 0 7 5 -4 16 -15 16 -18 16 -34 0 -11 -11
-28 -16 -45 -14 -15 3 -26 1 -24 -3 5 -7 -23 -13 -115 -25 -33 -4 -41 -3 -30
5 8 6 11 11 5 11 -5 0 -1 6 10 14 23 15 77 27 69 15 -3 -5 4 -9 15 -9 15 0 21
6 21 23 0 37 -30 196 -57 306 l-26 104 25 18 c21 16 25 25 21 57 -4 37 -3 39
39 58 127 57 278 190 353 309 52 84 98 214 120 340 8 50 21 104 29 120 8 17
20 43 27 59 27 58 2 264 -53 438 -16 54 -37 103 -46 110 -13 11 -15 10 -9 -7z
m-435 -1304 c11 -7 10 -9 -3 -14 -9 -4 -14 -3 -10 2 3 5 -1 12 -7 14 -7 3 -8
6 -3 6 6 0 16 -3 23 -8z m-68 -101 c12 -30 8 -60 -9 -60 -5 0 -11 20 -13 45
-4 52 4 58 22 15z m-465 -1217 c33 -95 113 -256 187 -379 l55 -91 12 -209 c8
-134 18 -219 26 -237 10 -21 11 -27 2 -25 -7 3 -16 19 -22 36 -5 18 -12 32
-16 32 -12 0 -49 -51 -49 -66 0 -8 -4 -14 -10 -14 -5 0 -10 6 -10 14 0 11
-107 115 -142 137 -5 3 -12 33 -15 65 -12 146 -75 331 -136 400 -28 33 -29 38
-23 97 3 35 15 96 27 137 19 72 67 180 80 180 4 0 19 -35 34 -77z m765 -241
c0 -15 -5 -22 -12 -20 -16 6 -22 33 -13 56 5 14 7 14 15 2 6 -8 10 -25 10 -38z
m-2 -93 c-3 -52 -18 -68 -19 -21 0 15 -2 39 -4 54 -3 20 0 25 11 21 10 -4 14
-19 12 -54z m-945 -275 c9 -3 12 -14 9 -30 -6 -33 -22 -41 -22 -10 0 32 -20
45 -21 14 0 -13 -3 -17 -6 -10 -12 29 9 48 40 36z m-46 -86 c-3 -7 -5 -2 -5
12 0 14 2 19 5 13 2 -7 2 -19 0 -25z m1023 -180 c0 -10 -4 -18 -9 -18 -13 0
-21 27 -14 46 5 13 7 13 14 2 5 -7 9 -21 9 -30z m35 12 c-3 -5 -10 -10 -16
-10 -5 0 -9 5 -9 10 0 6 7 10 16 10 8 0 12 -4 9 -10z m205 -75 c19 -12 10 -22
-32 -32 -24 -6 -50 -13 -59 -17 -26 -11 -32 21 -9 44 20 20 72 22 100 5z
m-753 -79 c-8 -11 -22 -25 -33 -30 -10 -6 -22 -15 -26 -21 -5 -6 -14 -3 -25 7
-16 17 -15 20 22 57 37 37 41 39 58 24 15 -14 15 -19 4 -37z m400 48 c-3 -3
-12 -4 -19 -1 -8 3 -5 6 6 6 11 1 17 -2 13 -5z m41 -201 c-10 -2 -26 -2 -35 0
-10 3 -2 5 17 5 19 0 27 -2 18 -5z m62 -118 c0 -19 -2 -35 -4 -35 -2 0 -6 16
-8 35 -2 19 0 35 4 35 4 0 8 -16 8 -35z m252 -128 c8 -16 7 -17 -11 -7 -12 6
-21 14 -21 18 0 5 -8 17 -18 28 -10 10 -21 28 -25 39 -7 21 58 -47 75 -78z
m44 -72 c14 -25 24 -48 22 -51 -6 -5 -58 71 -58 86 0 19 9 10 36 -35z m68
-127 c9 -17 14 -33 12 -35 -4 -4 -30 35 -39 60 -11 29 10 10 27 -25z"/>
<path d="M6312 6065 c-6 -139 -54 -197 -307 -374 -92 -65 -134 -99 -80 -66
143 87 340 247 365 295 24 46 47 177 34 190 -5 5 -10 -13 -12 -45z"/>
<path d="M5295 6091 c-47 -21 -92 -70 -101 -109 -3 -15 -8 -33 -10 -40 -9 -30
19 -102 54 -136 55 -56 119 -68 188 -37 104 47 138 187 67 272 -30 35 -94 69
-133 69 -14 0 -43 -9 -65 -19z m155 -39 c45 -37 1 -103 -54 -82 -20 7 -26 17
-26 39 0 31 22 61 45 61 7 0 23 -8 35 -18z"/>
<path d="M8782 5975 c0 -16 2 -22 5 -12 2 9 2 23 0 30 -3 6 -5 -1 -5 -18z"/>
<path d="M4952 5845 c0 -16 2 -22 5 -12 2 9 2 23 0 30 -3 6 -5 -1 -5 -18z"/>
<path d="M4994 5720 c0 -13 4 -16 10 -10 7 7 7 13 0 20 -6 6 -10 3 -10 -10z"/>
<path d="M5015 5681 c-3 -5 -1 -12 5 -16 5 -3 10 1 10 9 0 18 -6 21 -15 7z"/>
<path d="M5693 5656 c-7 -11 -12 -46 -7 -46 1 0 12 13 23 28 16 23 17 29 5 29
-8 0 -18 -5 -21 -11z"/>
<path d="M5646 5618 c3 -5 10 -6 15 -3 13 9 11 12 -6 12 -8 0 -12 -4 -9 -9z"/>
<path d="M5658 5594 c-4 -3 -14 -7 -25 -8 -10 -2 -18 -9 -18 -17 0 -8 -8 -13
-18 -13 -9 1 -14 -2 -11 -7 7 -12 -3 -11 -28 2 -11 6 -18 7 -15 2 3 -5 -26
-10 -66 -11 -39 -2 -74 -5 -76 -8 -3 -3 26 -4 65 -3 39 1 76 -1 82 -5 6 -4 24
0 39 8 31 16 92 65 82 66 -3 0 -8 -3 -11 -6z"/>
<path d="M5823 5569 c-35 -22 -46 -37 -15 -20 22 13 58 40 52 41 -3 0 -20 -10
-37 -21z"/>
<path d="M5754 5524 c-18 -14 -18 -15 4 -4 12 6 22 13 22 15 0 8 -5 6 -26 -11z"/>
<path d="M5665 5475 c-33 -19 -56 -35 -51 -35 10 0 116 60 116 66 0 6 -2 6
-65 -31z"/>
<path d="M4497 5427 c-10 -10 -17 -20 -15 -23 8 -7 41 22 37 32 -2 6 -12 1
-22 -9z"/>
<path d="M4415 5390 c-10 -11 -14 -20 -9 -20 5 0 15 9 22 20 7 11 11 20 9 20
-2 0 -12 -9 -22 -20z"/>
<path d="M4453 5345 c-3 -9 -3 -18 -1 -21 3 -3 8 4 11 16 6 23 -1 27 -10 5z"/>
<path d="M4414 5328 l-19 -23 23 19 c21 18 27 26 19 26 -2 0 -12 -10 -23 -22z"/>
<path d="M4394 5291 c21 -23 26 -26 26 -11 0 5 -10 15 -22 21 -23 12 -23 12
-4 -10z"/>
<path d="M6910 5291 c0 -6 4 -13 10 -16 6 -3 7 1 4 9 -7 18 -14 21 -14 7z"/>
<path d="M4370 5176 c0 -2 17 -14 38 -25 l37 -21 -30 25 c-28 23 -45 31 -45
21z"/>
<path d="M6055 4566 c-21 -24 -48 -86 -37 -86 13 0 28 15 40 40 12 24 12 24 6
-7 -4 -26 -2 -33 11 -33 9 0 15 6 13 14 -2 8 6 21 16 29 22 16 17 41 -11 55
-14 8 -23 5 -38 -12z"/>
<path d="M6166 4475 c-3 -9 3 -19 14 -25 17 -9 20 -7 20 15 0 27 -24 35 -34
10z"/>
<path d="M6230 4403 c0 -6 8 -17 18 -24 16 -13 16 -13 2 6 -8 11 -16 22 -17
24 -2 2 -3 0 -3 -6z"/>
<path d="M8574 4244 c-19 -20 -28 -24 -34 -14 -6 9 -11 8 -19 -8 -8 -14 -8
-21 0 -24 6 -2 12 -17 15 -33 8 -60 21 -130 23 -117 3 33 18 5 28 -53 10 -59
43 -125 63 -125 11 0 0 39 -19 70 -15 23 -15 24 2 17 17 -7 18 -3 12 45 -3 29
-8 60 -11 69 -7 24 53 86 68 71 7 -7 27 -12 44 -12 18 0 36 -4 39 -10 11 -18
21 -11 44 30 20 36 20 45 -1 41 -5 0 -7 5 -5 12 3 16 -53 14 -85 -4 -14 -8
-45 -29 -68 -46 -70 -54 -77 -38 -13 29 46 47 64 62 87 70 14 4 5 6 -25 7 -29
1 -51 -4 -59 -13 -14 -18 -43 -9 -36 10 9 23 -22 16 -50 -12z"/>
<path d="M5640 4250 c0 -5 5 -10 10 -10 6 0 10 5 10 10 0 6 -4 10 -10 10 -5 0
-10 -4 -10 -10z"/>
<path d="M8728 4223 c6 -2 18 -2 25 0 6 3 1 5 -13 5 -14 0 -19 -2 -12 -5z"/>
<path d="M9092 4163 c9 -10 24 -49 33 -88 10 -38 30 -98 46 -132 16 -34 38
-88 50 -120 12 -32 26 -63 31 -70 6 -8 1 -17 -16 -28 -14 -10 -26 -22 -26 -29
0 -18 63 -73 68 -58 2 7 22 12 52 12 40 0 50 4 64 25 20 31 14 42 -33 64 -63
27 -117 82 -146 146 -35 75 -65 163 -65 187 0 28 -37 95 -57 102 -16 6 -16 5
-1 -11z m211 -440 c-7 -2 -19 -2 -25 0 -7 3 -2 5 12 5 14 0 19 -2 13 -5z m90
-17 c3 -7 0 -19 -6 -25 -12 -12 -104 -15 -131 -5 -34 13 -14 24 43 24 33 0 63
5 66 10 9 14 22 12 28 -4z"/>
<path d="M8935 4126 c-4 -20 -4 -57 0 -83 6 -43 6 -45 -10 -30 -9 10 -23 17
-30 17 -8 0 -28 15 -46 33 -18 17 -27 24 -19 14 11 -15 9 -20 -14 -38 -34 -27
-59 -75 -51 -99 5 -16 2 -20 -15 -20 -16 0 -20 -4 -16 -15 4 -13 2 -14 -14 -5
-14 8 -20 8 -20 0 0 -7 -8 -9 -19 -5 -17 5 -18 2 -9 -47 5 -30 18 -62 30 -73
l20 -20 -9 20 c-6 11 -13 40 -17 64 l-7 44 33 -7 c21 -4 50 0 80 11 l47 17 78
-40 c66 -33 81 -45 97 -79 23 -49 37 -97 27 -91 -4 3 -12 -4 -19 -15 -11 -18
-9 -19 33 -19 40 0 45 -3 52 -27 4 -16 7 -61 8 -100 l0 -73 41 0 c47 0 49 -4
60 -129 8 -94 3 -99 -126 -106 -66 -4 -100 -3 -92 3 10 7 5 12 -18 22 -38 16
-90 68 -90 91 0 31 -25 41 -51 21 -13 -10 -32 -22 -42 -25 -42 -15 -32 -78 16
-107 17 -10 40 -26 49 -36 16 -16 26 -16 95 -6 43 6 119 15 169 18 105 8 99
14 110 -112 l7 -71 -69 -6 c-123 -12 -146 -9 -188 23 -22 17 -36 30 -31 30 5
0 -8 16 -29 35 -21 19 -42 35 -47 35 -4 0 -16 -10 -26 -23 -10 -13 -24 -22
-31 -19 -20 6 12 -51 45 -82 25 -24 26 -26 10 -44 -25 -27 -21 -47 14 -76 55
-46 96 -58 179 -51 153 14 199 28 306 98 124 82 145 104 185 197 56 131 52
308 -9 422 -41 78 -61 84 -23 7 30 -61 35 -83 39 -161 5 -95 -8 -174 -37 -237
-26 -56 -62 -111 -72 -111 -11 0 -12 -6 11 68 32 103 23 250 -22 365 -10 26
-48 39 -48 17 0 -5 7 -10 15 -10 16 0 21 -16 6 -22 -6 -2 -5 -25 1 -56 8 -37
8 -59 0 -75 -11 -22 -22 -68 -25 -99 -2 -26 -17 -22 -17 5 0 12 -10 58 -21
102 -12 44 -21 86 -22 92 0 7 -3 11 -6 8 -2 -3 -12 14 -21 39 -22 57 -95 165
-131 194 -23 19 -32 21 -49 12 -29 -15 -36 -7 -55 57 -9 32 -28 79 -41 105
-26 51 -29 62 -15 53 6 -3 -1 14 -14 37 -13 24 -33 79 -44 122 -12 44 -23 81
-25 84 -3 2 -8 -12 -11 -32z m195 -1198 l0 -33 -63 0 c-63 0 -107 10 -107 24
0 17 71 37 138 40 30 1 32 -1 32 -31z"/>
<path d="M5360 3927 c0 -36 4 -56 10 -52 13 8 13 75 0 95 -7 11 -10 -2 -10
-43z"/>
<path d="M7635 3940 c-3 -5 1 -10 9 -10 9 0 16 5 16 10 0 6 -4 10 -9 10 -6 0
-13 -4 -16 -10z"/>
<path d="M7601 3906 c8 -8 108 -12 103 -4 -3 4 -28 8 -56 8 -28 0 -49 -2 -47
-4z"/>
<path d="M7660 3870 c0 -5 5 -10 10 -10 6 0 10 5 10 10 0 6 -4 10 -10 10 -5 0
-10 -4 -10 -10z"/>
<path d="M7426 3837 c3 -10 9 -15 12 -12 3 3 0 11 -7 18 -10 9 -11 8 -5 -6z"/>
<path d="M7638 3843 c7 -3 16 -2 19 1 4 3 -2 6 -13 5 -11 0 -14 -3 -6 -6z"/>
<path d="M9470 3676 c0 -2 8 -10 18 -17 15 -13 16 -12 3 4 -13 16 -21 21 -21
13z"/>
<path d="M8512 3630 c0 -14 2 -19 5 -12 2 6 2 18 0 25 -3 6 -5 1 -5 -13z"/>
<path d="M9360 3620 l-35 -7 38 -2 c20 0 37 4 37 9 0 6 -1 9 -2 9 -2 -1 -19
-5 -38 -9z"/>
<path d="M5342 2980 c0 -14 2 -19 5 -12 2 6 2 18 0 25 -3 6 -5 1 -5 -13z"/>
<path d="M5333 2865 c0 -44 2 -61 4 -37 2 23 2 59 0 80 -2 20 -4 1 -4 -43z"/>
<path d="M5721 2904 c-1 -12 2 -36 5 -53 5 -25 9 -29 20 -20 16 13 19 39 5 39
-5 0 -7 10 -3 22 3 13 1 19 -6 15 -5 -4 -13 -1 -15 5 -3 7 -6 3 -6 -8z"/>
<path d="M5980 2873 c0 -5 10 -18 23 -29 l22 -19 -20 25 c-11 14 -21 27 -22
29 -2 2 -3 0 -3 -6z"/>
<path d="M6040 2841 c5 -11 15 -23 21 -27 6 -3 3 5 -6 20 -20 30 -30 35 -15 7z"/>
<path d="M5780 2795 c-1 -11 -4 -14 -7 -7 -9 22 -33 13 -33 -13 0 -14 5 -25
10 -25 6 0 10 5 10 12 0 6 2 9 5 6 3 -2 0 -20 -7 -38 -10 -31 -9 -35 14 -54
14 -12 28 -30 31 -41 3 -11 5 -2 5 20 1 44 -25 173 -28 140z"/>
<path d="M6220 2796 c0 -2 7 -7 16 -10 8 -3 12 -2 9 4 -6 10 -25 14 -25 6z"/>
<path d="M5095 2620 c10 -11 20 -20 22 -20 2 0 -2 9 -9 20 -7 11 -17 20 -22
20 -5 0 -1 -9 9 -20z"/>
<path d="M5970 2429 c0 -5 5 -7 10 -4 6 3 10 8 10 11 0 2 -4 4 -10 4 -5 0 -10
-5 -10 -11z"/>
<path d="M4440 2009 c0 -13 5 -31 10 -39 8 -11 9 -5 5 20 -7 42 -15 52 -15 19z"/>
<path d="M9612 2003 c-13 -34 -8 -1100 6 -1198 14 -94 39 -236 49 -270 5 -19
4 -19 -16 2 -11 12 -21 26 -21 30 0 12 -93 93 -107 93 -7 0 -13 4 -13 9 0 15
-71 52 -129 66 -90 22 -471 68 -525 62 -66 -6 -95 -40 -97 -112 l-1 -50 -9 55
c-4 30 -10 88 -13 129 -3 41 -11 79 -17 85 -9 8 -10 8 -5 -1 4 -7 2 -13 -4
-13 -7 0 -10 -6 -7 -14 3 -8 3 -17 -1 -20 -9 -10 -13 -34 -19 -123 -4 -62 -2
-87 8 -100 20 -23 96 -55 118 -48 24 7 65 52 90 99 23 44 26 39 35 -42 7 -69
24 -101 64 -124 42 -23 135 -47 226 -59 38 -4 76 -11 83 -14 25 -9 217 -16
229 -8 6 5 16 22 21 38 11 32 34 36 60 9 8 -8 26 -14 41 -15 15 0 49 -1 75 -2
44 -3 50 0 63 25 13 26 36 123 48 208 65 444 41 716 -100 1127 -41 122 -60
160 -84 166 -13 3 -15 -9 -15 -94 0 -55 4 -99 8 -99 4 0 3 -8 -2 -18 -11 -21
-18 -711 -9 -872 7 -115 7 -115 -8 -60 -12 44 -16 142 -18 495 -2 242 -1 493
3 558 3 64 5 117 3 117 -1 0 -6 -8 -10 -17z m162 -416 c0 -15 3 -27 6 -27 3 0
14 -35 24 -77 9 -43 22 -94 28 -113 23 -73 8 -570 -20 -640 -3 -8 -11 -49 -17
-90 -12 -75 -53 -185 -55 -145 -1 11 -3 40 -5 65 -2 24 -1 48 2 53 3 5 5 53 4
106 -1 55 4 118 12 148 11 41 12 93 6 245 -12 283 -10 510 4 505 7 -2 12 -16
11 -30z"/>
<path d="M7010 2006 c0 -3 9 -10 20 -16 11 -6 20 -8 20 -6 0 3 -9 10 -20 16
-11 6 -20 8 -20 6z"/>
<path d="M7087 1959 c7 -7 15 -10 18 -7 3 3 -2 9 -12 12 -14 6 -15 5 -6 -5z"/>
<path d="M4462 1951 c-22 -13 166 -368 307 -579 20 -30 42 -66 50 -81 27 -49
125 -176 176 -227 93 -93 170 -118 365 -120 92 -1 131 3 148 13 13 8 30 12 38
9 8 -3 32 10 54 31 l40 36 63 -31 c82 -41 107 -46 149 -29 50 21 78 82 78 170
l0 67 36 0 c39 0 104 -15 142 -33 16 -8 46 -7 110 3 48 7 129 12 180 11 92 -2
93 -2 90 21 l-3 23 -270 7 c-148 3 -281 9 -295 12 l-26 5 -1 -77 c0 -48 -6
-91 -16 -115 -17 -40 -28 -50 -20 -17 4 13 -1 26 -13 36 -16 12 -51 13 -210 8
-171 -6 -192 -5 -197 10 -4 9 -16 16 -28 16 -12 0 -23 8 -26 20 -3 11 -10 17
-16 13 -6 -4 -8 0 -4 10 3 8 8 55 11 104 5 82 4 84 -4 24 -5 -35 -12 -66 -15
-69 -3 -3 -6 55 -7 129 l-1 134 -7 -135 c-4 -100 -11 -145 -25 -175 -10 -22
-19 -44 -19 -50 -1 -5 -8 -9 -17 -7 -9 1 -22 -9 -29 -23 -7 -14 -20 -25 -27
-25 -8 0 -12 -4 -9 -9 3 -5 -1 -12 -10 -15 -24 -9 -96 -7 -90 3 3 4 -12 17
-33 27 -22 10 -37 23 -33 28 3 5 -2 6 -12 3 -10 -4 -15 -3 -11 3 3 5 -3 20
-14 32 -12 12 -21 25 -21 28 0 4 -11 13 -25 20 -14 7 -25 19 -25 25 0 7 -12
25 -26 40 -14 16 -31 41 -36 57 -14 41 -30 35 -23 -9 l5 -38 -13 34 c-7 18
-21 39 -30 46 -23 17 -21 28 3 20 11 -4 20 -2 20 4 0 6 -4 11 -9 11 -5 0 -13
9 -16 21 -4 13 -12 18 -22 15 -9 -4 -13 -1 -11 6 5 13 -2 23 -38 63 -12 13
-24 31 -28 40 -4 10 -12 15 -22 11 -10 -4 -14 -1 -11 6 2 7 9 12 15 11 6 -1
-1 15 -16 37 -23 37 -34 44 -54 41 -5 0 -8 4 -8 9 0 6 6 10 13 10 8 0 7 4 -3
10 -11 7 -11 10 -2 10 7 0 -1 14 -18 30 -17 17 -28 35 -25 40 4 6 -4 14 -17
19 -13 4 -22 11 -20 15 5 15 1 27 -8 21 -5 -3 -10 -2 -10 4 0 5 6 12 13 14 7
4 6 6 -4 6 -9 1 -20 13 -23 27 -4 15 -14 33 -21 41 -13 13 -20 41 -16 66 1 9
-1 9 -17 -2z"/>
<path d="M6979 1763 c-13 -16 -12 -17 4 -4 16 13 21 21 13 21 -2 0 -10 -8 -17
-17z"/>
<path d="M6807 1609 c-81 -78 -169 -169 -194 -202 -156 -203 -111 -372 120
-447 48 -15 106 -51 107 -66 0 -6 15 -18 33 -27 17 -10 46 -25 62 -35 56 -34
180 -81 248 -93 114 -21 259 18 492 131 280 137 501 274 577 359 49 54 64 94
73 191 3 36 8 73 11 83 7 22 -3 67 -14 67 -10 0 -32 -105 -32 -156 0 -50 -38
-130 -81 -171 -19 -17 -70 -56 -114 -87 -44 -31 -85 -60 -90 -64 -6 -5 -44
-26 -85 -47 -41 -22 -77 -43 -80 -47 -10 -13 -313 -155 -390 -183 -94 -33
-218 -56 -266 -48 -52 9 -155 111 -179 178 -17 48 -57 95 -81 95 -7 0 -14 6
-17 13 -3 8 -22 22 -42 31 -20 10 -39 24 -42 32 -4 12 -8 12 -21 2 -13 -11
-14 -9 -8 12 4 14 10 32 12 41 2 8 -2 24 -10 34 -13 18 -16 15 -45 -40 -31
-59 -32 -59 -27 -22 3 20 1 35 -4 32 -4 -3 -6 3 -3 14 3 10 0 22 -6 25 -6 4
-11 14 -11 22 0 9 -13 29 -30 46 -32 31 -42 60 -13 37 15 -13 15 -12 3 8 -11
16 -17 19 -27 11 -9 -7 -13 -7 -13 1 0 7 -4 9 -10 6 -21 -13 -8 12 35 70 25
33 107 122 182 198 76 75 135 137 132 137 -3 0 -71 -64 -152 -141z"/>
<path d="M5312 1690 c0 -14 2 -19 5 -12 2 6 2 18 0 25 -3 6 -5 1 -5 -13z"/>
<path d="M5322 1620 c0 -14 2 -19 5 -12 2 6 2 18 0 25 -3 6 -5 1 -5 -13z"/>
<path d="M5332 1535 c0 -16 2 -22 5 -12 2 9 2 23 0 30 -3 6 -5 -1 -5 -18z"/>
<path d="M6801 1234 c0 -11 3 -14 6 -6 3 7 2 16 -1 19 -3 4 -6 -2 -5 -13z"/>
<path d="M6850 1106 c0 -2 7 -6 15 -10 8 -3 15 -1 15 4 0 6 -7 10 -15 10 -8 0
-15 -2 -15 -4z"/>
</g>
</svg>
