<?xml version="1.0" standalone="no"?>
<!DOCTYPE svg PUBLIC "-//W3C//DTD SVG 20010904//EN"
 "http://www.w3.org/TR/2001/REC-SVG-20010904/DTD/svg10.dtd">
<svg version="1.0" xmlns="http://www.w3.org/2000/svg"
 width="920.000000pt" height="834.000000pt" viewBox="0 0 920.000000 834.000000"
 preserveAspectRatio="xMidYMid meet">

<g transform="translate(0.000000,834.000000) scale(0.100000,-0.100000)"
fill="#000000" stroke="none">
<path d="M8473 7838 c-32 -8 -78 -59 -65 -72 3 -4 1 -11 -7 -15 -7 -5 -19 -51
-27 -107 -8 -55 -19 -110 -24 -124 -16 -39 -40 -185 -50 -293 -4 -54 -10 -101
-13 -103 -2 -3 -10 10 -18 28 -15 37 -37 58 -55 51 -16 -6 -64 26 -64 42 0 7
-73 61 -161 120 -123 82 -182 114 -246 136 l-84 28 -138 -54 c-136 -54 -141
-55 -241 -55 -68 0 -132 -7 -190 -21 l-87 -20 -62 21 c-34 11 -78 21 -97 22
-30 1 -34 4 -34 29 0 49 -22 80 -68 100 -34 15 -48 17 -58 8 -11 -9 -14 -9
-14 0 0 29 -79 -19 -83 -50 -2 -8 -6 -19 -10 -25 -3 -6 -12 -45 -19 -85 -6
-41 -13 -76 -14 -78 -2 -2 -35 4 -73 14 l-70 17 -3 96 -3 97 -74 3 c-42 2 -79
-2 -84 -7 -10 -10 -12 -26 -16 -112 -1 -36 -2 -37 -43 -41 -30 -3 -103 11
-245 48 -112 28 -203 50 -203 47 0 -2 5 -14 11 -25 10 -18 9 -20 -6 -15 -9 4
-23 7 -31 7 -8 0 -14 8 -14 18 0 14 -2 15 -10 2 -8 -12 -37 -8 -207 35 -109
27 -210 58 -225 67 -14 10 -30 18 -34 18 -5 0 6 -10 25 -23 18 -12 39 -38 47
-56 13 -30 12 -32 -1 -21 -8 7 -15 19 -15 26 0 8 -18 25 -40 39 -23 14 -39 29
-36 34 6 8 -6 11 -74 14 -25 2 -80 11 -122 22 -71 17 -77 20 -72 41 3 12 -1
35 -9 50 -13 26 -28 32 -163 66 -91 24 -150 34 -152 28 -2 -5 -9 -7 -14 -3 -6
3 -24 7 -39 8 -20 2 -30 -4 -38 -22 -17 -36 -13 -71 9 -93 19 -19 19 -20 2
-20 -11 0 -30 -9 -43 -21 -13 -11 -40 -30 -59 -42 -19 -13 -36 -33 -38 -45 -2
-12 -10 -22 -18 -22 -15 0 -17 -9 -14 -47 1 -13 -3 -23 -9 -23 -6 0 -11 -21
-11 -50 0 -30 4 -50 11 -50 7 0 9 -11 6 -30 -6 -26 -3 -30 14 -30 17 0 20 -5
16 -22 -9 -32 9 -55 45 -63 18 -4 51 -24 73 -45 36 -34 49 -39 140 -55 65 -11
117 -27 150 -45 28 -15 82 -33 120 -40 39 -7 85 -22 103 -33 25 -15 50 -20 95
-19 79 2 480 -74 527 -99 22 -12 55 -19 90 -19 30 0 90 -5 133 -12 73 -11 94
-22 63 -34 -20 -8 -27 -43 -14 -68 17 -34 71 -86 88 -86 8 0 33 14 54 31 l38
32 151 -27 c210 -37 191 -28 182 -95 -8 -57 -12 -105 -14 -176 -1 -22 -8 -48
-16 -59 -13 -18 -18 -15 -84 46 -112 103 -167 141 -316 216 l-140 70 -267 47
c-148 25 -314 50 -370 54 -123 10 -295 -6 -496 -45 -151 -30 -226 -64 -280
-130 l-29 -35 -47 22 c-25 13 -46 26 -46 29 0 3 16 12 36 19 l36 13 -280 152
-280 152 -108 18 -109 18 -140 -42 c-137 -42 -142 -42 -240 -36 -55 4 -109 8
-120 9 -19 3 -159 -34 -200 -53 -11 -5 -60 -19 -110 -31 -49 -11 -115 -31
-147 -44 -34 -14 -60 -19 -65 -14 -6 6 -20 6 -38 -1 -20 -8 -31 -7 -43 2 -8 7
-49 17 -91 23 l-76 11 -5 74 -5 75 -65 0 -65 0 3 -61 3 -62 -78 -4 c-53 -3
-145 4 -283 23 -242 34 -244 34 -236 14 4 -10 -1 -15 -14 -15 -11 0 -20 6 -20
13 0 9 -2 9 -8 0 -6 -10 -58 -6 -241 18 -129 16 -243 29 -255 27 -11 -2 -30 5
-40 14 -11 10 -29 18 -40 17 -20 0 -20 -1 1 -11 12 -6 27 -24 33 -41 11 -34 5
-52 -7 -20 -15 38 -73 78 -109 74 -17 -1 -69 3 -113 9 -73 11 -81 14 -81 34 0
46 -18 54 -175 75 -175 24 -178 25 -169 10 4 -8 0 -8 -15 0 -32 18 -44 4 -38
-45 5 -44 4 -44 -44 -71 -27 -14 -52 -35 -55 -47 -4 -12 -11 -24 -15 -27 -15
-9 -24 -129 -10 -129 8 0 10 -8 6 -20 -3 -11 -2 -20 3 -20 5 0 12 -9 15 -21 3
-11 15 -23 26 -26 12 -3 21 -9 21 -14 0 -13 72 -59 93 -59 10 0 16 4 12 9 -3
5 0 13 6 16 5 4 13 -2 15 -12 5 -17 21 -21 125 -31 66 -7 130 -18 142 -26 12
-8 63 -17 112 -21 50 -4 99 -12 110 -18 11 -6 65 -12 120 -12 128 -2 523 -43
552 -57 12 -6 48 -10 80 -10 32 1 114 -4 183 -10 137 -12 166 -23 212 -82 32
-40 64 -49 93 -26 18 15 33 15 181 2 148 -14 163 -14 194 2 33 16 34 16 55 -9
18 -23 23 -25 48 -16 44 17 47 14 32 -30 -18 -51 -19 -83 -3 -97 21 -16 494
-252 506 -252 6 0 12 -23 14 -52 l3 -53 70 -7 c39 -3 113 -9 165 -13 l96 -7
18 -139 c18 -135 19 -139 42 -139 23 0 24 -3 24 -60 l0 -59 127 -61 c115 -55
135 -62 210 -67 69 -5 84 -9 88 -24 6 -17 17 -19 91 -19 79 0 85 -2 93 -23 5
-12 56 -102 114 -200 58 -97 109 -187 113 -199 3 -13 24 -48 46 -79 44 -64 57
-69 170 -69 l70 0 -83 -92 c-88 -95 -89 -97 -154 -197 -22 -34 -45 -59 -51
-57 -21 8 -53 -33 -148 -187 -79 -131 -96 -165 -96 -198 0 -47 2 -42 -109
-224 l-85 -140 3 -66 3 -66 -40 -32 c-22 -17 -45 -31 -50 -31 -12 0 -19 -22
-56 -160 l-25 -95 33 -105 33 -104 -37 -61 -38 -61 87 -105 86 -104 5 -91 6
-90 78 -95 c43 -52 84 -100 90 -107 20 -21 274 -65 326 -56 25 4 71 8 103 8
54 1 58 -1 52 -19 -4 -11 -9 -40 -12 -65 -3 -25 -14 -54 -23 -65 -16 -18 -59
-120 -135 -322 -20 -51 -21 -63 -10 -63 8 0 15 -3 15 -6 0 -4 -31 -41 -69 -83
-55 -61 -86 -111 -161 -256 -94 -184 -118 -215 -193 -248 -42 -18 -89 -105
-85 -159 l3 -42 68 -17 69 -17 84 35 c78 34 87 35 125 24 35 -11 39 -15 33
-34 -4 -12 -7 -38 -8 -57 l-1 -35 75 -19 75 -19 95 41 c52 23 166 62 252 87
l157 44 98 -25 98 -26 42 21 c38 18 43 25 43 55 l0 34 146 -5 c138 -5 148 -4
197 18 29 13 55 28 59 34 4 5 8 38 8 73 0 59 -2 65 -41 107 -23 25 -40 47 -38
48 2 2 67 30 143 63 77 32 146 65 153 72 9 10 13 49 13 144 l0 131 -34 41
c-33 40 -38 43 -130 60 -53 10 -96 22 -96 27 0 5 -9 9 -20 9 -16 0 -20 7 -20
34 0 19 -9 53 -19 77 -23 50 -19 61 14 53 32 -8 93 13 105 36 6 10 10 42 10
70 0 36 12 82 44 163 53 134 115 332 151 480 22 92 26 132 26 258 0 86 4 151
9 154 6 4 8 10 5 15 -6 9 10 15 66 25 l36 7 -30 -133 -30 -132 27 -123 27
-123 -35 -69 -35 -69 126 -189 c78 -116 130 -204 135 -229 5 -22 44 -93 86
-157 69 -105 81 -117 112 -123 19 -3 96 -18 171 -32 l136 -25 7 -55 c3 -30 4
-58 1 -63 -3 -4 -28 -81 -56 -171 -28 -90 -58 -171 -65 -180 -8 -8 -14 -23
-14 -32 0 -10 -29 -54 -64 -98 -67 -85 -101 -144 -111 -192 -3 -16 -16 -32
-30 -39 -23 -10 -25 -17 -25 -74 0 -70 -35 -166 -64 -177 -11 -4 -16 -18 -16
-43 0 -28 -7 -42 -35 -67 -19 -17 -35 -36 -35 -43 0 -7 -9 -19 -20 -27 -28
-19 -70 -128 -70 -180 l0 -42 90 -24 90 -23 77 44 c85 49 71 48 200 12 50 -14
52 -15 43 -40 -6 -14 -10 -43 -10 -64 0 -42 -5 -40 150 -81 l45 -12 87 57 c47
31 95 56 107 56 11 0 84 24 160 54 l140 55 108 -29 108 -30 37 25 c35 23 38
29 38 71 l0 46 158 -7 157 -7 41 30 c44 32 54 59 54 154 0 45 -1 48 -85 124
-67 61 -83 80 -73 89 7 7 55 38 106 69 l92 58 0 73 c0 80 -12 125 -33 125 -10
0 -12 14 -9 58 4 50 0 64 -25 107 -27 47 -32 50 -87 61 -59 12 -78 26 -69 51
8 20 -17 103 -40 136 l-19 28 34 -2 c38 -3 75 14 100 45 14 17 18 42 18 138 0
132 20 217 64 269 34 40 67 112 102 224 27 84 29 99 26 237 -1 81 -7 159 -12
173 -6 15 -10 75 -10 134 l0 107 -76 164 c-42 91 -77 166 -78 167 -1 1 -95 11
-211 23 -115 11 -211 22 -212 24 -2 2 -1 10 3 19 4 12 22 17 62 19 l57 3 27
50 c15 28 29 53 30 56 2 3 15 9 30 12 24 6 27 4 30 -24 3 -27 9 -34 53 -50 57
-22 291 -47 305 -33 5 5 63 155 129 333 67 179 123 326 125 329 3 2 17 -19 31
-48 31 -62 19 -74 130 125 43 77 99 176 125 220 55 96 67 125 76 189 5 38 14
55 43 81 20 18 44 55 55 81 23 63 33 215 17 281 -13 55 -60 119 -97 133 -32
13 -36 58 -7 90 21 24 22 34 23 205 2 157 0 180 -14 183 -12 3 -16 17 -17 65
0 34 -8 107 -17 162 -17 99 -17 100 -47 103 -41 5 -60 25 -81 82 -16 45 -21
49 -56 55 -36 6 -39 9 -34 33 3 15 8 53 12 84 4 37 13 63 25 74 20 18 26 59 9
69 -5 3 -10 25 -10 48 -1 23 -7 68 -14 99 -13 51 -12 73 4 185 10 71 23 145
28 166 6 20 8 45 5 55 -6 24 54 469 67 493 6 10 10 38 10 62 -2 74 9 259 21
344 17 126 -11 185 -90 189 -21 1 -43 4 -47 6 -5 3 -23 1 -41 -4z m2 -37 c3
-5 1 -12 -5 -16 -5 -3 -10 1 -10 9 0 18 6 21 15 7z m135 -22 c0 -5 -4 -9 -10
-9 -5 0 -10 7 -10 16 0 8 5 12 10 9 6 -3 10 -10 10 -16z m-4052 -6 c-5 -25
-28 -28 -28 -4 0 12 6 21 16 21 9 0 14 -7 12 -17z m179 -176 c-1 -6 13 -19 31
-28 l32 -17 -39 0 c-33 -1 -38 2 -34 18 3 10 0 21 -6 24 -16 10 -13 26 4 20 8
-3 13 -11 12 -17z m-117 -12 c0 -8 -4 -15 -9 -15 -5 0 -14 7 -21 15 -10 13 -9
15 9 15 12 0 21 -6 21 -15z m36 -46 c-29 -8 -46 -5 -46 10 0 4 17 5 38 2 l37
-4 -29 -8z m2114 -34 c0 -2 -7 -5 -15 -9 -9 -3 -15 0 -15 9 0 9 6 12 15 9 8
-4 15 -7 15 -9z m-2132 -94 c8 -23 7 -31 -4 -35 -10 -4 -14 3 -14 29 0 43 5
44 18 6z m102 -51 c8 -5 11 -12 7 -16 -4 -4 -15 0 -24 9 -18 18 -8 23 17 7z
m-125 -38 c-22 -5 -29 3 -21 25 7 17 8 17 22 -2 13 -18 13 -20 -1 -23z m2972
12 c-3 -3 -12 -4 -19 -1 -8 3 -5 6 6 6 11 1 17 -2 13 -5z m-2847 -33 c0 -12
-28 -22 -34 -12 -3 5 -3 11 1 15 9 9 33 7 33 -3z m3010 -46 c0 -5 -5 -3 -10 5
-5 8 -10 20 -10 25 0 6 5 3 10 -5 5 -8 10 -19 10 -25z m-3235 5 c-3 -5 -12
-10 -18 -10 -7 0 -6 4 3 10 19 12 23 12 15 0z m2205 6 c0 -2 -9 -6 -20 -9 -11
-3 -18 -1 -14 4 5 9 34 13 34 5z m-2255 -16 c3 -5 -1 -10 -9 -10 -9 0 -16 5
-16 10 0 6 4 10 9 10 6 0 13 -4 16 -10z m2390 -27 l20 -16 -20 8 c-11 5 -32 8
-47 8 -15 0 -25 4 -22 8 8 14 47 10 69 -8z m-2255 -49 c0 -8 -4 -12 -10 -9 -5
3 -10 10 -10 16 0 5 5 9 10 9 6 0 10 -7 10 -16z m2940 -14 c0 -5 -4 -10 -10
-10 -5 0 -10 5 -10 10 0 6 5 10 10 10 6 0 10 -4 10 -10z m-7204 -77 c-10 -10
-19 5 -10 18 6 11 8 11 12 0 2 -7 1 -15 -2 -18z m7234 -43 c0 -5 -5 -10 -11
-10 -5 0 -7 5 -4 10 3 6 8 10 11 10 2 0 4 -4 4 -10z m-7211 -91 c-20 -13 -36
-11 -42 4 -4 10 3 12 25 9 21 -3 26 -7 17 -13z m95 6 c3 -8 15 -15 27 -15 29
0 22 -6 -18 -13 -26 -5 -31 -4 -26 9 3 9 0 20 -8 25 -11 7 -11 9 2 9 9 0 19
-7 23 -15z m-99 -35 c3 -5 2 -10 -4 -10 -5 0 -13 5 -16 10 -3 6 -2 10 4 10 5
0 13 -4 16 -10z m3098 -57 c-7 -2 -19 -2 -25 0 -7 3 -2 5 12 5 14 0 19 -2 13
-5z m3844 -15 c-3 -8 -6 -5 -6 6 -1 11 2 17 5 13 3 -3 4 -12 1 -19z m153 -8
c0 -5 -2 -10 -4 -10 -3 0 -8 5 -11 10 -3 6 -1 10 4 10 6 0 11 -4 11 -10z
m-7087 -36 c-9 -23 -23 -16 -23 12 0 22 2 24 14 14 8 -6 12 -18 9 -26z m7397
0 c0 -8 -4 -12 -10 -9 -5 3 -10 10 -10 16 0 5 5 9 10 9 6 0 10 -7 10 -16z
m-3725 -14 c16 -17 16 -20 2 -20 -28 0 -68 20 -62 30 10 16 41 11 60 -10z
m-3570 -10 c3 -5 -1 -10 -9 -10 -8 0 -18 5 -21 10 -3 6 1 10 9 10 8 0 18 -4
21 -10z m2379 2 c2 -4 -10 -8 -29 -8 -19 0 -31 4 -29 8 3 4 16 8 29 8 13 0 26
-4 29 -8z m-2490 -18 c4 -10 1 -14 -6 -12 -15 5 -23 28 -10 28 5 0 13 -7 16
-16z m2556 -4 c0 -5 -8 -10 -17 -10 -15 0 -16 2 -3 10 19 12 20 12 20 0z
m-2450 -20 c0 -5 -9 -10 -21 -10 -11 0 -17 5 -14 10 3 6 13 10 21 10 8 0 14
-4 14 -10z m2950 -4 c0 -3 -4 -8 -10 -11 -5 -3 -10 -1 -10 4 0 6 5 11 10 11 6
0 10 -2 10 -4z m-675 -77 c25 -38 26 -47 21 -108 -3 -36 -6 -69 -6 -73 0 -11
-30 -10 -30 1 0 5 4 21 9 34 7 17 5 42 -4 78 -31 127 -31 129 10 68z m121 -1
c3 -13 13 -31 21 -40 20 -22 9 -156 -14 -165 -22 -9 -25 2 -10 38 11 27 11 42
2 74 -18 59 -25 115 -15 115 5 0 12 -10 16 -22z m-226 -66 c0 -69 -24 -48 -28
24 -2 54 -1 57 13 40 8 -11 15 -40 15 -64z m1405 58 c3 -5 1 -10 -4 -10 -6 0
-11 5 -11 10 0 6 2 10 4 10 3 0 8 -4 11 -10z m3585 0 c0 -5 -4 -10 -10 -10 -5
0 -10 5 -10 10 0 6 5 10 10 10 6 0 10 -4 10 -10z m105 -10 c3 -5 1 -10 -4 -10
-6 0 -11 5 -11 10 0 6 2 10 4 10 3 0 8 -4 11 -10z m-2925 -9 c0 -5 10 -7 23
-4 20 4 20 3 4 -7 -14 -9 -22 -9 -34 2 -14 11 -16 11 -11 -3 5 -12 1 -15 -18
-11 -28 5 -32 19 -6 25 30 8 42 7 42 -2z m3040 -11 c0 -5 -4 -10 -10 -10 -5 0
-10 5 -10 10 0 6 5 10 10 10 6 0 10 -4 10 -10z m380 0 c0 -5 -7 -10 -15 -10
-8 0 -15 5 -15 10 0 6 7 10 15 10 8 0 15 -4 15 -10z m-3497 -20 c-4 -15 -9
-18 -18 -10 -9 8 -15 8 -20 0 -3 -5 -1 -10 6 -10 24 0 -37 -38 -66 -41 -17 -2
-36 -7 -42 -12 -8 -6 -13 -6 -13 1 0 6 5 14 10 17 8 5 7 11 -1 21 -9 11 -8 14
9 14 11 0 22 -7 26 -15 8 -23 28 -18 21 5 -5 16 2 21 42 34 26 8 49 15 50 15
0 1 -1 -8 -4 -19z m-194 -49 c-18 -15 -39 -20 -86 -21 -34 0 -64 3 -67 8 -2 4
12 6 32 4 21 -2 58 5 87 16 58 23 68 21 34 -7z m709 -32 c-3 -20 -5 -19 -9 9
-3 20 -2 29 4 23 5 -5 7 -19 5 -32z m512 37 c0 -11 -19 -15 -25 -6 -3 5 1 10
9 10 9 0 16 -2 16 -4z m-1200 -15 c0 -6 -5 -13 -10 -16 -8 -5 -7 -11 1 -21 10
-12 10 -15 -2 -12 -9 2 -14 -5 -13 -19 0 -12 -3 -20 -7 -17 -4 2 -10 -2 -13
-8 -6 -12 -3 8 5 42 3 9 -2 14 -11 12 -10 -2 -6 6 9 22 25 27 41 33 41 17z
m1243 2 c-7 -2 -19 -2 -25 0 -7 3 -2 5 12 5 14 0 19 -2 13 -5z m-3173 -33 c0
-24 -4 -30 -21 -30 -20 0 -20 1 -2 30 9 17 19 30 20 30 2 0 3 -13 3 -30z
m3308 9 c12 -5 22 -10 22 -12 0 -4 -117 20 -135 28 -18 8 90 -8 113 -16z
m-721 -11 c-3 -8 -6 -5 -6 6 -1 11 2 17 5 13 3 -3 4 -12 1 -19z m676 -4 c9 -3
17 -9 17 -14 0 -10 -81 9 -95 22 -9 9 30 5 78 -8z m-2543 -24 c0 -5 -2 -10 -4
-10 -3 0 -8 5 -11 10 -3 6 -1 10 4 10 6 0 11 -4 11 -10z m2477 4 c-3 -3 -12
-4 -19 -1 -8 3 -5 6 6 6 11 1 17 -2 13 -5z m46 -11 c-7 -2 -19 -2 -25 0 -7 3
-2 5 12 5 14 0 19 -2 13 -5z m-2223 -24 c0 -6 -4 -7 -10 -4 -5 3 -10 11 -10
16 0 6 5 7 10 4 6 -3 10 -11 10 -16z m2330 9 c0 -10 -27 -9 -60 2 -20 6 -17 8
17 6 24 0 43 -4 43 -8z m-2470 -128 c0 -5 -4 -10 -10 -10 -5 0 -10 5 -10 10 0
6 5 10 10 10 6 0 10 -4 10 -10z m1235 -10 c23 -25 12 -39 -13 -17 -24 22 -37
9 -15 -15 9 -10 13 -21 10 -25 -9 -9 -36 27 -37 49 0 14 12 25 31 27 3 1 14
-8 24 -19z m-1137 -2 c-2 -6 -10 -13 -16 -14 -7 -1 -8 0 -2 3 5 2 8 9 4 14 -3
5 0 9 6 9 7 0 10 -5 8 -12z m3677 2 c-33 -3 -69 -3 -80 1 -12 5 13 7 60 7 l80
-1 -60 -7z m859 -25 c-7 -19 -14 -51 -14 -71 l0 -37 -60 6 -59 7 -6 -38 c-4
-20 -8 -41 -9 -46 -1 -4 -19 17 -40 49 -20 31 -35 60 -31 63 7 7 217 102 227
102 4 0 0 -16 -8 -35z m-4424 15 c0 -5 -2 -10 -4 -10 -3 0 -8 5 -11 10 -3 6
-1 10 4 10 6 0 11 -4 11 -10z m350 6 c0 -11 -19 -15 -25 -6 -3 5 1 10 9 10 9
0 16 -2 16 -4z m3299 -28 c12 -16 11 -18 -13 -18 -24 0 -26 2 -16 21 7 11 13
19 14 17 1 -1 8 -11 15 -20z m-2913 -48 c0 -12 -4 -16 -9 -11 -5 5 -6 14 -3
20 10 15 12 14 12 -9z m2909 -45 c-1 -29 -6 -50 -16 -56 -7 -5 -9 -9 -4 -9 6
0 15 -8 22 -19 10 -16 9 -18 -10 -16 -12 1 -30 3 -40 4 -10 0 -16 5 -12 11 3
5 12 7 20 3 10 -3 15 1 13 13 0 11 0 45 0 78 2 46 5 56 15 48 7 -6 12 -31 12
-57z m-2661 37 c-18 -15 -19 -21 -9 -35 6 -9 16 -13 21 -9 6 4 -11 -12 -36
-35 -51 -48 -68 -55 -44 -18 9 14 23 25 30 25 9 0 14 11 14 28 l-1 27 -17 -28
c-9 -15 -23 -25 -30 -22 -7 3 -10 0 -6 -6 3 -6 -5 -22 -17 -36 -13 -15 -18
-23 -11 -19 7 4 12 2 12 -6 -1 -12 -123 -100 -179 -128 -19 -10 -22 -9 -19 2
3 7 1 21 -4 31 -5 11 -5 17 2 17 5 0 10 -7 10 -15 0 -8 5 -15 11 -15 6 0 8 11
4 28 -4 21 0 36 14 53 17 21 22 22 41 11 19 -11 26 -8 78 41 70 66 144 127
151 127 3 -1 -4 -9 -15 -18z m1239 -44 c10 -16 13 -28 7 -28 -6 0 -14 10 -19
22 l-8 23 -7 -22 c-4 -12 -14 -27 -23 -35 -12 -9 -10 0 7 29 13 24 24 42 25
40 0 -1 9 -14 18 -29z m-486 -65 c-3 -10 -5 -2 -5 17 0 19 2 27 5 18 2 -10 2
-26 0 -35z m119 20 c-10 -10 -19 5 -10 18 6 11 8 11 12 0 2 -7 1 -15 -2 -18z
m361 1 c-3 -3 -12 -4 -19 -1 -8 3 -5 6 6 6 11 1 17 -2 13 -5z m1351 -11 c-16
-2 -40 -2 -55 0 -16 2 -3 4 27 4 30 0 43 -2 28 -4z m-1691 -9 c-3 -3 -12 -4
-19 -1 -8 3 -5 6 6 6 11 1 17 -2 13 -5z m-140 -91 c-2 -16 -4 -5 -4 22 0 28 2
40 4 28 2 -13 2 -35 0 -50z m-2067 53 c0 -8 -60 -12 -72 -4 -8 4 4 8 30 8 23
0 42 -2 42 -4z m55 -6 c8 -13 -5 -13 -25 0 -13 8 -13 10 2 10 9 0 20 -4 23
-10z m4660 -11 c11 -17 0 -20 -21 -4 -17 13 -17 14 -2 15 9 0 20 -5 23 -11z
m-3932 -79 c-4 -54 -2 -84 6 -94 18 -22 -4 -129 -37 -178 l-26 -40 -65 6 c-36
4 -67 8 -68 10 -2 1 0 30 3 63 7 60 7 61 40 68 l34 6 0 104 0 103 43 15 c76
27 76 27 70 -63z m1820 53 c-7 -2 -19 -2 -25 0 -7 3 -2 5 12 5 14 0 19 -2 13
-5z m-1345 -34 c-6 -16 -12 -28 -15 -26 -7 7 8 57 18 57 4 0 3 -14 -3 -31z
m62 -4 c-6 -8 -9 -18 -6 -24 4 -5 -3 -7 -16 -3 -22 5 -22 5 5 -31 15 -19 27
-39 27 -44 0 -4 -5 0 -11 10 -6 9 -16 14 -22 11 -7 -4 -9 -4 -5 1 13 14 -12
33 -35 28 -15 -4 -8 5 23 30 48 39 60 46 40 22z m2900 0 c0 -12 21 -30 58 -50
1 -1 -5 -37 -13 -81 -26 -139 -33 -204 -21 -205 25 -1 -32 -18 -65 -18 l-35
-1 -12 158 c-18 232 -21 212 38 212 37 0 50 -4 50 -15z m-1265 -35 c-3 -5 -12
-10 -18 -10 -7 0 -6 4 3 10 19 12 23 12 15 0z m702 -11 c2 -19 0 -19 -10 -6
-7 9 -23 18 -37 20 -19 3 -17 5 10 6 30 1 36 -3 37 -20z m859 -20 c3 -6 -5 -3
-20 6 -14 10 -26 19 -26 22 0 7 39 -17 46 -28z m-1649 -1 c98 -2 133 -6 133
-15 0 -7 12 -14 28 -14 15 -1 36 -3 47 -4 74 -11 91 -12 100 -4 6 4 17 4 25
-1 13 -8 12 -10 -3 -10 -15 0 -16 -3 -7 -21 11 -19 10 -20 -11 -9 -20 11 -21
10 -15 -6 6 -15 5 -16 -5 -7 -8 8 -18 9 -29 3 -9 -5 -22 -5 -31 1 -12 7 -12 9
1 10 8 1 20 1 27 0 6 -1 14 2 17 7 2 4 -10 7 -27 7 -18 -1 -38 3 -45 8 -20 15
-64 18 -56 4 4 -7 -3 -2 -15 11 -18 18 -34 22 -86 23 -36 1 -69 3 -75 4 -5 1
-39 3 -75 4 -39 0 -65 5 -65 12 0 6 8 8 18 5 9 -3 77 -6 149 -8z m-1661 -15
c-2 -10 -12 -47 -22 -83 -9 -36 -23 -70 -30 -76 -8 -6 -9 -15 -4 -24 11 -17 4
-30 -17 -30 -12 0 -14 7 -9 31 4 22 2 29 -7 27 -6 -3 -13 -18 -15 -34 -1 -16
-7 -46 -13 -68 -9 -34 -8 -40 10 -52 17 -13 19 -23 17 -95 -2 -45 -9 -86 -15
-92 -7 -7 -12 -7 -11 -2 5 22 -1 27 -15 15 -13 -11 -14 -10 -9 6 4 10 4 16 -1
12 -4 -4 -14 0 -22 10 -8 9 -12 12 -9 5 4 -6 1 -15 -5 -18 -5 -4 -8 -13 -5
-21 7 -17 -10 -19 -18 -1 -3 6 -4 -10 -2 -38 3 -27 2 -42 0 -32 -3 9 -9 17
-14 17 -4 0 -7 -8 -6 -17 2 -10 -2 -21 -8 -25 -7 -5 -4 -8 8 -8 15 0 16 -3 6
-15 -10 -13 -15 -12 -35 3 -15 11 -19 19 -11 24 7 5 5 8 -6 8 -11 0 -15 5 -12
14 3 8 -3 19 -15 26 -12 6 -21 17 -21 24 0 8 -7 16 -15 20 -23 8 -18 25 6 19
11 -3 25 -16 30 -29 11 -31 17 -30 11 2 -3 17 2 31 17 45 22 21 28 35 11 24
-6 -4 -13 8 -17 25 -4 22 -8 28 -14 18 -9 -14 -7 25 6 120 7 45 11 53 26 49
18 -5 32 18 45 78 5 24 4 28 -6 18 -13 -12 -40 -7 -40 8 0 5 6 9 13 9 14 0
205 96 222 111 15 15 27 10 21 -8z m1884 7 c0 -5 -13 -10 -30 -10 -16 0 -30 4
-30 8 0 4 14 9 30 10 17 1 30 -2 30 -8z m350 -10 c0 -5 -4 -10 -10 -10 -5 0
-10 -5 -10 -11 0 -5 5 -7 10 -4 14 9 13 -88 -2 -120 -6 -14 -15 -25 -20 -25
-5 0 -4 9 2 19 17 32 13 43 -11 30 -16 -8 -20 -8 -14 1 11 17 -25 52 -41 39
-8 -7 -14 -7 -19 1 -5 8 -11 7 -22 -2 -15 -12 -15 -11 -2 10 13 21 15 21 27 5
13 -19 17 -6 3 16 -7 11 -13 10 -33 -3 -22 -15 -27 -15 -38 -1 -12 15 -35 11
-25 -5 3 -5 2 -11 -3 -14 -13 -8 -11 27 2 39 16 15 47 18 44 4 -2 -6 3 -14 11
-17 8 -2 11 0 7 6 -3 6 -2 13 4 17 26 16 2 23 -91 23 -55 0 -103 3 -107 6 -3
3 72 6 166 6 108 0 172 -4 172 -10z m1136 -21 c3 -6 -5 -3 -20 6 -14 10 -26
19 -26 22 0 7 39 -17 46 -28z m-3365 -77 c-12 -44 -20 -91 -19 -104 1 -12 -7
-41 -17 -62 -14 -29 -16 -41 -7 -44 7 -2 12 -12 12 -22 0 -10 5 -22 12 -26 7
-5 8 -3 3 6 -6 9 -4 11 6 4 16 -9 69 -6 84 6 6 4 86 33 179 64 201 68 196 65
227 110 13 20 30 36 37 36 7 0 10 5 6 12 -4 7 -3 8 5 4 20 -13 51 4 51 28 0
50 23 56 201 55 l165 0 17 -27 c8 -15 45 -62 81 -106 66 -79 75 -100 55 -138
-6 -11 -8 -22 -5 -25 2 -3 12 11 20 31 11 27 13 44 6 62 -6 14 -10 27 -10 30
0 9 29 3 36 -8 4 -7 3 -8 -4 -4 -7 4 -12 3 -12 -2 0 -6 21 -12 47 -14 39 -3
52 1 86 27 77 58 122 85 145 85 13 0 20 -4 17 -10 -3 -5 -16 -10 -29 -10 -13
0 -32 -8 -44 -17 -12 -10 -53 -40 -92 -67 -38 -27 -70 -52 -69 -55 0 -5 169
-149 181 -154 2 -1 17 8 32 21 32 25 34 31 35 150 1 66 4 82 16 82 8 0 15 5
15 10 0 6 -4 10 -10 10 -5 0 -10 5 -10 10 0 6 9 10 20 10 22 0 28 -34 9 -46
-8 -4 -8 -9 0 -17 13 -13 13 -93 1 -122 -5 -11 -9 -15 -9 -10 -2 18 -21 -19
-21 -40 0 -25 -70 -87 -84 -76 -6 4 -21 11 -33 14 -20 4 -21 3 -12 -14 8 -16
5 -22 -21 -37 -17 -9 -39 -23 -48 -30 -15 -12 -15 -13 3 -6 63 22 110 10 84
-23 -6 -7 -8 -17 -4 -22 3 -7 0 -8 -9 -5 -11 4 -14 14 -10 30 l6 23 -69 -27
c-37 -14 -91 -38 -119 -52 -44 -23 -50 -24 -47 -9 3 10 11 15 18 13 17 -7 31
16 16 25 -7 5 -3 12 14 19 21 10 25 9 25 -3 0 -8 5 -15 11 -15 6 0 8 8 5 18
-4 13 10 24 70 52 74 34 75 35 52 50 -12 8 -51 38 -84 67 l-62 52 -46 -94
c-25 -51 -50 -97 -57 -101 -7 -4 -9 -3 -5 4 3 6 2 13 -4 17 -6 3 -14 -4 -19
-17 -6 -13 -10 -17 -10 -11 -1 7 17 52 39 99 22 48 38 89 36 91 -2 2 -30 -47
-62 -110 -45 -90 -61 -113 -75 -110 -10 3 -40 39 -68 82 -28 42 -60 82 -71 89
-18 11 -20 10 -20 -12 0 -36 18 -70 43 -81 12 -6 26 -25 32 -46 5 -19 17 -47
26 -60 19 -29 9 -59 -19 -59 -11 0 -18 -8 -18 -18 0 -17 4 -18 33 -9 22 7 37
7 43 1 14 -14 100 -297 100 -329 0 -16 -6 -25 -15 -25 -18 0 -20 16 -2 23 8 4
8 8 2 14 -5 4 -10 14 -11 21 -3 36 -5 41 -17 36 -12 -4 -18 14 -73 208 -3 9
-11 19 -20 22 -19 7 -365 -97 -433 -131 -29 -15 -56 -33 -58 -41 -3 -7 6 -54
19 -105 23 -86 26 -92 54 -97 46 -8 129 4 264 40 69 18 140 36 157 40 34 8 33
9 24 -39 -1 -2 -8 2 -16 9 -20 16 -49 5 -41 -16 5 -14 4 -15 -9 -4 -12 10 -18
9 -32 -9 -21 -26 -92 -36 -130 -18 -21 9 -27 8 -34 -6 -6 -10 -16 -14 -26 -10
-13 5 -15 2 -10 -11 6 -16 0 -17 -68 -14 -41 2 -75 7 -75 12 0 5 -3 6 -7 2 -8
-7 -9 -11 -12 -37 -1 -8 -7 -7 -18 2 -10 8 -14 9 -10 2 12 -19 -15 -28 -28
-10 -13 18 -26 23 -24 10 4 -22 -3 -33 -18 -33 -16 1 -16 2 1 11 15 9 16 13 5
20 -11 7 -9 10 8 15 36 10 34 74 -4 97 -7 4 -13 17 -13 27 0 10 -8 24 -17 29
-12 7 -14 10 -4 11 11 0 11 3 1 15 -11 13 -15 13 -21 3 -6 -10 -9 -10 -9 -1 0
22 -142 -63 -220 -131 -19 -17 -28 -22 -20 -11 25 35 42 49 155 125 61 41 136
91 167 113 86 57 82 66 -8 18 -43 -23 -70 -35 -59 -26 11 9 31 25 45 36 14 11
18 17 10 14 -8 -4 -2 4 15 18 16 13 35 23 41 20 7 -2 14 0 18 5 3 5 -10 16
-28 24 -31 15 -33 15 -45 -4 -7 -11 -8 -17 -2 -13 6 3 11 1 11 -5 0 -6 -8 -10
-17 -8 -10 2 -17 10 -15 17 1 7 -2 10 -8 6 -17 -10 -47 4 -53 26 -3 10 -19 24
-36 30 -17 6 -31 15 -31 20 0 4 -6 6 -12 4 -13 -4 -54 42 -45 51 4 4 136 -39
252 -83 41 -15 50 -23 51 -43 2 -41 3 -42 24 -22 11 10 45 32 76 48 81 42 132
92 154 153 22 56 28 156 8 114 -17 -35 -26 -27 -21 16 6 47 3 49 -170 117
l-107 42 -150 -49 c-83 -27 -166 -50 -185 -51 -19 -1 -35 -5 -35 -9 0 -4 -23
-5 -51 -2 -45 5 -51 4 -56 -16 -3 -11 -9 -21 -13 -21 -5 0 -6 -8 -3 -19 5 -19
-65 -169 -99 -212 -13 -16 -9 -4 10 36 68 139 67 135 67 237 0 99 -2 105 -38
99 -4 -1 -3 8 3 19 12 22 25 26 36 8 7 -10 83 208 85 242 0 9 3 10 5 4 3 -7
-4 -48 -15 -92z m3324 72 l30 -26 -35 23 c-45 29 -45 29 -34 29 5 0 23 -12 39
-26z m-2275 6 c0 -5 -15 -9 -32 -9 l-33 1 30 8 c17 4 31 8 33 9 1 0 2 -3 2 -9z
m2143 -47 c-2 -32 -9 -71 -14 -87 -5 -16 -9 -49 -9 -72 0 -24 -4 -44 -10 -44
-13 0 -13 115 1 182 14 70 17 78 28 78 6 0 7 -24 4 -57z m-3023 -3 c12 -17 18
-30 13 -30 -4 0 -18 16 -31 36 -28 42 -13 37 18 -6z m-952 -29 c14 -8 21 -18
18 -29 -3 -9 -10 -64 -17 -122 -7 -58 -16 -108 -21 -111 -16 -10 -87 -9 -93 2
-4 6 0 16 9 22 13 10 14 18 6 47 -21 70 -31 208 -17 213 17 5 90 -8 115 -22z
m2320 11 c-14 -2 -32 -10 -38 -18 -16 -18 -26 -18 -33 0 -4 10 0 12 14 9 12
-4 19 0 19 9 0 11 8 13 33 9 30 -5 31 -6 5 -9z m102 3 c-7 -9 -15 -13 -19 -10
-3 3 1 10 9 15 21 14 24 12 10 -5z m60 -14 c0 11 2 11 10 -1 7 -11 5 -17 -8
-22 -10 -4 -11 -7 -4 -7 7 -1 11 -5 8 -10 -3 -4 -16 -7 -28 -6 -13 1 -45 4
-73 5 -42 3 -45 4 -15 7 19 2 40 11 47 20 8 10 19 13 30 9 14 -6 16 -5 6 5 -7
7 -13 17 -13 23 0 5 9 -1 20 -14 13 -15 20 -18 20 -9z m-1642 5 c-10 -7 -18
-26 -18 -41 0 -16 -3 -25 -7 -21 -9 9 -13 67 -4 62 4 -3 13 -1 21 5 22 13 27
10 8 -5z m1552 4 c0 -5 -7 -7 -15 -4 -10 4 -15 0 -15 -12 0 -9 -3 -15 -6 -11
-11 10 4 37 21 37 8 0 15 -4 15 -10z m-1470 -88 c0 -23 -100 -131 -116 -125
-8 3 -14 0 -14 -7 0 -6 -4 -8 -10 -5 -5 3 -10 11 -10 16 0 6 4 8 9 5 13 -8 21
18 10 35 -11 18 -11 39 0 39 5 0 12 -13 16 -30 6 -26 25 -43 25 -22 0 4 19 26
41 50 l41 43 -16 33 c-9 19 -16 40 -15 48 1 16 38 -61 39 -80z m-422 43 c-10
-22 -12 -23 -23 -8 -8 10 -14 12 -18 5 -7 -10 -57 6 -57 18 0 3 25 6 55 7 54
2 54 2 43 -22z m493 8 c13 -16 12 -17 -3 -4 -10 7 -18 15 -18 17 0 8 8 3 21
-13z m-470 -40 c-10 -17 -10 -16 -11 3 0 23 13 41 18 25 2 -6 -1 -18 -7 -28z
m2063 12 c-4 -8 -8 -15 -10 -15 -2 0 -4 7 -4 15 0 8 4 15 10 15 5 0 7 -7 4
-15z m46 11 c0 -11 -19 -15 -25 -6 -3 5 1 10 9 10 9 0 16 -2 16 -4z m113 -13
c-13 -2 -35 -2 -50 0 -16 2 -5 4 22 4 28 0 40 -2 28 -4z m-2255 -38 c-3 -3 -9
2 -12 12 -6 14 -5 15 5 6 7 -7 10 -15 7 -18z m49 3 c-3 -8 -6 -5 -6 6 -1 11 2
17 5 13 3 -3 4 -12 1 -19z m273 2 c0 -11 -5 -20 -11 -20 -5 0 -7 5 -3 12 5 7
2 9 -9 5 -11 -4 -14 -2 -10 9 8 21 33 17 33 -6z m1660 5 c-7 -9 -15 -13 -17
-11 -7 7 7 26 19 26 6 0 6 -6 -2 -15z m86 -20 c9 -22 19 -33 26 -29 6 4 8 3 4
-4 -3 -6 -2 -13 3 -17 5 -3 14 3 20 12 6 10 11 13 11 6 0 -6 16 -39 35 -72 19
-34 35 -64 35 -66 0 -3 7 -19 14 -37 7 -18 16 -42 20 -52 4 -11 10 -15 15 -10
29 33 121 152 121 157 0 3 -13 29 -30 57 -35 60 -36 66 -11 66 15 0 17 -3 9
-13 -10 -12 -4 -17 16 -14 5 1 6 -5 3 -14 -10 -26 3 -46 25 -39 14 4 18 2 14
-5 -9 -15 17 -14 32 1 16 16 25 4 17 -21 -4 -15 -15 -21 -36 -21 -22 0 -29 -5
-29 -20 0 -11 -5 -20 -11 -20 -5 0 -8 -4 -4 -10 3 -5 13 -6 23 -3 14 5 15 4 6
-8 -48 -63 -222 -286 -261 -333 l-48 -59 -350 -118 c-192 -66 -358 -119 -367
-119 -49 0 5 60 60 67 23 3 42 10 42 15 0 5 8 7 18 4 21 -7 42 28 42 70 0 26
20 40 45 30 12 -4 13 -11 5 -32 -6 -15 -9 -29 -7 -31 3 -2 28 5 56 16 41 15
51 16 51 5 0 -8 5 -14 10 -14 6 0 10 7 8 16 -2 10 3 19 10 21 6 3 12 0 12 -6
0 -6 5 -11 10 -11 6 0 10 6 10 14 0 8 32 24 83 40 45 15 115 39 155 53 l72 26
-52 51 c-29 29 -95 96 -147 149 -90 94 -95 97 -113 80 -17 -15 -18 -15 -13 0
10 25 44 31 66 11 10 -9 19 -13 19 -8 0 5 7 0 15 -10 8 -11 17 -17 19 -15 3 3
-6 18 -19 33 -14 16 -25 36 -25 45 1 19 44 71 60 71 5 0 10 7 10 16 0 18 -8
14 -57 -30 -13 -11 -25 -17 -28 -14 -3 3 18 25 47 49 29 24 59 52 66 62 7 9
18 15 23 11 6 -4 6 -11 -1 -19 -7 -8 -7 -16 -2 -19 10 -6 26 9 33 30 2 6 12 8
22 5 15 -5 1 -21 -72 -81 -49 -41 -90 -77 -90 -80 0 -5 72 -87 115 -131 15
-15 24 -32 20 -38 -4 -7 0 -11 12 -11 22 0 55 -33 45 -45 -5 -4 -3 -5 3 -2 11
6 74 -57 74 -75 0 -4 4 -8 10 -8 5 0 6 7 3 17 -4 11 -3 14 5 9 7 -4 10 -2 7 6
-7 19 50 72 66 62 9 -5 10 -2 5 11 -3 10 0 28 9 41 14 21 12 29 -22 111 -20
48 -42 95 -50 104 -7 8 -13 19 -13 24 0 4 -12 34 -27 66 -19 39 -33 57 -42 54
-11 -5 -12 -3 -1 10 17 21 19 20 36 -20z m1950 -22 c3 -17 -6 -27 -42 -47 -59
-33 -78 -34 -30 -1 20 14 41 25 46 25 17 0 11 28 -7 32 -32 7 -53 -3 -53 -25
0 -16 -3 -18 -9 -9 -6 10 -10 8 -16 -10 -19 -60 -8 -167 15 -153 6 4 9 1 8 -6
-2 -7 8 -18 21 -25 l24 -12 -24 -5 c-13 -3 -6 -5 15 -4 24 1 41 -3 43 -10 4
-10 -21 -13 -100 -13 l-105 0 1 144 2 143 104 -1 c99 -1 104 -2 107 -23z
m-4412 -93 c4 -38 3 -50 -4 -40 -9 13 -15 109 -6 99 2 -2 6 -29 10 -59z m367
-73 c-6 -15 -15 -27 -21 -27 -15 0 -12 18 8 52 19 34 29 16 13 -25z m2449 43
c0 -5 -4 -10 -10 -10 -5 0 -10 5 -10 10 0 6 5 10 10 10 6 0 10 -4 10 -10z
m-410 -60 c-24 -15 -36 -11 -14 4 10 8 21 12 24 10 2 -3 -2 -9 -10 -14z m1985
-30 c3 -5 1 -10 -4 -10 -6 0 -11 5 -11 10 0 6 2 10 4 10 3 0 8 -4 11 -10z
m205 0 c-13 -9 -13 -11 0 -20 8 -5 21 -8 28 -5 6 2 19 2 28 -2 13 -5 13 -7 2
-14 -11 -7 -10 -11 2 -19 23 -14 0 -30 -56 -39 -49 -8 -44 -13 20 -23 11 -2
18 -7 17 -13 -2 -5 -6 -9 -9 -8 -4 1 -5 -22 -2 -50 l4 -52 6 50 c7 61 24 38
18 -25 -3 -33 0 -40 17 -44 11 -2 -7 -3 -40 -2 -42 1 -59 5 -57 14 1 6 -2 12
-8 12 -5 0 -10 25 -10 55 0 48 -2 55 -20 55 -11 0 -20 7 -20 15 0 8 4 15 10
15 14 0 60 52 54 62 -3 4 -16 8 -30 8 -13 0 -24 5 -24 10 0 6 7 10 15 10 8 0
15 5 15 10 0 6 12 10 28 10 21 0 24 -2 12 -10z m-2150 -6 c0 -8 -19 -13 -24
-6 -3 5 1 9 9 9 8 0 15 -2 15 -3z m-369 -44 c-12 -7 -42 -110 -42 -142 0 -10
-4 -20 -10 -23 -5 -4 -9 -18 -9 -32 0 -43 -22 -91 -47 -102 -14 -7 -23 -7 -23
-1 0 6 7 10 15 10 8 0 19 10 26 21 10 20 9 21 -10 16 -17 -4 -21 -2 -18 11 2
9 9 16 17 14 7 -2 17 3 21 10 12 18 11 58 -1 58 -5 0 -10 -10 -10 -22 0 -12
-3 -19 -6 -15 -3 3 -3 24 1 47 6 34 9 39 21 29 19 -15 25 -8 26 30 1 17 4 31
8 31 4 0 7 14 7 30 0 31 34 70 42 48 2 -6 -2 -14 -8 -18z m1978 -76 c2 -2 -12
-5 -32 -5 -50 -2 -58 -2 -124 1 -47 2 -52 4 -28 9 31 7 176 3 184 -5z m59 -1
c-10 -2 -26 -2 -35 0 -10 3 -2 5 17 5 19 0 27 -2 18 -5z m586 -9 c12 -5 16
-20 16 -63 0 -40 -3 -52 -10 -41 -5 8 -10 34 -10 57 0 24 -5 43 -12 46 -7 3
-10 6 -6 6 3 1 13 -2 22 -5z m-183 -50 c3 -21 9 -47 14 -56 8 -21 2 -22 -26
-8 -21 12 -26 40 -6 41 9 0 9 2 -1 6 -9 4 -10 8 -2 18 8 9 8 15 0 20 -14 9
-13 28 3 23 6 -3 15 -22 18 -44z m-3706 26 c3 -5 1 -10 -4 -10 -6 0 -11 5 -11
10 0 6 2 10 4 10 3 0 8 -4 11 -10z m2788 -15 c64 -36 77 -61 77 -145 0 -39 4
-70 10 -70 18 0 -31 -86 -60 -105 -42 -28 -77 -89 -90 -158 l-13 -62 -158 -2
c-119 -2 -167 -6 -189 -18 -18 -9 -56 -15 -98 -15 l-69 0 -7 58 c-9 69 -8 104
2 113 4 5 43 11 87 15 79 7 81 8 172 76 63 46 93 75 93 88 0 17 7 20 44 20 44
0 44 0 80 64 26 47 36 76 36 108 0 68 12 72 83 33z m-3083 -5 c-6 -11 -13 -20
-16 -20 -2 0 0 9 6 20 6 11 13 20 16 20 2 0 0 -9 -6 -20z m1170 -26 c0 -8 -4
-12 -10 -9 -5 3 -10 10 -10 16 0 5 5 9 10 9 6 0 10 -7 10 -16z m90 -6 c0 -6
-6 -5 -15 2 -8 7 -15 14 -15 16 0 2 7 1 15 -2 8 -4 15 -11 15 -16z m-1293 -25
c-9 -9 -20 -14 -24 -10 -3 4 2 14 13 21 25 19 33 10 11 -11z m808 8 c-9 -15
-98 -62 -109 -58 -6 2 16 18 49 35 68 35 68 35 60 23z m-472 -19 c19 -16 23
-42 7 -42 -5 0 -10 10 -10 21 0 21 -3 22 -66 16 -70 -7 -81 2 -17 13 58 9 67
9 86 -8z m899 -40 c4 -12 2 -22 -3 -22 -5 0 -9 -7 -9 -16 0 -10 6 -14 15 -11
8 4 17 2 20 -3 4 -6 1 -10 -4 -10 -6 0 -11 -5 -11 -11 0 -5 5 -7 10 -4 6 3 10
1 10 -4 0 -6 -4 -11 -10 -11 -5 0 -13 0 -17 -1 -6 0 -32 75 -33 94 0 5 5 5 12
1 6 -4 4 3 -5 17 -9 13 -17 27 -17 31 0 15 37 -29 42 -50z m38 54 c0 -3 -4 -8
-10 -11 -5 -3 -10 -1 -10 4 0 6 5 11 10 11 6 0 10 -2 10 -4z m2893 -66 c-3
-11 -14 -20 -24 -20 -32 0 -29 -16 6 -30 46 -18 35 -30 -27 -30 -41 0 -51 3
-55 19 -3 11 -15 22 -26 26 -17 5 -19 8 -7 12 8 3 18 10 21 15 7 11 60 25 96
27 16 1 20 -3 16 -19z m-3833 -10 c-8 -5 -22 -10 -30 -10 -13 0 -13 1 0 10 8
5 22 10 30 10 13 0 13 -1 0 -10z m749 -82 c12 -46 27 -94 32 -106 7 -18 6 -23
-3 -20 -18 6 -80 208 -64 208 7 0 22 -37 35 -82z m-49 -55 c17 -60 23 -93 16
-93 -15 0 -69 197 -59 213 5 8 9 6 11 -8 3 -11 17 -62 32 -112z m2643 109 c47
-20 33 -35 -25 -27 -62 8 -65 10 -49 28 13 16 34 16 74 -1z m-2727 -10 c-6
-10 31 -169 45 -194 7 -13 6 -18 -4 -18 -14 0 -79 205 -69 215 9 8 34 6 28 -3z
m-608 -14 c17 -17 15 -43 -5 -59 -15 -13 -15 -12 -3 8 16 25 2 49 -33 56 -19
4 -19 4 4 6 14 0 30 -4 37 -11z m555 -55 c9 -32 19 -77 23 -100 4 -24 11 -43
16 -43 5 0 6 -4 3 -10 -14 -22 -23 -6 -49 83 -40 132 -39 127 -23 127 9 0 20
-22 30 -57z m-77 26 c1 -5 2 -10 4 -11 1 -2 4 -16 6 -32 3 -16 9 -37 13 -45 5
-9 12 -35 16 -58 4 -24 12 -43 18 -43 8 0 7 -4 -1 -12 -8 -8 -15 -8 -21 -2
-13 13 -61 206 -55 216 6 10 18 2 20 -13z m-56 -28 c0 -35 41 -174 54 -183 6
-5 2 -8 -9 -8 -17 0 -24 14 -42 88 -12 48 -25 96 -28 108 -5 15 -2 21 9 21 11
0 16 -9 16 -26z m500 -11 c0 -5 -4 -10 -10 -10 -5 0 -10 5 -10 10 0 6 5 10 10
10 6 0 10 -4 10 -10z m-76 -102 c-9 -30 -31 -52 -36 -36 -2 6 5 21 16 34 27
28 29 29 20 2z m3006 -36 c0 -21 -2 -24 -10 -12 -13 20 -13 53 0 45 6 -3 10
-18 10 -33z m-2480 -16 c0 -3 -4 -8 -10 -11 -5 -3 -10 -1 -10 4 0 6 5 11 10
11 6 0 10 -2 10 -4z m43 -83 c-7 -2 -19 -2 -25 0 -7 3 -2 5 12 5 14 0 19 -2
13 -5z m-463 -53 c0 -38 -2 -40 -30 -40 -23 0 -33 7 -45 30 -9 17 -23 30 -33
30 -9 0 -24 5 -32 10 -10 7 9 10 63 10 l77 0 0 -40z m1965 10 c3 -5 -1 -10 -9
-10 -9 0 -16 5 -16 10 0 6 4 10 9 10 6 0 13 -4 16 -10z m618 -21 c3 -13 1 -19
-6 -16 -15 5 -22 37 -9 37 5 0 12 -9 15 -21z m-3389 -9 c-6 -6 -25 -12 -42
-14 -17 -3 -42 -7 -54 -10 -13 -3 -17 -3 -10 0 6 3 10 9 8 13 -3 4 9 6 26 5
17 -1 41 2 52 6 29 12 32 12 20 0z m1370 -14 c-4 -9 3 -16 18 -19 13 -2 -4 -5
-37 -5 -33 -1 -67 3 -75 8 -8 5 -10 10 -5 10 6 0 3 5 -5 10 -11 7 3 10 47 10
50 0 61 -3 57 -14z m493 -88 c-3 -7 -5 -2 -5 12 0 14 2 19 5 13 2 -7 2 -19 0
-25z m1789 -175 c-5 -12 -10 -13 -17 -6 -8 8 -7 18 2 34 12 21 14 22 17 6 2
-10 1 -25 -2 -34z m-1608 -250 c-10 -2 -26 -2 -35 0 -10 3 -2 5 17 5 19 0 27
-2 18 -5z m-2464 -30 c4 -4 25 -6 46 -4 22 1 40 -1 40 -6 0 -4 -27 -9 -60 -10
-33 -1 -60 3 -60 8 0 5 -9 9 -20 9 -24 0 -26 -18 -4 -35 13 -9 14 -16 5 -33
-17 -31 -15 -47 4 -32 9 7 13 15 11 18 -6 6 40 43 57 46 6 1 18 5 25 10 7 4
15 6 17 4 2 -2 -26 -27 -63 -55 -45 -35 -69 -48 -74 -40 -4 7 -8 38 -8 70 l0
57 38 0 c21 0 42 -3 46 -7z m2724 -23 c23 -17 42 -33 42 -36 0 -7 -21 5 -48
30 -13 12 -24 19 -25 17 -1 -3 -11 0 -22 7 -16 9 -16 11 -4 12 9 0 35 -14 57
-30z m242 22 c0 -5 -7 -17 -15 -28 -14 -18 -14 -17 -4 9 12 27 19 34 19 19z
m-1655 -41 c-10 -9 -49 -15 -70 -11 -16 3 28 19 55 19 15 1 20 -3 15 -8z m-92
-12 c-7 -7 -43 -13 -80 -15 -76 -3 -74 1 7 15 81 13 86 13 73 0z m1482 1 c3
-5 2 -10 -2 -10 -5 0 -15 -17 -22 -37 -8 -21 -23 -51 -35 -68 -11 -16 -20 -32
-20 -35 1 -3 -3 -16 -8 -30 -6 -14 -11 -29 -13 -35 -9 -37 -42 -95 -53 -95 -8
0 -12 3 -10 8 2 4 10 21 17 37 7 17 35 75 61 130 26 55 51 110 55 123 7 23 20
29 30 12z m1031 -57 c-10 -10 -19 5 -10 18 6 11 8 11 12 0 2 -7 1 -15 -2 -18z
m-255 -16 c-13 -12 -20 -15 -16 -7 14 26 28 41 33 35 3 -3 -5 -16 -17 -28z
m-1206 -17 c-3 -5 -2 -10 4 -10 5 0 11 4 13 10 2 6 28 7 68 2 l65 -7 -95 -72
c-61 -46 -97 -67 -101 -60 -4 7 -11 35 -17 62 -6 28 -14 58 -17 68 -6 15 -1
17 40 17 28 0 44 -4 40 -10z m1144 -46 c-17 -21 -99 -77 -105 -72 -3 4 103 84
115 87 2 1 -2 -6 -10 -15z m381 -21 c0 -5 -7 -17 -15 -27 -14 -19 -15 -19 -15
7 0 17 5 27 15 27 8 0 15 -3 15 -7z m-1055 -19 c29 -19 32 -36 8 -55 -16 -13
-17 -12 -5 3 12 15 10 21 -15 42 -32 29 -25 34 12 10z m56 -15 c-5 -13 -10
-19 -10 -12 -1 15 10 45 15 40 3 -2 0 -15 -5 -28z m-101 -64 c19 -10 28 -11
40 -2 13 10 13 10 2 -5 -8 -9 -11 -22 -7 -28 11 -18 -6 -11 -37 15 -16 14 -34
23 -39 19 -5 -3 -9 0 -9 5 0 15 20 13 50 -4z m569 12 c-43 -34 -68 -46 -75
-36 -4 7 -3 9 2 6 5 -3 21 3 34 14 14 10 29 19 34 19 5 0 7 -1 5 -3z m-2256
-47 c-5 -19 -23 -26 -36 -14 -7 8 24 44 34 38 4 -2 5 -13 2 -24z m27 -11 c0
-5 4 -7 10 -4 7 4 7 -3 0 -19 -6 -18 -6 -26 1 -26 6 0 8 -4 5 -9 -3 -5 2 -15
11 -22 14 -12 16 -12 8 1 -11 18 -14 51 -4 45 14 -9 20 -76 9 -113 -5 -21 -18
-49 -29 -60 -17 -21 -19 -21 -38 -4 -14 12 -19 29 -19 59 1 47 -8 48 -18 3 -3
-18 -10 -29 -16 -25 -6 3 -10 -4 -10 -18 0 -14 -6 -24 -14 -24 -11 0 -13 5 -5
19 6 12 6 18 -1 18 -5 0 -10 10 -10 21 0 16 5 20 20 16 11 -3 17 -1 14 4 -10
16 -11 98 -1 96 5 -1 12 4 15 12 3 9 0 11 -9 6 -12 -7 -12 -6 -1 6 11 12 15
11 28 -5 9 -13 14 -15 14 -6 0 10 4 8 13 -4 13 -18 14 -18 21 -1 3 10 1 24 -5
31 -8 10 -8 14 0 14 6 0 11 -5 11 -11z m1596 -19 c0 -12 -4 -16 -9 -11 -5 5
-6 14 -3 20 10 15 12 14 12 -9z m-84 -15 c0 -5 10 -16 20 -24 17 -12 22 -12
30 0 8 12 9 11 5 -1 -2 -8 7 -25 21 -37 l25 -21 18 21 c19 22 19 22 8 -11
l-11 -32 -52 37 c-28 20 -67 48 -86 61 -35 24 -35 24 -7 20 15 -1 28 -7 29
-13z m395 -32 c-3 -10 -5 -4 -5 12 0 17 2 24 5 18 2 -7 2 -21 0 -30z m216 22
c-3 -9 -8 -14 -10 -11 -3 3 -2 9 2 15 9 16 15 13 8 -4z m-103 -66 c22 -13 1
-10 -55 6 l-50 15 45 -6 c25 -4 52 -10 60 -15z m54 -18 c4 -5 -3 -7 -14 -4
-23 6 -26 13 -6 13 8 0 17 -4 20 -9z m-1964 -73 c0 6 5 12 11 12 5 0 7 -5 3
-12 -5 -7 -2 -9 8 -6 11 5 14 0 12 -17 -1 -13 -5 -29 -10 -36 -4 -8 -3 -9 4
-5 7 4 12 2 12 -4 0 -6 4 -9 8 -6 4 2 8 -4 8 -14 0 -11 -2 -17 -4 -15 -2 2
-14 -7 -26 -20 -26 -30 -68 -38 -93 -18 -10 8 -12 12 -3 8 11 -5 11 -3 -1 7
-15 12 -15 18 -3 47 23 56 55 95 65 79 7 -10 9 -10 9 0z m239 -42 c-11 -11
-144 -99 -228 -151 -89 -55 -141 -75 -141 -54 0 5 4 9 9 9 12 0 134 81 146 98
6 7 22 14 35 15 14 2 40 10 58 20 36 20 44 34 10 17 -22 -11 -22 -10 -4 4 10
9 23 13 28 10 4 -3 20 4 34 15 22 17 68 32 53 17z m-22 -77 c-8 -12 -15 -15
-23 -8 -8 6 -14 5 -18 -6 -3 -8 -13 -15 -21 -15 -9 0 -23 -7 -31 -15 -9 -8
-25 -15 -36 -15 -20 0 -19 1 3 19 85 66 157 89 126 40z m1593 -13 c0 -2 -9 -6
-20 -9 -11 -3 -18 -1 -14 4 5 9 34 13 34 5z m-623 -48 c-3 -7 -5 -2 -5 12 0
14 2 19 5 13 2 -7 2 -19 0 -25z m643 -38 c8 -5 12 -11 10 -14 -3 -2 -14 2 -24
10 -22 15 -10 19 14 4z m-60 -29 c-5 -11 -10 -35 -10 -53 -1 -25 -3 -29 -10
-17 -11 19 6 89 21 89 6 0 6 -7 -1 -19z m70 -71 c-7 -28 -14 -49 -17 -46 -3 3
1 28 8 55 7 28 15 49 17 46 2 -2 -1 -27 -8 -55z m-645 12 c-3 -3 -11 0 -18 7
-9 10 -8 11 6 5 10 -3 15 -9 12 -12z m598 -56 c19 -15 23 -36 6 -36 -7 0 -18
8 -25 18 -25 32 -14 43 19 18z m-2878 -284 c-7 -7 -25 47 -24 71 1 14 6 5 15
-22 8 -25 12 -47 9 -49z m2944 48 c11 -24 11 -24 -3 -6 -9 11 -16 24 -16 30 0
12 5 7 19 -24z m-1063 -126 c-10 -26 -23 -14 -30 27 -5 32 -3 46 11 61 18 20
18 19 21 -27 2 -26 1 -54 -2 -61z m1088 80 c3 -8 2 -12 -4 -9 -6 3 -10 10 -10
16 0 14 7 11 14 -7z m-589 -166 c11 -49 -3 -115 -25 -121 -26 -7 -33 20 -25
86 10 79 14 90 30 77 8 -6 17 -25 20 -42z m-228 0 c-3 -8 -6 -5 -6 6 -1 11 2
17 5 13 3 -3 4 -12 1 -19z m618 12 c3 -6 -1 -7 -9 -4 -18 7 -21 14 -7 14 6 0
13 -4 16 -10z m-1555 -130 c-6 -11 -13 -20 -16 -20 -2 0 0 9 6 20 6 11 13 20
16 20 2 0 0 -9 -6 -20z m-1450 -185 c0 -8 -4 -15 -10 -15 -5 0 -10 7 -10 15 0
8 5 15 10 15 6 0 10 -7 10 -15z m836 -218 c-7 -29 -11 -58 -8 -65 2 -7 -4 -12
-13 -12 -14 0 -16 9 -14 53 4 55 13 77 34 77 11 0 11 -10 1 -53z m-200 -44
c-10 -10 -19 5 -10 18 6 11 8 11 12 0 2 -7 1 -15 -2 -18z m-6 -23 c0 -5 -7
-10 -15 -10 -8 0 -15 5 -15 10 0 6 7 10 15 10 8 0 15 -4 15 -10z m185 -30 c3
-5 -3 -10 -15 -10 -12 0 -18 5 -15 10 3 6 10 10 15 10 5 0 12 -4 15 -10z
m1544 -67 c0 -5 -4 -17 -9 -28 -8 -18 -9 -17 -9 8 -1 15 4 27 9 27 6 0 10 -3
9 -7z m705 -258 c-3 -14 -7 -35 -8 -48 -1 -16 -8 -24 -23 -25 -13 -1 -23 3
-23 8 0 6 6 10 14 10 9 0 12 8 8 25 -4 25 12 55 29 55 5 0 7 -11 3 -25z
m-1824 -28 c0 -2 -14 -14 -31 -26 -28 -21 -30 -21 -20 -3 10 19 25 29 44 31 4
1 7 0 7 -2z m2230 -441 c0 -2 -8 -10 -17 -17 -16 -13 -17 -12 -4 4 13 16 21
21 21 13z m-2230 -336 c-36 -11 -50 -11 -50 0 0 6 17 10 38 9 33 -1 34 -2 12
-9z m30 -30 c0 -4 -18 -12 -40 -18 -46 -11 -51 -8 -14 11 28 15 54 18 54 7z
m-870 -192 c0 -51 -5 -47 -13 10 -3 24 -1 40 4 36 5 -3 9 -24 9 -46z m2483 5
c-7 -2 -19 -2 -25 0 -7 3 -2 5 12 5 14 0 19 -2 13 -5z m18 -216 c-10 -9 -11
-8 -5 6 3 10 9 15 12 12 3 -3 0 -11 -7 -18z m689 -123 c-35 -7 -98 -9 -94 -2
3 5 29 7 57 7 29 -1 45 -3 37 -5z m30 -44 c-8 -5 -26 -9 -40 -9 -23 1 -23 2 5
9 43 11 52 11 35 0z m-940 -100 c0 -5 -7 -10 -15 -10 -8 0 -15 5 -15 10 0 6 7
10 15 10 8 0 15 -4 15 -10z"/>
<path d="M4515 6521 c-3 -5 -2 -12 3 -15 5 -3 9 1 9 9 0 17 -3 19 -12 6z"/>
<path d="M4462 6059 c2 -7 10 -15 17 -17 8 -3 12 1 9 9 -2 7 -10 15 -17 17 -8
3 -12 -1 -9 -9z"/>
<path d="M4435 6040 c3 -5 8 -10 11 -10 2 0 4 5 4 10 0 6 -5 10 -11 10 -5 0
-7 -4 -4 -10z"/>
<path d="M4452 5738 c-6 -18 -8 -36 -3 -41 4 -4 11 9 14 29 8 48 4 52 -11 12z"/>
<path d="M4332 5660 c0 -14 2 -19 5 -12 2 6 2 18 0 25 -3 6 -5 1 -5 -13z"/>
<path d="M4436 5663 c-6 -14 -5 -15 5 -6 7 7 10 15 7 18 -3 3 -9 -2 -12 -12z"/>
<path d="M4430 5631 c0 -6 4 -13 10 -16 6 -3 7 1 4 9 -7 18 -14 21 -14 7z"/>
<path d="M4321 5608 c0 -9 -4 -25 -7 -35 -5 -17 -5 -17 6 0 6 10 9 25 7 35 -4
15 -5 15 -6 0z"/>
<path d="M6720 5910 c0 -13 18 -22 24 -11 3 5 -1 11 -9 15 -8 3 -15 1 -15 -4z"/>
<path d="M6760 5906 c0 -2 7 -7 16 -10 8 -3 12 -2 9 4 -6 10 -25 14 -25 6z"/>
<path d="M5218 5873 c7 -3 16 -2 19 1 4 3 -2 6 -13 5 -11 0 -14 -3 -6 -6z"/>
<path d="M5264 5859 c-3 -5 9 -9 25 -9 17 0 31 2 31 4 0 8 -51 13 -56 5z"/>
<path d="M5220 5831 c0 -11 4 -21 33 -77 9 -17 14 -33 12 -36 -3 -2 9 -20 25
-38 17 -19 30 -37 30 -42 0 -4 5 -8 11 -8 8 0 8 5 -1 15 -7 8 -10 22 -6 30 7
19 -3 47 -15 39 -8 -4 -14 26 -10 49 1 5 -2 6 -6 4 -5 -3 -17 7 -28 22 -18 24
-18 25 0 11 18 -15 18 -14 1 13 -18 26 -35 39 -20 15 5 -9 2 -9 -9 1 -11 9
-17 10 -17 2z"/>
<path d="M5057 5723 c-8 -7 11 -33 24 -33 5 0 37 -13 71 -29 35 -15 74 -31 88
-35 22 -5 -11 11 -92 47 -15 6 -30 23 -33 36 -5 18 -9 21 -14 12 -6 -9 -11
-10 -15 -2 -8 12 -19 14 -29 4z"/>
<path d="M5016 5681 c-4 -7 -5 -15 -2 -18 9 -9 19 4 14 18 -4 11 -6 11 -12 0z"/>
<path d="M5425 5657 c36 -25 85 -46 85 -37 0 5 -21 18 -46 30 -54 23 -67 26
-39 7z"/>
<path d="M5520 5620 c0 -5 5 -10 11 -10 5 0 7 5 4 10 -3 6 -8 10 -11 10 -2 0
-4 -4 -4 -10z"/>
<path d="M5533 5588 l-103 -31 26 -41 c13 -22 37 -63 51 -90 16 -27 29 -42 32
-35 2 8 28 62 58 122 29 59 50 107 46 106 -5 -1 -54 -15 -110 -31z m2 -77 c3
-5 2 -12 -3 -15 -5 -3 -9 1 -9 9 0 17 3 19 12 6z"/>
<path d="M5347 5593 c-3 -5 1 -14 8 -20 11 -10 13 -9 12 7 -1 20 -12 26 -20
13z"/>
<path d="M5795 5390 c-3 -6 1 -13 10 -16 19 -8 30 0 20 15 -8 14 -22 14 -30 1z"/>
<path d="M5367 5363 c-3 -10 -8 -30 -11 -45 -4 -17 -13 -28 -23 -28 -9 0 -34
-15 -57 -34 -23 -18 -69 -47 -103 -65 -72 -36 -82 -56 -25 -49 63 9 273 81
269 92 -2 6 -26 10 -55 10 l-52 -2 25 20 c18 14 34 18 51 14 17 -5 23 -3 19 4
-3 5 -8 20 -10 32 -3 13 -9 24 -14 26 -5 2 -7 12 -4 22 3 11 3 20 0 20 -3 0
-8 -8 -10 -17z"/>
<path d="M5725 5350 c3 -5 11 -10 16 -10 6 0 7 5 4 10 -3 6 -11 10 -16 10 -6
0 -7 -4 -4 -10z"/>
<path d="M5000 5135 c-11 -13 -10 -14 4 -9 9 3 16 10 16 15 0 13 -6 11 -20 -6z"/>
<path d="M5540 5105 c0 -8 4 -15 10 -15 5 0 7 7 4 15 -4 8 -8 15 -10 15 -2 0
-4 -7 -4 -15z"/>
<path d="M5160 4820 c0 -5 5 -10 11 -10 5 0 7 5 4 10 -3 6 -8 10 -11 10 -2 0
-4 -4 -4 -10z"/>
<path d="M6193 5653 c-7 -3 -13 -12 -12 -21 0 -11 2 -12 6 -4 2 6 9 10 13 7 5
-3 11 -1 14 4 8 12 -5 20 -21 14z"/>
<path d="M6410 5641 c0 -6 5 -13 10 -16 6 -4 17 -21 24 -38 8 -18 15 -27 15
-21 2 19 -29 84 -39 84 -6 0 -10 -4 -10 -9z"/>
<path d="M6585 5460 c-3 -5 -2 -10 4 -10 5 0 13 5 16 10 3 6 2 10 -4 10 -5 0
-13 -4 -16 -10z"/>
<path d="M6327 5233 c3 -7 8 -13 12 -13 8 0 37 19 31 21 -33 6 -47 4 -43 -8z"/>
<path d="M8487 5298 c1 -24 2 -49 2 -55 1 -7 9 -13 18 -13 13 0 14 3 5 12 -7
7 -12 31 -12 55 0 24 -3 43 -7 43 -5 0 -7 -19 -6 -42z"/>
<path d="M6660 4032 c0 -21 32 -112 39 -112 12 0 32 26 26 32 -8 8 64 60 74
54 4 -3 17 2 27 10 18 14 17 15 -16 9 -51 -9 -94 -7 -98 5 -4 12 -52 14 -52 2z
m45 -59 c4 -14 2 -23 -4 -23 -6 0 -11 3 -11 8 0 4 -3 18 -6 32 -8 31 11 16 21
-17z"/>
<path d="M5416 3782 c-2 -4 7 -15 20 -25 22 -16 23 -16 17 -1 -4 12 -3 15 5
10 7 -4 10 -2 7 6 -6 15 -42 22 -49 10z"/>
</g>
</svg>
