<?xml version="1.0" standalone="no"?>
<!DOCTYPE svg PUBLIC "-//W3C//DTD SVG 20010904//EN"
 "http://www.w3.org/TR/2001/REC-SVG-20010904/DTD/svg10.dtd">
<svg version="1.0" xmlns="http://www.w3.org/2000/svg"
 width="360.000000pt" height="360.000000pt" viewBox="0 0 360.000000 360.000000"
 preserveAspectRatio="xMidYMid meet">

<g transform="translate(0.000000,360.000000) scale(0.100000,-0.100000)"
fill="#000000" stroke="none">
<path d="M1680 3244 c0 -17 22 -14 28 4 2 7 -3 12 -12 12 -9 0 -16 -7 -16 -16z"/>
<path d="M1613 3232 c-37 -18 -36 -1 -7 -205 10 -64 15 -119 12 -122 -10 -11
-182 -36 -205 -30 -15 3 -23 1 -23 -7 -1 -7 -26 -40 -56 -73 l-56 -60 46 62
c25 34 46 64 46 68 0 3 -12 19 -27 35 -21 22 -32 27 -43 20 -10 -6 -11 -10 -2
-10 6 0 12 -8 11 -17 0 -11 -3 -13 -6 -5 -2 6 -11 12 -19 12 -15 0 -15 -21 1
-32 6 -4 2 -8 -9 -8 -15 0 -16 -3 -6 -15 9 -11 9 -17 -3 -29 -13 -13 -17 -13
-37 1 -20 14 -23 14 -43 -6 l-22 -22 33 -29 c43 -40 41 -49 -4 -15 -36 28 -57
28 -34 0 9 -11 9 -15 1 -15 -7 0 -9 -4 -6 -10 3 -5 0 -7 -8 -4 -8 3 -17 -2
-21 -11 -3 -10 -2 -14 5 -9 8 4 7 0 0 -15 -7 -11 -20 -21 -30 -21 -10 0 -18
-7 -19 -15 -1 -8 -3 -22 -4 -30 -1 -9 -7 -14 -15 -11 -11 4 -11 1 -3 -14 9
-18 8 -20 -15 -20 -28 0 -32 -12 -10 -30 8 -7 15 -22 15 -35 0 -30 20 -85 31
-85 5 0 9 -7 9 -15 0 -8 -4 -15 -9 -15 -13 0 3 -61 25 -98 42 -72 115 -97 229
-78 28 5 55 11 60 14 6 4 19 8 30 9 11 2 33 17 50 33 23 23 27 32 17 42 -7 7
-12 19 -11 28 0 10 4 7 11 -7 12 -25 31 -32 22 -8 -4 8 -3 15 0 15 16 0 36
-80 37 -144 0 -39 3 -65 6 -58 8 20 23 14 23 -10 1 -32 23 -68 51 -84 23 -13
23 -13 -8 -8 -22 4 -41 1 -58 -10 -22 -14 -24 -21 -19 -63 3 -26 10 -56 16
-66 5 -10 8 -21 5 -23 -2 -3 1 -31 8 -64 13 -62 9 -110 -9 -122 -8 -5 -7 -8 2
-8 6 0 12 -5 12 -10 0 -7 -6 -7 -20 0 -11 6 -20 7 -20 2 0 -12 96 -102 109
-102 21 0 23 23 4 48 -18 25 -53 87 -53 94 0 2 11 5 25 6 27 2 33 -16 13 -36
-9 -9 -9 -12 0 -12 7 0 17 12 22 26 13 33 13 32 -7 37 -14 4 -12 5 5 6 19 1
24 9 21 38 0 4 8 10 18 14 14 5 19 0 23 -20 4 -19 12 -27 32 -29 22 -3 28 2
37 30 10 29 16 98 12 136 0 6 -12 12 -26 12 -22 0 -25 4 -25 35 0 34 20 49 35
25 4 -6 13 -7 23 -1 9 4 23 6 31 3 8 -3 11 0 7 7 -4 6 -3 11 3 11 5 0 12 -4
16 -10 3 -5 11 -7 19 -4 7 3 18 -5 24 -18 l11 -23 1 25 c1 24 1 24 15 6 17
-23 20 -4 4 26 -8 15 -8 19 1 13 6 -4 16 -19 21 -33 7 -19 12 -23 18 -13 7 10
12 8 25 -10 15 -22 16 -22 17 -4 1 34 28 -35 29 -74 0 -29 -3 -33 -22 -28 -53
13 -180 28 -185 23 -4 -3 8 -9 25 -12 28 -6 30 -9 21 -31 -12 -32 -12 -33 6
-33 10 0 15 10 15 30 0 17 5 30 10 30 6 0 8 -11 4 -25 -5 -22 -3 -25 20 -25
27 0 36 24 14 34 -7 3 3 3 22 0 39 -7 63 -24 42 -31 -6 -3 -10 -9 -7 -14 4 -5
0 -6 -8 -3 -8 3 -18 1 -22 -5 -3 -7 2 -11 15 -11 17 0 19 -4 14 -27 -4 -16
-11 -36 -15 -45 -5 -9 -9 -28 -9 -41 0 -16 -7 -26 -20 -30 -11 -3 -20 -2 -20
2 0 5 -14 8 -31 9 -55 1 -109 13 -103 23 3 5 -2 9 -10 9 -36 0 -11 -34 28 -38
15 -2 56 -10 90 -17 33 -7 66 -10 71 -6 6 3 14 6 19 6 4 0 19 29 32 64 49 131
41 286 -18 336 -15 13 -25 30 -22 37 5 12 94 59 137 72 20 6 23 34 4 42 -8 3
-26 0 -41 -6 -15 -5 -25 -6 -21 -1 8 14 93 60 149 82 46 17 50 17 62 1 11 -14
18 -15 56 -5 38 10 45 9 61 -8 13 -14 15 -24 8 -37 -11 -21 1 -128 18 -160 36
-67 113 -80 180 -31 24 17 44 29 45 27 2 -2 15 -20 30 -40 24 -32 27 -43 21
-78 -4 -22 -5 -40 -3 -40 1 1 27 9 57 19 62 22 74 36 62 77 -4 16 -6 35 -3 43
5 14 -10 13 -77 -3 -38 -9 -5 17 41 33 42 14 58 9 58 -19 0 -21 16 -35 24 -22
3 5 -4 23 -15 42 -15 24 -17 35 -9 40 8 5 8 10 2 14 -5 3 -12 28 -16 55 -7 50
6 98 31 114 7 4 10 14 7 21 -3 8 2 31 11 52 18 42 31 108 16 86 -6 -10 -20 -2
-55 30 -46 43 -47 44 -70 163 -14 66 -27 127 -30 135 -8 19 -86 26 -86 9 0 -7
-8 -21 -17 -31 -16 -18 -16 -18 2 -12 16 7 18 3 12 -31 -4 -23 -2 -44 5 -52 8
-10 8 -17 0 -25 -7 -7 -12 -22 -12 -34 0 -13 -4 -25 -9 -28 -10 -7 -8 45 3 63
11 17 -2 27 -16 13 -18 -18 -38 -14 -38 8 0 22 -16 27 -22 8 -3 -9 -14 -7 -40
5 -20 9 -43 14 -52 11 -8 -3 -23 1 -31 10 -19 18 -35 21 -35 5 0 -5 -13 -2
-29 7 -17 10 -28 21 -25 25 9 15 -19 22 -30 7 -14 -19 -36 -12 -124 40 -40 24
-87 50 -105 58 -76 36 -86 45 -97 84 -6 22 -15 40 -20 40 -5 0 -21 11 -36 25
-15 14 -31 25 -35 25 -4 0 -11 16 -15 35 -3 20 -12 35 -20 35 -7 0 -19 10 -25
23 -7 12 -37 48 -67 80 -49 51 -59 57 -95 57 -31 0 -38 3 -33 15 6 18 1 17
-41 -3z m135 -99 c2 -8 -5 -13 -17 -13 -12 0 -21 6 -21 16 0 18 31 15 38 -3z
m112 -192 c0 -5 -11 -11 -25 -13 -24 -5 -32 2 -18 15 9 10 43 8 43 -2z m-110
-55 c0 -3 -4 -8 -10 -11 -5 -3 -10 -1 -10 4 0 6 5 11 10 11 6 0 10 -2 10 -4z
m250 -92 c-6 -15 -8 -42 -4 -60 l6 -34 69 0 c60 0 77 -5 146 -41 94 -49 97
-52 89 -77 -9 -27 -35 -24 -119 17 -63 30 -74 32 -135 27 -48 -4 -74 -2 -91 8
-15 8 -20 16 -12 20 16 10 14 26 -4 26 -8 0 -15 -7 -15 -16 0 -8 -4 -12 -10
-9 -5 3 -10 17 -10 31 0 21 4 24 20 19 14 -5 20 -2 20 10 0 9 -4 13 -10 10 -5
-3 -10 1 -10 10 0 8 6 18 14 21 8 3 12 12 9 20 -7 19 15 44 38 44 16 0 17 -4
9 -26z m66 -15 c10 -17 -13 -36 -27 -22 -12 12 -4 33 11 33 5 0 12 -5 16 -11z
m114 -39 c0 -5 -4 -10 -10 -10 -5 0 -10 5 -10 10 0 6 5 10 10 10 6 0 10 -4 10
-10z m35 -20 c3 -5 1 -10 -4 -10 -6 0 -11 5 -11 10 0 6 2 10 4 10 3 0 8 -4 11
-10z m35 -20 c0 -5 -4 -10 -10 -10 -5 0 -10 5 -10 10 0 6 5 10 10 10 6 0 10
-4 10 -10z m-600 -24 c0 -7 -6 -19 -14 -25 -11 -9 -12 -6 -8 14 5 26 22 35 22
11z m-193 -18 c-3 -8 -6 -5 -6 6 -1 11 2 17 5 13 3 -3 4 -12 1 -19z m1093 -35
c-1 -10 -26 -43 -33 -43 -3 0 0 11 6 25 11 23 27 34 27 18z m56 -74 c8 -6 9
-24 3 -56 -10 -53 -19 -68 -19 -32 0 19 -2 21 -10 9 -8 -12 -12 -11 -32 6 -13
12 -31 24 -40 27 -22 8 -13 41 15 55 23 12 64 7 83 -9z m-1493 -96 c-5 -12 -3
-14 8 -8 12 7 12 6 1 -7 -8 -9 -19 -15 -27 -12 -16 7 -7 44 11 44 8 0 11 -6 7
-17z m534 -85 c-3 -8 -6 -5 -6 6 -1 11 2 17 5 13 3 -3 4 -12 1 -19z m1153
-118 c0 -5 -4 -10 -10 -10 -5 0 -10 5 -10 10 0 6 5 10 10 10 6 0 10 -4 10 -10z
m-30 -46 c0 -8 -4 -12 -10 -9 -5 3 -10 10 -10 16 0 5 5 9 10 9 6 0 10 -7 10
-16z m17 -6 c-3 -8 -6 -5 -6 6 -1 11 2 17 5 13 3 -3 4 -12 1 -19z m-271 -115
c14 -13 38 -23 55 -23 38 0 34 -21 -5 -35 -43 -15 -76 10 -93 69 -8 26 -11 56
-7 65 5 12 9 7 16 -19 5 -19 20 -45 34 -57z m-841 -9 c20 -8 55 -75 55 -106 0
-17 -6 -11 -20 22 -11 25 -33 55 -48 67 -26 22 -21 30 13 17z m-55 -89 c0 -9
-6 -12 -15 -9 -8 4 -15 10 -15 15 0 5 7 9 15 9 8 0 15 -7 15 -15z m77 -102
c-2 -16 -4 -5 -4 22 0 28 2 40 4 28 2 -13 2 -35 0 -50z m-92 -253 c10 -11 16
-20 13 -20 -3 0 -13 9 -23 20 -10 11 -16 20 -13 20 3 0 13 -9 23 -20z"/>
<path d="M2025 2640 c-3 -5 -1 -10 4 -10 6 0 11 5 11 10 0 6 -2 10 -4 10 -3 0
-8 -4 -11 -10z"/>
<path d="M2245 2591 c-6 -11 9 -23 19 -14 9 9 7 23 -3 23 -6 0 -12 -4 -16 -9z"/>
<path d="M1512 3229 c2 -7 10 -15 17 -17 8 -3 12 1 9 9 -2 7 -10 15 -17 17 -8
3 -12 -1 -9 -9z"/>
<path d="M2200 3220 c0 -5 5 -10 11 -10 5 0 7 5 4 10 -3 6 -8 10 -11 10 -2 0
-4 -4 -4 -10z"/>
<path d="M1474 3167 c-6 -17 2 -37 16 -37 15 0 19 29 5 40 -12 10 -16 9 -21
-3z"/>
<path d="M1980 3169 c0 -5 5 -7 10 -4 6 3 10 8 10 11 0 2 -4 4 -10 4 -5 0 -10
-5 -10 -11z"/>
<path d="M1000 3077 c0 -19 62 -40 72 -24 14 22 9 26 -29 20 -26 -4 -34 -3
-29 5 4 7 2 12 -3 12 -6 0 -11 -6 -11 -13z"/>
<path d="M1275 3080 c4 -6 11 -8 16 -5 14 9 11 15 -7 15 -8 0 -12 -5 -9 -10z"/>
<path d="M1085 3050 c-3 -5 -2 -10 4 -10 6 0 8 -12 5 -30 -4 -18 -2 -30 4 -30
5 0 12 18 14 40 3 38 -11 55 -27 30z"/>
<path d="M1136 3052 c-3 -3 -6 -24 -6 -47 0 -33 5 -46 23 -58 22 -16 22 -16 1
-22 -11 -4 -28 -20 -38 -36 -9 -16 -21 -29 -25 -29 -5 0 -20 -18 -35 -40 -14
-22 -33 -40 -41 -40 -21 0 -19 -16 3 -25 13 -5 35 12 90 72 67 72 100 132 86
155 -3 5 0 7 7 6 6 -2 14 3 17 11 2 8 0 11 -6 7 -6 -3 -12 3 -14 16 -3 21 -49
43 -62 30z"/>
<path d="M2175 3030 c-7 -12 2 -12 30 0 19 8 19 9 -2 9 -12 1 -25 -3 -28 -9z"/>
<path d="M2125 3010 c-8 -13 5 -13 25 0 13 8 13 10 -2 10 -9 0 -20 -4 -23 -10z"/>
<path d="M1320 3000 c0 -5 9 -10 20 -10 11 0 20 5 20 10 0 6 -9 10 -20 10 -11
0 -20 -4 -20 -10z"/>
<path d="M1556 3003 c-3 -3 -3 -10 0 -14 7 -12 34 -11 34 0 0 11 -26 22 -34
14z"/>
<path d="M2253 2997 c-25 -13 -29 -63 -5 -72 37 -14 74 29 58 70 -6 17 -21 17
-53 2z m37 -23 c0 -17 -22 -14 -28 4 -2 7 3 12 12 12 9 0 16 -7 16 -16z"/>
<path d="M977 2933 c-4 -3 -7 -13 -7 -22 1 -13 3 -13 11 2 11 19 8 33 -4 20z"/>
<path d="M1395 2920 c-8 -13 15 -24 27 -12 6 6 4 11 -6 15 -8 3 -18 2 -21 -3z"/>
<path d="M2060 2911 c0 -11 25 -21 53 -21 22 1 22 1 3 15 -22 17 -56 20 -56 6z"/>
<path d="M2634 2876 c-4 -10 -13 -15 -20 -12 -20 8 -18 -28 2 -45 11 -9 20
-10 32 -2 23 14 27 47 8 63 -13 10 -17 9 -22 -4z m26 -32 c0 -8 -4 -14 -9 -14
-11 0 -22 26 -14 34 9 9 23 -3 23 -20z"/>
<path d="M2182 2856 c13 -14 37 -28 53 -31 29 -6 29 -6 11 9 -11 9 -27 16 -37
16 -9 0 -19 7 -23 15 -3 8 -10 15 -16 15 -6 0 -1 -11 12 -24z"/>
<path d="M960 2825 c0 -8 2 -15 4 -15 2 0 6 7 10 15 3 8 1 15 -4 15 -6 0 -10
-7 -10 -15z"/>
<path d="M1156 2821 c-4 -7 -5 -15 -2 -18 9 -9 19 4 14 18 -4 11 -6 11 -12 0z"/>
<path d="M2800 2665 c0 -8 4 -15 8 -15 5 0 9 7 9 15 0 8 -4 15 -9 15 -4 0 -8
-7 -8 -15z"/>
<path d="M2805 2560 c-3 -5 -1 -10 4 -10 6 0 11 5 11 10 0 6 -2 10 -4 10 -3 0
-8 -4 -11 -10z"/>
<path d="M931 2222 c-12 -23 -6 -62 11 -74 10 -6 8 -8 -4 -8 -10 0 -18 -4 -18
-10 0 -5 13 -10 30 -10 l29 0 3 -112 3 -112 29 -7 c15 -4 36 -14 45 -22 28
-24 46 -25 84 -7 l38 19 10 -25 c5 -14 7 -29 4 -34 -3 -5 0 -10 7 -12 6 -2 11
-19 10 -37 -1 -38 -44 -91 -74 -91 -10 0 -18 -7 -18 -15 0 -8 -4 -15 -10 -15
-16 0 -12 -66 5 -80 8 -6 18 -10 22 -7 4 2 17 1 28 -4 13 -6 -7 -7 -52 -3 -71
5 -73 4 -73 -17 0 -12 -2 -20 -5 -17 -3 3 -7 42 -9 87 -3 83 -7 98 -25 86 -7
-4 -11 -47 -11 -111 0 -96 -1 -104 -19 -104 -11 0 -22 8 -24 18 -3 9 -5 -5 -6
-31 0 -27 -6 -57 -11 -67 -6 -12 -7 -28 -1 -44 7 -17 7 -26 -2 -30 -9 -3 -9
-5 1 -5 19 -1 14 -39 -8 -61 -11 -11 -20 -28 -19 -37 0 -11 3 -13 6 -5 2 6 9
12 14 12 6 0 5 -8 -1 -20 -6 -11 -15 -20 -21 -20 -5 0 -20 -12 -32 -26 l-22
-25 -21 28 c-11 15 -27 45 -33 66 -9 25 -18 37 -27 33 -7 -3 -16 -1 -19 5 -10
15 -22 2 -29 -31 -3 -17 -13 -38 -22 -47 -9 -9 -14 -26 -11 -40 2 -12 1 -23
-4 -23 -4 0 -13 -16 -20 -35 -7 -19 -18 -35 -25 -35 -16 0 -26 -28 -11 -34 7
-2 2 -5 -10 -5 -23 -1 -64 -44 -89 -93 -21 -40 -10 -156 12 -137 20 17 27 6
19 -31 -5 -21 -12 -30 -20 -26 -8 3 -17 -4 -20 -15 -5 -16 -10 -18 -21 -8 -11
9 -14 7 -14 -13 0 -13 -5 -29 -11 -35 -14 -14 -3 -46 14 -40 7 2 11 17 9 36
-3 22 0 31 7 27 14 -9 14 -42 0 -68 -6 -11 -8 -23 -4 -26 11 -12 39 14 50 49
12 33 12 34 24 11 7 -13 11 -35 9 -50 -3 -27 -4 -27 -78 -28 -97 -1 -100 -1
-100 -18 0 -8 -14 -22 -32 -30 -38 -19 -72 -21 -62 -3 5 8 4 9 -3 2 -16 -15
-33 -107 -40 -210 l-6 -91 42 -14 c34 -11 49 -11 75 -2 18 7 51 12 73 12 39 0
41 -2 46 -36 8 -51 23 -64 71 -64 23 0 46 -4 52 -10 6 -6 15 -6 24 0 10 6 11
10 3 10 -7 0 -10 7 -7 15 9 22 22 18 26 -7 5 -36 44 -36 53 -1 4 17 2 29 -4
31 -6 2 -9 8 -5 13 7 12 44 12 44 -1 0 -18 35 -11 48 10 15 24 73 27 92 5 16
-19 30 -19 45 1 6 9 32 18 58 21 37 5 52 2 68 -13 21 -18 21 -18 40 5 19 23
20 23 39 6 11 -10 26 -15 34 -12 8 3 22 -3 32 -14 17 -19 59 -25 80 -11 7 4
14 17 15 30 5 33 22 29 33 -7 9 -30 26 -43 26 -19 0 9 3 9 12 0 7 -7 20 -12
29 -12 16 0 17 4 7 30 -5 17 -8 40 -5 51 7 24 -10 77 -31 102 -12 13 -13 23
-6 35 15 24 -12 116 -32 108 -7 -3 -19 3 -26 13 -7 9 -20 21 -28 26 -12 7 -13
6 -4 -6 7 -8 19 -38 28 -68 17 -57 11 -82 -22 -100 -10 -5 -130 -11 -267 -13
-245 -3 -251 -2 -294 20 -42 23 -43 24 -22 38 32 23 198 27 231 7 16 -11 42
-16 74 -14 54 2 67 8 49 19 -7 4 -19 24 -28 45 -14 35 -14 37 3 37 13 0 24
-13 35 -40 11 -29 20 -38 31 -34 9 3 16 1 16 -5 0 -6 5 -11 10 -11 6 0 10 7
10 15 0 10 10 15 33 15 18 0 39 6 46 13 8 7 11 7 8 1 -4 -7 2 -14 13 -17 25
-6 26 5 2 26 -24 22 -84 23 -76 2 5 -12 -3 -15 -36 -15 -31 0 -41 4 -37 13 3
7 -4 19 -14 25 -30 19 -22 32 18 32 20 0 33 3 30 6 -3 4 -37 7 -74 7 -37 0
-57 1 -43 4 14 2 36 6 50 9 23 6 24 7 5 14 -11 5 -40 9 -65 10 -78 2 -93 19
-18 19 58 1 67 4 73 22 6 19 8 19 19 3 20 -27 50 -8 79 51 23 47 25 57 12 61
-18 7 -20 61 -3 66 10 4 10 11 2 29 -8 19 -10 66 -4 140 0 4 16 31 35 60 20
29 34 58 31 65 -3 9 7 15 28 20 30 5 35 10 39 42 3 21 8 51 12 67 6 29 6 29
-10 10 -17 -19 -17 -19 -12 10 3 17 9 41 13 55 7 22 6 23 -8 12 -33 -27 -6 32
31 69 46 45 138 109 160 109 11 0 7 6 -12 18 -27 16 -42 49 -39 85 0 10 -6 17
-18 17 -14 0 -21 13 -32 57 l-14 57 -52 11 c-29 7 -54 14 -56 16 -2 2 -18 54
-36 114 -18 61 -37 113 -42 116 -6 4 -7 12 -4 18 4 6 12 9 17 6 5 -3 6 1 3 10
-6 14 -9 13 -29 -5 l-23 -21 -16 43 c-9 24 -26 72 -39 108 -22 61 -25 65 -62
74 -22 5 -48 18 -57 28 -16 19 -17 19 -27 0z m99 -92 c0 -11 -7 -20 -15 -20
-27 0 -18 30 13 39 1 1 2 -8 2 -19z m175 -458 c-17 -15 -22 -23 -12 -19 10 4
25 7 33 7 8 0 14 9 14 20 0 11 5 20 10 20 14 0 32 -48 29 -80 -1 -14 3 -38 10
-53 15 -38 15 -38 -16 -31 -15 4 -32 7 -38 7 -6 0 -9 15 -7 34 4 29 0 35 -25
46 -24 9 -29 17 -26 36 5 35 33 65 47 51 8 -8 2 -19 -19 -38z m-55 -11 c0 -6
-4 -12 -8 -15 -5 -3 -9 1 -9 9 0 8 4 15 9 15 4 0 8 -4 8 -9z m-70 -232 c0 -6
-4 -7 -10 -4 -5 3 -10 11 -10 16 0 6 5 7 10 4 6 -3 10 -11 10 -16z m88 -81
c-7 -19 -38 -22 -38 -4 0 10 9 16 21 16 12 0 19 -5 17 -12z m42 -144 c-8 -8
-23 -20 -34 -26 -18 -10 -17 -7 4 15 27 28 51 38 30 11z m-289 -77 c-13 -13
-26 -3 -16 12 3 6 11 8 17 5 6 -4 6 -10 -1 -17z m56 -5 c8 -5 8 -15 -2 -40
-13 -30 -17 -32 -64 -32 -27 0 -53 5 -56 10 -3 6 0 10 7 10 7 0 31 14 52 30
43 32 45 33 63 22z m113 -17 c0 -2 -9 -19 -20 -37 l-20 -33 5 35 5 35 -12 -32
c-6 -18 -17 -33 -24 -33 -17 0 -18 11 -2 45 8 18 19 25 40 25 15 0 28 -2 28
-5z m-288 -37 c-7 -7 -12 -8 -12 -2 0 14 12 26 19 19 2 -3 -1 -11 -7 -17z
m-47 -130 c-15 -46 -30 -87 -34 -93 -3 -5 -6 -14 -6 -20 0 -5 -15 -11 -32 -13
-18 -2 -33 -1 -33 1 0 23 119 221 128 213 2 -3 -8 -42 -23 -88z m184 77 c5 -5
-37 -133 -55 -168 -12 -22 -20 -27 -37 -21 -27 8 -23 3 -39 44 -13 31 -13 41
3 88 26 75 25 75 78 67 25 -4 48 -8 50 -10z m83 -29 c-7 -60 -112 -195 -112
-145 0 6 19 49 42 95 29 57 48 84 58 82 10 -2 14 -13 12 -32z m-392 -16 c0 -5
-4 -10 -10 -10 -5 0 -10 -6 -10 -14 0 -8 -16 -31 -35 -52 -41 -43 -43 -40 -13
13 35 62 68 93 68 63z m300 -160 c12 -8 11 -10 -7 -10 -13 0 -23 5 -23 10 0
13 11 13 30 0z m-20 -110 c0 -5 -4 -10 -10 -10 -5 0 -10 5 -10 10 0 6 5 10 10
10 6 0 10 -4 10 -10z m-12 -64 c6 -14 21 -26 34 -29 15 -3 10 -5 -14 -6 -36
-1 -58 17 -58 48 0 21 27 11 38 -13z m-340 -150 c-7 -7 -19 -11 -25 -9 -18 7
-5 23 18 23 16 0 18 -2 7 -14z m337 4 c-19 -8 -18 -9 5 -11 23 -2 24 -2 3 -6
-18 -3 -20 -7 -10 -18 9 -9 14 -10 20 -1 6 7 7 6 4 -4 -4 -17 -103 -25 -113
-9 -3 5 0 9 6 9 6 0 8 5 5 10 -4 6 -11 8 -16 5 -5 -4 -12 0 -15 9 -3 8 -14 13
-25 11 -10 -2 -21 0 -24 6 -4 5 31 9 87 8 61 0 86 -3 73 -9z m-308 -22 c-3 -8
-6 -5 -6 6 -1 11 2 17 5 13 3 -3 4 -12 1 -19z m91 -9 c-3 -8 -7 -3 -11 10 -4
17 -3 21 5 13 5 -5 8 -16 6 -23z m318 -4 c19 -45 18 -55 -5 -55 -13 0 -24 13
-35 40 -20 51 -20 50 5 50 13 0 25 -11 35 -35z m-496 1 c0 -13 -3 -33 -7 -43
-6 -16 -8 -15 -14 7 -7 23 -7 24 -8 3 -1 -16 -6 -21 -16 -17 -11 5 -13 2 -9
-9 3 -10 -7 -27 -28 -46 -41 -38 -48 -38 -48 -2 0 30 42 81 67 81 10 0 12 6 8
21 -5 14 -3 19 3 15 6 -3 13 -2 17 4 12 19 35 10 35 -14z m-70 5 c0 -6 -4 -13
-10 -16 -5 -3 -10 1 -10 9 0 9 5 16 10 16 6 0 10 -4 10 -9z m765 -11 c3 -5 1
-10 -4 -10 -6 0 -11 5 -11 10 0 6 2 10 4 10 3 0 8 -4 11 -10z m-882 -82 c4
-29 3 -36 -9 -31 -15 5 -18 30 -8 58 8 20 10 18 17 -27z m-18 -47 c3 -5 1 -12
-5 -16 -5 -3 -10 1 -10 9 0 18 6 21 15 7z m255 -25 c0 -14 -4 -28 -10 -31 -6
-4 -10 7 -10 24 0 17 5 31 10 31 6 0 10 -11 10 -24z m-243 -28 c-3 -7 -5 -2
-5 12 0 14 2 19 5 13 2 -7 2 -19 0 -25z m335 -85 c-6 -2 -10 -9 -6 -14 3 -5 0
-9 -5 -9 -6 0 -11 7 -11 15 0 8 8 15 18 14 10 0 12 -3 4 -6z"/>
<path d="M872 2218 c-16 -16 -15 -29 2 -22 10 4 12 -2 8 -22 -3 -19 -1 -25 7
-20 13 8 15 62 3 70 -5 3 -14 0 -20 -6z"/>
<path d="M842 2153 c-15 -40 -24 -120 -17 -144 5 -16 10 -18 21 -8 8 6 14 19
14 28 0 9 5 22 11 28 8 8 8 21 -1 47 -6 20 -9 45 -5 56 10 31 -11 24 -23 -7z"/>
<path d="M2881 2050 c-1 -43 53 -122 105 -156 31 -21 44 -11 17 13 -24 22 -96
110 -111 138 -8 14 -11 15 -11 5z"/>
<path d="M2096 1977 c3 -10 9 -15 12 -12 3 3 0 11 -7 18 -10 9 -11 8 -5 -6z"/>
<path d="M2850 1940 c-8 -5 -12 -11 -9 -14 2 -3 11 -1 19 4 8 5 12 11 9 14 -2
3 -11 1 -19 -4z"/>
<path d="M2020 1897 c0 -20 4 -37 10 -37 5 0 7 14 3 33 -8 45 -13 47 -13 4z"/>
<path d="M2245 1904 c-27 -13 -54 -25 -58 -27 -5 -1 -1 -22 8 -45 14 -34 15
-50 7 -75 -8 -27 -10 -28 -11 -9 -1 13 -5 20 -11 17 -6 -4 -10 11 -10 38 0 42
-10 57 -39 57 -5 0 -11 -25 -15 -55 -3 -30 -17 -84 -30 -120 -18 -50 -20 -65
-10 -65 7 0 21 -11 29 -24 18 -27 45 -39 128 -56 47 -9 57 -15 57 -32 0 -36
32 -133 49 -145 11 -9 12 -12 3 -13 -9 0 -11 -10 -7 -33 5 -24 1 -43 -15 -69
-11 -20 -22 -52 -24 -71 -2 -20 -13 -50 -24 -69 -67 -105 -74 -113 -184 -208
-25 -22 -49 -52 -52 -65 -5 -18 -13 -25 -31 -25 -20 0 -30 -10 -47 -45 -22
-45 -22 -47 -5 -94 21 -60 21 -71 2 -71 -8 0 -15 -9 -15 -20 0 -19 -19 -26
-57 -21 -7 1 -13 1 -13 -1 -17 -97 -29 -189 -29 -208 0 -23 1 -23 9 -5 6 15 9
16 9 4 1 -20 72 -44 103 -34 13 4 59 11 103 16 44 5 104 12 133 15 53 6 54 6
91 -35 33 -36 43 -41 86 -43 45 -3 50 -1 53 19 2 12 9 27 17 33 11 9 17 5 30
-19 8 -17 18 -31 21 -31 2 0 0 9 -6 19 -19 36 -30 71 -21 71 4 0 14 -11 21
-24 10 -20 18 -24 41 -19 17 3 35 0 44 -7 12 -10 18 -10 30 0 8 7 24 10 36 7
12 -3 29 -1 39 5 14 9 22 8 35 -5 38 -38 94 -33 115 11 11 25 13 26 24 8 29
-48 46 -58 22 -12 -30 55 -30 56 -15 56 5 0 7 -4 4 -10 -3 -5 1 -10 9 -10 23
0 19 18 -9 44 -14 13 -25 33 -25 45 0 11 -5 21 -11 21 -6 0 -8 -8 -4 -19 5
-17 -4 -19 -117 -25 -111 -6 -211 2 -239 19 -20 13 -7 34 24 41 31 6 31 7 9
15 -13 5 -33 16 -45 24 -20 14 -19 14 16 13 41 -1 49 4 54 30 3 23 -52 30 -61
7 -7 -19 -26 -20 -26 0 0 8 -10 20 -22 26 l-23 12 27 9 c30 10 87 96 70 107
-18 11 -26 79 -11 95 8 8 39 44 69 80 49 57 59 65 91 65 20 1 47 9 60 19 55
40 91 53 68 25 -13 -15 -12 -15 8 -2 35 21 53 66 41 101 -8 22 -6 34 6 53 14
22 14 28 1 57 -8 18 -24 66 -36 106 -22 76 -39 95 -19 22 13 -48 10 -55 -19
-45 -12 4 -21 15 -21 27 0 11 -11 31 -25 44 -36 34 -32 47 14 42 39 -3 39 -3
34 26 -5 22 -3 27 7 21 9 -5 11 -4 6 4 -4 6 -11 9 -15 7 -4 -3 -24 48 -45 112
-21 64 -45 128 -52 142 l-13 25 -1 -23 c0 -32 -24 -23 -28 10 -4 31 -36 63
-53 52 -9 -5 -6 -10 9 -15 12 -5 22 -15 22 -24 0 -17 -35 -21 -45 -5 -3 6 -14
10 -25 10 -11 0 -20 10 -24 25 -6 25 -50 54 -62 42 -3 -3 3 -23 13 -44 29 -57
95 -261 89 -272 -4 -5 1 -14 10 -19 10 -5 17 -23 18 -41 0 -17 4 -31 8 -31 12
0 30 -81 23 -107 -3 -14 -2 -22 4 -19 5 3 11 -1 15 -9 3 -8 2 -15 -3 -15 -13
0 -32 26 -40 57 -8 30 -28 30 -23 -1 3 -12 0 -16 -8 -11 -9 6 -11 -2 -8 -27 3
-33 -15 -67 -34 -60 -14 4 -8 -11 9 -23 15 -11 13 -13 -17 -20 -30 -7 -36 -4
-66 31 -18 22 -36 47 -39 57 -4 9 -10 15 -15 12 -13 -8 -22 32 -14 58 4 12 12
25 18 29 14 9 1 20 -26 22 -32 1 -37 42 -8 68 14 13 21 15 19 7 -4 -31 2 -49
16 -49 8 0 15 8 15 18 0 10 5 23 11 29 5 5 11 21 13 34 5 51 24 61 56 29 23
-23 25 -11 5 44 -7 21 -11 44 -9 51 3 7 -3 21 -14 31 -20 20 -75 174 -62 174
4 0 12 -18 19 -41 7 -23 14 -39 17 -37 2 3 -3 27 -11 54 -12 40 -24 56 -64 87
-28 20 -52 37 -53 36 -2 0 -25 -11 -53 -25z m425 -484 c0 -5 3 -15 6 -24 4
-11 1 -16 -10 -16 -19 0 -21 -31 -4 -48 9 -9 6 -12 -14 -12 -22 0 -27 6 -37
44 -6 24 -13 50 -16 57 -4 12 3 14 35 11 22 -2 40 -8 40 -12z m-307 -187 c20
-40 8 -77 -26 -81 -19 -2 -27 1 -27 12 0 17 30 96 36 96 2 0 10 -12 17 -27z
m333 -110 c-10 -10 -19 5 -10 18 6 11 8 11 12 0 2 -7 1 -15 -2 -18z m-395 -26
c-8 -8 -11 -7 -11 4 0 20 13 34 18 19 3 -7 -1 -17 -7 -23z m300 -24 c-12 -20
-14 -14 -5 12 4 9 9 14 11 11 3 -2 0 -13 -6 -23z m89 -28 c-7 -8 -14 -15 -15
-15 -2 0 -5 7 -9 15 -4 10 1 15 16 15 17 0 18 -2 8 -15z m-324 -40 c-15 -44
-21 -49 -42 -41 -15 6 -13 12 16 41 19 19 35 35 36 35 1 0 -4 -16 -10 -35z
m174 1 c0 -2 -8 -10 -17 -17 -16 -13 -17 -12 -4 4 13 16 21 21 21 13z m160 -8
c0 -10 -57 -11 -63 0 -3 4 10 7 29 8 19 0 34 -3 34 -8z m-376 -56 c3 -5 -11
-37 -31 -70 -38 -65 -66 -79 -93 -47 -11 13 -4 24 41 70 52 53 72 64 83 47z
m76 -10 c0 -4 -6 -16 -14 -27 -7 -11 -16 -32 -20 -47 -3 -15 -15 -30 -27 -33
-12 -4 -18 -12 -15 -21 4 -10 -2 -14 -20 -14 -32 0 -29 10 28 91 36 51 68 76
68 51z m-370 -207 c0 -8 -4 -15 -10 -15 -5 0 -7 7 -4 15 4 8 8 15 10 15 2 0 4
-7 4 -15z m46 -122 c-10 -10 -19 5 -10 18 6 11 8 11 12 0 2 -7 1 -15 -2 -18z
m82 -120 c-2 -22 -8 -28 -25 -27 -13 0 -21 -2 -18 -5 3 -3 -16 -10 -42 -17
-26 -7 -50 -11 -52 -9 -12 12 15 38 61 59 70 32 80 32 76 -1z"/>
<path d="M2121 1904 c0 -11 3 -14 6 -6 3 7 2 16 -1 19 -3 4 -6 -2 -5 -13z"/>
<path d="M2831 1894 c-18 -8 -31 -17 -29 -20 7 -7 68 17 68 27 0 5 -1 9 -2 8
-2 0 -18 -7 -37 -15z"/>
<path d="M2430 1871 c0 -4 21 -16 47 -26 26 -10 42 -20 36 -22 -16 -6 -5 -33
13 -33 8 0 14 7 14 16 0 17 29 12 68 -12 46 -30 43 -1 -4 42 -46 42 -50 44
-111 44 -35 0 -63 -4 -63 -9z"/>
<path d="M2738 1838 c16 -16 15 -28 -3 -28 -18 0 -18 -2 -1 -45 8 -18 12 -36
9 -38 -8 -8 17 -47 30 -47 7 0 32 -30 56 -65 43 -65 43 -65 91 -65 42 0 54 5
86 35 32 30 36 39 30 67 -3 18 -12 35 -18 39 -9 6 -8 11 1 23 12 14 10 16 -9
16 -18 0 -21 -4 -16 -22 19 -67 18 -72 -18 -107 -31 -30 -39 -33 -71 -27 -27
5 -35 11 -31 22 3 8 2 12 -4 9 -5 -3 -16 7 -24 23 -8 16 -22 34 -30 41 -17 15
-22 36 -6 26 6 -3 10 0 10 8 0 22 78 48 124 40 l39 -6 -19 25 c-10 14 -22 24
-25 22 -3 -2 -17 8 -29 21 -13 14 -31 25 -41 25 -9 0 -19 5 -21 11 -3 9 -10 8
-25 -2 -18 -11 -24 -11 -38 1 -14 12 -18 12 -26 -1 -6 -10 -9 -10 -9 -1 0 6
-5 12 -12 12 -9 0 -9 -3 0 -12z m33 -21 c-10 -9 -11 -8 -5 6 3 10 9 15 12 12
3 -3 0 -11 -7 -18z m24 -27 c-7 -12 -32 -13 -39 -2 -2 4 7 9 20 10 15 1 22 -2
19 -8z"/>
<path d="M945 1800 c-8 -13 -1 -24 14 -19 6 3 7 10 2 18 -6 10 -10 10 -16 1z"/>
<path d="M1835 1798 c-24 -73 -29 -133 -7 -91 18 34 31 93 21 99 -5 3 -11 -1
-14 -8z"/>
<path d="M950 1720 c0 -5 7 -10 16 -10 8 0 12 5 9 10 -3 6 -10 10 -16 10 -5 0
-9 -4 -9 -10z"/>
<path d="M1695 1720 c-3 -6 1 -13 10 -16 19 -8 30 0 20 15 -8 14 -22 14 -30 1z"/>
<path d="M1620 1700 c0 -5 5 -10 10 -10 6 0 10 5 10 10 0 6 -4 10 -10 10 -5 0
-10 -4 -10 -10z"/>
<path d="M3040 1684 c0 -11 7 -29 16 -40 14 -18 15 -18 8 6 -3 14 -10 32 -15
40 -7 12 -8 11 -9 -6z"/>
<path d="M1055 1670 c3 -5 8 -10 11 -10 2 0 4 5 4 10 0 6 -5 10 -11 10 -5 0
-7 -4 -4 -10z"/>
<path d="M1655 1651 c-11 -18 5 -31 38 -31 21 0 28 3 19 9 -8 4 -12 12 -10 17
4 13 -39 17 -47 5z"/>
<path d="M1750 1645 c-16 -9 -19 -14 -9 -15 8 0 24 7 35 15 24 18 7 19 -26 0z"/>
<path d="M3125 1650 c3 -5 8 -10 11 -10 2 0 4 5 4 10 0 6 -5 10 -11 10 -5 0
-7 -4 -4 -10z"/>
<path d="M1476 1619 c3 -5 1 -9 -4 -9 -17 0 -32 -49 -23 -74 17 -42 89 -51
115 -14 33 46 11 86 -52 98 -23 4 -39 3 -36 -1z"/>
<path d="M1906 1581 c-19 -7 -18 -8 4 -14 25 -6 40 -2 40 14 0 11 -17 11 -44
0z"/>
<path d="M941 1534 c0 -11 3 -14 6 -6 3 7 2 16 -1 19 -3 4 -6 -2 -5 -13z"/>
<path d="M1825 1540 c4 -6 11 -8 16 -5 14 9 11 15 -7 15 -8 0 -12 -5 -9 -10z"/>
<path d="M1870 1540 c0 -5 5 -10 11 -10 5 0 7 5 4 10 -3 6 -8 10 -11 10 -2 0
-4 -4 -4 -10z"/>
<path d="M3110 1500 c0 -5 5 -10 10 -10 6 0 10 5 10 10 0 6 -4 10 -10 10 -5 0
-10 -4 -10 -10z"/>
<path d="M2460 1480 c0 -11 4 -20 9 -20 5 0 7 9 4 20 -3 11 -7 20 -9 20 -2 0
-4 -9 -4 -20z"/>
<path d="M3040 1447 c-20 -13 -34 -31 -33 -41 0 -11 -4 -15 -13 -12 -8 3 -14
2 -14 -3 0 -5 -11 -12 -25 -15 -14 -4 -25 -13 -25 -21 0 -11 7 -14 24 -9 22 5
26 2 36 -37 9 -31 9 -53 2 -77 -9 -28 -8 -31 4 -21 11 9 14 8 14 -7 0 -11 10
-35 21 -54 12 -19 21 -50 21 -72 -1 -21 4 -40 9 -44 6 -3 21 -30 34 -60 21
-48 27 -54 54 -54 20 0 32 -6 36 -19 7 -24 -4 -51 -22 -51 -10 0 -12 -6 -8
-21 6 -18 5 -19 -13 -10 -32 17 -34 13 -10 -14 12 -14 28 -23 35 -21 8 3 22
-3 33 -14 21 -21 35 -27 25 -10 -5 7 7 9 34 6 33 -4 43 -1 55 16 18 25 13 38
-15 38 -10 0 -19 5 -19 11 0 6 -7 9 -15 6 -8 -4 -17 -2 -20 2 -7 13 38 22 49
11 17 -17 29 -11 23 10 -4 14 0 20 11 20 29 0 43 -15 36 -36 -7 -19 -7 -19 14
0 12 11 22 30 22 43 0 12 5 23 11 23 6 0 9 7 6 15 -4 8 -2 17 3 20 16 10 11
25 -6 18 -13 -5 -15 -2 -10 14 4 12 1 25 -9 33 -13 11 -15 9 -15 -11 -1 -23
-2 -23 -31 10 -22 23 -30 41 -26 57 3 15 0 24 -8 24 -17 0 -66 85 -76 130 -4
19 -12 52 -17 72 -7 26 -6 38 1 41 6 2 -9 32 -34 68 -39 56 -49 64 -80 67 -24
2 -45 -4 -69 -21z m8 -275 c-3 -14 -6 -14 -16 6 -7 12 -10 27 -6 33 9 15 27
-16 22 -39z m19 -64 c-3 -7 -5 -2 -5 12 0 14 2 19 5 13 2 -7 2 -19 0 -25z
m153 -278 c11 -7 7 -10 -17 -10 -18 0 -33 5 -33 10 0 13 30 13 50 0z"/>
<path d="M2528 1451 c-24 -5 -25 -8 -12 -25 12 -17 14 -18 14 -3 0 9 7 17 15
17 8 0 15 5 15 10 0 6 -1 9 -2 9 -2 -1 -15 -4 -30 -8z"/>
<path d="M2449 1409 c-9 -17 -8 -20 3 -15 7 3 21 9 31 12 23 8 22 24 -3 24
-10 0 -24 -10 -31 -21z"/>
<path d="M1845 1390 c3 -5 8 -10 11 -10 2 0 4 5 4 10 0 6 -5 10 -11 10 -5 0
-7 -4 -4 -10z"/>
<path d="M2530 1380 c0 -5 5 -10 11 -10 5 0 7 5 4 10 -3 6 -8 10 -11 10 -2 0
-4 -4 -4 -10z"/>
<path d="M1860 1328 c0 -18 18 -34 28 -24 3 4 -2 14 -11 23 -16 16 -17 16 -17
1z"/>
<path d="M1605 1309 c-6 -9 -3 -35 11 -80 3 -12 -3 -18 -25 -21 -26 -4 -32 0
-40 24 -7 18 -15 26 -24 22 -10 -3 -18 4 -23 19 -8 21 -11 23 -22 11 -8 -9 -9
-14 -2 -14 7 0 9 -8 5 -20 -4 -12 -2 -20 5 -20 6 0 9 -4 6 -9 -4 -5 0 -11 6
-14 8 -3 6 -7 -7 -12 -11 -4 -29 -11 -40 -16 -18 -8 -18 -9 3 -3 12 3 43 7 70
9 75 6 115 13 142 24 25 10 25 10 -6 10 -24 1 -33 6 -38 24 -9 34 -8 37 18 37
14 0 27 3 30 8 2 4 -11 7 -30 6 -29 -2 -33 0 -23 12 8 9 8 14 1 14 -6 0 -14
-5 -17 -11z"/>
<path d="M2478 1296 c-3 -14 -2 -26 3 -26 14 0 20 20 11 36 -8 14 -10 12 -14
-10z"/>
<path d="M1390 1284 c0 -14 9 -37 20 -51 11 -14 20 -21 20 -14 0 6 9 11 21 11
11 0 18 4 15 9 -3 5 -15 7 -25 4 -16 -4 -21 2 -26 31 -8 42 -25 48 -25 10z"/>
<path d="M1540 1300 c0 -5 5 -10 11 -10 5 0 7 5 4 10 -3 6 -8 10 -11 10 -2 0
-4 -4 -4 -10z"/>
<path d="M850 1279 c0 -11 5 -17 10 -14 6 3 10 13 10 21 0 8 -4 14 -10 14 -5
0 -10 -9 -10 -21z"/>
<path d="M1550 1269 c0 -5 5 -7 10 -4 6 3 10 8 10 11 0 2 -4 4 -10 4 -5 0 -10
-5 -10 -11z"/>
<path d="M1860 1234 c0 -17 22 -14 28 4 2 7 -3 12 -12 12 -9 0 -16 -7 -16 -16z"/>
<path d="M1896 1223 c-11 -11 -6 -23 9 -23 8 0 15 4 15 9 0 13 -16 22 -24 14z"/>
<path d="M1823 1195 c-3 -9 -3 -18 0 -22 10 -10 37 6 37 22 0 20 -29 20 -37 0z"/>
<path d="M3340 1190 c0 -5 5 -10 11 -10 5 0 7 5 4 10 -3 6 -8 10 -11 10 -2 0
-4 -4 -4 -10z"/>
<path d="M1866 1174 c-10 -25 -7 -34 9 -28 17 7 20 30 6 38 -5 3 -12 -1 -15
-10z"/>
<path d="M1327 1154 c-12 -13 6 -34 31 -34 24 0 25 0 7 20 -19 21 -28 24 -38
14z"/>
<path d="M1790 1145 c0 -8 9 -15 20 -15 11 0 20 -7 20 -15 0 -18 16 -20 26 -4
7 12 -32 48 -53 49 -7 0 -13 -7 -13 -15z"/>
<path d="M3292 1128 c5 -15 28 -23 28 -10 0 5 -7 13 -16 16 -10 4 -14 1 -12
-6z"/>
<path d="M1534 1119 c-4 -7 -9 -45 -11 -85 -3 -67 -2 -73 18 -79 16 -5 18 -9
9 -15 -11 -7 -9 -20 8 -65 11 -32 18 -64 15 -72 -3 -8 -1 -18 5 -22 8 -5 9
-17 3 -39 -6 -20 -6 -30 0 -27 5 4 12 -1 15 -9 8 -20 31 -20 68 -1 18 10 33
12 40 6 7 -6 23 -4 43 4 29 12 32 18 35 61 3 52 25 72 30 27 2 -15 8 -28 15
-28 6 0 15 -3 19 -7 29 -30 52 15 26 51 -10 15 -24 40 -31 58 -7 17 -19 34
-28 37 -9 4 -12 13 -8 25 7 24 -34 53 -57 40 -14 -8 -17 0 -23 56 -4 35 -14
70 -21 76 -10 8 -35 10 -76 5 -37 -4 -66 -2 -74 4 -9 8 -14 7 -20 -1z m164
-67 c4 -23 -12 -30 -22 -9 -5 10 -7 10 -12 0 -11 -25 -34 -14 -34 16 0 27 2
28 33 22 23 -5 33 -13 35 -29z m-124 12 c22 -8 20 -31 -4 -44 -18 -10 -20 -8
-20 20 0 32 1 33 24 24z m56 -138 c0 -3 -4 -8 -10 -11 -5 -3 -10 -1 -10 4 0 6
5 11 10 11 6 0 10 -2 10 -4z m-3 -138 c-3 -7 -5 -2 -5 12 0 14 2 19 5 13 2 -7
2 -19 0 -25z m3 -28 c0 -5 -8 -10 -17 -10 -15 0 -16 2 -3 10 19 12 20 12 20 0z"/>
<path d="M3366 1117 c3 -10 9 -15 12 -12 3 3 0 11 -7 18 -10 9 -11 8 -5 -6z"/>
<path d="M1296 1111 c-6 -9 31 -48 38 -40 2 2 0 14 -5 27 -9 23 -24 29 -33 13z"/>
<path d="M1385 1110 c-4 -6 -3 -14 0 -20 9 -15 35 -12 35 4 0 17 -27 29 -35
16z"/>
<path d="M1760 1095 c0 -8 5 -15 10 -15 6 0 10 7 10 15 0 8 -4 15 -10 15 -5 0
-10 -7 -10 -15z"/>
<path d="M1352 1068 c2 -13 9 -23 17 -23 23 0 23 19 0 33 -19 12 -20 11 -17
-10z"/>
<path d="M1438 1068 c-2 -15 -11 -24 -25 -26 -28 -4 -29 -14 -4 -36 28 -26 46
-12 47 39 2 46 -12 63 -18 23z"/>
<path d="M1790 1080 c0 -13 28 -25 38 -16 3 4 0 11 -8 16 -20 13 -30 12 -30 0z"/>
<path d="M1448 898 c-2 -33 0 -62 3 -64 4 -2 4 -15 1 -30 -3 -16 1 -30 9 -36
11 -7 11 -11 2 -15 -7 -2 -13 -13 -13 -24 0 -14 7 -19 30 -19 32 0 43 26 15
36 -17 7 -21 44 -4 44 6 0 9 9 6 20 -3 11 -1 20 4 20 5 0 7 11 3 24 -4 16 -1
25 10 29 9 4 16 17 16 30 0 20 -7 26 -39 35 l-39 9 -4 -59z m39 -174 c-3 -3
-12 -4 -19 -1 -8 3 -5 6 6 6 11 1 17 -2 13 -5z"/>
<path d="M460 834 c-12 -31 -12 -55 -1 -73 15 -24 26 -4 29 48 2 55 -12 68
-28 25z"/>
<path d="M2560 522 c0 -19 50 -62 71 -62 11 0 19 4 19 10 0 5 -7 7 -16 3 -10
-4 -26 6 -44 28 -16 19 -29 28 -30 21z"/>
<path d="M2667 499 c7 -7 15 -10 18 -7 3 3 -2 9 -12 12 -14 6 -15 5 -6 -5z"/>
</g>
</svg>
