<svg width="63" height="63" viewBox="0 0 63 63" fill="none" xmlns="http://www.w3.org/2000/svg">
<path d="M63 55.1H0V56.1H63V55.1Z" fill="#2A76BC"/>
<path d="M31.5 15.8C33.4 15.8 35 14.2 35 12.3C35 10.4 33.4 8.8 31.5 8.8C29.6 8.8 28 10.4 28 12.3C28 14.2 29.6 15.8 31.5 15.8ZM31.5 9.8C32.9 9.8 34 10.9 34 12.3C34 13.7 32.9 14.8 31.5 14.8C30.1 14.8 29 13.7 29 12.3C29 10.9 30.1 9.8 31.5 9.8Z" fill="black"/>
<path d="M51.4 16.8H27.5C26.8 16.8 26.2 17.1 25.7 17.5L14.5 28.8C13.6 29.7 13.5 31.1 14.2 32.1C14.6 32.7 15.3 33.1 16 33.1C16.1 33.1 16.1 33.1 16.2 33.1C16.9 33.1 17.5 32.8 18 32.4L27 23.4V31.4V32.4L21.4 38H12.5C11.2 38 10.1 38.9 9.9 40.1C9.8 40.8 10 41.6 10.5 42.1C11 42.6 11.7 43 12.4 43H22.4C23.1 43 23.7 42.7 24.2 42.3L30.5 36H31.8L34.8 43.2V52.6C34.8 53.9 35.7 55 36.9 55.2C37 55.2 37.2 55.2 37.3 55.2C37.9 55.2 38.5 55 38.9 54.6C39.5 54.1 39.8 53.4 39.8 52.7V42.7C39.8 42.4 39.7 42 39.6 41.7L38.2 38.3L36 32.8V31.3V21.8H51.5C52.2 21.8 52.9 21.5 53.4 20.9C53.9 20.3 54.1 19.6 54 18.9C53.8 17.7 52.7 16.8 51.4 16.8ZM38.8 52.6C38.8 53 38.6 53.5 38.3 53.7C38 54 37.5 54.1 37.1 54C36.4 53.9 35.9 53.2 35.9 52.4V42.9C35.9 42.8 35.9 42.8 35.9 42.7L32.7 35.1C32.6 34.9 32.4 34.8 32.2 34.8H30.4C30.3 34.8 30.1 34.9 30 34.9L23.5 41.4C23.2 41.7 22.8 41.8 22.4 41.8H12.4C12 41.8 11.5 41.6 11.3 41.3C11 41 10.9 40.5 11 40.1C11.1 39.4 11.8 38.9 12.6 38.9H21.7C21.8 38.9 22 38.8 22.1 38.8L28 32.9C28.1 32.8 28.1 32.7 28.1 32.5V31.8H35.1V32.9C35.1 33 35.1 33 35.1 33.1L38.8 42C38.9 42.2 38.9 42.4 38.9 42.6V52.6H38.8ZM52.6 20.3C52.3 20.6 51.9 20.8 51.5 20.8H35.5C35.2 20.8 35 21 35 21.3V30.8H28V22.1C28 21.9 27.9 21.7 27.7 21.6C27.5 21.5 27.3 21.6 27.2 21.7L17.3 31.6C17 31.9 16.6 32.1 16.1 32C15.7 32 15.3 31.7 15 31.4C14.6 30.8 14.7 30 15.2 29.4L26.4 18.2C26.7 17.9 27.1 17.8 27.5 17.8H51.4C52.2 17.8 52.9 18.3 53 19C53 19.5 52.9 19.9 52.6 20.3Z" fill="black"/>
<path d="M22.4 48.1C20.5 48.1 18.9 49.7 18.9 51.6C18.9 53.5 20.5 55.1 22.4 55.1C24.3 55.1 25.9 53.5 25.9 51.6C25.9 49.7 24.3 48.1 22.4 48.1ZM22.4 54.1C21 54.1 19.9 53 19.9 51.6C19.9 50.2 21 49.1 22.4 49.1C23.8 49.1 24.9 50.2 24.9 51.6C24.9 53 23.8 54.1 22.4 54.1Z" fill="#EE2B2F"/>
</svg>
