<svg width="63" height="63" viewBox="0 0 63 63" fill="none" xmlns="http://www.w3.org/2000/svg">
<path d="M1.5 52.7C1.4 52.7 1.4 52.8 1.3 52.8C1.2 52.8 1.2 52.9 1.2 53C1.2 53.1 1.2 53.1 1.2 53.2C1.2 53.3 1.3 53.5 1.4 53.5C1.4 53.6 1.5 53.6 1.6 53.6C1.7 53.6 1.7 53.6 1.8 53.6C1.9 53.6 2.1 53.5 2.2 53.4C2.3 53.3 2.3 53.2 2.3 53.1C2.3 53 2.3 52.8 2.2 52.7C1.9 52.7 1.7 52.6 1.5 52.7Z" fill="#FCB019"/>
<path d="M3.9 52.7C3.7 52.6 3.5 52.7 3.4 52.8C3.3 52.9 3.2 53 3.2 53.2C3.2 53.3 3.2 53.3 3.2 53.4C3.2 53.5 3.3 53.5 3.3 53.6C3.4 53.7 3.5 53.7 3.6 53.7C3.7 53.7 3.7 53.7 3.8 53.7C3.9 53.7 3.9 53.6 4 53.6C4 53.5 4.1 53.5 4.1 53.4C4.1 53.3 4.1 53.3 4.1 53.2C4.1 53.1 4.1 52.9 4 52.8C4 52.7 4 52.7 3.9 52.7Z" fill="#FCB019"/>
<path d="M5.5 52.7C5.4 52.7 5.4 52.8 5.3 52.8C5.2 52.8 5.2 52.9 5.2 53C5.2 53.1 5.2 53.1 5.2 53.2C5.2 53.3 5.3 53.5 5.4 53.5C5.4 53.6 5.5 53.6 5.6 53.6C5.7 53.6 5.7 53.6 5.8 53.6C5.9 53.6 6.1 53.5 6.2 53.4C6.3 53.3 6.3 53.2 6.3 53.1C6.3 53 6.3 52.8 6.2 52.7C5.9 52.7 5.7 52.6 5.5 52.7Z" fill="#FCB019"/>
<path d="M8.1 52.8C7.9 52.6 7.6 52.6 7.4 52.8C7.3 52.8 7.3 52.9 7.3 53C7.3 53.1 7.3 53.1 7.3 53.2C7.3 53.3 7.4 53.5 7.5 53.5C7.6 53.6 7.7 53.7 7.8 53.7C7.9 53.7 8.1 53.6 8.2 53.5C8.3 53.4 8.3 53.3 8.3 53.2C8.3 53.1 8.3 53.1 8.3 53C8.2 52.9 8.1 52.8 8.1 52.8Z" fill="#FCB019"/>
<path d="M9.9 52.7C9.7 52.6 9.5 52.7 9.4 52.8C9.3 52.9 9.2 53 9.2 53.2C9.2 53.3 9.3 53.5 9.4 53.5C9.5 53.6 9.6 53.7 9.7 53.7C9.8 53.7 9.8 53.7 9.9 53.7C10 53.7 10 53.6 10.1 53.6C10.2 53.5 10.2 53.4 10.2 53.3C10.2 53.2 10.2 53 10.1 52.9C10 52.7 10 52.7 9.9 52.7Z" fill="#FCB019"/>
<path d="M11.5 52.7C11.4 52.7 11.4 52.8 11.3 52.8C11.2 52.9 11.1 53 11.1 53.2C11.1 53.3 11.2 53.5 11.3 53.5C11.4 53.6 11.5 53.7 11.6 53.7C11.7 53.7 11.9 53.6 12 53.5C12.1 53.4 12.1 53.3 12.1 53.2C12.1 53.1 12.1 52.9 12 52.8C11.9 52.7 11.7 52.6 11.5 52.7Z" fill="#FCB019"/>
<path d="M13.4 52.8C13.3 52.9 13.2 53 13.2 53.2C13.2 53.3 13.2 53.3 13.2 53.4C13.2 53.5 13.3 53.5 13.3 53.6C13.4 53.7 13.5 53.8 13.6 53.8C13.7 53.8 13.9 53.7 14 53.6C14.1 53.5 14.1 53.4 14.1 53.3C14.1 53.2 14.1 53 14 52.9C13.9 52.6 13.6 52.6 13.4 52.8Z" fill="#FCB019"/>
<path d="M16.1 52.8C15.9 52.6 15.6 52.6 15.4 52.8C15.3 52.9 15.2 53 15.2 53.2C15.2 53.3 15.3 53.5 15.4 53.6C15.5 53.7 15.6 53.7 15.7 53.7C15.8 53.7 16 53.6 16.1 53.6C16.2 53.5 16.2 53.4 16.2 53.2C16.2 53.1 16.2 53.1 16.2 53C16.2 52.9 16.1 52.8 16.1 52.8Z" fill="#FCB019"/>
<path d="M17.4 52.8C17.3 52.9 17.2 53 17.2 53.2C17.2 53.3 17.3 53.5 17.4 53.5C17.5 53.6 17.6 53.7 17.7 53.7C17.8 53.7 18 53.6 18.1 53.5C18.2 53.4 18.2 53.3 18.2 53.2C18.2 53.1 18.2 52.9 18.1 52.8C17.9 52.6 17.6 52.6 17.4 52.8Z" fill="#FCB019"/>
<path d="M20.1 52.8C20 52.7 19.7 52.6 19.6 52.7C19.5 52.7 19.5 52.8 19.4 52.8C19.3 52.8 19.3 52.9 19.3 53C19.3 53.1 19.3 53.1 19.3 53.2C19.3 53.3 19.4 53.5 19.5 53.5C19.5 53.6 19.6 53.6 19.7 53.6C19.8 53.6 19.8 53.6 19.9 53.6C20 53.6 20.2 53.5 20.3 53.4C20.4 53.3 20.4 53.2 20.4 53.1C20.4 53 20.4 53 20.4 52.9C20.2 52.9 20.1 52.8 20.1 52.8Z" fill="#FCB019"/>
<path d="M22.1 52.8C21.9 52.6 21.6 52.6 21.4 52.8C21.3 52.8 21.3 52.9 21.3 53C21.3 53.1 21.3 53.1 21.3 53.2C21.3 53.3 21.4 53.5 21.5 53.5C21.6 53.6 21.7 53.7 21.8 53.7C21.9 53.7 22.1 53.6 22.2 53.5C22.3 53.4 22.3 53.3 22.3 53.2C22.3 53.1 22.3 53.1 22.3 53C22.2 52.9 22.1 52.8 22.1 52.8Z" fill="#FCB019"/>
<path d="M23.5 52.7C23.4 52.7 23.4 52.8 23.3 52.8C23.2 52.9 23.1 53 23.1 53.2C23.1 53.3 23.2 53.5 23.3 53.5C23.3 53.6 23.4 53.6 23.5 53.6C23.6 53.6 23.6 53.6 23.7 53.6C23.8 53.6 24 53.5 24.1 53.4C24.2 53.3 24.2 53.2 24.2 53.1C24.2 53 24.2 52.8 24.1 52.7C23.9 52.7 23.7 52.6 23.5 52.7Z" fill="#FCB019"/>
<path d="M25.5 52.7C25.4 52.7 25.4 52.8 25.3 52.8C25.2 52.9 25.1 53 25.1 53.2C25.1 53.3 25.2 53.5 25.3 53.5C25.3 53.6 25.4 53.6 25.5 53.6C25.6 53.6 25.6 53.6 25.7 53.6C25.8 53.6 26 53.5 26.1 53.4C26.2 53.3 26.2 53.2 26.2 53.1C26.2 53 26.2 52.8 26.1 52.7C25.9 52.7 25.7 52.6 25.5 52.7Z" fill="#FCB019"/>
<path d="M28.1 52.8C28 52.7 27.7 52.6 27.5 52.7C27.4 52.7 27.4 52.8 27.3 52.8C27.2 52.8 27.2 52.9 27.2 53C27.2 53.1 27.2 53.1 27.2 53.2C27.2 53.3 27.3 53.5 27.4 53.6C27.4 53.6 27.5 53.7 27.6 53.7C27.7 53.7 27.7 53.7 27.8 53.7C27.9 53.7 28.1 53.6 28.2 53.6C28.3 53.5 28.3 53.4 28.3 53.2C28.3 53.1 28.3 53.1 28.3 53C28.2 52.9 28.1 52.8 28.1 52.8Z" fill="#FCB019"/>
<path d="M30.1 52.8C30 52.7 30 52.7 29.9 52.7C29.7 52.6 29.5 52.7 29.4 52.8C29.3 52.8 29.3 52.9 29.3 53C29.3 53.1 29.3 53.1 29.3 53.2C29.3 53.3 29.4 53.5 29.5 53.5C29.5 53.6 29.6 53.6 29.7 53.6C29.8 53.6 29.8 53.6 29.9 53.6C30 53.6 30.2 53.5 30.3 53.4C30.4 53.3 30.4 53.2 30.4 53.1C30.4 53 30.4 53 30.4 52.9C30.2 52.9 30.1 52.8 30.1 52.8Z" fill="#FCB019"/>
<path d="M31.4 52.8C31.3 52.9 31.2 53 31.2 53.2C31.2 53.3 31.3 53.5 31.4 53.6C31.5 53.7 31.6 53.7 31.7 53.7C31.8 53.7 32 53.6 32.1 53.6C32.2 53.5 32.2 53.4 32.2 53.2C32.2 53.1 32.2 52.9 32.1 52.8C31.9 52.6 31.6 52.6 31.4 52.8Z" fill="#FCB019"/>
<path d="M33.4 52.8C33.3 52.9 33.2 53 33.2 53.2C33.2 53.3 33.3 53.5 33.4 53.6C33.5 53.7 33.6 53.7 33.7 53.7C33.8 53.7 34 53.6 34.1 53.6C34.2 53.5 34.2 53.4 34.2 53.2C34.2 53.1 34.2 52.9 34.1 52.8C33.9 52.6 33.6 52.6 33.4 52.8Z" fill="#FCB019"/>
<path d="M35.4 52.8C35.3 52.9 35.2 53 35.2 53.2C35.2 53.3 35.3 53.5 35.4 53.6C35.5 53.7 35.6 53.7 35.7 53.7C35.8 53.7 36 53.6 36.1 53.6C36.2 53.5 36.2 53.4 36.2 53.2C36.2 53.1 36.2 52.9 36.1 52.8C35.9 52.6 35.6 52.6 35.4 52.8Z" fill="#FCB019"/>
<path d="M37.4 52.8C37.3 52.9 37.2 53 37.2 53.2C37.2 53.3 37.3 53.5 37.4 53.6C37.5 53.7 37.6 53.7 37.7 53.7C37.8 53.7 38 53.6 38.1 53.6C38.2 53.5 38.2 53.4 38.2 53.2C38.2 53.1 38.2 52.9 38.1 52.8C37.9 52.6 37.6 52.6 37.4 52.8Z" fill="#FCB019"/>
<path d="M39.4 52.8C39.3 52.9 39.2 53 39.2 53.2C39.2 53.3 39.3 53.5 39.4 53.5C39.5 53.6 39.6 53.7 39.7 53.7C39.8 53.7 40 53.6 40.1 53.5C40.2 53.4 40.2 53.3 40.2 53.2C40.2 53.1 40.2 52.9 40.1 52.8C39.9 52.6 39.6 52.6 39.4 52.8Z" fill="#FCB019"/>
<path d="M41.4 52.8C41.3 52.9 41.2 53 41.2 53.2C41.2 53.3 41.3 53.5 41.4 53.6C41.5 53.7 41.6 53.7 41.7 53.7C41.8 53.7 42 53.6 42.1 53.6C42.2 53.5 42.2 53.4 42.2 53.2C42.2 53.1 42.2 52.9 42.1 52.8C41.9 52.6 41.6 52.6 41.4 52.8Z" fill="#FCB019"/>
<path d="M43.4 52.8C43.3 52.9 43.2 53 43.2 53.2C43.2 53.3 43.3 53.5 43.4 53.6C43.5 53.7 43.6 53.7 43.7 53.7C43.8 53.7 44 53.6 44.1 53.6C44.2 53.5 44.2 53.4 44.2 53.2C44.2 53.1 44.2 52.9 44.1 52.8C43.9 52.6 43.6 52.6 43.4 52.8Z" fill="#FCB019"/>
<path d="M45.4 52.8C45.3 52.9 45.2 53 45.2 53.2C45.2 53.3 45.3 53.5 45.4 53.5C45.5 53.6 45.6 53.7 45.7 53.7C45.8 53.7 46 53.6 46.1 53.5C46.2 53.4 46.2 53.3 46.2 53.2C46.2 53.1 46.2 52.9 46.1 52.8C45.9 52.6 45.6 52.6 45.4 52.8Z" fill="#FCB019"/>
<path d="M47.9 52.7C47.7 52.6 47.5 52.7 47.4 52.8C47.3 52.9 47.2 53 47.2 53.2C47.2 53.3 47.3 53.5 47.4 53.5C47.5 53.6 47.6 53.7 47.7 53.7C47.8 53.7 47.8 53.7 47.9 53.7C48 53.7 48 53.6 48.1 53.6C48.2 53.5 48.2 53.4 48.2 53.3C48.2 53.2 48.2 53 48.1 52.9C48 52.7 48 52.7 47.9 52.7Z" fill="#FCB019"/>
<path d="M49.5 52.7C49.4 52.7 49.4 52.8 49.3 52.8C49.2 52.9 49.1 53 49.1 53.2C49.1 53.3 49.2 53.5 49.3 53.5C49.3 53.6 49.4 53.6 49.5 53.6C49.6 53.6 49.6 53.6 49.7 53.6C49.8 53.6 50 53.5 50.1 53.4C50.2 53.3 50.2 53.2 50.2 53.1C50.2 53 50.2 52.8 50.1 52.7C49.9 52.7 49.7 52.6 49.5 52.7Z" fill="#FCB019"/>
<path d="M51.9 52.7C51.7 52.6 51.5 52.7 51.4 52.8C51.3 52.9 51.2 53 51.2 53.2C51.2 53.3 51.3 53.5 51.4 53.6C51.5 53.7 51.6 53.7 51.7 53.7C51.8 53.7 52 53.6 52.1 53.6C52.2 53.5 52.2 53.4 52.2 53.2C52.2 53.1 52.2 52.9 52.1 52.8C52 52.7 52 52.7 51.9 52.7Z" fill="#FCB019"/>
<path d="M54.1 52.8C53.9 52.6 53.6 52.6 53.4 52.8C53.3 52.8 53.3 52.9 53.3 53C53.3 53.1 53.3 53.1 53.3 53.2C53.3 53.3 53.4 53.5 53.5 53.5C53.6 53.6 53.7 53.7 53.8 53.7C53.9 53.7 54.1 53.6 54.2 53.5C54.3 53.4 54.3 53.3 54.3 53.2C54.3 53.1 54.3 53.1 54.3 53C54.2 52.9 54.1 52.8 54.1 52.8Z" fill="#FCB019"/>
<path d="M55.4 52.8C55.3 52.9 55.2 53 55.2 53.2C55.2 53.3 55.3 53.5 55.4 53.5C55.5 53.6 55.6 53.7 55.7 53.7C55.8 53.7 56 53.6 56.1 53.5C56.2 53.4 56.2 53.3 56.2 53.2C56.2 53.1 56.2 52.9 56.1 52.8C55.9 52.6 55.6 52.6 55.4 52.8Z" fill="#FCB019"/>
<path d="M57.4 52.8C57.3 52.9 57.2 53 57.2 53.2C57.2 53.3 57.3 53.5 57.4 53.6C57.5 53.7 57.6 53.7 57.7 53.7C57.8 53.7 57.8 53.7 57.9 53.7C58 53.7 58 53.6 58.1 53.6C58.2 53.5 58.2 53.4 58.2 53.2C58.2 53.1 58.2 52.9 58.1 52.8C57.9 52.6 57.6 52.6 57.4 52.8Z" fill="#FCB019"/>
<path d="M59.9 52.7C59.7 52.6 59.5 52.7 59.4 52.8C59.3 52.9 59.2 53 59.2 53.2C59.2 53.3 59.2 53.3 59.2 53.4C59.2 53.5 59.3 53.5 59.3 53.6C59.4 53.7 59.5 53.7 59.6 53.7C59.7 53.7 59.7 53.7 59.8 53.7C59.9 53.7 59.9 53.6 60 53.6C60.1 53.5 60.1 53.5 60.1 53.4C60.1 53.3 60.1 53.3 60.1 53.2C60.1 53.1 60.1 52.9 60 52.8C60 52.7 60 52.7 59.9 52.7Z" fill="#FCB019"/>
<path d="M61.9 52.7C61.7 52.6 61.5 52.7 61.4 52.8C61.3 52.9 61.2 53 61.2 53.2C61.2 53.3 61.2 53.3 61.2 53.4C61.2 53.5 61.3 53.5 61.3 53.6C61.4 53.7 61.5 53.7 61.6 53.7C61.7 53.7 61.7 53.7 61.8 53.7C61.9 53.7 61.9 53.6 62 53.6C62.1 53.5 62.1 53.5 62.1 53.4C62.1 53.3 62.1 53.3 62.1 53.2C62.1 53.1 62.1 52.9 62 52.8C62 52.7 62 52.7 61.9 52.7Z" fill="#FCB019"/>
<path d="M42.3 36.7C44.2 36.7 45.8 35.1 45.8 33.2C45.8 31.3 44.2 29.7 42.3 29.7C40.4 29.7 38.8 31.3 38.8 33.2C38.8 35.1 40.3 36.7 42.3 36.7ZM42.3 30.7C43.7 30.7 44.8 31.8 44.8 33.2C44.8 34.6 43.7 35.7 42.3 35.7C40.9 35.7 39.8 34.6 39.8 33.2C39.8 31.8 40.9 30.7 42.3 30.7Z" fill="black"/>
<path d="M55.1 37.4C53.7 36 51.5 36 50.2 37.4C48.8 38.8 48.8 41 50.2 42.3C50.9 43 51.7 43.3 52.7 43.3C53.6 43.3 54.5 42.9 55.2 42.3C55.9 41.7 56.2 40.8 56.2 39.8C56.1 39 55.8 38.1 55.1 37.4ZM54.4 41.7C53.5 42.6 51.8 42.6 50.9 41.7C49.9 40.7 49.9 39.1 50.9 38.2C51.4 37.7 52 37.5 52.7 37.5C53.4 37.5 54 37.7 54.5 38.2C55 38.7 55.2 39.3 55.2 40C55.1 40.6 54.9 41.2 54.4 41.7Z" fill="#00A64F"/>
<path d="M47.2 43.2L40.8 40.5C40.5 39.7 39.1 36.6 38.2 34.1C37.8 33.2 37.2 32.6 36.3 32.2L26.1 28L24.3 27.3L21.8 21.3L25.2 13C25.5 12.4 25.5 11.7 25.2 11.1C24.9 10.5 24.5 10 23.8 9.8C23.2 9.5 22.5 9.5 21.9 9.8C21.3 10.1 20.8 10.5 20.5 11.2L16.7 20.4C16.4 21 16.4 21.7 16.7 22.3L18.2 26L15.5 24.9L12.1 16.6C11.6 15.3 10.1 14.7 8.8 15.2C8.2 15.5 7.7 15.9 7.4 16.6C7.1 17.2 7.1 17.9 7.4 18.5L11.2 27.7C11.5 28.3 11.9 28.8 12.6 29.1L21 32.6C21.5 33.5 22.3 34.2 23.3 34.7L33.5 38.9C33.9 39.1 34.3 39.1 34.7 39.2L36.6 43.7C36.9 44.3 37.3 44.8 38 45.1L45.4 48.2C45.7 48.3 46 48.4 46.4 48.4C47.4 48.4 48.3 47.8 48.7 46.9C49 46.3 49 45.6 48.7 45C48.3 44 47.8 43.5 47.2 43.2ZM45.7 46.9L38.3 43.8C37.9 43.6 37.6 43.4 37.5 43L35.8 38.8L35.6 38.3L35.4 37.8L34.8 36.5C34.7 36.4 34.6 36.3 34.5 36.2C34.4 36.1 34.2 36.1 34.1 36.2C33.8 36.3 33.7 36.6 33.8 36.9L34.2 37.8C34.1 37.8 34 37.7 33.9 37.7L24.2 33.7L25.1 31.4V31.3L26 29L35.7 33C36.3 33.3 36.8 33.7 37 34.3C37.2 34.8 37.4 35.4 37.6 35.9C37.7 36.1 37.8 36.4 37.9 36.6C38.8 38.8 39.7 40.9 39.7 40.9C39.8 41 39.8 41.1 40 41.2L46.6 43.9C47 44.1 47.3 44.3 47.4 44.7C47.5 45.1 47.6 45.5 47.4 45.8C47.3 46.9 46.4 47.2 45.7 46.9ZM13.1 28C12.7 27.8 12.4 27.6 12.3 27.2L8.4 18C8.2 17.6 8.2 17.2 8.4 16.9C8.6 16.5 8.8 16.2 9.2 16.1C9.4 16 9.6 16 9.8 16C10 16 10.2 16 10.4 16.1C10.8 16.3 11.1 16.5 11.2 16.9L14.7 25.4C14.8 25.5 14.8 25.6 15 25.7L18.8 27.3L20.4 31.2L13.1 28ZM22.2 32.3C22 32.1 21.9 31.8 21.7 31.6C21.7 31.5 21.6 31.5 21.6 31.4L20.1 27.7L19.8 27L19.5 26.3L17.6 21.7C17.4 21.3 17.4 20.9 17.6 20.6L21.4 11.4C21.6 11 21.8 10.7 22.2 10.6C22.6 10.4 23 10.5 23.3 10.6C23.7 10.8 24 11 24.1 11.4C24.3 11.8 24.3 12.2 24.1 12.5L20.8 21C20.8 21.1 20.8 21.1 20.8 21.2C20.8 21.3 20.8 21.3 20.8 21.4L23.4 27.8C23.5 27.9 23.5 28 23.7 28.1L23.9 28.2L25.3 28.8L25 29.2L24.7 29.8L24.3 31L24.2 31.1L23.7 32.3L23.4 32.9L23.2 33.3C23 33.2 22.8 33.1 22.7 32.9C22.6 32.8 22.4 32.6 22.2 32.3Z" fill="black"/>
</svg>
